999
dxfrw 0.6.3
  0
SECTION
  2
HEADER
  9
$ACADVER
  1
AC1021
  9
$DWGCODEPAGE
  3
ANSI_1250
  9
$INSBASE
 10
0
 20
0
 30
0
  9
$EXTMIN
 10
-53.382519304482
 20
-46.50808021136599
 30
0
  9
$EXTMAX
 10
43.6959
 20
37.6827
 30
0
  9
$LIMMIN
 10
0
 20
0
  9
$LIMMAX
 10
420
 20
297
  9
$ORTHOMODE
 70
    0
  9
$REGENMODE
 70
    1
  9
$FILLMODE
 70
    1
  9
$QTEXTMODE
 70
    0
  9
$MIRRTEXT
 70
    0
  9
$LTSCALE
 40
1
  9
$ATTMODE
 70
    0
  9
$TEXTSIZE
 40
2.5
  9
$TRACEWID
 40
15.68
  9
$TEXTSTYLE
  7
STANDARD
  9
$CLAYER
  8
0
  9
$CELTYPE
  6
BYLAYER
  9
$CECOLOR
 62
  256
  9
$CELTSCALE
 40
1
  9
$DISPSILH
 70
    0
  9
$DIMSCALE
 40
1
  9
$DIMASZ
 40
2.5
  9
$DIMEXO
 40
0.625
  9
$DIMDLI
 40
3.75
  9
$DIMRND
 40
0
  9
$DIMDLE
 40
0
  9
$DIMEXE
 40
1.25
  9
$DIMTP
 40
0
  9
$DIMTM
 40
0
  9
$DIMTXT
 40
2.5
  9
$DIMCEN
 40
2.5
  9
$DIMTSZ
 40
0
  9
$DIMTOL
 70
    0
  9
$DIMLIM
 70
    0
  9
$DIMTIH
 70
    0
  9
$DIMTOH
 70
    0
  9
$DIMSE1
 70
    0
  9
$DIMSE2
 70
    0
  9
$DIMTAD
 70
    1
  9
$DIMZIN
 70
    8
  9
$DIMBLK
  1

  9
$DIMASO
 70
    1
  9
$DIMSHO
 70
    1
  9
$DIMPOST
  1

  9
$DIMAPOST
  1

  9
$DIMALT
 70
    0
  9
$DIMALTD
 70
    3
  9
$DIMALTF
 40
0.03937
  9
$DIMLFAC
 40
1
  9
$DIMTOFL
 70
    1
  9
$DIMTVP
 40
0
  9
$DIMTIX
 70
    0
  9
$DIMSOXD
 70
    0
  9
$DIMSAH
 70
    0
  9
$DIMBLK1
  1

  9
$DIMBLK2
  1

  9
$DIMSTYLE
  2
Standard
  9
$DIMCLRD
 70
    0
  9
$DIMCLRE
 70
    0
  9
$DIMCLRT
 70
    0
  9
$DIMTFAC
 40
1
  9
$DIMGAP
 40
0.625
  9
$DIMJUST
 70
    0
  9
$DIMSD1
 70
    0
  9
$DIMSD2
 70
    0
  9
$DIMTOLJ
 70
    0
  9
$DIMTZIN
 70
    8
  9
$DIMALTZ
 70
    0
  9
$DIMALTTZ
 70
    0
  9
$DIMUPT
 70
    0
  9
$DIMDEC
 70
    2
  9
$DIMTDEC
 70
    2
  9
$DIMALTU
 70
    2
  9
$DIMALTTD
 70
    3
  9
$DIMTXSTY
  7
STANDARD
  9
$DIMAUNIT
 70
    0
  9
$DIMADEC
 70
    0
  9
$DIMALTRND
 40
0
  9
$DIMAZIN
 70
    0
  9
$DIMDSEP
 70
   44
  9
$DIMATFIT
 70
    3
  9
$DIMFRAC
 70
    0
  9
$DIMLDRBLK
  1
STANDARD
  9
$DIMLUNIT
 70
    2
  9
$DIMLWD
 70
   -2
  9
$DIMLWE
 70
   -2
  9
$DIMTMOVE
 70
    0
  9
$DIMFXL
 40
1
  9
$DIMFXLON
 70
    0
  9
$DIMJOGANG
 40
0.7854
  9
$DIMTFILL
 70
    0
  9
$DIMTFILLCLR
 70
    0
  9
$DIMARCSYM
 70
    0
  9
$DIMLTYPE
  6

  9
$DIMLTEX1
  6

  9
$DIMLTEX2
  6

  9
$LUNITS
 70
    2
  9
$LUPREC
 70
    4
  9
$SKETCHINC
 40
1
  9
$FILLETRAD
 40
0
  9
$AUNITS
 70
    0
  9
$AUPREC
 70
    2
  9
$MENU
  1
.
  9
$ELEVATION
 40
0
  9
$PELEVATION
 40
0
  9
$THICKNESS
 40
0
  9
$LIMCHECK
 70
    0
  9
$CHAMFERA
 40
0
  9
$CHAMFERB
 40
0
  9
$CHAMFERC
 40
0
  9
$CHAMFERD
 40
0
  9
$SKPOLY
 70
    0
  9
$USRTIMER
 70
    1
  9
$ANGBASE
 50
0
  9
$ANGDIR
 70
    0
  9
$PDMODE
 70
   34
  9
$PDSIZE
 40
0
  9
$PLINEWID
 40
0
  9
$SPLFRAME
 70
    0
  9
$SPLINETYPE
 70
    2
  9
$SPLINESEGS
 70
    8
  9
$HANDSEED
  5
20000
  9
$SURFTAB1
 70
    6
  9
$SURFTAB2
 70
    6
  9
$SURFTYPE
 70
    6
  9
$SURFU
 70
    6
  9
$SURFV
 70
    6
  9
$UCSBASE
  2

  9
$UCSNAME
  2

  9
$UCSORG
 10
0
 20
0
 30
0
  9
$UCSXDIR
 10
1
 20
0
 30
0
  9
$UCSYDIR
 10
0
 20
1
 30
0
  9
$UCSORTHOREF
  2

  9
$UCSORTHOVIEW
 70
    0
  9
$UCSORGTOP
 10
0
 20
0
 30
0
  9
$UCSORGBOTTOM
 10
0
 20
0
 30
0
  9
$UCSORGLEFT
 10
0
 20
0
 30
0
  9
$UCSORGRIGHT
 10
0
 20
0
 30
0
  9
$UCSORGFRONT
 10
0
 20
0
 30
0
  9
$UCSORGBACK
 10
0
 20
0
 30
0
  9
$PUCSBASE
  2

  9
$PUCSNAME
  2

  9
$PUCSORG
 10
0
 20
0
 30
0
  9
$PUCSXDIR
 10
1
 20
0
 30
0
  9
$PUCSYDIR
 10
0
 20
1
 30
0
  9
$PUCSORTHOREF
  2

  9
$PUCSORTHOVIEW
 70
    0
  9
$PUCSORGTOP
 10
0
 20
0
 30
0
  9
$PUCSORGBOTTOM
 10
0
 20
0
 30
0
  9
$PUCSORGLEFT
 10
0
 20
0
 30
0
  9
$PUCSORGRIGHT
 10
0
 20
0
 30
0
  9
$PUCSORGFRONT
 10
0
 20
0
 30
0
  9
$PUCSORGBACK
 10
0
 20
0
 30
0
  9
$USERI1
 70
    0
  9
$USERI2
 70
    0
  9
$USERI3
 70
    0
  9
$USERI4
 70
    0
  9
$USERI5
 70
    0
  9
$USERR1
 40
0
  9
$USERR2
 40
0
  9
$USERR3
 40
0
  9
$USERR4
 40
0
  9
$USERR5
 40
0
  9
$WORLDVIEW
 70
    1
  9
$SHADEDGE
 70
    3
  9
$SHADEDIF
 70
   70
  9
$TILEMODE
 70
    1
  9
$MAXACTVP
 70
   64
  9
$PINSBASE
 10
0
 20
0
 30
0
  9
$PLIMCHECK
 70
    0
  9
$PEXTMIN
 10
0
 20
0
 30
0
  9
$PEXTMAX
 10
0
 20
0
 30
0
  9
$SNAPSTYLE
 70
    0
  9
$PLIMMIN
 10
0
 20
0
  9
$PLIMMAX
 10
0.4724377648
 20
0.3543283235999999
  9
$UNITMODE
 70
    0
  9
$VISRETAIN
 70
    1
  9
$PLINEGEN
 70
    0
  9
$PSLTSCALE
 70
    1
  9
$TREEDEPTH
 70
 3020
  9
$CMLSTYLE
  2
Standard
  9
$CMLJUST
 70
    0
  9
$CMLSCALE
 40
20
  9
$PROXYGRAPHICS
 70
    1
  9
$MEASUREMENT
 70
    1
  9
$CELWEIGHT
370
   -1
  9
$ENDCAPS
280
    0
  9
$JOINSTYLE
280
    0
  9
$LWDISPLAY
290
    0
  9
$INSUNITS
 70
    0
  9
$HYPERLINKBASE
  1

  9
$STYLESHEET
  1

  9
$XEDIT
290
    1
  9
$CEPSNTYPE
380
    0
  9
$PSTYLEMODE
290
    1
  9
$EXTNAMES
290
    1
  9
$PSVPSCALE
 40
1
  9
$OLESTARTUP
290
    0
  9
$SORTENTS
280
  127
  9
$INDEXCTL
280
    0
  9
$HIDETEXT
280
    1
  9
$XCLIPFRAME
290
    0
  9
$HALOGAP
280
    0
  9
$OBSCOLOR
 70
  257
  9
$OBSLTYPE
280
    0
  9
$INTERSECTIONDISPLAY
280
    0
  9
$INTERSECTIONCOLOR
 70
  257
  9
$DIMASSOC
280
    1
  9
$PROJECTNAME
  1

  9
$CAMERADISPLAY
290
    0
  9
$LENSLENGTH
 40
50
  9
$CAMERAHEIGHT
 40
0
  9
$STEPSPERSEC
 40
2
  9
$STEPSIZE
 40
50
  9
$3DDWFPREC
 40
2
  9
$PSOLWIDTH
 40
5
  9
$PSOLHEIGHT
 40
80
  9
$LOFTANG1
 40
1.570796326794897
  9
$LOFTANG2
 40
1.570796326794897
  9
$LOFTMAG1
 40
0
  9
$LOFTMAG2
 40
0
  9
$LOFTPARAM
 70
    7
  9
$LOFTNORMALS
280
    1
  9
$LATITUDE
 40
1
  9
$LONGITUDE
 40
1
  9
$NORTHDIRECTION
 40
0
  9
$TIMEZONE
 70
-8000
  9
$LIGHTGLYPHDISPLAY
280
    1
  9
$TILEMODELIGHTSYNCH
280
    1
  9
$SOLIDHIST
280
    1
  9
$SHOWHIST
280
    1
  9
$DWFFRAME
280
    2
  9
$DGNFRAME
280
    0
  9
$REALWORLDSCALE
290
    1
  9
$INTERFERECOLOR
 62
    1
  9
$CSHADOW
280
    0
  9
$SHADOWPLANELOCATION
 40
0
  0
ENDSEC
  0
SECTION
  2
CLASSES
  0
ENDSEC
  0
SECTION
  2
TABLES
  0
TABLE
  2
VPORT
  5
8
330
0
100
AcDbSymbolTable
 70
    1
  0
VPORT
  5
31
330
2
100
AcDbSymbolTableRecord
100
AcDbViewportTableRecord
  2
*ACTIVE
 70
    0
 10
0
 20
0
 11
1
 21
1
 12
36.07126203073119
 22
19.37823382047966
 13
0
 23
0
 14
10
 24
10
 15
10
 25
10
 16
0
 26
0
 36
1
 17
0
 27
0
 37
0
 40
73.21660630555363
 41
1.787286063569682
 42
50
 43
0
 44
0
 50
0
 51
0
 71
    0
 72
  100
 73
    1
 74
    3
 75
    0
 76
    1
 77
    0
 78
    0
281
    0
 65
    1
110
0
120
0
130
0
111
1
121
0
131
0
112
0
122
1
132
0
 79
    0
146
0
348
10020
 60
    7
 61
    5
292
1
282
    1
141
0
142
0
 63
  250
421
3358443
  0
ENDTAB
  0
TABLE
  2
LTYPE
  5
5
330
0
100
AcDbSymbolTable
 70
    4
  0
LTYPE
  5
14
330
5
100
AcDbSymbolTableRecord
100
AcDbLinetypeTableRecord
  2
ByBlock
 70
    0
  3

 72
   65
 73
    0
 40
0
  0
LTYPE
  5
15
330
5
100
AcDbSymbolTableRecord
100
AcDbLinetypeTableRecord
  2
ByLayer
 70
    0
  3

 72
   65
 73
    0
 40
0
  0
LTYPE
  5
16
330
5
100
AcDbSymbolTableRecord
100
AcDbLinetypeTableRecord
  2
Continuous
 70
    0
  3
Solid line
 72
   65
 73
    0
 40
0
  0
LTYPE
  5
32
330
5
100
AcDbSymbolTableRecord
100
AcDbLinetypeTableRecord
  2
DOT
 70
    0
  3
Dot . . . . . . . . . . . . . . . . . . . . . .
 72
   65
 73
    2
 40
6.35
 49
0
 74
    0
 49
-6.35
 74
    0
  0
LTYPE
  5
33
330
5
100
AcDbSymbolTableRecord
100
AcDbLinetypeTableRecord
  2
DOTTINY
 70
    0
  3
Dot (.15x) .....................................
 72
   65
 73
    2
 40
0.9525
 49
0
 74
    0
 49
-0.9525
 74
    0
  0
LTYPE
  5
34
330
5
100
AcDbSymbolTableRecord
100
AcDbLinetypeTableRecord
  2
DOT2
 70
    0
  3
Dot (.5x) .....................................
 72
   65
 73
    2
 40
3.175
 49
0
 74
    0
 49
-3.175
 74
    0
  0
LTYPE
  5
35
330
5
100
AcDbSymbolTableRecord
100
AcDbLinetypeTableRecord
  2
DOTX2
 70
    0
  3
Dot (2x) .  .  .  .  .  .  .  .  .  .  .  .  .
 72
   65
 73
    2
 40
12.7
 49
0
 74
    0
 49
-12.7
 74
    0
  0
LTYPE
  5
36
330
5
100
AcDbSymbolTableRecord
100
AcDbLinetypeTableRecord
  2
DASHED
 70
    0
  3
Dashed _ _ _ _ _ _ _ _ _ _ _ _ _ _ _ _ _
 72
   65
 73
    2
 40
19.05
 49
12.7
 74
    0
 49
-6.35
 74
    0
  0
LTYPE
  5
37
330
5
100
AcDbSymbolTableRecord
100
AcDbLinetypeTableRecord
  2
DASHEDTINY
 70
    0
  3
Dashed (.15x) _ _ _ _ _ _ _ _ _ _ _ _ _ _ _ _ _
 72
   65
 73
    2
 40
2.8575
 49
1.905
 74
    0
 49
-0.9525
 74
    0
  0
LTYPE
  5
38
330
5
100
AcDbSymbolTableRecord
100
AcDbLinetypeTableRecord
  2
DASHED2
 70
    0
  3
Dashed (.5x) _ _ _ _ _ _ _ _ _ _ _ _ _ _ _ _ _
 72
   65
 73
    2
 40
9.524999999999999
 49
6.35
 74
    0
 49
-3.175
 74
    0
  0
LTYPE
  5
39
330
5
100
AcDbSymbolTableRecord
100
AcDbLinetypeTableRecord
  2
DASHEDX2
 70
    0
  3
Dashed (2x) ____  ____  ____  ____  ____  ___
 72
   65
 73
    2
 40
38.09999999999999
 49
25.4
 74
    0
 49
-12.7
 74
    0
  0
LTYPE
  5
3A
330
5
100
AcDbSymbolTableRecord
100
AcDbLinetypeTableRecord
  2
DASHDOT
 70
    0
  3
Dash dot __ . __ . __ . __ . __ . __ . __ . __
 72
   65
 73
    4
 40
25.4
 49
12.7
 74
    0
 49
-6.35
 74
    0
 49
0
 74
    0
 49
-6.35
 74
    0
  0
LTYPE
  5
3B
330
5
100
AcDbSymbolTableRecord
100
AcDbLinetypeTableRecord
  2
DASHDOTTINY
 70
    0
  3
Dash dot (.15x) _._._._._._._._._._._._._._._.
 72
   65
 73
    4
 40
3.81
 49
1.905
 74
    0
 49
-0.9525
 74
    0
 49
0
 74
    0
 49
-0.9525
 74
    0
  0
LTYPE
  5
3C
330
5
100
AcDbSymbolTableRecord
100
AcDbLinetypeTableRecord
  2
DASHDOT2
 70
    0
  3
Dash dot (.5x) _._._._._._._._._._._._._._._.
 72
   65
 73
    4
 40
12.7
 49
6.35
 74
    0
 49
-3.175
 74
    0
 49
0
 74
    0
 49
-3.175
 74
    0
  0
LTYPE
  5
3D
330
5
100
AcDbSymbolTableRecord
100
AcDbLinetypeTableRecord
  2
DASHDOTX2
 70
    0
  3
Dash dot (2x) ____  .  ____  .  ____  .  ___
 72
   65
 73
    4
 40
50.8
 49
25.4
 74
    0
 49
-12.7
 74
    0
 49
0
 74
    0
 49
-12.7
 74
    0
  0
LTYPE
  5
3E
330
5
100
AcDbSymbolTableRecord
100
AcDbLinetypeTableRecord
  2
DIVIDE
 70
    0
  3
Divide ____ . . ____ . . ____ . . ____ . . ____
 72
   65
 73
    6
 40
31.75
 49
12.7
 74
    0
 49
-6.35
 74
    0
 49
0
 74
    0
 49
-6.35
 74
    0
 49
0
 74
    0
 49
-6.35
 74
    0
  0
LTYPE
  5
3F
330
5
100
AcDbSymbolTableRecord
100
AcDbLinetypeTableRecord
  2
DIVIDETINY
 70
    0
  3
Divide (.15x) __..__..__..__..__..__..__..__.._
 72
   65
 73
    6
 40
4.7625
 49
1.905
 74
    0
 49
-0.9525
 74
    0
 49
0
 74
    0
 49
-0.9525
 74
    0
 49
0
 74
    0
 49
-0.9525
 74
    0
  0
LTYPE
  5
40
330
5
100
AcDbSymbolTableRecord
100
AcDbLinetypeTableRecord
  2
DIVIDE2
 70
    0
  3
Divide (.5x) __..__..__..__..__..__..__..__.._
 72
   65
 73
    6
 40
15.875
 49
6.35
 74
    0
 49
-3.175
 74
    0
 49
0
 74
    0
 49
-3.175
 74
    0
 49
0
 74
    0
 49
-3.175
 74
    0
  0
LTYPE
  5
41
330
5
100
AcDbSymbolTableRecord
100
AcDbLinetypeTableRecord
  2
DIVIDEX2
 70
    0
  3
Divide (2x) ________  .  .  ________  .  .  _
 72
   65
 73
    6
 40
63.5
 49
25.4
 74
    0
 49
-12.7
 74
    0
 49
0
 74
    0
 49
-12.7
 74
    0
 49
0
 74
    0
 49
-12.7
 74
    0
  0
LTYPE
  5
42
330
5
100
AcDbSymbolTableRecord
100
AcDbLinetypeTableRecord
  2
BORDER
 70
    0
  3
Border __ __ . __ __ . __ __ . __ __ . __ __ .
 72
   65
 73
    6
 40
44.45
 49
12.7
 74
    0
 49
-6.35
 74
    0
 49
12.7
 74
    0
 49
-6.35
 74
    0
 49
0
 74
    0
 49
-6.35
 74
    0
  0
LTYPE
  5
43
330
5
100
AcDbSymbolTableRecord
100
AcDbLinetypeTableRecord
  2
BORDERTINY
 70
    0
  3
Border (.15x) __.__.__.__.__.__.__.__.__.__.__.
 72
   65
 73
    6
 40
6.6675
 49
1.905
 74
    0
 49
-0.9525
 74
    0
 49
1.905
 74
    0
 49
-0.9525
 74
    0
 49
0
 74
    0
 49
-0.9525
 74
    0
  0
LTYPE
  5
44
330
5
100
AcDbSymbolTableRecord
100
AcDbLinetypeTableRecord
  2
BORDER2
 70
    0
  3
Border (.5x) __.__.__.__.__.__.__.__.__.__.__.
 72
   65
 73
    6
 40
22.225
 49
6.35
 74
    0
 49
-3.175
 74
    0
 49
6.35
 74
    0
 49
-3.175
 74
    0
 49
0
 74
    0
 49
-3.175
 74
    0
  0
LTYPE
  5
45
330
5
100
AcDbSymbolTableRecord
100
AcDbLinetypeTableRecord
  2
BORDERX2
 70
    0
  3
Border (2x) ____  ____  .  ____  ____  .  ___
 72
   65
 73
    6
 40
88.89999999999999
 49
25.4
 74
    0
 49
-12.7
 74
    0
 49
25.4
 74
    0
 49
-12.7
 74
    0
 49
0
 74
    0
 49
-12.7
 74
    0
  0
LTYPE
  5
46
330
5
100
AcDbSymbolTableRecord
100
AcDbLinetypeTableRecord
  2
CENTER
 70
    0
  3
Center ____ _ ____ _ ____ _ ____ _ ____ _ ____
 72
   65
 73
    4
 40
50.8
 49
31.75
 74
    0
 49
-6.35
 74
    0
 49
6.35
 74
    0
 49
-6.35
 74
    0
  0
LTYPE
  5
47
330
5
100
AcDbSymbolTableRecord
100
AcDbLinetypeTableRecord
  2
CENTERTINY
 70
    0
  3
Center (.15x) ___ _ ___ _ ___ _ ___ _ ___ _ ___
 72
   65
 73
    4
 40
7.619999999999999
 49
4.7625
 74
    0
 49
-0.9525
 74
    0
 49
0.9525
 74
    0
 49
-0.9525
 74
    0
  0
LTYPE
  5
48
330
5
100
AcDbSymbolTableRecord
100
AcDbLinetypeTableRecord
  2
CENTER2
 70
    0
  3
Center (.5x) ___ _ ___ _ ___ _ ___ _ ___ _ ___
 72
   65
 73
    4
 40
28.575
 49
19.05
 74
    0
 49
-3.175
 74
    0
 49
3.175
 74
    0
 49
-3.175
 74
    0
  0
LTYPE
  5
49
330
5
100
AcDbSymbolTableRecord
100
AcDbLinetypeTableRecord
  2
CENTERX2
 70
    0
  3
Center (2x) ________  __  ________  __  _____
 72
   65
 73
    4
 40
101.6
 49
63.5
 74
    0
 49
-12.7
 74
    0
 49
12.7
 74
    0
 49
-12.7
 74
    0
  0
ENDTAB
  0
TABLE
  2
LAYER
  5
2
330
0
100
AcDbSymbolTable
 70
    1
  0
LAYER
  5
10
330
2
100
AcDbSymbolTableRecord
100
AcDbLayerTableRecord
  2
0
 70
    0
 62
    7
  6
CONTINUOUS
370
    0
390
F
  0
LAYER
  5
4A
330
2
100
AcDbSymbolTableRecord
100
AcDbLayerTableRecord
  2
1
 70
    0
 62
    1
  6
CONTINUOUS
370
    0
390
F
  0
ENDTAB
  0
TABLE
  2
STYLE
  5
3
330
0
100
AcDbSymbolTable
 70
    3
  0
STYLE
  5
4B
330
2
100
AcDbSymbolTableRecord
100
AcDbTextStyleTableRecord
  2
Standard
 70
    0
 40
0
 41
1
 50
0
 71
    0
 42
1
  3
txt
  4

  0
ENDTAB
  0
TABLE
  2
VIEW
  5
6
330
0
100
AcDbSymbolTable
 70
    0
  0
ENDTAB
  0
TABLE
  2
UCS
  5
7
330
0
100
AcDbSymbolTable
 70
    0
  0
ENDTAB
  0
TABLE
  2
APPID
  5
9
330
0
100
AcDbSymbolTable
 70
    1
  0
APPID
  5
12
330
9
100
AcDbSymbolTableRecord
100
AcDbRegAppTableRecord
  2
ACAD
 70
    0
  0
APPID
  5
4C
330
9
100
AcDbSymbolTableRecord
100
AcDbRegAppTableRecord
  2
LibreCad
 70
    0
  0
ENDTAB
  0
TABLE
  2
DIMSTYLE
  5
A
330
0
100
AcDbSymbolTable
 70
    1
100
AcDbDimStyleTable
 71
    1
  0
DIMSTYLE
105
4D
330
A
100
AcDbSymbolTableRecord
100
AcDbDimStyleTableRecord
  2
Standard
 70
    0
 40
1
 41
2.5
 42
0.625
 43
0.38
 44
1.25
 45
0
 46
0
 47
0
 48
0
 49
1
140
2.5
141
0.09
142
0
143
25.4
144
1
145
0
146
1
147
0.625
148
0
 71
    0
 72
    0
 73
    0
 74
    1
 75
    0
 76
    0
 77
    0
 78
    1
 79
    0
170
    0
171
    2
172
    0
173
    0
174
    0
175
    0
176
    0
177
    0
178
    0
179
    0
271
    2
272
    4
273
    2
274
    2
275
    0
276
    0
277
    2
278
    0
279
    0
280
    0
281
    0
282
    0
283
    1
284
    0
285
    0
286
    0
288
    0
289
    3
340
standard
341

371
   -2
372
   -2
  0
ENDTAB
  0
TABLE
  2
BLOCK_RECORD
  5
1
330
0
100
AcDbSymbolTable
 70
    2
  0
BLOCK_RECORD
  5
1F
330
1
100
AcDbSymbolTableRecord
100
AcDbBlockTableRecord
  2
*Model_Space
 70
    0
280
    1
281
    0
  0
BLOCK_RECORD
  5
1E
330
1
100
AcDbSymbolTableRecord
100
AcDbBlockTableRecord
  2
*Paper_Space
 70
    0
280
    1
281
    0
  0
BLOCK_RECORD
  5
4E
330
1
100
AcDbSymbolTableRecord
100
AcDbBlockTableRecord
  2
*D2
 70
    0
280
    1
281
    0
  0
BLOCK_RECORD
  5
51
330
1
100
AcDbSymbolTableRecord
100
AcDbBlockTableRecord
  2
*D1
 70
    0
280
    1
281
    0
  0
ENDTAB
  0
ENDSEC
  0
SECTION
  2
BLOCKS
  0
BLOCK
  5
20
330
1F
100
AcDbEntity
  8
0
100
AcDbBlockBegin
  2
*Model_Space
 70
    0
 10
0
 20
0
 30
0
  3
*Model_Space
  1

  0
ENDBLK
  5
21
330
1F
100
AcDbEntity
  8
0
100
AcDbBlockEnd
  0
BLOCK
  5
1C
330
1B
100
AcDbEntity
  8
0
100
AcDbBlockBegin
  2
*Paper_Space
 70
    0
 10
0
 20
0
 30
0
  3
*Paper_Space
  1

  0
ENDBLK
  5
1D
330
1F
100
AcDbEntity
  8
0
100
AcDbBlockEnd
  0
BLOCK
  5
4F
330
4E
100
AcDbEntity
  8
0
100
AcDbBlockBegin
  2
*D2
 70
    1
 10
0
 20
0
  3
*D2
  1

  0
LINE
  5
54
100
AcDbEntity
  8
1
  6
ByBlock
 62
    0
370
   -2
100
AcDbLine
 10
-41.16060000000002
 20
-45.25808021136599
 11
41.2
 21
-45.25808021136599
  0
SOLID
  5
55
100
AcDbEntity
  8
1
  6
ByBlock
 62
    0
370
   -2
100
AcDbTrace
 10
-41.16060000000002
 20
-45.25808021136599
 30
0
 11
-38.66060000000002
 21
-44.84179555359314
 31
0
 12
-38.66060000000002
 22
-45.67436486913883
 32
0
 13
-38.66060000000002
 23
-45.67436486913883
 33
0
  0
SOLID
  5
56
100
AcDbEntity
  8
1
  6
ByBlock
 62
    0
370
   -2
100
AcDbTrace
 10
41.2
 20
-45.25808021136599
 30
0
 11
38.7
 21
-45.67436486913883
 31
0
 12
38.7
 22
-44.84179555359314
 32
0
 13
38.7
 23
-44.84179555359314
 33
0
  0
MTEXT
  5
57
100
AcDbEntity
  8
1
  6
CONTINUOUS
 62
    0
370
   -2
100
AcDbMText
 10
0.01969999999999328
 20
-43.38308021136599
 30
0
 40
2.5
 41
11.66666666666713
 71
    5
 72
    1
  1
82.3606
  7
standard
210
0
220
0
230
1
 50
0
 73
    2
 44
1
  0
LINE
  5
58
100
AcDbEntity
  8
1
  6
ByBlock
 62
    0
370
   -2
100
AcDbLine
 10
-41.1606
 20
-31.4517
 11
-41.16060000000002
 21
-46.50808021136599
  0
LINE
  5
59
100
AcDbEntity
  8
1
  6
ByBlock
 62
    0
370
   -2
100
AcDbLine
 10
41.2
 20
-30.825
 11
41.2
 21
-46.50808021136599
  0
ENDBLK
  5
50
330
4E
100
AcDbEntity
  8
0
100
AcDbBlockEnd
  0
BLOCK
  5
52
330
51
100
AcDbEntity
  8
0
100
AcDbBlockBegin
  2
*D1
 70
    1
 10
0
 20
0
  3
*D1
  1

  0
LINE
  5
5A
100
AcDbEntity
  8
1
  6
ByBlock
 62
    0
370
   -2
100
AcDbLine
 10
-50.257519304482
 20
35.1901
 11
-50.257519304482
 21
-35.1901
  0
SOLID
  5
5B
100
AcDbEntity
  8
1
  6
ByBlock
 62
    0
370
   -2
100
AcDbTrace
 10
-50.257519304482
 20
35.1901
 30
0
 11
-49.84123464670915
 21
32.6901
 31
0
 12
-50.67380396225484
 22
32.6901
 32
0
 13
-50.67380396225484
 23
32.6901
 33
0
  0
SOLID
  5
5C
100
AcDbEntity
  8
1
  6
ByBlock
 62
    0
370
   -2
100
AcDbTrace
 10
-50.257519304482
 20
-35.1901
 30
0
 11
-50.67380396225484
 21
-32.6901
 31
0
 12
-49.84123464670916
 22
-32.6901
 32
0
 13
-49.84123464670916
 23
-32.6901
 33
0
  0
MTEXT
  5
5D
100
AcDbEntity
  8
1
  6
CONTINUOUS
 62
    0
370
   -2
100
AcDbMText
 10
-52.132519304482
 20
2.296212748401287e-16
 30
0
 40
2.5
 41
11.66666666666682
 71
    5
 72
    1
  1
70.3802
  7
standard
210
0
220
0
230
1
 50
90
 73
    2
 44
1
  0
LINE
  5
5E
100
AcDbEntity
  8
1
  6
ByBlock
 62
    0
370
   -2
100
AcDbLine
 10
-37.139
 20
35.1901
 11
-51.507519304482
 21
35.1901
  0
LINE
  5
5F
100
AcDbEntity
  8
1
  6
ByBlock
 62
    0
370
   -2
100
AcDbLine
 10
-37.139
 20
-35.1901
 11
-51.507519304482
 21
-35.1901
  0
ENDBLK
  5
53
330
51
100
AcDbEntity
  8
0
100
AcDbBlockEnd
  0
ENDSEC
  0
SECTION
  2
ENTITIES
  0
LINE
  5
60
100
AcDbEntity
  8
1
  6
ByLayer
 62
  256
370
   -1
100
AcDbLine
 10
-43.6959
 20
-31
 11
-43.659
 21
-31.5863
  0
LINE
  5
61
100
AcDbEntity
  8
1
  6
ByLayer
 62
  256
370
   -1
100
AcDbLine
 10
-43.659
 20
-31.5863
 11
-43.6431
 21
-31.8392
  0
LINE
  5
62
100
AcDbEntity
  8
1
  6
ByLayer
 62
  256
370
   -1
100
AcDbLine
 10
-43.6431
 20
-31.8392
 11
-43.5956
 21
-32.0881
  0
LINE
  5
63
100
AcDbEntity
  8
1
  6
ByLayer
 62
  256
370
   -1
100
AcDbLine
 10
-43.5956
 20
-32.0881
 11
-43.4855
 21
-32.6652
  0
LINE
  5
64
100
AcDbEntity
  8
1
  6
ByLayer
 62
  256
370
   -1
100
AcDbLine
 10
-43.4855
 20
-32.6652
 11
-43.304
 21
-33.2239
  0
LINE
  5
65
100
AcDbEntity
  8
1
  6
ByLayer
 62
  256
370
   -1
100
AcDbLine
 10
-43.304
 20
-33.2239
 11
-43.2257
 21
-33.4649
  0
LINE
  5
66
100
AcDbEntity
  8
1
  6
ByLayer
 62
  256
370
   -1
100
AcDbLine
 10
-43.2257
 20
-33.4649
 11
-43.1178
 21
-33.6942
  0
LINE
  5
67
100
AcDbEntity
  8
1
  6
ByLayer
 62
  256
370
   -1
100
AcDbLine
 10
-43.1178
 20
-33.6942
 11
-42.8676
 21
-34.2258
  0
LINE
  5
68
100
AcDbEntity
  8
1
  6
ByLayer
 62
  256
370
   -1
100
AcDbLine
 10
-42.8676
 20
-34.2258
 11
-42.7319
 21
-34.4397
  0
LINE
  5
69
100
AcDbEntity
  8
1
  6
ByLayer
 62
  256
370
   -1
100
AcDbLine
 10
-42.7319
 20
-34.4397
 11
-42.4171
 21
-34.9357
  0
LINE
  5
6A
100
AcDbEntity
  8
1
  6
ByLayer
 62
  256
370
   -1
100
AcDbLine
 10
-42.4171
 20
-34.9357
 11
-42.0426
 21
-35.3884
  0
LINE
  5
6B
100
AcDbEntity
  8
1
  6
ByLayer
 62
  256
370
   -1
100
AcDbLine
 10
-42.0426
 20
-35.3884
 11
-41.8811
 21
-35.5836
  0
LINE
  5
6C
100
AcDbEntity
  8
1
  6
ByLayer
 62
  256
370
   -1
100
AcDbLine
 10
-41.8811
 20
-35.5836
 11
-41.4528
 21
-35.9858
  0
LINE
  5
6D
100
AcDbEntity
  8
1
  6
ByLayer
 62
  256
370
   -1
100
AcDbLine
 10
-41.4528
 20
-35.9858
 11
-41.2681
 21
-36.1593
  0
LINE
  5
6E
100
AcDbEntity
  8
1
  6
ByLayer
 62
  256
370
   -1
100
AcDbLine
 10
-41.2681
 20
-36.1593
 11
-41.0631
 21
-36.3082
  0
LINE
  5
6F
100
AcDbEntity
  8
1
  6
ByLayer
 62
  256
370
   -1
100
AcDbLine
 10
-41.0631
 20
-36.3082
 11
-40.5878
 21
-36.6535
  0
LINE
  5
70
100
AcDbEntity
  8
1
  6
ByLayer
 62
  256
370
   -1
100
AcDbLine
 10
-40.5878
 20
-36.6535
 11
-40.073
 21
-36.9365
  0
LINE
  5
71
100
AcDbEntity
  8
1
  6
ByLayer
 62
  256
370
   -1
100
AcDbLine
 10
-40.073
 20
-36.9365
 11
-39.851
 21
-37.0586
  0
LINE
  5
72
100
AcDbEntity
  8
1
  6
ByLayer
 62
  256
370
   -1
100
AcDbLine
 10
-39.851
 20
-37.0586
 11
-39.3047
 21
-37.2749
  0
LINE
  5
73
100
AcDbEntity
  8
1
  6
ByLayer
 62
  256
370
   -1
100
AcDbLine
 10
-39.3047
 20
-37.2749
 11
-39.0691
 21
-37.3682
  0
LINE
  5
74
100
AcDbEntity
  8
1
  6
ByLayer
 62
  256
370
   -1
100
AcDbLine
 10
-39.0691
 20
-37.3682
 11
-38.8237
 21
-37.4312
  0
LINE
  5
75
100
AcDbEntity
  8
1
  6
ByLayer
 62
  256
370
   -1
100
AcDbLine
 10
-38.8237
 20
-37.4312
 11
-38.2547
 21
-37.5773
  0
LINE
  5
76
100
AcDbEntity
  8
1
  6
ByLayer
 62
  256
370
   -1
100
AcDbLine
 10
-38.2547
 20
-37.5773
 11
-38.0033
 21
-37.609
  0
LINE
  5
77
100
AcDbEntity
  8
1
  6
ByLayer
 62
  256
370
   -1
100
AcDbLine
 10
-38.0033
 20
-37.609
 11
-37.4204
 21
-37.6827
  0
LINE
  5
78
100
AcDbEntity
  8
1
  6
ByLayer
 62
  256
370
   -1
100
AcDbLine
 10
-37.4204
 20
-37.6827
 11
37.4204
 21
-37.6827
  0
LINE
  5
79
100
AcDbEntity
  8
1
  6
ByLayer
 62
  256
370
   -1
100
AcDbLine
 10
37.4204
 20
-37.6827
 11
38.0033
 21
-37.609
  0
LINE
  5
7A
100
AcDbEntity
  8
1
  6
ByLayer
 62
  256
370
   -1
100
AcDbLine
 10
38.0033
 20
-37.609
 11
38.2547
 21
-37.5773
  0
LINE
  5
7B
100
AcDbEntity
  8
1
  6
ByLayer
 62
  256
370
   -1
100
AcDbLine
 10
38.2547
 20
-37.5773
 11
38.8237
 21
-37.4312
  0
LINE
  5
7C
100
AcDbEntity
  8
1
  6
ByLayer
 62
  256
370
   -1
100
AcDbLine
 10
38.8237
 20
-37.4312
 11
39.0691
 21
-37.3682
  0
LINE
  5
7D
100
AcDbEntity
  8
1
  6
ByLayer
 62
  256
370
   -1
100
AcDbLine
 10
39.0691
 20
-37.3682
 11
39.3047
 21
-37.2749
  0
LINE
  5
7E
100
AcDbEntity
  8
1
  6
ByLayer
 62
  256
370
   -1
100
AcDbLine
 10
39.3047
 20
-37.2749
 11
39.851
 21
-37.0586
  0
LINE
  5
7F
100
AcDbEntity
  8
1
  6
ByLayer
 62
  256
370
   -1
100
AcDbLine
 10
39.851
 20
-37.0586
 11
40.073
 21
-36.9365
  0
LINE
  5
80
100
AcDbEntity
  8
1
  6
ByLayer
 62
  256
370
   -1
100
AcDbLine
 10
40.073
 20
-36.9365
 11
40.5878
 21
-36.6535
  0
LINE
  5
81
100
AcDbEntity
  8
1
  6
ByLayer
 62
  256
370
   -1
100
AcDbLine
 10
40.5878
 20
-36.6535
 11
41.0631
 21
-36.3082
  0
LINE
  5
82
100
AcDbEntity
  8
1
  6
ByLayer
 62
  256
370
   -1
100
AcDbLine
 10
41.0631
 20
-36.3082
 11
41.2681
 21
-36.1593
  0
LINE
  5
83
100
AcDbEntity
  8
1
  6
ByLayer
 62
  256
370
   -1
100
AcDbLine
 10
41.2681
 20
-36.1593
 11
41.4528
 21
-35.9858
  0
LINE
  5
84
100
AcDbEntity
  8
1
  6
ByLayer
 62
  256
370
   -1
100
AcDbLine
 10
41.4528
 20
-35.9858
 11
41.8811
 21
-35.5836
  0
LINE
  5
85
100
AcDbEntity
  8
1
  6
ByLayer
 62
  256
370
   -1
100
AcDbLine
 10
41.8811
 20
-35.5836
 11
42.0426
 21
-35.3884
  0
LINE
  5
86
100
AcDbEntity
  8
1
  6
ByLayer
 62
  256
370
   -1
100
AcDbLine
 10
42.0426
 20
-35.3884
 11
42.4171
 21
-34.9357
  0
LINE
  5
87
100
AcDbEntity
  8
1
  6
ByLayer
 62
  256
370
   -1
100
AcDbLine
 10
42.4171
 20
-34.9357
 11
42.7319
 21
-34.4397
  0
LINE
  5
88
100
AcDbEntity
  8
1
  6
ByLayer
 62
  256
370
   -1
100
AcDbLine
 10
42.7319
 20
-34.4397
 11
42.8676
 21
-34.2258
  0
LINE
  5
89
100
AcDbEntity
  8
1
  6
ByLayer
 62
  256
370
   -1
100
AcDbLine
 10
42.8676
 20
-34.2258
 11
43.1178
 21
-33.6942
  0
LINE
  5
8A
100
AcDbEntity
  8
1
  6
ByLayer
 62
  256
370
   -1
100
AcDbLine
 10
43.1178
 20
-33.6942
 11
43.2257
 21
-33.4649
  0
LINE
  5
8B
100
AcDbEntity
  8
1
  6
ByLayer
 62
  256
370
   -1
100
AcDbLine
 10
43.2257
 20
-33.4649
 11
43.304
 21
-33.2239
  0
LINE
  5
8C
100
AcDbEntity
  8
1
  6
ByLayer
 62
  256
370
   -1
100
AcDbLine
 10
43.304
 20
-33.2239
 11
43.4855
 21
-32.6652
  0
LINE
  5
8D
100
AcDbEntity
  8
1
  6
ByLayer
 62
  256
370
   -1
100
AcDbLine
 10
43.4855
 20
-32.6652
 11
43.5956
 21
-32.0881
  0
LINE
  5
8E
100
AcDbEntity
  8
1
  6
ByLayer
 62
  256
370
   -1
100
AcDbLine
 10
43.5956
 20
-32.0881
 11
43.6431
 21
-31.8392
  0
LINE
  5
8F
100
AcDbEntity
  8
1
  6
ByLayer
 62
  256
370
   -1
100
AcDbLine
 10
43.6431
 20
-31.8392
 11
43.659
 21
-31.5863
  0
LINE
  5
90
100
AcDbEntity
  8
1
  6
ByLayer
 62
  256
370
   -1
100
AcDbLine
 10
43.659
 20
-31.5863
 11
43.6959
 21
-31
  0
LINE
  5
91
100
AcDbEntity
  8
1
  6
ByLayer
 62
  256
370
   -1
100
AcDbLine
 10
43.6959
 20
-31
 11
43.6959
 21
31
  0
LINE
  5
92
100
AcDbEntity
  8
1
  6
ByLayer
 62
  256
370
   -1
100
AcDbLine
 10
43.6959
 20
31
 11
43.659
 21
31.5863
  0
LINE
  5
93
100
AcDbEntity
  8
1
  6
ByLayer
 62
  256
370
   -1
100
AcDbLine
 10
43.659
 20
31.5863
 11
43.6431
 21
31.8392
  0
LINE
  5
94
100
AcDbEntity
  8
1
  6
ByLayer
 62
  256
370
   -1
100
AcDbLine
 10
43.6431
 20
31.8392
 11
43.5956
 21
32.0881
  0
LINE
  5
95
100
AcDbEntity
  8
1
  6
ByLayer
 62
  256
370
   -1
100
AcDbLine
 10
43.5956
 20
32.0881
 11
43.4855
 21
32.6652
  0
LINE
  5
96
100
AcDbEntity
  8
1
  6
ByLayer
 62
  256
370
   -1
100
AcDbLine
 10
43.4855
 20
32.6652
 11
43.304
 21
33.2239
  0
LINE
  5
97
100
AcDbEntity
  8
1
  6
ByLayer
 62
  256
370
   -1
100
AcDbLine
 10
43.304
 20
33.2239
 11
43.2257
 21
33.4649
  0
LINE
  5
98
100
AcDbEntity
  8
1
  6
ByLayer
 62
  256
370
   -1
100
AcDbLine
 10
43.2257
 20
33.4649
 11
43.1178
 21
33.6942
  0
LINE
  5
99
100
AcDbEntity
  8
1
  6
ByLayer
 62
  256
370
   -1
100
AcDbLine
 10
43.1178
 20
33.6942
 11
42.8676
 21
34.2258
  0
LINE
  5
9A
100
AcDbEntity
  8
1
  6
ByLayer
 62
  256
370
   -1
100
AcDbLine
 10
42.8676
 20
34.2258
 11
42.7319
 21
34.4397
  0
LINE
  5
9B
100
AcDbEntity
  8
1
  6
ByLayer
 62
  256
370
   -1
100
AcDbLine
 10
42.7319
 20
34.4397
 11
42.4171
 21
34.9357
  0
LINE
  5
9C
100
AcDbEntity
  8
1
  6
ByLayer
 62
  256
370
   -1
100
AcDbLine
 10
42.4171
 20
34.9357
 11
42.0426
 21
35.3884
  0
LINE
  5
9D
100
AcDbEntity
  8
1
  6
ByLayer
 62
  256
370
   -1
100
AcDbLine
 10
42.0426
 20
35.3884
 11
41.8811
 21
35.5836
  0
LINE
  5
9E
100
AcDbEntity
  8
1
  6
ByLayer
 62
  256
370
   -1
100
AcDbLine
 10
41.8811
 20
35.5836
 11
41.4528
 21
35.9858
  0
LINE
  5
9F
100
AcDbEntity
  8
1
  6
ByLayer
 62
  256
370
   -1
100
AcDbLine
 10
41.4528
 20
35.9858
 11
41.2681
 21
36.1593
  0
LINE
  5
A0
100
AcDbEntity
  8
1
  6
ByLayer
 62
  256
370
   -1
100
AcDbLine
 10
41.2681
 20
36.1593
 11
41.0631
 21
36.3082
  0
LINE
  5
A1
100
AcDbEntity
  8
1
  6
ByLayer
 62
  256
370
   -1
100
AcDbLine
 10
41.0631
 20
36.3082
 11
40.5878
 21
36.6535
  0
LINE
  5
A2
100
AcDbEntity
  8
1
  6
ByLayer
 62
  256
370
   -1
100
AcDbLine
 10
40.5878
 20
36.6535
 11
40.073
 21
36.9365
  0
LINE
  5
A3
100
AcDbEntity
  8
1
  6
ByLayer
 62
  256
370
   -1
100
AcDbLine
 10
40.073
 20
36.9365
 11
39.851
 21
37.0586
  0
LINE
  5
A4
100
AcDbEntity
  8
1
  6
ByLayer
 62
  256
370
   -1
100
AcDbLine
 10
39.851
 20
37.0586
 11
39.3047
 21
37.2749
  0
LINE
  5
A5
100
AcDbEntity
  8
1
  6
ByLayer
 62
  256
370
   -1
100
AcDbLine
 10
39.3047
 20
37.2749
 11
39.0691
 21
37.3682
  0
LINE
  5
A6
100
AcDbEntity
  8
1
  6
ByLayer
 62
  256
370
   -1
100
AcDbLine
 10
39.0691
 20
37.3682
 11
38.8237
 21
37.4312
  0
LINE
  5
A7
100
AcDbEntity
  8
1
  6
ByLayer
 62
  256
370
   -1
100
AcDbLine
 10
38.8237
 20
37.4312
 11
38.2547
 21
37.5773
  0
LINE
  5
A8
100
AcDbEntity
  8
1
  6
ByLayer
 62
  256
370
   -1
100
AcDbLine
 10
38.2547
 20
37.5773
 11
38.0033
 21
37.609
  0
LINE
  5
A9
100
AcDbEntity
  8
1
  6
ByLayer
 62
  256
370
   -1
100
AcDbLine
 10
38.0033
 20
37.609
 11
37.4204
 21
37.6827
  0
LINE
  5
AA
100
AcDbEntity
  8
1
  6
ByLayer
 62
  256
370
   -1
100
AcDbLine
 10
37.4204
 20
37.6827
 11
-37.4204
 21
37.6827
  0
LINE
  5
AB
100
AcDbEntity
  8
1
  6
ByLayer
 62
  256
370
   -1
100
AcDbLine
 10
-37.4204
 20
37.6827
 11
-38.0033
 21
37.609
  0
LINE
  5
AC
100
AcDbEntity
  8
1
  6
ByLayer
 62
  256
370
   -1
100
AcDbLine
 10
-38.0033
 20
37.609
 11
-38.2547
 21
37.5773
  0
LINE
  5
AD
100
AcDbEntity
  8
1
  6
ByLayer
 62
  256
370
   -1
100
AcDbLine
 10
-38.2547
 20
37.5773
 11
-38.8237
 21
37.4312
  0
LINE
  5
AE
100
AcDbEntity
  8
1
  6
ByLayer
 62
  256
370
   -1
100
AcDbLine
 10
-38.8237
 20
37.4312
 11
-39.0691
 21
37.3682
  0
LINE
  5
AF
100
AcDbEntity
  8
1
  6
ByLayer
 62
  256
370
   -1
100
AcDbLine
 10
-39.0691
 20
37.3682
 11
-39.3047
 21
37.2749
  0
LINE
  5
B0
100
AcDbEntity
  8
1
  6
ByLayer
 62
  256
370
   -1
100
AcDbLine
 10
-39.3047
 20
37.2749
 11
-39.851
 21
37.0586
  0
LINE
  5
B1
100
AcDbEntity
  8
1
  6
ByLayer
 62
  256
370
   -1
100
AcDbLine
 10
-39.851
 20
37.0586
 11
-40.073
 21
36.9365
  0
LINE
  5
B2
100
AcDbEntity
  8
1
  6
ByLayer
 62
  256
370
   -1
100
AcDbLine
 10
-40.073
 20
36.9365
 11
-40.5878
 21
36.6535
  0
LINE
  5
B3
100
AcDbEntity
  8
1
  6
ByLayer
 62
  256
370
   -1
100
AcDbLine
 10
-40.5878
 20
36.6535
 11
-41.0631
 21
36.3082
  0
LINE
  5
B4
100
AcDbEntity
  8
1
  6
ByLayer
 62
  256
370
   -1
100
AcDbLine
 10
-41.0631
 20
36.3082
 11
-41.2681
 21
36.1593
  0
LINE
  5
B5
100
AcDbEntity
  8
1
  6
ByLayer
 62
  256
370
   -1
100
AcDbLine
 10
-41.2681
 20
36.1593
 11
-41.4528
 21
35.9858
  0
LINE
  5
B6
100
AcDbEntity
  8
1
  6
ByLayer
 62
  256
370
   -1
100
AcDbLine
 10
-41.4528
 20
35.9858
 11
-41.8811
 21
35.5836
  0
LINE
  5
B7
100
AcDbEntity
  8
1
  6
ByLayer
 62
  256
370
   -1
100
AcDbLine
 10
-41.8811
 20
35.5836
 11
-42.0426
 21
35.3884
  0
LINE
  5
B8
100
AcDbEntity
  8
1
  6
ByLayer
 62
  256
370
   -1
100
AcDbLine
 10
-42.0426
 20
35.3884
 11
-42.4171
 21
34.9357
  0
LINE
  5
B9
100
AcDbEntity
  8
1
  6
ByLayer
 62
  256
370
   -1
100
AcDbLine
 10
-42.4171
 20
34.9357
 11
-42.7319
 21
34.4397
  0
LINE
  5
BA
100
AcDbEntity
  8
1
  6
ByLayer
 62
  256
370
   -1
100
AcDbLine
 10
-42.7319
 20
34.4397
 11
-42.8676
 21
34.2258
  0
LINE
  5
BB
100
AcDbEntity
  8
1
  6
ByLayer
 62
  256
370
   -1
100
AcDbLine
 10
-42.8676
 20
34.2258
 11
-43.1178
 21
33.6942
  0
LINE
  5
BC
100
AcDbEntity
  8
1
  6
ByLayer
 62
  256
370
   -1
100
AcDbLine
 10
-43.1178
 20
33.6942
 11
-43.2257
 21
33.4649
  0
LINE
  5
BD
100
AcDbEntity
  8
1
  6
ByLayer
 62
  256
370
   -1
100
AcDbLine
 10
-43.2257
 20
33.4649
 11
-43.304
 21
33.2239
  0
LINE
  5
BE
100
AcDbEntity
  8
1
  6
ByLayer
 62
  256
370
   -1
100
AcDbLine
 10
-43.304
 20
33.2239
 11
-43.4855
 21
32.6652
  0
LINE
  5
BF
100
AcDbEntity
  8
1
  6
ByLayer
 62
  256
370
   -1
100
AcDbLine
 10
-43.4855
 20
32.6652
 11
-43.5956
 21
32.0881
  0
LINE
  5
C0
100
AcDbEntity
  8
1
  6
ByLayer
 62
  256
370
   -1
100
AcDbLine
 10
-43.5956
 20
32.0881
 11
-43.6431
 21
31.8392
  0
LINE
  5
C1
100
AcDbEntity
  8
1
  6
ByLayer
 62
  256
370
   -1
100
AcDbLine
 10
-43.6431
 20
31.8392
 11
-43.659
 21
31.5863
  0
LINE
  5
C2
100
AcDbEntity
  8
1
  6
ByLayer
 62
  256
370
   -1
100
AcDbLine
 10
-43.659
 20
31.5863
 11
-43.6959
 21
31
  0
LINE
  5
C3
100
AcDbEntity
  8
1
  6
ByLayer
 62
  256
370
   -1
100
AcDbLine
 10
-43.6959
 20
31
 11
-43.6959
 21
-31
  0
LINE
  5
C4
100
AcDbEntity
  8
1
  6
ByLayer
 62
  256
370
   -1
100
AcDbLine
 10
-41.2
 20
-30.2
 11
-41.2
 21
30.2
  0
LINE
  5
C5
100
AcDbEntity
  8
1
  6
ByLayer
 62
  256
370
   -1
100
AcDbLine
 10
-41.2
 20
30.2
 11
-41.1606
 21
30.8267
  0
LINE
  5
C6
100
AcDbEntity
  8
1
  6
ByLayer
 62
  256
370
   -1
100
AcDbLine
 10
-41.1606
 20
30.8267
 11
-41.0429
 21
31.4434
  0
LINE
  5
C7
100
AcDbEntity
  8
1
  6
ByLayer
 62
  256
370
   -1
100
AcDbLine
 10
-41.0429
 20
31.4434
 11
-40.8489
 21
32.0406
  0
LINE
  5
C8
100
AcDbEntity
  8
1
  6
ByLayer
 62
  256
370
   -1
100
AcDbLine
 10
-40.8489
 20
32.0406
 11
-40.5815
 21
32.6088
  0
LINE
  5
C9
100
AcDbEntity
  8
1
  6
ByLayer
 62
  256
370
   -1
100
AcDbLine
 10
-40.5815
 20
32.6088
 11
-40.2451
 21
33.1389
  0
LINE
  5
CA
100
AcDbEntity
  8
1
  6
ByLayer
 62
  256
370
   -1
100
AcDbLine
 10
-40.2451
 20
33.1389
 11
-39.8448
 21
33.6227
  0
LINE
  5
CB
100
AcDbEntity
  8
1
  6
ByLayer
 62
  256
370
   -1
100
AcDbLine
 10
-39.8448
 20
33.6227
 11
-39.3871
 21
34.0526
  0
LINE
  5
CC
100
AcDbEntity
  8
1
  6
ByLayer
 62
  256
370
   -1
100
AcDbLine
 10
-39.3871
 20
34.0526
 11
-38.8791
 21
34.4216
  0
LINE
  5
CD
100
AcDbEntity
  8
1
  6
ByLayer
 62
  256
370
   -1
100
AcDbLine
 10
-38.8791
 20
34.4216
 11
-38.3289
 21
34.7241
  0
LINE
  5
CE
100
AcDbEntity
  8
1
  6
ByLayer
 62
  256
370
   -1
100
AcDbLine
 10
-38.3289
 20
34.7241
 11
-37.7451
 21
34.9553
  0
LINE
  5
CF
100
AcDbEntity
  8
1
  6
ByLayer
 62
  256
370
   -1
100
AcDbLine
 10
-37.7451
 20
34.9553
 11
-37.1369
 21
35.1114
  0
LINE
  5
D0
100
AcDbEntity
  8
1
  6
ByLayer
 62
  256
370
   -1
100
AcDbLine
 10
-37.1369
 20
35.1114
 11
-36.514
 21
35.1901
  0
LINE
  5
D1
100
AcDbEntity
  8
1
  6
ByLayer
 62
  256
370
   -1
100
AcDbLine
 10
-36.514
 20
35.1901
 11
36.514
 21
35.1901
  0
LINE
  5
D2
100
AcDbEntity
  8
1
  6
ByLayer
 62
  256
370
   -1
100
AcDbLine
 10
36.514
 20
35.1901
 11
37.1369
 21
35.1114
  0
LINE
  5
D3
100
AcDbEntity
  8
1
  6
ByLayer
 62
  256
370
   -1
100
AcDbLine
 10
37.1369
 20
35.1114
 11
37.7451
 21
34.9553
  0
LINE
  5
D4
100
AcDbEntity
  8
1
  6
ByLayer
 62
  256
370
   -1
100
AcDbLine
 10
37.7451
 20
34.9553
 11
38.3289
 21
34.7241
  0
LINE
  5
D5
100
AcDbEntity
  8
1
  6
ByLayer
 62
  256
370
   -1
100
AcDbLine
 10
38.3289
 20
34.7241
 11
38.8791
 21
34.4216
  0
LINE
  5
D6
100
AcDbEntity
  8
1
  6
ByLayer
 62
  256
370
   -1
100
AcDbLine
 10
38.8791
 20
34.4216
 11
39.3871
 21
34.0526
  0
LINE
  5
D7
100
AcDbEntity
  8
1
  6
ByLayer
 62
  256
370
   -1
100
AcDbLine
 10
39.3871
 20
34.0526
 11
39.8448
 21
33.6227
  0
LINE
  5
D8
100
AcDbEntity
  8
1
  6
ByLayer
 62
  256
370
   -1
100
AcDbLine
 10
39.8448
 20
33.6227
 11
40.2451
 21
33.1389
  0
LINE
  5
D9
100
AcDbEntity
  8
1
  6
ByLayer
 62
  256
370
   -1
100
AcDbLine
 10
40.2451
 20
33.1389
 11
40.5815
 21
32.6088
  0
LINE
  5
DA
100
AcDbEntity
  8
1
  6
ByLayer
 62
  256
370
   -1
100
AcDbLine
 10
40.5815
 20
32.6088
 11
40.8489
 21
32.0406
  0
LINE
  5
DB
100
AcDbEntity
  8
1
  6
ByLayer
 62
  256
370
   -1
100
AcDbLine
 10
40.8489
 20
32.0406
 11
41.0429
 21
31.4434
  0
LINE
  5
DC
100
AcDbEntity
  8
1
  6
ByLayer
 62
  256
370
   -1
100
AcDbLine
 10
41.0429
 20
31.4434
 11
41.1606
 21
30.8267
  0
LINE
  5
DD
100
AcDbEntity
  8
1
  6
ByLayer
 62
  256
370
   -1
100
AcDbLine
 10
41.1606
 20
30.8267
 11
41.2
 21
30.2
  0
LINE
  5
DE
100
AcDbEntity
  8
1
  6
ByLayer
 62
  256
370
   -1
100
AcDbLine
 10
41.2
 20
30.2
 11
41.2
 21
-30.2
  0
LINE
  5
DF
100
AcDbEntity
  8
1
  6
ByLayer
 62
  256
370
   -1
100
AcDbLine
 10
41.2
 20
-30.2
 11
41.1606
 21
-30.8267
  0
LINE
  5
E0
100
AcDbEntity
  8
1
  6
ByLayer
 62
  256
370
   -1
100
AcDbLine
 10
41.1606
 20
-30.8267
 11
41.0429
 21
-31.4434
  0
LINE
  5
E1
100
AcDbEntity
  8
1
  6
ByLayer
 62
  256
370
   -1
100
AcDbLine
 10
41.0429
 20
-31.4434
 11
40.8489
 21
-32.0406
  0
LINE
  5
E2
100
AcDbEntity
  8
1
  6
ByLayer
 62
  256
370
   -1
100
AcDbLine
 10
40.8489
 20
-32.0406
 11
40.5815
 21
-32.6088
  0
LINE
  5
E3
100
AcDbEntity
  8
1
  6
ByLayer
 62
  256
370
   -1
100
AcDbLine
 10
40.5815
 20
-32.6088
 11
40.2451
 21
-33.1389
  0
LINE
  5
E4
100
AcDbEntity
  8
1
  6
ByLayer
 62
  256
370
   -1
100
AcDbLine
 10
40.2451
 20
-33.1389
 11
39.8448
 21
-33.6227
  0
LINE
  5
E5
100
AcDbEntity
  8
1
  6
ByLayer
 62
  256
370
   -1
100
AcDbLine
 10
39.8448
 20
-33.6227
 11
39.3871
 21
-34.0526
  0
LINE
  5
E6
100
AcDbEntity
  8
1
  6
ByLayer
 62
  256
370
   -1
100
AcDbLine
 10
39.3871
 20
-34.0526
 11
38.8791
 21
-34.4216
  0
LINE
  5
E7
100
AcDbEntity
  8
1
  6
ByLayer
 62
  256
370
   -1
100
AcDbLine
 10
38.8791
 20
-34.4216
 11
38.3289
 21
-34.7241
  0
LINE
  5
E8
100
AcDbEntity
  8
1
  6
ByLayer
 62
  256
370
   -1
100
AcDbLine
 10
38.3289
 20
-34.7241
 11
37.7451
 21
-34.9553
  0
LINE
  5
E9
100
AcDbEntity
  8
1
  6
ByLayer
 62
  256
370
   -1
100
AcDbLine
 10
37.7451
 20
-34.9553
 11
37.1369
 21
-35.1114
  0
LINE
  5
EA
100
AcDbEntity
  8
1
  6
ByLayer
 62
  256
370
   -1
100
AcDbLine
 10
37.1369
 20
-35.1114
 11
36.514
 21
-35.1901
  0
LINE
  5
EB
100
AcDbEntity
  8
1
  6
ByLayer
 62
  256
370
   -1
100
AcDbLine
 10
36.514
 20
-35.1901
 11
-36.514
 21
-35.1901
  0
LINE
  5
EC
100
AcDbEntity
  8
1
  6
ByLayer
 62
  256
370
   -1
100
AcDbLine
 10
-36.514
 20
-35.1901
 11
-37.1369
 21
-35.1114
  0
LINE
  5
ED
100
AcDbEntity
  8
1
  6
ByLayer
 62
  256
370
   -1
100
AcDbLine
 10
-37.1369
 20
-35.1114
 11
-37.7451
 21
-34.9553
  0
LINE
  5
EE
100
AcDbEntity
  8
1
  6
ByLayer
 62
  256
370
   -1
100
AcDbLine
 10
-37.7451
 20
-34.9553
 11
-38.3289
 21
-34.7241
  0
LINE
  5
EF
100
AcDbEntity
  8
1
  6
ByLayer
 62
  256
370
   -1
100
AcDbLine
 10
-38.3289
 20
-34.7241
 11
-38.8791
 21
-34.4216
  0
LINE
  5
F0
100
AcDbEntity
  8
1
  6
ByLayer
 62
  256
370
   -1
100
AcDbLine
 10
-38.8791
 20
-34.4216
 11
-39.3871
 21
-34.0526
  0
LINE
  5
F1
100
AcDbEntity
  8
1
  6
ByLayer
 62
  256
370
   -1
100
AcDbLine
 10
-39.3871
 20
-34.0526
 11
-39.8448
 21
-33.6227
  0
LINE
  5
F2
100
AcDbEntity
  8
1
  6
ByLayer
 62
  256
370
   -1
100
AcDbLine
 10
-39.8448
 20
-33.6227
 11
-40.2451
 21
-33.1389
  0
LINE
  5
F3
100
AcDbEntity
  8
1
  6
ByLayer
 62
  256
370
   -1
100
AcDbLine
 10
-40.2451
 20
-33.1389
 11
-40.5815
 21
-32.6088
  0
LINE
  5
F4
100
AcDbEntity
  8
1
  6
ByLayer
 62
  256
370
   -1
100
AcDbLine
 10
-40.5815
 20
-32.6088
 11
-40.8489
 21
-32.0406
  0
LINE
  5
F5
100
AcDbEntity
  8
1
  6
ByLayer
 62
  256
370
   -1
100
AcDbLine
 10
-40.8489
 20
-32.0406
 11
-41.0429
 21
-31.4434
  0
LINE
  5
F6
100
AcDbEntity
  8
1
  6
ByLayer
 62
  256
370
   -1
100
AcDbLine
 10
-41.0429
 20
-31.4434
 11
-41.1606
 21
-30.8267
  0
LINE
  5
F7
100
AcDbEntity
  8
1
  6
ByLayer
 62
  256
370
   -1
100
AcDbLine
 10
-41.1606
 20
-30.8267
 11
-41.2
 21
-30.2
  0
LINE
  5
F8
100
AcDbEntity
  8
1
  6
ByLayer
 62
  256
370
   -1
100
AcDbLine
 10
-40.2
 20
-30.2
 11
-40.1685
 21
-30.7013
  0
LINE
  5
F9
100
AcDbEntity
  8
1
  6
ByLayer
 62
  256
370
   -1
100
AcDbLine
 10
-40.1685
 20
-30.7013
 11
-40.0743
 21
-31.1948
  0
LINE
  5
FA
100
AcDbEntity
  8
1
  6
ByLayer
 62
  256
370
   -1
100
AcDbLine
 10
-40.0743
 20
-31.1948
 11
-39.9191
 21
-31.6725
  0
LINE
  5
FB
100
AcDbEntity
  8
1
  6
ByLayer
 62
  256
370
   -1
100
AcDbLine
 10
-39.9191
 20
-31.6725
 11
-39.7052
 21
-32.127
  0
LINE
  5
FC
100
AcDbEntity
  8
1
  6
ByLayer
 62
  256
370
   -1
100
AcDbLine
 10
-39.7052
 20
-32.127
 11
-39.4361
 21
-32.5511
  0
LINE
  5
FD
100
AcDbEntity
  8
1
  6
ByLayer
 62
  256
370
   -1
100
AcDbLine
 10
-39.4361
 20
-32.5511
 11
-39.1159
 21
-32.9382
  0
LINE
  5
FE
100
AcDbEntity
  8
1
  6
ByLayer
 62
  256
370
   -1
100
AcDbLine
 10
-39.1159
 20
-32.9382
 11
-38.7497
 21
-33.2821
  0
LINE
  5
FF
100
AcDbEntity
  8
1
  6
ByLayer
 62
  256
370
   -1
100
AcDbLine
 10
-38.7497
 20
-33.2821
 11
-38.3433
 21
-33.5773
  0
LINE
  5
100
100
AcDbEntity
  8
1
  6
ByLayer
 62
  256
370
   -1
100
AcDbLine
 10
-38.3433
 20
-33.5773
 11
-37.9031
 21
-33.8193
  0
LINE
  5
101
100
AcDbEntity
  8
1
  6
ByLayer
 62
  256
370
   -1
100
AcDbLine
 10
-37.9031
 20
-33.8193
 11
-37.4361
 21
-34.0042
  0
LINE
  5
102
100
AcDbEntity
  8
1
  6
ByLayer
 62
  256
370
   -1
100
AcDbLine
 10
-37.4361
 20
-34.0042
 11
-36.9495
 21
-34.1291
  0
LINE
  5
103
100
AcDbEntity
  8
1
  6
ByLayer
 62
  256
370
   -1
100
AcDbLine
 10
-36.9495
 20
-34.1291
 11
-36.4512
 21
-34.1921
  0
LINE
  5
104
100
AcDbEntity
  8
1
  6
ByLayer
 62
  256
370
   -1
100
AcDbLine
 10
-36.4512
 20
-34.1921
 11
36.4512
 21
-34.1921
  0
LINE
  5
105
100
AcDbEntity
  8
1
  6
ByLayer
 62
  256
370
   -1
100
AcDbLine
 10
36.4512
 20
-34.1921
 11
36.9495
 21
-34.1291
  0
LINE
  5
106
100
AcDbEntity
  8
1
  6
ByLayer
 62
  256
370
   -1
100
AcDbLine
 10
36.9495
 20
-34.1291
 11
37.4361
 21
-34.0042
  0
LINE
  5
107
100
AcDbEntity
  8
1
  6
ByLayer
 62
  256
370
   -1
100
AcDbLine
 10
37.4361
 20
-34.0042
 11
37.9031
 21
-33.8193
  0
LINE
  5
108
100
AcDbEntity
  8
1
  6
ByLayer
 62
  256
370
   -1
100
AcDbLine
 10
37.9031
 20
-33.8193
 11
38.3433
 21
-33.5773
  0
LINE
  5
109
100
AcDbEntity
  8
1
  6
ByLayer
 62
  256
370
   -1
100
AcDbLine
 10
38.3433
 20
-33.5773
 11
38.7497
 21
-33.2821
  0
LINE
  5
10A
100
AcDbEntity
  8
1
  6
ByLayer
 62
  256
370
   -1
100
AcDbLine
 10
38.7497
 20
-33.2821
 11
39.1159
 21
-32.9382
  0
LINE
  5
10B
100
AcDbEntity
  8
1
  6
ByLayer
 62
  256
370
   -1
100
AcDbLine
 10
39.1159
 20
-32.9382
 11
39.4361
 21
-32.5511
  0
LINE
  5
10C
100
AcDbEntity
  8
1
  6
ByLayer
 62
  256
370
   -1
100
AcDbLine
 10
39.4361
 20
-32.5511
 11
39.7052
 21
-32.127
  0
LINE
  5
10D
100
AcDbEntity
  8
1
  6
ByLayer
 62
  256
370
   -1
100
AcDbLine
 10
39.7052
 20
-32.127
 11
39.9191
 21
-31.6725
  0
LINE
  5
10E
100
AcDbEntity
  8
1
  6
ByLayer
 62
  256
370
   -1
100
AcDbLine
 10
39.9191
 20
-31.6725
 11
40.0743
 21
-31.1948
  0
LINE
  5
10F
100
AcDbEntity
  8
1
  6
ByLayer
 62
  256
370
   -1
100
AcDbLine
 10
40.0743
 20
-31.1948
 11
40.1685
 21
-30.7013
  0
LINE
  5
110
100
AcDbEntity
  8
1
  6
ByLayer
 62
  256
370
   -1
100
AcDbLine
 10
40.1685
 20
-30.7013
 11
40.2
 21
-30.2
  0
LINE
  5
111
100
AcDbEntity
  8
1
  6
ByLayer
 62
  256
370
   -1
100
AcDbLine
 10
40.2
 20
-30.2
 11
40.2
 21
30.2
  0
LINE
  5
112
100
AcDbEntity
  8
1
  6
ByLayer
 62
  256
370
   -1
100
AcDbLine
 10
40.2
 20
30.2
 11
40.1685
 21
30.7013
  0
LINE
  5
113
100
AcDbEntity
  8
1
  6
ByLayer
 62
  256
370
   -1
100
AcDbLine
 10
40.1685
 20
30.7013
 11
40.0743
 21
31.1948
  0
LINE
  5
114
100
AcDbEntity
  8
1
  6
ByLayer
 62
  256
370
   -1
100
AcDbLine
 10
40.0743
 20
31.1948
 11
39.9191
 21
31.6725
  0
LINE
  5
115
100
AcDbEntity
  8
1
  6
ByLayer
 62
  256
370
   -1
100
AcDbLine
 10
39.9191
 20
31.6725
 11
39.7052
 21
32.127
  0
LINE
  5
116
100
AcDbEntity
  8
1
  6
ByLayer
 62
  256
370
   -1
100
AcDbLine
 10
39.7052
 20
32.127
 11
39.4361
 21
32.5511
  0
LINE
  5
117
100
AcDbEntity
  8
1
  6
ByLayer
 62
  256
370
   -1
100
AcDbLine
 10
39.4361
 20
32.5511
 11
39.1159
 21
32.9382
  0
LINE
  5
118
100
AcDbEntity
  8
1
  6
ByLayer
 62
  256
370
   -1
100
AcDbLine
 10
39.1159
 20
32.9382
 11
38.7497
 21
33.2821
  0
LINE
  5
119
100
AcDbEntity
  8
1
  6
ByLayer
 62
  256
370
   -1
100
AcDbLine
 10
38.7497
 20
33.2821
 11
38.3433
 21
33.5773
  0
LINE
  5
11A
100
AcDbEntity
  8
1
  6
ByLayer
 62
  256
370
   -1
100
AcDbLine
 10
38.3433
 20
33.5773
 11
37.9031
 21
33.8193
  0
LINE
  5
11B
100
AcDbEntity
  8
1
  6
ByLayer
 62
  256
370
   -1
100
AcDbLine
 10
37.9031
 20
33.8193
 11
37.4361
 21
34.0042
  0
LINE
  5
11C
100
AcDbEntity
  8
1
  6
ByLayer
 62
  256
370
   -1
100
AcDbLine
 10
37.4361
 20
34.0042
 11
36.9495
 21
34.1291
  0
LINE
  5
11D
100
AcDbEntity
  8
1
  6
ByLayer
 62
  256
370
   -1
100
AcDbLine
 10
36.9495
 20
34.1291
 11
36.4512
 21
34.1921
  0
LINE
  5
11E
100
AcDbEntity
  8
1
  6
ByLayer
 62
  256
370
   -1
100
AcDbLine
 10
36.4512
 20
34.1921
 11
-36.4512
 21
34.1921
  0
LINE
  5
11F
100
AcDbEntity
  8
1
  6
ByLayer
 62
  256
370
   -1
100
AcDbLine
 10
-36.4512
 20
34.1921
 11
-36.9495
 21
34.1291
  0
LINE
  5
120
100
AcDbEntity
  8
1
  6
ByLayer
 62
  256
370
   -1
100
AcDbLine
 10
-36.9495
 20
34.1291
 11
-37.4361
 21
34.0042
  0
LINE
  5
121
100
AcDbEntity
  8
1
  6
ByLayer
 62
  256
370
   -1
100
AcDbLine
 10
-37.4361
 20
34.0042
 11
-37.9031
 21
33.8193
  0
LINE
  5
122
100
AcDbEntity
  8
1
  6
ByLayer
 62
  256
370
   -1
100
AcDbLine
 10
-37.9031
 20
33.8193
 11
-38.3433
 21
33.5773
  0
LINE
  5
123
100
AcDbEntity
  8
1
  6
ByLayer
 62
  256
370
   -1
100
AcDbLine
 10
-38.3433
 20
33.5773
 11
-38.7497
 21
33.2821
  0
LINE
  5
124
100
AcDbEntity
  8
1
  6
ByLayer
 62
  256
370
   -1
100
AcDbLine
 10
-38.7497
 20
33.2821
 11
-39.1159
 21
32.9382
  0
LINE
  5
125
100
AcDbEntity
  8
1
  6
ByLayer
 62
  256
370
   -1
100
AcDbLine
 10
-39.1159
 20
32.9382
 11
-39.4361
 21
32.5511
  0
LINE
  5
126
100
AcDbEntity
  8
1
  6
ByLayer
 62
  256
370
   -1
100
AcDbLine
 10
-39.4361
 20
32.5511
 11
-39.7052
 21
32.127
  0
LINE
  5
127
100
AcDbEntity
  8
1
  6
ByLayer
 62
  256
370
   -1
100
AcDbLine
 10
-39.7052
 20
32.127
 11
-39.9191
 21
31.6725
  0
LINE
  5
128
100
AcDbEntity
  8
1
  6
ByLayer
 62
  256
370
   -1
100
AcDbLine
 10
-39.9191
 20
31.6725
 11
-40.0743
 21
31.1948
  0
LINE
  5
129
100
AcDbEntity
  8
1
  6
ByLayer
 62
  256
370
   -1
100
AcDbLine
 10
-40.0743
 20
31.1948
 11
-40.1685
 21
30.7013
  0
LINE
  5
12A
100
AcDbEntity
  8
1
  6
ByLayer
 62
  256
370
   -1
100
AcDbLine
 10
-40.1685
 20
30.7013
 11
-40.2
 21
30.2
  0
LINE
  5
12B
100
AcDbEntity
  8
1
  6
ByLayer
 62
  256
370
   -1
100
AcDbLine
 10
-40.2
 20
30.2
 11
-40.2
 21
-30.2
  0
LINE
  5
12C
100
AcDbEntity
  8
1
  6
ByLayer
 62
  256
370
   -1
100
AcDbLine
 10
-38.35
 20
-31
 11
-38.3394
 21
-30.8308
  0
LINE
  5
12D
100
AcDbEntity
  8
1
  6
ByLayer
 62
  256
370
   -1
100
AcDbLine
 10
-38.3394
 20
-30.8308
 11
-38.3076
 21
-30.6643
  0
LINE
  5
12E
100
AcDbEntity
  8
1
  6
ByLayer
 62
  256
370
   -1
100
AcDbLine
 10
-38.3076
 20
-30.6643
 11
-38.2552
 21
-30.503
  0
LINE
  5
12F
100
AcDbEntity
  8
1
  6
ByLayer
 62
  256
370
   -1
100
AcDbLine
 10
-38.2552
 20
-30.503
 11
-38.183
 21
-30.3496
  0
LINE
  5
130
100
AcDbEntity
  8
1
  6
ByLayer
 62
  256
370
   -1
100
AcDbLine
 10
-38.183
 20
-30.3496
 11
-38.0922
 21
-30.2065
  0
LINE
  5
131
100
AcDbEntity
  8
1
  6
ByLayer
 62
  256
370
   -1
100
AcDbLine
 10
-38.0922
 20
-30.2065
 11
-37.9841
 21
-30.0759
  0
LINE
  5
132
100
AcDbEntity
  8
1
  6
ByLayer
 62
  256
370
   -1
100
AcDbLine
 10
-37.9841
 20
-30.0759
 11
-37.8605
 21
-29.9598
  0
LINE
  5
133
100
AcDbEntity
  8
1
  6
ByLayer
 62
  256
370
   -1
100
AcDbLine
 10
-37.8605
 20
-29.9598
 11
-37.7234
 21
-29.8602
  0
LINE
  5
134
100
AcDbEntity
  8
1
  6
ByLayer
 62
  256
370
   -1
100
AcDbLine
 10
-37.7234
 20
-29.8602
 11
-37.5748
 21
-29.7785
  0
LINE
  5
135
100
AcDbEntity
  8
1
  6
ByLayer
 62
  256
370
   -1
100
AcDbLine
 10
-37.5748
 20
-29.7785
 11
-37.4172
 21
-29.7161
  0
LINE
  5
136
100
AcDbEntity
  8
1
  6
ByLayer
 62
  256
370
   -1
100
AcDbLine
 10
-37.4172
 20
-29.7161
 11
-37.253
 21
-29.6739
  0
LINE
  5
137
100
AcDbEntity
  8
1
  6
ByLayer
 62
  256
370
   -1
100
AcDbLine
 10
-37.253
 20
-29.6739
 11
-37.0848
 21
-29.6527
  0
LINE
  5
138
100
AcDbEntity
  8
1
  6
ByLayer
 62
  256
370
   -1
100
AcDbLine
 10
-37.0848
 20
-29.6527
 11
-36.9152
 21
-29.6527
  0
LINE
  5
139
100
AcDbEntity
  8
1
  6
ByLayer
 62
  256
370
   -1
100
AcDbLine
 10
-36.9152
 20
-29.6527
 11
-36.747
 21
-29.6739
  0
LINE
  5
13A
100
AcDbEntity
  8
1
  6
ByLayer
 62
  256
370
   -1
100
AcDbLine
 10
-36.747
 20
-29.6739
 11
-36.5828
 21
-29.7161
  0
LINE
  5
13B
100
AcDbEntity
  8
1
  6
ByLayer
 62
  256
370
   -1
100
AcDbLine
 10
-36.5828
 20
-29.7161
 11
-36.4252
 21
-29.7785
  0
LINE
  5
13C
100
AcDbEntity
  8
1
  6
ByLayer
 62
  256
370
   -1
100
AcDbLine
 10
-36.4252
 20
-29.7785
 11
-36.2766
 21
-29.8602
  0
LINE
  5
13D
100
AcDbEntity
  8
1
  6
ByLayer
 62
  256
370
   -1
100
AcDbLine
 10
-36.2766
 20
-29.8602
 11
-36.1395
 21
-29.9598
  0
LINE
  5
13E
100
AcDbEntity
  8
1
  6
ByLayer
 62
  256
370
   -1
100
AcDbLine
 10
-36.1395
 20
-29.9598
 11
-36.0159
 21
-30.0759
  0
LINE
  5
13F
100
AcDbEntity
  8
1
  6
ByLayer
 62
  256
370
   -1
100
AcDbLine
 10
-36.0159
 20
-30.0759
 11
-35.9078
 21
-30.2065
  0
LINE
  5
140
100
AcDbEntity
  8
1
  6
ByLayer
 62
  256
370
   -1
100
AcDbLine
 10
-35.9078
 20
-30.2065
 11
-35.817
 21
-30.3496
  0
LINE
  5
141
100
AcDbEntity
  8
1
  6
ByLayer
 62
  256
370
   -1
100
AcDbLine
 10
-35.817
 20
-30.3496
 11
-35.7448
 21
-30.503
  0
LINE
  5
142
100
AcDbEntity
  8
1
  6
ByLayer
 62
  256
370
   -1
100
AcDbLine
 10
-35.7448
 20
-30.503
 11
-35.6924
 21
-30.6643
  0
LINE
  5
143
100
AcDbEntity
  8
1
  6
ByLayer
 62
  256
370
   -1
100
AcDbLine
 10
-35.6924
 20
-30.6643
 11
-35.6606
 21
-30.8308
  0
LINE
  5
144
100
AcDbEntity
  8
1
  6
ByLayer
 62
  256
370
   -1
100
AcDbLine
 10
-35.6606
 20
-30.8308
 11
-35.65
 21
-31
  0
LINE
  5
145
100
AcDbEntity
  8
1
  6
ByLayer
 62
  256
370
   -1
100
AcDbLine
 10
-35.65
 20
-31
 11
-35.6606
 21
-31.1692
  0
LINE
  5
146
100
AcDbEntity
  8
1
  6
ByLayer
 62
  256
370
   -1
100
AcDbLine
 10
-35.6606
 20
-31.1692
 11
-35.6924
 21
-31.3357
  0
LINE
  5
147
100
AcDbEntity
  8
1
  6
ByLayer
 62
  256
370
   -1
100
AcDbLine
 10
-35.6924
 20
-31.3357
 11
-35.7448
 21
-31.497
  0
LINE
  5
148
100
AcDbEntity
  8
1
  6
ByLayer
 62
  256
370
   -1
100
AcDbLine
 10
-35.7448
 20
-31.497
 11
-35.817
 21
-31.6504
  0
LINE
  5
149
100
AcDbEntity
  8
1
  6
ByLayer
 62
  256
370
   -1
100
AcDbLine
 10
-35.817
 20
-31.6504
 11
-35.9078
 21
-31.7935
  0
LINE
  5
14A
100
AcDbEntity
  8
1
  6
ByLayer
 62
  256
370
   -1
100
AcDbLine
 10
-35.9078
 20
-31.7935
 11
-36.0159
 21
-31.9241
  0
LINE
  5
14B
100
AcDbEntity
  8
1
  6
ByLayer
 62
  256
370
   -1
100
AcDbLine
 10
-36.0159
 20
-31.9241
 11
-36.1395
 21
-32.0402
  0
LINE
  5
14C
100
AcDbEntity
  8
1
  6
ByLayer
 62
  256
370
   -1
100
AcDbLine
 10
-36.1395
 20
-32.0402
 11
-36.2766
 21
-32.1398
  0
LINE
  5
14D
100
AcDbEntity
  8
1
  6
ByLayer
 62
  256
370
   -1
100
AcDbLine
 10
-36.2766
 20
-32.1398
 11
-36.4252
 21
-32.2215
  0
LINE
  5
14E
100
AcDbEntity
  8
1
  6
ByLayer
 62
  256
370
   -1
100
AcDbLine
 10
-36.4252
 20
-32.2215
 11
-36.5828
 21
-32.2839
  0
LINE
  5
14F
100
AcDbEntity
  8
1
  6
ByLayer
 62
  256
370
   -1
100
AcDbLine
 10
-36.5828
 20
-32.2839
 11
-36.747
 21
-32.3261
  0
LINE
  5
150
100
AcDbEntity
  8
1
  6
ByLayer
 62
  256
370
   -1
100
AcDbLine
 10
-36.747
 20
-32.3261
 11
-36.9152
 21
-32.3473
  0
LINE
  5
151
100
AcDbEntity
  8
1
  6
ByLayer
 62
  256
370
   -1
100
AcDbLine
 10
-36.9152
 20
-32.3473
 11
-37.0848
 21
-32.3473
  0
LINE
  5
152
100
AcDbEntity
  8
1
  6
ByLayer
 62
  256
370
   -1
100
AcDbLine
 10
-37.0848
 20
-32.3473
 11
-37.253
 21
-32.3261
  0
LINE
  5
153
100
AcDbEntity
  8
1
  6
ByLayer
 62
  256
370
   -1
100
AcDbLine
 10
-37.253
 20
-32.3261
 11
-37.4172
 21
-32.2839
  0
LINE
  5
154
100
AcDbEntity
  8
1
  6
ByLayer
 62
  256
370
   -1
100
AcDbLine
 10
-37.4172
 20
-32.2839
 11
-37.5748
 21
-32.2215
  0
LINE
  5
155
100
AcDbEntity
  8
1
  6
ByLayer
 62
  256
370
   -1
100
AcDbLine
 10
-37.5748
 20
-32.2215
 11
-37.7234
 21
-32.1398
  0
LINE
  5
156
100
AcDbEntity
  8
1
  6
ByLayer
 62
  256
370
   -1
100
AcDbLine
 10
-37.7234
 20
-32.1398
 11
-37.8605
 21
-32.0402
  0
LINE
  5
157
100
AcDbEntity
  8
1
  6
ByLayer
 62
  256
370
   -1
100
AcDbLine
 10
-37.8605
 20
-32.0402
 11
-37.9841
 21
-31.9241
  0
LINE
  5
158
100
AcDbEntity
  8
1
  6
ByLayer
 62
  256
370
   -1
100
AcDbLine
 10
-37.9841
 20
-31.9241
 11
-38.0922
 21
-31.7935
  0
LINE
  5
159
100
AcDbEntity
  8
1
  6
ByLayer
 62
  256
370
   -1
100
AcDbLine
 10
-38.0922
 20
-31.7935
 11
-38.183
 21
-31.6504
  0
LINE
  5
15A
100
AcDbEntity
  8
1
  6
ByLayer
 62
  256
370
   -1
100
AcDbLine
 10
-38.183
 20
-31.6504
 11
-38.2552
 21
-31.497
  0
LINE
  5
15B
100
AcDbEntity
  8
1
  6
ByLayer
 62
  256
370
   -1
100
AcDbLine
 10
-38.2552
 20
-31.497
 11
-38.3076
 21
-31.3357
  0
LINE
  5
15C
100
AcDbEntity
  8
1
  6
ByLayer
 62
  256
370
   -1
100
AcDbLine
 10
-38.3076
 20
-31.3357
 11
-38.3394
 21
-31.1692
  0
LINE
  5
15D
100
AcDbEntity
  8
1
  6
ByLayer
 62
  256
370
   -1
100
AcDbLine
 10
-38.3394
 20
-31.1692
 11
-38.35
 21
-31
  0
LINE
  5
15E
100
AcDbEntity
  8
1
  6
ByLayer
 62
  256
370
   -1
100
AcDbLine
 10
-38.35
 20
31
 11
-38.3394
 21
31.1692
  0
LINE
  5
15F
100
AcDbEntity
  8
1
  6
ByLayer
 62
  256
370
   -1
100
AcDbLine
 10
-38.3394
 20
31.1692
 11
-38.3076
 21
31.3357
  0
LINE
  5
160
100
AcDbEntity
  8
1
  6
ByLayer
 62
  256
370
   -1
100
AcDbLine
 10
-38.3076
 20
31.3357
 11
-38.2552
 21
31.497
  0
LINE
  5
161
100
AcDbEntity
  8
1
  6
ByLayer
 62
  256
370
   -1
100
AcDbLine
 10
-38.2552
 20
31.497
 11
-38.183
 21
31.6504
  0
LINE
  5
162
100
AcDbEntity
  8
1
  6
ByLayer
 62
  256
370
   -1
100
AcDbLine
 10
-38.183
 20
31.6504
 11
-38.0922
 21
31.7935
  0
LINE
  5
163
100
AcDbEntity
  8
1
  6
ByLayer
 62
  256
370
   -1
100
AcDbLine
 10
-38.0922
 20
31.7935
 11
-37.9841
 21
31.9241
  0
LINE
  5
164
100
AcDbEntity
  8
1
  6
ByLayer
 62
  256
370
   -1
100
AcDbLine
 10
-37.9841
 20
31.9241
 11
-37.8605
 21
32.0402
  0
LINE
  5
165
100
AcDbEntity
  8
1
  6
ByLayer
 62
  256
370
   -1
100
AcDbLine
 10
-37.8605
 20
32.0402
 11
-37.7234
 21
32.1398
  0
LINE
  5
166
100
AcDbEntity
  8
1
  6
ByLayer
 62
  256
370
   -1
100
AcDbLine
 10
-37.7234
 20
32.1398
 11
-37.5748
 21
32.2215
  0
LINE
  5
167
100
AcDbEntity
  8
1
  6
ByLayer
 62
  256
370
   -1
100
AcDbLine
 10
-37.5748
 20
32.2215
 11
-37.4172
 21
32.2839
  0
LINE
  5
168
100
AcDbEntity
  8
1
  6
ByLayer
 62
  256
370
   -1
100
AcDbLine
 10
-37.4172
 20
32.2839
 11
-37.253
 21
32.3261
  0
LINE
  5
169
100
AcDbEntity
  8
1
  6
ByLayer
 62
  256
370
   -1
100
AcDbLine
 10
-37.253
 20
32.3261
 11
-37.0848
 21
32.3473
  0
LINE
  5
16A
100
AcDbEntity
  8
1
  6
ByLayer
 62
  256
370
   -1
100
AcDbLine
 10
-37.0848
 20
32.3473
 11
-36.9152
 21
32.3473
  0
LINE
  5
16B
100
AcDbEntity
  8
1
  6
ByLayer
 62
  256
370
   -1
100
AcDbLine
 10
-36.9152
 20
32.3473
 11
-36.747
 21
32.3261
  0
LINE
  5
16C
100
AcDbEntity
  8
1
  6
ByLayer
 62
  256
370
   -1
100
AcDbLine
 10
-36.747
 20
32.3261
 11
-36.5828
 21
32.2839
  0
LINE
  5
16D
100
AcDbEntity
  8
1
  6
ByLayer
 62
  256
370
   -1
100
AcDbLine
 10
-36.5828
 20
32.2839
 11
-36.4252
 21
32.2215
  0
LINE
  5
16E
100
AcDbEntity
  8
1
  6
ByLayer
 62
  256
370
   -1
100
AcDbLine
 10
-36.4252
 20
32.2215
 11
-36.2766
 21
32.1398
  0
LINE
  5
16F
100
AcDbEntity
  8
1
  6
ByLayer
 62
  256
370
   -1
100
AcDbLine
 10
-36.2766
 20
32.1398
 11
-36.1395
 21
32.0402
  0
LINE
  5
170
100
AcDbEntity
  8
1
  6
ByLayer
 62
  256
370
   -1
100
AcDbLine
 10
-36.1395
 20
32.0402
 11
-36.0159
 21
31.9241
  0
LINE
  5
171
100
AcDbEntity
  8
1
  6
ByLayer
 62
  256
370
   -1
100
AcDbLine
 10
-36.0159
 20
31.9241
 11
-35.9078
 21
31.7935
  0
LINE
  5
172
100
AcDbEntity
  8
1
  6
ByLayer
 62
  256
370
   -1
100
AcDbLine
 10
-35.9078
 20
31.7935
 11
-35.817
 21
31.6504
  0
LINE
  5
173
100
AcDbEntity
  8
1
  6
ByLayer
 62
  256
370
   -1
100
AcDbLine
 10
-35.817
 20
31.6504
 11
-35.7448
 21
31.497
  0
LINE
  5
174
100
AcDbEntity
  8
1
  6
ByLayer
 62
  256
370
   -1
100
AcDbLine
 10
-35.7448
 20
31.497
 11
-35.6924
 21
31.3357
  0
LINE
  5
175
100
AcDbEntity
  8
1
  6
ByLayer
 62
  256
370
   -1
100
AcDbLine
 10
-35.6924
 20
31.3357
 11
-35.6606
 21
31.1692
  0
LINE
  5
176
100
AcDbEntity
  8
1
  6
ByLayer
 62
  256
370
   -1
100
AcDbLine
 10
-35.6606
 20
31.1692
 11
-35.65
 21
31
  0
LINE
  5
177
100
AcDbEntity
  8
1
  6
ByLayer
 62
  256
370
   -1
100
AcDbLine
 10
-35.65
 20
31
 11
-35.6606
 21
30.8308
  0
LINE
  5
178
100
AcDbEntity
  8
1
  6
ByLayer
 62
  256
370
   -1
100
AcDbLine
 10
-35.6606
 20
30.8308
 11
-35.6924
 21
30.6643
  0
LINE
  5
179
100
AcDbEntity
  8
1
  6
ByLayer
 62
  256
370
   -1
100
AcDbLine
 10
-35.6924
 20
30.6643
 11
-35.7448
 21
30.503
  0
LINE
  5
17A
100
AcDbEntity
  8
1
  6
ByLayer
 62
  256
370
   -1
100
AcDbLine
 10
-35.7448
 20
30.503
 11
-35.817
 21
30.3496
  0
LINE
  5
17B
100
AcDbEntity
  8
1
  6
ByLayer
 62
  256
370
   -1
100
AcDbLine
 10
-35.817
 20
30.3496
 11
-35.9078
 21
30.2065
  0
LINE
  5
17C
100
AcDbEntity
  8
1
  6
ByLayer
 62
  256
370
   -1
100
AcDbLine
 10
-35.9078
 20
30.2065
 11
-36.0159
 21
30.0759
  0
LINE
  5
17D
100
AcDbEntity
  8
1
  6
ByLayer
 62
  256
370
   -1
100
AcDbLine
 10
-36.0159
 20
30.0759
 11
-36.1395
 21
29.9598
  0
LINE
  5
17E
100
AcDbEntity
  8
1
  6
ByLayer
 62
  256
370
   -1
100
AcDbLine
 10
-36.1395
 20
29.9598
 11
-36.2766
 21
29.8602
  0
LINE
  5
17F
100
AcDbEntity
  8
1
  6
ByLayer
 62
  256
370
   -1
100
AcDbLine
 10
-36.2766
 20
29.8602
 11
-36.4252
 21
29.7785
  0
LINE
  5
180
100
AcDbEntity
  8
1
  6
ByLayer
 62
  256
370
   -1
100
AcDbLine
 10
-36.4252
 20
29.7785
 11
-36.5828
 21
29.7161
  0
LINE
  5
181
100
AcDbEntity
  8
1
  6
ByLayer
 62
  256
370
   -1
100
AcDbLine
 10
-36.5828
 20
29.7161
 11
-36.747
 21
29.6739
  0
LINE
  5
182
100
AcDbEntity
  8
1
  6
ByLayer
 62
  256
370
   -1
100
AcDbLine
 10
-36.747
 20
29.6739
 11
-36.9152
 21
29.6527
  0
LINE
  5
183
100
AcDbEntity
  8
1
  6
ByLayer
 62
  256
370
   -1
100
AcDbLine
 10
-36.9152
 20
29.6527
 11
-37.0848
 21
29.6527
  0
LINE
  5
184
100
AcDbEntity
  8
1
  6
ByLayer
 62
  256
370
   -1
100
AcDbLine
 10
-37.0848
 20
29.6527
 11
-37.253
 21
29.6739
  0
LINE
  5
185
100
AcDbEntity
  8
1
  6
ByLayer
 62
  256
370
   -1
100
AcDbLine
 10
-37.253
 20
29.6739
 11
-37.4172
 21
29.7161
  0
LINE
  5
186
100
AcDbEntity
  8
1
  6
ByLayer
 62
  256
370
   -1
100
AcDbLine
 10
-37.4172
 20
29.7161
 11
-37.5748
 21
29.7785
  0
LINE
  5
187
100
AcDbEntity
  8
1
  6
ByLayer
 62
  256
370
   -1
100
AcDbLine
 10
-37.5748
 20
29.7785
 11
-37.7234
 21
29.8602
  0
LINE
  5
188
100
AcDbEntity
  8
1
  6
ByLayer
 62
  256
370
   -1
100
AcDbLine
 10
-37.7234
 20
29.8602
 11
-37.8605
 21
29.9598
  0
LINE
  5
189
100
AcDbEntity
  8
1
  6
ByLayer
 62
  256
370
   -1
100
AcDbLine
 10
-37.8605
 20
29.9598
 11
-37.9841
 21
30.0759
  0
LINE
  5
18A
100
AcDbEntity
  8
1
  6
ByLayer
 62
  256
370
   -1
100
AcDbLine
 10
-37.9841
 20
30.0759
 11
-38.0922
 21
30.2065
  0
LINE
  5
18B
100
AcDbEntity
  8
1
  6
ByLayer
 62
  256
370
   -1
100
AcDbLine
 10
-38.0922
 20
30.2065
 11
-38.183
 21
30.3496
  0
LINE
  5
18C
100
AcDbEntity
  8
1
  6
ByLayer
 62
  256
370
   -1
100
AcDbLine
 10
-38.183
 20
30.3496
 11
-38.2552
 21
30.503
  0
LINE
  5
18D
100
AcDbEntity
  8
1
  6
ByLayer
 62
  256
370
   -1
100
AcDbLine
 10
-38.2552
 20
30.503
 11
-38.3076
 21
30.6643
  0
LINE
  5
18E
100
AcDbEntity
  8
1
  6
ByLayer
 62
  256
370
   -1
100
AcDbLine
 10
-38.3076
 20
30.6643
 11
-38.3394
 21
30.8308
  0
LINE
  5
18F
100
AcDbEntity
  8
1
  6
ByLayer
 62
  256
370
   -1
100
AcDbLine
 10
-38.3394
 20
30.8308
 11
-38.35
 21
31
  0
LINE
  5
190
100
AcDbEntity
  8
1
  6
ByLayer
 62
  256
370
   -1
100
AcDbLine
 10
-38
 20
-27.2095
 11
-38
 21
27.2095
  0
LINE
  5
191
100
AcDbEntity
  8
1
  6
ByLayer
 62
  256
370
   -1
100
AcDbLine
 10
-38
 20
27.2095
 11
-37.6986
 21
27.2095
  0
LINE
  5
192
100
AcDbEntity
  8
1
  6
ByLayer
 62
  256
370
   -1
100
AcDbLine
 10
-37.6986
 20
27.2095
 11
-37.1006
 21
27.285
  0
LINE
  5
193
100
AcDbEntity
  8
1
  6
ByLayer
 62
  256
370
   -1
100
AcDbLine
 10
-37.1006
 20
27.285
 11
-36.5167
 21
27.4349
  0
LINE
  5
194
100
AcDbEntity
  8
1
  6
ByLayer
 62
  256
370
   -1
100
AcDbLine
 10
-36.5167
 20
27.4349
 11
-35.9563
 21
27.6568
  0
LINE
  5
195
100
AcDbEntity
  8
1
  6
ByLayer
 62
  256
370
   -1
100
AcDbLine
 10
-35.9563
 20
27.6568
 11
-35.428
 21
27.9472
  0
LINE
  5
196
100
AcDbEntity
  8
1
  6
ByLayer
 62
  256
370
   -1
100
AcDbLine
 10
-35.428
 20
27.9472
 11
-34.9404
 21
28.3015
  0
LINE
  5
197
100
AcDbEntity
  8
1
  6
ByLayer
 62
  256
370
   -1
100
AcDbLine
 10
-34.9404
 20
28.3015
 11
-34.501
 21
28.7142
  0
LINE
  5
198
100
AcDbEntity
  8
1
  6
ByLayer
 62
  256
370
   -1
100
AcDbLine
 10
-34.501
 20
28.7142
 11
-34.1167
 21
29.1786
  0
LINE
  5
199
100
AcDbEntity
  8
1
  6
ByLayer
 62
  256
370
   -1
100
AcDbLine
 10
-34.1167
 20
29.1786
 11
-33.7937
 21
29.6876
  0
LINE
  5
19A
100
AcDbEntity
  8
1
  6
ByLayer
 62
  256
370
   -1
100
AcDbLine
 10
-33.7937
 20
29.6876
 11
-33.5371
 21
30.233
  0
LINE
  5
19B
100
AcDbEntity
  8
1
  6
ByLayer
 62
  256
370
   -1
100
AcDbLine
 10
-33.5371
 20
30.233
 11
-33.3508
 21
30.8063
  0
LINE
  5
19C
100
AcDbEntity
  8
1
  6
ByLayer
 62
  256
370
   -1
100
AcDbLine
 10
-33.3508
 20
30.8063
 11
-33.2379
 21
31.3984
  0
LINE
  5
19D
100
AcDbEntity
  8
1
  6
ByLayer
 62
  256
370
   -1
100
AcDbLine
 10
-33.2379
 20
31.3984
 11
-33.2
 21
32
  0
LINE
  5
19E
100
AcDbEntity
  8
1
  6
ByLayer
 62
  256
370
   -1
100
AcDbLine
 10
-33.2
 20
32
 11
-33.2252
 21
32.4
  0
LINE
  5
19F
100
AcDbEntity
  8
1
  6
ByLayer
 62
  256
370
   -1
100
AcDbLine
 10
-33.2252
 20
32.4
 11
33.2252
 21
32.4
  0
LINE
  5
1A0
100
AcDbEntity
  8
1
  6
ByLayer
 62
  256
370
   -1
100
AcDbLine
 10
33.2252
 20
32.4
 11
33.2
 21
32
  0
LINE
  5
1A1
100
AcDbEntity
  8
1
  6
ByLayer
 62
  256
370
   -1
100
AcDbLine
 10
33.2
 20
32
 11
33.2378
 21
31.3984
  0
LINE
  5
1A2
100
AcDbEntity
  8
1
  6
ByLayer
 62
  256
370
   -1
100
AcDbLine
 10
33.2378
 20
31.3984
 11
33.3508
 21
30.8063
  0
LINE
  5
1A3
100
AcDbEntity
  8
1
  6
ByLayer
 62
  256
370
   -1
100
AcDbLine
 10
33.3508
 20
30.8063
 11
33.5371
 21
30.233
  0
LINE
  5
1A4
100
AcDbEntity
  8
1
  6
ByLayer
 62
  256
370
   -1
100
AcDbLine
 10
33.5371
 20
30.233
 11
33.7937
 21
29.6876
  0
LINE
  5
1A5
100
AcDbEntity
  8
1
  6
ByLayer
 62
  256
370
   -1
100
AcDbLine
 10
33.7937
 20
29.6876
 11
34.1167
 21
29.1786
  0
LINE
  5
1A6
100
AcDbEntity
  8
1
  6
ByLayer
 62
  256
370
   -1
100
AcDbLine
 10
34.1167
 20
29.1786
 11
34.5009
 21
28.7142
  0
LINE
  5
1A7
100
AcDbEntity
  8
1
  6
ByLayer
 62
  256
370
   -1
100
AcDbLine
 10
34.5009
 20
28.7142
 11
34.9404
 21
28.3015
  0
LINE
  5
1A8
100
AcDbEntity
  8
1
  6
ByLayer
 62
  256
370
   -1
100
AcDbLine
 10
34.9404
 20
28.3015
 11
35.428
 21
27.9472
  0
LINE
  5
1A9
100
AcDbEntity
  8
1
  6
ByLayer
 62
  256
370
   -1
100
AcDbLine
 10
35.428
 20
27.9472
 11
35.9563
 21
27.6568
  0
LINE
  5
1AA
100
AcDbEntity
  8
1
  6
ByLayer
 62
  256
370
   -1
100
AcDbLine
 10
35.9563
 20
27.6568
 11
36.5167
 21
27.4349
  0
LINE
  5
1AB
100
AcDbEntity
  8
1
  6
ByLayer
 62
  256
370
   -1
100
AcDbLine
 10
36.5167
 20
27.4349
 11
37.1006
 21
27.285
  0
LINE
  5
1AC
100
AcDbEntity
  8
1
  6
ByLayer
 62
  256
370
   -1
100
AcDbLine
 10
37.1006
 20
27.285
 11
37.6986
 21
27.2095
  0
LINE
  5
1AD
100
AcDbEntity
  8
1
  6
ByLayer
 62
  256
370
   -1
100
AcDbLine
 10
37.6986
 20
27.2095
 11
38.3014
 21
27.2095
  0
LINE
  5
1AE
100
AcDbEntity
  8
1
  6
ByLayer
 62
  256
370
   -1
100
AcDbLine
 10
38.3014
 20
27.2095
 11
38.4
 21
27.2219
  0
LINE
  5
1AF
100
AcDbEntity
  8
1
  6
ByLayer
 62
  256
370
   -1
100
AcDbLine
 10
38.4
 20
27.2219
 11
38.4
 21
-27.2219
  0
LINE
  5
1B0
100
AcDbEntity
  8
1
  6
ByLayer
 62
  256
370
   -1
100
AcDbLine
 10
38.4
 20
-27.2219
 11
38.3014
 21
-27.2095
  0
LINE
  5
1B1
100
AcDbEntity
  8
1
  6
ByLayer
 62
  256
370
   -1
100
AcDbLine
 10
38.3014
 20
-27.2095
 11
37.6986
 21
-27.2095
  0
LINE
  5
1B2
100
AcDbEntity
  8
1
  6
ByLayer
 62
  256
370
   -1
100
AcDbLine
 10
37.6986
 20
-27.2095
 11
37.1006
 21
-27.285
  0
LINE
  5
1B3
100
AcDbEntity
  8
1
  6
ByLayer
 62
  256
370
   -1
100
AcDbLine
 10
37.1006
 20
-27.285
 11
36.5167
 21
-27.4349
  0
LINE
  5
1B4
100
AcDbEntity
  8
1
  6
ByLayer
 62
  256
370
   -1
100
AcDbLine
 10
36.5167
 20
-27.4349
 11
35.9563
 21
-27.6568
  0
LINE
  5
1B5
100
AcDbEntity
  8
1
  6
ByLayer
 62
  256
370
   -1
100
AcDbLine
 10
35.9563
 20
-27.6568
 11
35.428
 21
-27.9472
  0
LINE
  5
1B6
100
AcDbEntity
  8
1
  6
ByLayer
 62
  256
370
   -1
100
AcDbLine
 10
35.428
 20
-27.9472
 11
34.9404
 21
-28.3015
  0
LINE
  5
1B7
100
AcDbEntity
  8
1
  6
ByLayer
 62
  256
370
   -1
100
AcDbLine
 10
34.9404
 20
-28.3015
 11
34.5009
 21
-28.7142
  0
LINE
  5
1B8
100
AcDbEntity
  8
1
  6
ByLayer
 62
  256
370
   -1
100
AcDbLine
 10
34.5009
 20
-28.7142
 11
34.1167
 21
-29.1786
  0
LINE
  5
1B9
100
AcDbEntity
  8
1
  6
ByLayer
 62
  256
370
   -1
100
AcDbLine
 10
34.1167
 20
-29.1786
 11
33.7937
 21
-29.6876
  0
LINE
  5
1BA
100
AcDbEntity
  8
1
  6
ByLayer
 62
  256
370
   -1
100
AcDbLine
 10
33.7937
 20
-29.6876
 11
33.5371
 21
-30.233
  0
LINE
  5
1BB
100
AcDbEntity
  8
1
  6
ByLayer
 62
  256
370
   -1
100
AcDbLine
 10
33.5371
 20
-30.233
 11
33.3508
 21
-30.8063
  0
LINE
  5
1BC
100
AcDbEntity
  8
1
  6
ByLayer
 62
  256
370
   -1
100
AcDbLine
 10
33.3508
 20
-30.8063
 11
33.2378
 21
-31.3984
  0
LINE
  5
1BD
100
AcDbEntity
  8
1
  6
ByLayer
 62
  256
370
   -1
100
AcDbLine
 10
33.2378
 20
-31.3984
 11
33.2
 21
-32
  0
LINE
  5
1BE
100
AcDbEntity
  8
1
  6
ByLayer
 62
  256
370
   -1
100
AcDbLine
 10
33.2
 20
-32
 11
27.0992
 21
-32
  0
LINE
  5
1BF
100
AcDbEntity
  8
1
  6
ByLayer
 62
  256
370
   -1
100
AcDbLine
 10
27.0992
 20
-32
 11
25.7035
 21
-32.1763
  0
LINE
  5
1C0
100
AcDbEntity
  8
1
  6
ByLayer
 62
  256
370
   -1
100
AcDbLine
 10
25.7035
 20
-32.1763
 11
-25.7035
 21
-32.1763
  0
LINE
  5
1C1
100
AcDbEntity
  8
1
  6
ByLayer
 62
  256
370
   -1
100
AcDbLine
 10
-25.7035
 20
-32.1763
 11
-27.0992
 21
-32
  0
LINE
  5
1C2
100
AcDbEntity
  8
1
  6
ByLayer
 62
  256
370
   -1
100
AcDbLine
 10
-27.0992
 20
-32
 11
-33.2
 21
-32
  0
LINE
  5
1C3
100
AcDbEntity
  8
1
  6
ByLayer
 62
  256
370
   -1
100
AcDbLine
 10
-33.2
 20
-32
 11
-33.2379
 21
-31.3984
  0
LINE
  5
1C4
100
AcDbEntity
  8
1
  6
ByLayer
 62
  256
370
   -1
100
AcDbLine
 10
-33.2379
 20
-31.3984
 11
-33.3508
 21
-30.8063
  0
LINE
  5
1C5
100
AcDbEntity
  8
1
  6
ByLayer
 62
  256
370
   -1
100
AcDbLine
 10
-33.3508
 20
-30.8063
 11
-33.5371
 21
-30.233
  0
LINE
  5
1C6
100
AcDbEntity
  8
1
  6
ByLayer
 62
  256
370
   -1
100
AcDbLine
 10
-33.5371
 20
-30.233
 11
-33.7937
 21
-29.6876
  0
LINE
  5
1C7
100
AcDbEntity
  8
1
  6
ByLayer
 62
  256
370
   -1
100
AcDbLine
 10
-33.7937
 20
-29.6876
 11
-34.1167
 21
-29.1786
  0
LINE
  5
1C8
100
AcDbEntity
  8
1
  6
ByLayer
 62
  256
370
   -1
100
AcDbLine
 10
-34.1167
 20
-29.1786
 11
-34.501
 21
-28.7142
  0
LINE
  5
1C9
100
AcDbEntity
  8
1
  6
ByLayer
 62
  256
370
   -1
100
AcDbLine
 10
-34.501
 20
-28.7142
 11
-34.9404
 21
-28.3015
  0
LINE
  5
1CA
100
AcDbEntity
  8
1
  6
ByLayer
 62
  256
370
   -1
100
AcDbLine
 10
-34.9404
 20
-28.3015
 11
-35.428
 21
-27.9472
  0
LINE
  5
1CB
100
AcDbEntity
  8
1
  6
ByLayer
 62
  256
370
   -1
100
AcDbLine
 10
-35.428
 20
-27.9472
 11
-35.9563
 21
-27.6568
  0
LINE
  5
1CC
100
AcDbEntity
  8
1
  6
ByLayer
 62
  256
370
   -1
100
AcDbLine
 10
-35.9563
 20
-27.6568
 11
-36.5167
 21
-27.4349
  0
LINE
  5
1CD
100
AcDbEntity
  8
1
  6
ByLayer
 62
  256
370
   -1
100
AcDbLine
 10
-36.5167
 20
-27.4349
 11
-37.1006
 21
-27.285
  0
LINE
  5
1CE
100
AcDbEntity
  8
1
  6
ByLayer
 62
  256
370
   -1
100
AcDbLine
 10
-37.1006
 20
-27.285
 11
-37.6986
 21
-27.2095
  0
LINE
  5
1CF
100
AcDbEntity
  8
1
  6
ByLayer
 62
  256
370
   -1
100
AcDbLine
 10
-37.6986
 20
-27.2095
 11
-38
 21
-27.2095
  0
LINE
  5
1D0
100
AcDbEntity
  8
1
  6
ByLayer
 62
  256
370
   -1
100
AcDbLine
 10
35.65
 20
-31
 11
35.6606
 21
-30.8308
  0
LINE
  5
1D1
100
AcDbEntity
  8
1
  6
ByLayer
 62
  256
370
   -1
100
AcDbLine
 10
35.6606
 20
-30.8308
 11
35.6924
 21
-30.6643
  0
LINE
  5
1D2
100
AcDbEntity
  8
1
  6
ByLayer
 62
  256
370
   -1
100
AcDbLine
 10
35.6924
 20
-30.6643
 11
35.7448
 21
-30.503
  0
LINE
  5
1D3
100
AcDbEntity
  8
1
  6
ByLayer
 62
  256
370
   -1
100
AcDbLine
 10
35.7448
 20
-30.503
 11
35.817
 21
-30.3496
  0
LINE
  5
1D4
100
AcDbEntity
  8
1
  6
ByLayer
 62
  256
370
   -1
100
AcDbLine
 10
35.817
 20
-30.3496
 11
35.9078
 21
-30.2065
  0
LINE
  5
1D5
100
AcDbEntity
  8
1
  6
ByLayer
 62
  256
370
   -1
100
AcDbLine
 10
35.9078
 20
-30.2065
 11
36.0159
 21
-30.0759
  0
LINE
  5
1D6
100
AcDbEntity
  8
1
  6
ByLayer
 62
  256
370
   -1
100
AcDbLine
 10
36.0159
 20
-30.0759
 11
36.1395
 21
-29.9598
  0
LINE
  5
1D7
100
AcDbEntity
  8
1
  6
ByLayer
 62
  256
370
   -1
100
AcDbLine
 10
36.1395
 20
-29.9598
 11
36.2766
 21
-29.8602
  0
LINE
  5
1D8
100
AcDbEntity
  8
1
  6
ByLayer
 62
  256
370
   -1
100
AcDbLine
 10
36.2766
 20
-29.8602
 11
36.4252
 21
-29.7785
  0
LINE
  5
1D9
100
AcDbEntity
  8
1
  6
ByLayer
 62
  256
370
   -1
100
AcDbLine
 10
36.4252
 20
-29.7785
 11
36.5828
 21
-29.7161
  0
LINE
  5
1DA
100
AcDbEntity
  8
1
  6
ByLayer
 62
  256
370
   -1
100
AcDbLine
 10
36.5828
 20
-29.7161
 11
36.747
 21
-29.6739
  0
LINE
  5
1DB
100
AcDbEntity
  8
1
  6
ByLayer
 62
  256
370
   -1
100
AcDbLine
 10
36.747
 20
-29.6739
 11
36.9152
 21
-29.6527
  0
LINE
  5
1DC
100
AcDbEntity
  8
1
  6
ByLayer
 62
  256
370
   -1
100
AcDbLine
 10
36.9152
 20
-29.6527
 11
37.0848
 21
-29.6527
  0
LINE
  5
1DD
100
AcDbEntity
  8
1
  6
ByLayer
 62
  256
370
   -1
100
AcDbLine
 10
37.0848
 20
-29.6527
 11
37.253
 21
-29.6739
  0
LINE
  5
1DE
100
AcDbEntity
  8
1
  6
ByLayer
 62
  256
370
   -1
100
AcDbLine
 10
37.253
 20
-29.6739
 11
37.4172
 21
-29.7161
  0
LINE
  5
1DF
100
AcDbEntity
  8
1
  6
ByLayer
 62
  256
370
   -1
100
AcDbLine
 10
37.4172
 20
-29.7161
 11
37.5748
 21
-29.7785
  0
LINE
  5
1E0
100
AcDbEntity
  8
1
  6
ByLayer
 62
  256
370
   -1
100
AcDbLine
 10
37.5748
 20
-29.7785
 11
37.7234
 21
-29.8602
  0
LINE
  5
1E1
100
AcDbEntity
  8
1
  6
ByLayer
 62
  256
370
   -1
100
AcDbLine
 10
37.7234
 20
-29.8602
 11
37.8605
 21
-29.9598
  0
LINE
  5
1E2
100
AcDbEntity
  8
1
  6
ByLayer
 62
  256
370
   -1
100
AcDbLine
 10
37.8605
 20
-29.9598
 11
37.9841
 21
-30.0759
  0
LINE
  5
1E3
100
AcDbEntity
  8
1
  6
ByLayer
 62
  256
370
   -1
100
AcDbLine
 10
37.9841
 20
-30.0759
 11
38.0922
 21
-30.2065
  0
LINE
  5
1E4
100
AcDbEntity
  8
1
  6
ByLayer
 62
  256
370
   -1
100
AcDbLine
 10
38.0922
 20
-30.2065
 11
38.183
 21
-30.3496
  0
LINE
  5
1E5
100
AcDbEntity
  8
1
  6
ByLayer
 62
  256
370
   -1
100
AcDbLine
 10
38.183
 20
-30.3496
 11
38.2552
 21
-30.503
  0
LINE
  5
1E6
100
AcDbEntity
  8
1
  6
ByLayer
 62
  256
370
   -1
100
AcDbLine
 10
38.2552
 20
-30.503
 11
38.3076
 21
-30.6643
  0
LINE
  5
1E7
100
AcDbEntity
  8
1
  6
ByLayer
 62
  256
370
   -1
100
AcDbLine
 10
38.3076
 20
-30.6643
 11
38.3394
 21
-30.8308
  0
LINE
  5
1E8
100
AcDbEntity
  8
1
  6
ByLayer
 62
  256
370
   -1
100
AcDbLine
 10
38.3394
 20
-30.8308
 11
38.35
 21
-31
  0
LINE
  5
1E9
100
AcDbEntity
  8
1
  6
ByLayer
 62
  256
370
   -1
100
AcDbLine
 10
38.35
 20
-31
 11
38.3394
 21
-31.1692
  0
LINE
  5
1EA
100
AcDbEntity
  8
1
  6
ByLayer
 62
  256
370
   -1
100
AcDbLine
 10
38.3394
 20
-31.1692
 11
38.3076
 21
-31.3357
  0
LINE
  5
1EB
100
AcDbEntity
  8
1
  6
ByLayer
 62
  256
370
   -1
100
AcDbLine
 10
38.3076
 20
-31.3357
 11
38.2552
 21
-31.497
  0
LINE
  5
1EC
100
AcDbEntity
  8
1
  6
ByLayer
 62
  256
370
   -1
100
AcDbLine
 10
38.2552
 20
-31.497
 11
38.183
 21
-31.6504
  0
LINE
  5
1ED
100
AcDbEntity
  8
1
  6
ByLayer
 62
  256
370
   -1
100
AcDbLine
 10
38.183
 20
-31.6504
 11
38.0922
 21
-31.7935
  0
LINE
  5
1EE
100
AcDbEntity
  8
1
  6
ByLayer
 62
  256
370
   -1
100
AcDbLine
 10
38.0922
 20
-31.7935
 11
37.9841
 21
-31.9241
  0
LINE
  5
1EF
100
AcDbEntity
  8
1
  6
ByLayer
 62
  256
370
   -1
100
AcDbLine
 10
37.9841
 20
-31.9241
 11
37.8605
 21
-32.0402
  0
LINE
  5
1F0
100
AcDbEntity
  8
1
  6
ByLayer
 62
  256
370
   -1
100
AcDbLine
 10
37.8605
 20
-32.0402
 11
37.7234
 21
-32.1398
  0
LINE
  5
1F1
100
AcDbEntity
  8
1
  6
ByLayer
 62
  256
370
   -1
100
AcDbLine
 10
37.7234
 20
-32.1398
 11
37.5748
 21
-32.2215
  0
LINE
  5
1F2
100
AcDbEntity
  8
1
  6
ByLayer
 62
  256
370
   -1
100
AcDbLine
 10
37.5748
 20
-32.2215
 11
37.4172
 21
-32.2839
  0
LINE
  5
1F3
100
AcDbEntity
  8
1
  6
ByLayer
 62
  256
370
   -1
100
AcDbLine
 10
37.4172
 20
-32.2839
 11
37.253
 21
-32.3261
  0
LINE
  5
1F4
100
AcDbEntity
  8
1
  6
ByLayer
 62
  256
370
   -1
100
AcDbLine
 10
37.253
 20
-32.3261
 11
37.0848
 21
-32.3473
  0
LINE
  5
1F5
100
AcDbEntity
  8
1
  6
ByLayer
 62
  256
370
   -1
100
AcDbLine
 10
37.0848
 20
-32.3473
 11
36.9152
 21
-32.3473
  0
LINE
  5
1F6
100
AcDbEntity
  8
1
  6
ByLayer
 62
  256
370
   -1
100
AcDbLine
 10
36.9152
 20
-32.3473
 11
36.747
 21
-32.3261
  0
LINE
  5
1F7
100
AcDbEntity
  8
1
  6
ByLayer
 62
  256
370
   -1
100
AcDbLine
 10
36.747
 20
-32.3261
 11
36.5828
 21
-32.2839
  0
LINE
  5
1F8
100
AcDbEntity
  8
1
  6
ByLayer
 62
  256
370
   -1
100
AcDbLine
 10
36.5828
 20
-32.2839
 11
36.4252
 21
-32.2215
  0
LINE
  5
1F9
100
AcDbEntity
  8
1
  6
ByLayer
 62
  256
370
   -1
100
AcDbLine
 10
36.4252
 20
-32.2215
 11
36.2766
 21
-32.1398
  0
LINE
  5
1FA
100
AcDbEntity
  8
1
  6
ByLayer
 62
  256
370
   -1
100
AcDbLine
 10
36.2766
 20
-32.1398
 11
36.1395
 21
-32.0402
  0
LINE
  5
1FB
100
AcDbEntity
  8
1
  6
ByLayer
 62
  256
370
   -1
100
AcDbLine
 10
36.1395
 20
-32.0402
 11
36.0159
 21
-31.9241
  0
LINE
  5
1FC
100
AcDbEntity
  8
1
  6
ByLayer
 62
  256
370
   -1
100
AcDbLine
 10
36.0159
 20
-31.9241
 11
35.9078
 21
-31.7935
  0
LINE
  5
1FD
100
AcDbEntity
  8
1
  6
ByLayer
 62
  256
370
   -1
100
AcDbLine
 10
35.9078
 20
-31.7935
 11
35.817
 21
-31.6504
  0
LINE
  5
1FE
100
AcDbEntity
  8
1
  6
ByLayer
 62
  256
370
   -1
100
AcDbLine
 10
35.817
 20
-31.6504
 11
35.7448
 21
-31.497
  0
LINE
  5
1FF
100
AcDbEntity
  8
1
  6
ByLayer
 62
  256
370
   -1
100
AcDbLine
 10
35.7448
 20
-31.497
 11
35.6924
 21
-31.3357
  0
LINE
  5
200
100
AcDbEntity
  8
1
  6
ByLayer
 62
  256
370
   -1
100
AcDbLine
 10
35.6924
 20
-31.3357
 11
35.6606
 21
-31.1692
  0
LINE
  5
201
100
AcDbEntity
  8
1
  6
ByLayer
 62
  256
370
   -1
100
AcDbLine
 10
35.6606
 20
-31.1692
 11
35.65
 21
-31
  0
LINE
  5
202
100
AcDbEntity
  8
1
  6
ByLayer
 62
  256
370
   -1
100
AcDbLine
 10
35.65
 20
31
 11
35.6606
 21
31.1692
  0
LINE
  5
203
100
AcDbEntity
  8
1
  6
ByLayer
 62
  256
370
   -1
100
AcDbLine
 10
35.6606
 20
31.1692
 11
35.6924
 21
31.3357
  0
LINE
  5
204
100
AcDbEntity
  8
1
  6
ByLayer
 62
  256
370
   -1
100
AcDbLine
 10
35.6924
 20
31.3357
 11
35.7448
 21
31.497
  0
LINE
  5
205
100
AcDbEntity
  8
1
  6
ByLayer
 62
  256
370
   -1
100
AcDbLine
 10
35.7448
 20
31.497
 11
35.817
 21
31.6504
  0
LINE
  5
206
100
AcDbEntity
  8
1
  6
ByLayer
 62
  256
370
   -1
100
AcDbLine
 10
35.817
 20
31.6504
 11
35.9078
 21
31.7935
  0
LINE
  5
207
100
AcDbEntity
  8
1
  6
ByLayer
 62
  256
370
   -1
100
AcDbLine
 10
35.9078
 20
31.7935
 11
36.0159
 21
31.9241
  0
LINE
  5
208
100
AcDbEntity
  8
1
  6
ByLayer
 62
  256
370
   -1
100
AcDbLine
 10
36.0159
 20
31.9241
 11
36.1395
 21
32.0402
  0
LINE
  5
209
100
AcDbEntity
  8
1
  6
ByLayer
 62
  256
370
   -1
100
AcDbLine
 10
36.1395
 20
32.0402
 11
36.2766
 21
32.1398
  0
LINE
  5
20A
100
AcDbEntity
  8
1
  6
ByLayer
 62
  256
370
   -1
100
AcDbLine
 10
36.2766
 20
32.1398
 11
36.4252
 21
32.2215
  0
LINE
  5
20B
100
AcDbEntity
  8
1
  6
ByLayer
 62
  256
370
   -1
100
AcDbLine
 10
36.4252
 20
32.2215
 11
36.5828
 21
32.2839
  0
LINE
  5
20C
100
AcDbEntity
  8
1
  6
ByLayer
 62
  256
370
   -1
100
AcDbLine
 10
36.5828
 20
32.2839
 11
36.747
 21
32.3261
  0
LINE
  5
20D
100
AcDbEntity
  8
1
  6
ByLayer
 62
  256
370
   -1
100
AcDbLine
 10
36.747
 20
32.3261
 11
36.9152
 21
32.3473
  0
LINE
  5
20E
100
AcDbEntity
  8
1
  6
ByLayer
 62
  256
370
   -1
100
AcDbLine
 10
36.9152
 20
32.3473
 11
37.0848
 21
32.3473
  0
LINE
  5
20F
100
AcDbEntity
  8
1
  6
ByLayer
 62
  256
370
   -1
100
AcDbLine
 10
37.0848
 20
32.3473
 11
37.253
 21
32.3261
  0
LINE
  5
210
100
AcDbEntity
  8
1
  6
ByLayer
 62
  256
370
   -1
100
AcDbLine
 10
37.253
 20
32.3261
 11
37.4172
 21
32.2839
  0
LINE
  5
211
100
AcDbEntity
  8
1
  6
ByLayer
 62
  256
370
   -1
100
AcDbLine
 10
37.4172
 20
32.2839
 11
37.5748
 21
32.2215
  0
LINE
  5
212
100
AcDbEntity
  8
1
  6
ByLayer
 62
  256
370
   -1
100
AcDbLine
 10
37.5748
 20
32.2215
 11
37.7234
 21
32.1398
  0
LINE
  5
213
100
AcDbEntity
  8
1
  6
ByLayer
 62
  256
370
   -1
100
AcDbLine
 10
37.7234
 20
32.1398
 11
37.8605
 21
32.0402
  0
LINE
  5
214
100
AcDbEntity
  8
1
  6
ByLayer
 62
  256
370
   -1
100
AcDbLine
 10
37.8605
 20
32.0402
 11
37.9841
 21
31.9241
  0
LINE
  5
215
100
AcDbEntity
  8
1
  6
ByLayer
 62
  256
370
   -1
100
AcDbLine
 10
37.9841
 20
31.9241
 11
38.0922
 21
31.7935
  0
LINE
  5
216
100
AcDbEntity
  8
1
  6
ByLayer
 62
  256
370
   -1
100
AcDbLine
 10
38.0922
 20
31.7935
 11
38.183
 21
31.6504
  0
LINE
  5
217
100
AcDbEntity
  8
1
  6
ByLayer
 62
  256
370
   -1
100
AcDbLine
 10
38.183
 20
31.6504
 11
38.2552
 21
31.497
  0
LINE
  5
218
100
AcDbEntity
  8
1
  6
ByLayer
 62
  256
370
   -1
100
AcDbLine
 10
38.2552
 20
31.497
 11
38.3076
 21
31.3357
  0
LINE
  5
219
100
AcDbEntity
  8
1
  6
ByLayer
 62
  256
370
   -1
100
AcDbLine
 10
38.3076
 20
31.3357
 11
38.3394
 21
31.1692
  0
LINE
  5
21A
100
AcDbEntity
  8
1
  6
ByLayer
 62
  256
370
   -1
100
AcDbLine
 10
38.3394
 20
31.1692
 11
38.35
 21
31
  0
LINE
  5
21B
100
AcDbEntity
  8
1
  6
ByLayer
 62
  256
370
   -1
100
AcDbLine
 10
38.35
 20
31
 11
38.3394
 21
30.8308
  0
LINE
  5
21C
100
AcDbEntity
  8
1
  6
ByLayer
 62
  256
370
   -1
100
AcDbLine
 10
38.3394
 20
30.8308
 11
38.3076
 21
30.6643
  0
LINE
  5
21D
100
AcDbEntity
  8
1
  6
ByLayer
 62
  256
370
   -1
100
AcDbLine
 10
38.3076
 20
30.6643
 11
38.2552
 21
30.503
  0
LINE
  5
21E
100
AcDbEntity
  8
1
  6
ByLayer
 62
  256
370
   -1
100
AcDbLine
 10
38.2552
 20
30.503
 11
38.183
 21
30.3496
  0
LINE
  5
21F
100
AcDbEntity
  8
1
  6
ByLayer
 62
  256
370
   -1
100
AcDbLine
 10
38.183
 20
30.3496
 11
38.0922
 21
30.2065
  0
LINE
  5
220
100
AcDbEntity
  8
1
  6
ByLayer
 62
  256
370
   -1
100
AcDbLine
 10
38.0922
 20
30.2065
 11
37.9841
 21
30.0759
  0
LINE
  5
221
100
AcDbEntity
  8
1
  6
ByLayer
 62
  256
370
   -1
100
AcDbLine
 10
37.9841
 20
30.0759
 11
37.8605
 21
29.9598
  0
LINE
  5
222
100
AcDbEntity
  8
1
  6
ByLayer
 62
  256
370
   -1
100
AcDbLine
 10
37.8605
 20
29.9598
 11
37.7234
 21
29.8602
  0
LINE
  5
223
100
AcDbEntity
  8
1
  6
ByLayer
 62
  256
370
   -1
100
AcDbLine
 10
37.7234
 20
29.8602
 11
37.5748
 21
29.7785
  0
LINE
  5
224
100
AcDbEntity
  8
1
  6
ByLayer
 62
  256
370
   -1
100
AcDbLine
 10
37.5748
 20
29.7785
 11
37.4172
 21
29.7161
  0
LINE
  5
225
100
AcDbEntity
  8
1
  6
ByLayer
 62
  256
370
   -1
100
AcDbLine
 10
37.4172
 20
29.7161
 11
37.253
 21
29.6739
  0
LINE
  5
226
100
AcDbEntity
  8
1
  6
ByLayer
 62
  256
370
   -1
100
AcDbLine
 10
37.253
 20
29.6739
 11
37.0848
 21
29.6527
  0
LINE
  5
227
100
AcDbEntity
  8
1
  6
ByLayer
 62
  256
370
   -1
100
AcDbLine
 10
37.0848
 20
29.6527
 11
36.9152
 21
29.6527
  0
LINE
  5
228
100
AcDbEntity
  8
1
  6
ByLayer
 62
  256
370
   -1
100
AcDbLine
 10
36.9152
 20
29.6527
 11
36.747
 21
29.6739
  0
LINE
  5
229
100
AcDbEntity
  8
1
  6
ByLayer
 62
  256
370
   -1
100
AcDbLine
 10
36.747
 20
29.6739
 11
36.5828
 21
29.7161
  0
LINE
  5
22A
100
AcDbEntity
  8
1
  6
ByLayer
 62
  256
370
   -1
100
AcDbLine
 10
36.5828
 20
29.7161
 11
36.4252
 21
29.7785
  0
LINE
  5
22B
100
AcDbEntity
  8
1
  6
ByLayer
 62
  256
370
   -1
100
AcDbLine
 10
36.4252
 20
29.7785
 11
36.2766
 21
29.8602
  0
LINE
  5
22C
100
AcDbEntity
  8
1
  6
ByLayer
 62
  256
370
   -1
100
AcDbLine
 10
36.2766
 20
29.8602
 11
36.1395
 21
29.9598
  0
LINE
  5
22D
100
AcDbEntity
  8
1
  6
ByLayer
 62
  256
370
   -1
100
AcDbLine
 10
36.1395
 20
29.9598
 11
36.0159
 21
30.0759
  0
LINE
  5
22E
100
AcDbEntity
  8
1
  6
ByLayer
 62
  256
370
   -1
100
AcDbLine
 10
36.0159
 20
30.0759
 11
35.9078
 21
30.2065
  0
LINE
  5
22F
100
AcDbEntity
  8
1
  6
ByLayer
 62
  256
370
   -1
100
AcDbLine
 10
35.9078
 20
30.2065
 11
35.817
 21
30.3496
  0
LINE
  5
230
100
AcDbEntity
  8
1
  6
ByLayer
 62
  256
370
   -1
100
AcDbLine
 10
35.817
 20
30.3496
 11
35.7448
 21
30.503
  0
LINE
  5
231
100
AcDbEntity
  8
1
  6
ByLayer
 62
  256
370
   -1
100
AcDbLine
 10
35.7448
 20
30.503
 11
35.6924
 21
30.6643
  0
LINE
  5
232
100
AcDbEntity
  8
1
  6
ByLayer
 62
  256
370
   -1
100
AcDbLine
 10
35.6924
 20
30.6643
 11
35.6606
 21
30.8308
  0
LINE
  5
233
100
AcDbEntity
  8
1
  6
ByLayer
 62
  256
370
   -1
100
AcDbLine
 10
35.6606
 20
30.8308
 11
35.65
 21
31
  0
DIMENSION
  5
234
100
AcDbEntity
  8
1
  6
ByLayer
 62
  256
370
   -1
100
AcDbDimension
  2
*D1
 10
-50.257519304482
 20
-35.1901
 30
0
 11
-52.132519304482
 21
2.296212748401287e-16
 31
0
 70
   32
 71
    5
  3
Standard
 53
0
210
0
220
0
230
1
100
AcDbAlignedDimension
 13
-36.514
 23
35.1901
 33
0
 14
-36.514
 24
-35.1901
 34
0
 50
90
100
AcDbRotatedDimension
  0
DIMENSION
  5
235
100
AcDbEntity
  8
1
  6
ByLayer
 62
  256
370
   -1
100
AcDbDimension
  2
*D2
 10
41.2
 20
-45.25808021136599
 30
0
 11
0.01969999999999328
 21
-43.38308021136599
 31
0
 70
   32
 71
    5
  3
Standard
 53
0
210
0
220
0
230
1
100
AcDbAlignedDimension
 13
-41.1606
 23
-30.8267
 33
0
 14
41.2
 24
-30.2
 34
0
100
AcDbRotatedDimension
  0
ARC
  5
236
100
AcDbEntity
  8
0
  6
ByLayer
 62
  256
370
   -1
100
AcDbCircle
 10
36
 20
30
 40
5
100
AcDbArc
 50
0
 51
90
  0
LINE
  5
237
100
AcDbEntity
  8
0
  6
ByLayer
 62
  256
370
   -1
100
AcDbLine
 10
-36
 20
35
 11
36
 21
35
  0
ARC
  5
238
100
AcDbEntity
  8
0
  6
ByLayer
 62
  256
370
   -1
100
AcDbCircle
 10
-36
 20
30
 40
5
100
AcDbArc
 50
90
 51
180
  0
LINE
  5
239
100
AcDbEntity
  8
0
  6
ByLayer
 62
  256
370
   -1
100
AcDbLine
 10
-41
 20
30
 11
-41.00000000000001
 21
-30
  0
ARC
  5
23A
100
AcDbEntity
  8
0
  6
ByLayer
 62
  256
370
   -1
100
AcDbCircle
 10
-36
 20
-30
 40
5
100
AcDbArc
 50
180
 51
270
  0
LINE
  5
23B
100
AcDbEntity
  8
0
  6
ByLayer
 62
  256
370
   -1
100
AcDbLine
 10
-36
 20
-35
 11
36
 21
-35
  0
LINE
  5
23C
100
AcDbEntity
  8
0
  6
ByLayer
 62
  256
370
   -1
100
AcDbLine
 10
41
 20
30
 11
40.99999999999999
 21
-30
  0
ARC
  5
23D
100
AcDbEntity
  8
0
  6
ByLayer
 62
  256
370
   -1
100
AcDbCircle
 10
36
 20
-30
 40
5
100
AcDbArc
 50
270
 51
0
  0
CIRCLE
  5
23E
100
AcDbEntity
  8
0
  6
ByLayer
 62
  256
370
   -1
100
AcDbCircle
 10
-37.00000000000001
 20
31
 40
1.6
  0
CIRCLE
  5
23F
100
AcDbEntity
  8
0
  6
ByLayer
 62
  256
370
   -1
100
AcDbCircle
 10
37
 20
31
 40
1.6
  0
CIRCLE
  5
240
100
AcDbEntity
  8
0
  6
ByLayer
 62
  256
370
   -1
100
AcDbCircle
 10
37
 20
-31
 40
1.6
  0
CIRCLE
  5
241
100
AcDbEntity
  8
0
  6
ByLayer
 62
  256
370
   -1
100
AcDbCircle
 10
-37
 20
-31
 40
1.6
  0
ENDSEC
  0
SECTION
  2
OBJECTS
  0
DICTIONARY
  5
C
330
0
100
AcDbDictionary
281
    1
  3
ACAD_GROUP
350
D
  0
DICTIONARY
  5
D
330
C
100
AcDbDictionary
281
    1
  0
ENDSEC
  0
EOF
