G04 #@! TF.GenerationSoftware,KiCad,Pcbnew,(6.0.0-rc1-dev-199-g6b039bc99)*
G04 #@! TF.CreationDate,2018-12-03T23:01:25+01:00*
G04 #@! TF.ProjectId,Ali-FM,416C692D464D2E6B696361645F706362,rev?*
G04 #@! TF.SameCoordinates,Original*
G04 #@! TF.FileFunction,Legend,Top*
G04 #@! TF.FilePolarity,Positive*
%FSLAX46Y46*%
G04 Gerber Fmt 4.6, Leading zero omitted, Abs format (unit mm)*
G04 Created by KiCad (PCBNEW (6.0.0-rc1-dev-199-g6b039bc99)) date Mon Dec  3 23:01:25 2018*
%MOMM*%
%LPD*%
G01*
G04 APERTURE LIST*
%ADD10C,0.150000*%
%ADD11C,0.300000*%
%ADD12C,0.120000*%
%ADD13C,0.100000*%
%ADD14C,0.125000*%
G04 APERTURE END LIST*
D10*
X16510000Y12192000D02*
X0Y12192000D01*
X1972571Y14004857D02*
X2029714Y14062000D01*
X2144000Y14119142D01*
X2429714Y14119142D01*
X2544000Y14062000D01*
X2601142Y14004857D01*
X2658285Y13890571D01*
X2658285Y13776285D01*
X2601142Y13604857D01*
X1915428Y12919142D01*
X2658285Y12919142D01*
X3401142Y14119142D02*
X3515428Y14119142D01*
X3629714Y14062000D01*
X3686857Y14004857D01*
X3744000Y13890571D01*
X3801142Y13662000D01*
X3801142Y13376285D01*
X3744000Y13147714D01*
X3686857Y13033428D01*
X3629714Y12976285D01*
X3515428Y12919142D01*
X3401142Y12919142D01*
X3286857Y12976285D01*
X3229714Y13033428D01*
X3172571Y13147714D01*
X3115428Y13376285D01*
X3115428Y13662000D01*
X3172571Y13890571D01*
X3229714Y14004857D01*
X3286857Y14062000D01*
X3401142Y14119142D01*
X4944000Y12919142D02*
X4258285Y12919142D01*
X4601142Y12919142D02*
X4601142Y14119142D01*
X4486857Y13947714D01*
X4372571Y13833428D01*
X4258285Y13776285D01*
X5629714Y13604857D02*
X5515428Y13662000D01*
X5458285Y13719142D01*
X5401142Y13833428D01*
X5401142Y13890571D01*
X5458285Y14004857D01*
X5515428Y14062000D01*
X5629714Y14119142D01*
X5858285Y14119142D01*
X5972571Y14062000D01*
X6029714Y14004857D01*
X6086857Y13890571D01*
X6086857Y13833428D01*
X6029714Y13719142D01*
X5972571Y13662000D01*
X5858285Y13604857D01*
X5629714Y13604857D01*
X5515428Y13547714D01*
X5458285Y13490571D01*
X5401142Y13376285D01*
X5401142Y13147714D01*
X5458285Y13033428D01*
X5515428Y12976285D01*
X5629714Y12919142D01*
X5858285Y12919142D01*
X5972571Y12976285D01*
X6029714Y13033428D01*
X6086857Y13147714D01*
X6086857Y13376285D01*
X6029714Y13490571D01*
X5972571Y13547714D01*
X5858285Y13604857D01*
X6601142Y13376285D02*
X7515428Y13376285D01*
X8715428Y12919142D02*
X8029714Y12919142D01*
X8372571Y12919142D02*
X8372571Y14119142D01*
X8258285Y13947714D01*
X8143999Y13833428D01*
X8029714Y13776285D01*
X9858285Y12919142D02*
X9172571Y12919142D01*
X9515428Y12919142D02*
X9515428Y14119142D01*
X9401142Y13947714D01*
X9286857Y13833428D01*
X9172571Y13776285D01*
X11286857Y12919142D02*
X11286857Y13719142D01*
X11286857Y13490571D02*
X11344000Y13604857D01*
X11401142Y13662000D01*
X11515428Y13719142D01*
X11629714Y13719142D01*
X12486857Y12976285D02*
X12372571Y12919142D01*
X12144000Y12919142D01*
X12029714Y12976285D01*
X11972571Y13090571D01*
X11972571Y13547714D01*
X12029714Y13662000D01*
X12144000Y13719142D01*
X12372571Y13719142D01*
X12486857Y13662000D01*
X12544000Y13547714D01*
X12544000Y13433428D01*
X11972571Y13319142D01*
X12944000Y13719142D02*
X13229714Y12919142D01*
X13515428Y13719142D01*
X14201142Y14119142D02*
X14315428Y14119142D01*
X14429714Y14062000D01*
X14486857Y14004857D01*
X14544000Y13890571D01*
X14601142Y13662000D01*
X14601142Y13376285D01*
X14544000Y13147714D01*
X14486857Y13033428D01*
X14429714Y12976285D01*
X14315428Y12919142D01*
X14201142Y12919142D01*
X14086857Y12976285D01*
X14029714Y13033428D01*
X13972571Y13147714D01*
X13915428Y13376285D01*
X13915428Y13662000D01*
X13972571Y13890571D01*
X14029714Y14004857D01*
X14086857Y14062000D01*
X14201142Y14119142D01*
X15115428Y13033428D02*
X15172571Y12976285D01*
X15115428Y12919142D01*
X15058285Y12976285D01*
X15115428Y13033428D01*
X15115428Y12919142D01*
X16315428Y12919142D02*
X15629714Y12919142D01*
X15972571Y12919142D02*
X15972571Y14119142D01*
X15858285Y13947714D01*
X15744000Y13833428D01*
X15629714Y13776285D01*
X47244000Y5334000D02*
X47244000Y4572000D01*
X44958000Y5334000D02*
X44958000Y4572000D01*
X42418000Y5334000D02*
X42418000Y4572000D01*
X40132000Y12877800D02*
X40132000Y4572000D01*
X40163400Y13395966D02*
X40163400Y13929300D01*
X40430066Y13662633D02*
X39896733Y13662633D01*
X39730066Y14595966D02*
X39730066Y14262633D01*
X40063400Y14229300D01*
X40030066Y14262633D01*
X39996733Y14329300D01*
X39996733Y14495966D01*
X40030066Y14562633D01*
X40063400Y14595966D01*
X40130066Y14629300D01*
X40296733Y14629300D01*
X40363400Y14595966D01*
X40396733Y14562633D01*
X40430066Y14495966D01*
X40430066Y14329300D01*
X40396733Y14262633D01*
X40363400Y14229300D01*
X39730066Y14829300D02*
X40430066Y15062633D01*
X39730066Y15295966D01*
X40163400Y16062633D02*
X40163400Y16595966D01*
X40063400Y17695966D02*
X40096733Y17795966D01*
X40130066Y17829300D01*
X40196733Y17862633D01*
X40296733Y17862633D01*
X40363400Y17829300D01*
X40396733Y17795966D01*
X40430066Y17729300D01*
X40430066Y17462633D01*
X39730066Y17462633D01*
X39730066Y17695966D01*
X39763400Y17762633D01*
X39796733Y17795966D01*
X39863400Y17829300D01*
X39930066Y17829300D01*
X39996733Y17795966D01*
X40030066Y17762633D01*
X40063400Y17695966D01*
X40063400Y17462633D01*
X40430066Y18562633D02*
X40096733Y18329300D01*
X40430066Y18162633D02*
X39730066Y18162633D01*
X39730066Y18429300D01*
X39763400Y18495966D01*
X39796733Y18529300D01*
X39863400Y18562633D01*
X39963400Y18562633D01*
X40030066Y18529300D01*
X40063400Y18495966D01*
X40096733Y18429300D01*
X40096733Y18162633D01*
X39730066Y18995966D02*
X39730066Y19129300D01*
X39763400Y19195966D01*
X39830066Y19262633D01*
X39963400Y19295966D01*
X40196733Y19295966D01*
X40330066Y19262633D01*
X40396733Y19195966D01*
X40430066Y19129300D01*
X40430066Y18995966D01*
X40396733Y18929300D01*
X40330066Y18862633D01*
X40196733Y18829300D01*
X39963400Y18829300D01*
X39830066Y18862633D01*
X39763400Y18929300D01*
X39730066Y18995966D01*
X39730066Y19529300D02*
X40430066Y19695966D01*
X39930066Y19829300D01*
X40430066Y19962633D01*
X39730066Y20129300D01*
X40430066Y20395966D02*
X39730066Y20395966D01*
X40430066Y20795966D01*
X39730066Y20795966D01*
X42830066Y13395966D02*
X42130066Y13395966D01*
X42830066Y13729300D02*
X42130066Y13729300D01*
X42830066Y14129300D01*
X42130066Y14129300D01*
X42563400Y14462633D02*
X42563400Y14995966D01*
X42830066Y15695966D02*
X42830066Y15295966D01*
X42830066Y15495966D02*
X42130066Y15495966D01*
X42230066Y15429300D01*
X42296733Y15362633D01*
X42330066Y15295966D01*
X42563400Y16529300D02*
X42563400Y17062633D01*
X42496733Y18062633D02*
X42830066Y18062633D01*
X42130066Y17829300D02*
X42496733Y18062633D01*
X42130066Y18295966D01*
X42463400Y18529300D02*
X42463400Y18762633D01*
X42830066Y18862633D02*
X42830066Y18529300D01*
X42130066Y18529300D01*
X42130066Y18862633D01*
X42830066Y19495966D02*
X42830066Y19162633D01*
X42130066Y19162633D01*
X42130066Y19862633D02*
X42130066Y19995966D01*
X42163400Y20062633D01*
X42230066Y20129300D01*
X42363400Y20162633D01*
X42596733Y20162633D01*
X42730066Y20129300D01*
X42796733Y20062633D01*
X42830066Y19995966D01*
X42830066Y19862633D01*
X42796733Y19795966D01*
X42730066Y19729300D01*
X42596733Y19695966D01*
X42363400Y19695966D01*
X42230066Y19729300D01*
X42163400Y19795966D01*
X42130066Y19862633D01*
X42130066Y20395966D02*
X42830066Y20562633D01*
X42330066Y20695966D01*
X42830066Y20829300D01*
X42130066Y20995966D01*
X45230066Y13395966D02*
X44530066Y13395966D01*
X45230066Y13729300D02*
X44530066Y13729300D01*
X45230066Y14129300D01*
X44530066Y14129300D01*
X44963400Y14462633D02*
X44963400Y14995966D01*
X44596733Y15295966D02*
X44563400Y15329300D01*
X44530066Y15395966D01*
X44530066Y15562633D01*
X44563400Y15629300D01*
X44596733Y15662633D01*
X44663400Y15695966D01*
X44730066Y15695966D01*
X44830066Y15662633D01*
X45230066Y15262633D01*
X45230066Y15695966D01*
X44963400Y16529300D02*
X44963400Y17062633D01*
X44563400Y18295966D02*
X44530066Y18229300D01*
X44530066Y18129300D01*
X44563400Y18029300D01*
X44630066Y17962633D01*
X44696733Y17929300D01*
X44830066Y17895966D01*
X44930066Y17895966D01*
X45063400Y17929300D01*
X45130066Y17962633D01*
X45196733Y18029300D01*
X45230066Y18129300D01*
X45230066Y18195966D01*
X45196733Y18295966D01*
X45163400Y18329300D01*
X44930066Y18329300D01*
X44930066Y18195966D01*
X45230066Y19029300D02*
X44896733Y18795966D01*
X45230066Y18629300D02*
X44530066Y18629300D01*
X44530066Y18895966D01*
X44563400Y18962633D01*
X44596733Y18995966D01*
X44663400Y19029300D01*
X44763400Y19029300D01*
X44830066Y18995966D01*
X44863400Y18962633D01*
X44896733Y18895966D01*
X44896733Y18629300D01*
X44863400Y19329300D02*
X44863400Y19562633D01*
X45230066Y19662633D02*
X45230066Y19329300D01*
X44530066Y19329300D01*
X44530066Y19662633D01*
X44863400Y19962633D02*
X44863400Y20195966D01*
X45230066Y20295966D02*
X45230066Y19962633D01*
X44530066Y19962633D01*
X44530066Y20295966D01*
X45230066Y20595966D02*
X44530066Y20595966D01*
X45230066Y20995966D01*
X44530066Y20995966D01*
X46963400Y13762633D02*
X46930066Y13695966D01*
X46930066Y13595966D01*
X46963400Y13495966D01*
X47030066Y13429300D01*
X47096733Y13395966D01*
X47230066Y13362633D01*
X47330066Y13362633D01*
X47463400Y13395966D01*
X47530066Y13429300D01*
X47596733Y13495966D01*
X47630066Y13595966D01*
X47630066Y13662633D01*
X47596733Y13762633D01*
X47563400Y13795966D01*
X47330066Y13795966D01*
X47330066Y13662633D01*
X47630066Y14095966D02*
X46930066Y14095966D01*
X47630066Y14495966D01*
X46930066Y14495966D01*
X47630066Y14829300D02*
X46930066Y14829300D01*
X46930066Y14995966D01*
X46963400Y15095966D01*
X47030066Y15162633D01*
X47096733Y15195966D01*
X47230066Y15229300D01*
X47330066Y15229300D01*
X47463400Y15195966D01*
X47530066Y15162633D01*
X47596733Y15095966D01*
X47630066Y14995966D01*
X47630066Y14829300D01*
X47363400Y16062633D02*
X47363400Y16595966D01*
X46930066Y17395966D02*
X47630066Y17562633D01*
X47130066Y17695966D01*
X47630066Y17829300D01*
X46930066Y17995966D01*
X47630066Y18262633D02*
X46930066Y18262633D01*
X47263400Y18262633D02*
X47263400Y18662633D01*
X47630066Y18662633D02*
X46930066Y18662633D01*
X47630066Y18995966D02*
X46930066Y18995966D01*
X46930066Y19229300D02*
X46930066Y19629300D01*
X47630066Y19429300D02*
X46930066Y19429300D01*
X47263400Y19862633D02*
X47263400Y20095966D01*
X47630066Y20195966D02*
X47630066Y19862633D01*
X46930066Y19862633D01*
X46930066Y20195966D01*
X60574833Y17228000D02*
X60508166Y17261333D01*
X60408166Y17261333D01*
X60308166Y17228000D01*
X60241500Y17161333D01*
X60208166Y17094666D01*
X60174833Y16961333D01*
X60174833Y16861333D01*
X60208166Y16728000D01*
X60241500Y16661333D01*
X60308166Y16594666D01*
X60408166Y16561333D01*
X60474833Y16561333D01*
X60574833Y16594666D01*
X60608166Y16628000D01*
X60608166Y16861333D01*
X60474833Y16861333D01*
X60908166Y16561333D02*
X60908166Y17261333D01*
X61308166Y16561333D01*
X61308166Y17261333D01*
X61641500Y16561333D02*
X61641500Y17261333D01*
X61808166Y17261333D01*
X61908166Y17228000D01*
X61974833Y17161333D01*
X62008166Y17094666D01*
X62041500Y16961333D01*
X62041500Y16861333D01*
X62008166Y16728000D01*
X61974833Y16661333D01*
X61908166Y16594666D01*
X61808166Y16561333D01*
X61641500Y16561333D01*
X62508166Y16328000D02*
X62508166Y17328000D01*
X63408166Y16561333D02*
X63174833Y16894666D01*
X63008166Y16561333D02*
X63008166Y17261333D01*
X63274833Y17261333D01*
X63341500Y17228000D01*
X63374833Y17194666D01*
X63408166Y17128000D01*
X63408166Y17028000D01*
X63374833Y16961333D01*
X63341500Y16928000D01*
X63274833Y16894666D01*
X63008166Y16894666D01*
X63708166Y16928000D02*
X63941500Y16928000D01*
X64041500Y16561333D02*
X63708166Y16561333D01*
X63708166Y17261333D01*
X64041500Y17261333D01*
X64308166Y16594666D02*
X64408166Y16561333D01*
X64574833Y16561333D01*
X64641500Y16594666D01*
X64674833Y16628000D01*
X64708166Y16694666D01*
X64708166Y16761333D01*
X64674833Y16828000D01*
X64641500Y16861333D01*
X64574833Y16894666D01*
X64441500Y16928000D01*
X64374833Y16961333D01*
X64341500Y16994666D01*
X64308166Y17061333D01*
X64308166Y17128000D01*
X64341500Y17194666D01*
X64374833Y17228000D01*
X64441500Y17261333D01*
X64608166Y17261333D01*
X64708166Y17228000D01*
X60208166Y14161333D02*
X60208166Y14861333D01*
X60441500Y14361333D01*
X60674833Y14861333D01*
X60674833Y14161333D01*
X61141500Y14861333D02*
X61274833Y14861333D01*
X61341500Y14828000D01*
X61408166Y14761333D01*
X61441500Y14628000D01*
X61441500Y14394666D01*
X61408166Y14261333D01*
X61341500Y14194666D01*
X61274833Y14161333D01*
X61141500Y14161333D01*
X61074833Y14194666D01*
X61008166Y14261333D01*
X60974833Y14394666D01*
X60974833Y14628000D01*
X61008166Y14761333D01*
X61074833Y14828000D01*
X61141500Y14861333D01*
X61708166Y14194666D02*
X61808166Y14161333D01*
X61974833Y14161333D01*
X62041500Y14194666D01*
X62074833Y14228000D01*
X62108166Y14294666D01*
X62108166Y14361333D01*
X62074833Y14428000D01*
X62041500Y14461333D01*
X61974833Y14494666D01*
X61841500Y14528000D01*
X61774833Y14561333D01*
X61741500Y14594666D01*
X61708166Y14661333D01*
X61708166Y14728000D01*
X61741500Y14794666D01*
X61774833Y14828000D01*
X61841500Y14861333D01*
X62008166Y14861333D01*
X62108166Y14828000D01*
X62408166Y14161333D02*
X62408166Y14861333D01*
X62908166Y13928000D02*
X62908166Y14928000D01*
X63374833Y14194666D02*
X63474833Y14161333D01*
X63641500Y14161333D01*
X63708166Y14194666D01*
X63741500Y14228000D01*
X63774833Y14294666D01*
X63774833Y14361333D01*
X63741500Y14428000D01*
X63708166Y14461333D01*
X63641500Y14494666D01*
X63508166Y14528000D01*
X63441500Y14561333D01*
X63408166Y14594666D01*
X63374833Y14661333D01*
X63374833Y14728000D01*
X63408166Y14794666D01*
X63441500Y14828000D01*
X63508166Y14861333D01*
X63674833Y14861333D01*
X63774833Y14828000D01*
X64474833Y14228000D02*
X64441500Y14194666D01*
X64341500Y14161333D01*
X64274833Y14161333D01*
X64174833Y14194666D01*
X64108166Y14261333D01*
X64074833Y14328000D01*
X64041500Y14461333D01*
X64041500Y14561333D01*
X64074833Y14694666D01*
X64108166Y14761333D01*
X64174833Y14828000D01*
X64274833Y14861333D01*
X64341500Y14861333D01*
X64441500Y14828000D01*
X64474833Y14794666D01*
X65108166Y14161333D02*
X64774833Y14161333D01*
X64774833Y14861333D01*
X65341500Y14161333D02*
X65341500Y14861333D01*
X65741500Y14161333D02*
X65441500Y14561333D01*
X65741500Y14861333D02*
X65341500Y14461333D01*
X60208166Y12028000D02*
X60741500Y12028000D01*
X60474833Y11761333D02*
X60474833Y12294666D01*
X61408166Y12461333D02*
X61074833Y12461333D01*
X61041500Y12128000D01*
X61074833Y12161333D01*
X61141500Y12194666D01*
X61308166Y12194666D01*
X61374833Y12161333D01*
X61408166Y12128000D01*
X61441500Y12061333D01*
X61441500Y11894666D01*
X61408166Y11828000D01*
X61374833Y11794666D01*
X61308166Y11761333D01*
X61141500Y11761333D01*
X61074833Y11794666D01*
X61041500Y11828000D01*
X61641500Y12461333D02*
X61874833Y11761333D01*
X62108166Y12461333D01*
X62508166Y11528000D02*
X62508166Y12528000D01*
X63008166Y11761333D02*
X63008166Y12461333D01*
X63241500Y11961333D01*
X63474833Y12461333D01*
X63474833Y11761333D01*
X63808166Y11761333D02*
X63808166Y12461333D01*
X64108166Y11794666D02*
X64208166Y11761333D01*
X64374833Y11761333D01*
X64441500Y11794666D01*
X64474833Y11828000D01*
X64508166Y11894666D01*
X64508166Y11961333D01*
X64474833Y12028000D01*
X64441500Y12061333D01*
X64374833Y12094666D01*
X64241500Y12128000D01*
X64174833Y12161333D01*
X64141500Y12194666D01*
X64108166Y12261333D01*
X64108166Y12328000D01*
X64141500Y12394666D01*
X64174833Y12428000D01*
X64241500Y12461333D01*
X64408166Y12461333D01*
X64508166Y12428000D01*
X64941500Y12461333D02*
X65074833Y12461333D01*
X65141500Y12428000D01*
X65208166Y12361333D01*
X65241500Y12228000D01*
X65241500Y11994666D01*
X65208166Y11861333D01*
X65141500Y11794666D01*
X65074833Y11761333D01*
X64941500Y11761333D01*
X64874833Y11794666D01*
X64808166Y11861333D01*
X64774833Y11994666D01*
X64774833Y12228000D01*
X64808166Y12361333D01*
X64874833Y12428000D01*
X64941500Y12461333D01*
X68153595Y5578571D02*
X68915500Y5578571D01*
X68677404Y3547619D02*
X68105976Y3547619D01*
X68391690Y3547619D02*
X68391690Y4547619D01*
X68296452Y4404761D01*
X68201214Y4309523D01*
X68105976Y4261904D01*
X69058357Y4452380D02*
X69105976Y4500000D01*
X69201214Y4547619D01*
X69439309Y4547619D01*
X69534547Y4500000D01*
X69582166Y4452380D01*
X69629785Y4357142D01*
X69629785Y4261904D01*
X69582166Y4119047D01*
X69010738Y3547619D01*
X69629785Y3547619D01*
X69915500Y4547619D02*
X70248833Y3547619D01*
X70582166Y4547619D01*
X68153595Y2278571D02*
X68915500Y2278571D01*
X68534547Y1897619D02*
X68534547Y2659523D01*
D11*
G04 #@! TO.C,U6*
X7500000Y57760000D02*
X66000000Y57760000D01*
X7500000Y32760000D02*
X66000000Y32760000D01*
X7500000Y57760000D02*
X7500000Y52260000D01*
X66000000Y57760000D02*
X66000000Y32760000D01*
X7500000Y32760000D02*
X7500000Y37260000D01*
X0Y29760000D02*
X1500000Y29760000D01*
X76000000Y29760000D02*
X74500000Y29760000D01*
D10*
G04 #@! TO.C,C14*
X35976000Y2952000D02*
X35976000Y3652000D01*
X37176000Y3652000D02*
X37176000Y2952000D01*
G04 #@! TO.C,P3*
X41148000Y1270000D02*
X48768000Y1270000D01*
X41148000Y3810000D02*
X48768000Y3810000D01*
X38328000Y4090000D02*
X39878000Y4090000D01*
X48768000Y1270000D02*
X48768000Y3810000D01*
X41148000Y3810000D02*
X41148000Y1270000D01*
X39878000Y990000D02*
X38328000Y990000D01*
X38328000Y990000D02*
X38328000Y4090000D01*
D11*
G04 #@! TO.C,D2*
X68405000Y30901000D02*
X67389000Y30901000D01*
X68405000Y28107000D02*
X67389000Y28107000D01*
G04 #@! TO.C,D3*
X48405000Y28103000D02*
X47389000Y28103000D01*
X48405000Y30897000D02*
X47389000Y30897000D01*
G04 #@! TO.C,D4*
X11405000Y30897000D02*
X10389000Y30897000D01*
X11405000Y28103000D02*
X10389000Y28103000D01*
G04 #@! TO.C,Q1*
X37060000Y25641999D02*
G75*
G02X34060001Y25641999I-1500000J-2749999D01*
G01*
X34060000Y25642000D02*
X37060000Y25642000D01*
D10*
G04 #@! TO.C,F1*
X59928000Y7121000D02*
X57928000Y7121000D01*
X57928000Y5071000D02*
X59928000Y5071000D01*
G04 #@! TO.C,C13*
X25812000Y31334000D02*
X26512000Y31334000D01*
X26512000Y30134000D02*
X25812000Y30134000D01*
G04 #@! TO.C,C9*
X23210000Y30134000D02*
X22510000Y30134000D01*
X22510000Y31334000D02*
X23210000Y31334000D01*
G04 #@! TO.C,C7*
X23784000Y9810000D02*
X23784000Y10510000D01*
X24984000Y10510000D02*
X24984000Y9810000D01*
G04 #@! TO.C,C5*
X22006000Y9810000D02*
X22006000Y10510000D01*
X23206000Y10510000D02*
X23206000Y9810000D01*
G04 #@! TO.C,C4*
X47594000Y5496000D02*
X46894000Y5496000D01*
X46894000Y6696000D02*
X47594000Y6696000D01*
G04 #@! TO.C,C3*
X43592000Y6696000D02*
X44292000Y6696000D01*
X44292000Y5496000D02*
X43592000Y5496000D01*
G04 #@! TO.C,C2*
X55026000Y4476000D02*
X55026000Y5176000D01*
X56226000Y5176000D02*
X56226000Y4476000D01*
G04 #@! TO.C,C1*
X54448000Y8732000D02*
X54448000Y8032000D01*
X53248000Y8032000D02*
X53248000Y8732000D01*
G04 #@! TO.C,R2*
X26837000Y10660000D02*
X26837000Y9660000D01*
X25487000Y9660000D02*
X25487000Y10660000D01*
G04 #@! TO.C,R6*
X34203000Y14502000D02*
X34203000Y13502000D01*
X32853000Y13502000D02*
X32853000Y14502000D01*
G04 #@! TO.C,C6*
X70644000Y22262000D02*
X69944000Y22262000D01*
X69944000Y23462000D02*
X70644000Y23462000D01*
G04 #@! TO.C,C8*
X65984000Y21250000D02*
X66984000Y21250000D01*
X66984000Y22950000D02*
X65984000Y22950000D01*
G04 #@! TO.C,C10*
X30378400Y6502400D02*
G75*
G03X34645600Y6502400I2133600J1117600D01*
G01*
X34645600Y8737600D02*
G75*
G03X30378400Y8737600I-2133600J-1117600D01*
G01*
X35179000Y4953000D02*
X35179000Y6502400D01*
X35179000Y10287000D02*
X35179000Y8737600D01*
X29845000Y9525000D02*
X29845000Y8737600D01*
X29845000Y5715000D02*
X29845000Y6502400D01*
X35179000Y10287000D02*
X30607000Y10287000D01*
X30607000Y10287000D02*
X29845000Y9525000D01*
X29845000Y5715000D02*
X30607000Y4953000D01*
X30607000Y4953000D02*
X35179000Y4953000D01*
G04 #@! TO.C,C11*
X49942000Y23460000D02*
X50642000Y23460000D01*
X50642000Y22260000D02*
X49942000Y22260000D01*
G04 #@! TO.C,C12*
X46982000Y22948000D02*
X45982000Y22948000D01*
X45982000Y21248000D02*
X46982000Y21248000D01*
G04 #@! TO.C,C15*
X14066000Y22260000D02*
X13366000Y22260000D01*
X13366000Y23460000D02*
X14066000Y23460000D01*
G04 #@! TO.C,C16*
X8911001Y20886999D02*
X9911001Y20886999D01*
X9911001Y22586999D02*
X8911001Y22586999D01*
G04 #@! TO.C,D1*
X57947560Y4544060D02*
X62448440Y4544060D01*
X57947560Y1043940D02*
X62448440Y1043940D01*
X62448440Y4544060D02*
X62448440Y4193540D01*
X57947560Y4544060D02*
X57947560Y4193540D01*
X57947560Y1043940D02*
X57947560Y1394460D01*
X62448440Y1043940D02*
X62448440Y1394460D01*
X58398860Y4544060D02*
X58398860Y4193540D01*
X58398860Y1043940D02*
X58398860Y1394460D01*
G04 #@! TO.C,IC1*
X28517000Y21151000D02*
X28292000Y21151000D01*
X28517000Y13901000D02*
X28192000Y13901000D01*
X21267000Y13901000D02*
X21592000Y13901000D01*
X21267000Y21151000D02*
X21592000Y21151000D01*
X28517000Y21151000D02*
X28517000Y20826000D01*
X21267000Y21151000D02*
X21267000Y20826000D01*
X21267000Y13901000D02*
X21267000Y14226000D01*
X28517000Y13901000D02*
X28517000Y14226000D01*
X28292000Y21151000D02*
X28292000Y22576000D01*
G04 #@! TO.C,P1*
X64770000Y3810000D02*
X64770000Y6350000D01*
X64490000Y990000D02*
X64490000Y2540000D01*
X64770000Y3810000D02*
X67310000Y3810000D01*
X67590000Y2540000D02*
X67590000Y990000D01*
X67590000Y990000D02*
X64490000Y990000D01*
X67310000Y3810000D02*
X67310000Y6350000D01*
X67310000Y6350000D02*
X64770000Y6350000D01*
G04 #@! TO.C,P2*
X58928000Y13208000D02*
X58928000Y18288000D01*
X59208000Y10388000D02*
X57658000Y10388000D01*
X56388000Y10668000D02*
X56388000Y13208000D01*
X56388000Y13208000D02*
X58928000Y13208000D01*
X58928000Y18288000D02*
X53848000Y18288000D01*
X53848000Y18288000D02*
X53848000Y13208000D01*
X59208000Y10388000D02*
X59208000Y11938000D01*
X53848000Y10668000D02*
X56388000Y10668000D01*
X53848000Y13208000D02*
X53848000Y10668000D01*
D12*
G04 #@! TO.C,Q3*
X72382000Y43180000D02*
X71452000Y43180000D01*
X69222000Y43180000D02*
X70152000Y43180000D01*
X69222000Y43180000D02*
X69222000Y41020000D01*
X72382000Y43180000D02*
X72382000Y41720000D01*
D10*
G04 #@! TO.C,R1*
X36235000Y14502000D02*
X36235000Y13502000D01*
X34885000Y13502000D02*
X34885000Y14502000D01*
G04 #@! TO.C,R3*
X69794000Y27093000D02*
X70794000Y27093000D01*
X70794000Y25743000D02*
X69794000Y25743000D01*
G04 #@! TO.C,R4*
X62571000Y26424000D02*
X62571000Y27424000D01*
X63921000Y27424000D02*
X63921000Y26424000D01*
G04 #@! TO.C,R5*
X69794000Y25315000D02*
X70794000Y25315000D01*
X70794000Y23965000D02*
X69794000Y23965000D01*
G04 #@! TO.C,R10*
X58079000Y9124000D02*
X58079000Y8124000D01*
X56729000Y8124000D02*
X56729000Y9124000D01*
G04 #@! TO.C,R11*
X59857000Y9136000D02*
X59857000Y8136000D01*
X58507000Y8136000D02*
X58507000Y9136000D01*
G04 #@! TO.C,R12*
X56301000Y9136000D02*
X56301000Y8136000D01*
X54951000Y8136000D02*
X54951000Y9136000D01*
G04 #@! TO.C,R13*
X63428000Y23457000D02*
X62428000Y23457000D01*
X62428000Y24807000D02*
X63428000Y24807000D01*
G04 #@! TO.C,R14*
X49804000Y27091000D02*
X50804000Y27091000D01*
X50804000Y25741000D02*
X49804000Y25741000D01*
G04 #@! TO.C,R15*
X43855000Y27424000D02*
X43855000Y26424000D01*
X42505000Y26424000D02*
X42505000Y27424000D01*
G04 #@! TO.C,R16*
X49792000Y25313000D02*
X50792000Y25313000D01*
X50792000Y23963000D02*
X49792000Y23963000D01*
G04 #@! TO.C,R17*
X43426000Y23455000D02*
X42426000Y23455000D01*
X42426000Y24805000D02*
X43426000Y24805000D01*
G04 #@! TO.C,R18*
X12962000Y27091000D02*
X13962000Y27091000D01*
X13962000Y25741000D02*
X12962000Y25741000D01*
G04 #@! TO.C,R21*
X7025000Y27424000D02*
X7025000Y26424000D01*
X5675000Y26424000D02*
X5675000Y27424000D01*
G04 #@! TO.C,R22*
X12962000Y25313000D02*
X13962000Y25313000D01*
X13962000Y23963000D02*
X12962000Y23963000D01*
G04 #@! TO.C,R23*
X5342000Y24805000D02*
X6342000Y24805000D01*
X6342000Y23455000D02*
X5342000Y23455000D01*
G04 #@! TO.C,R25*
X44029000Y7882000D02*
X44029000Y8882000D01*
X45379000Y8882000D02*
X45379000Y7882000D01*
G04 #@! TO.C,R26*
X45807000Y7882000D02*
X45807000Y8882000D01*
X47157000Y8882000D02*
X47157000Y7882000D01*
G04 #@! TO.C,R27*
X43601000Y8882000D02*
X43601000Y7882000D01*
X42251000Y7882000D02*
X42251000Y8882000D01*
G04 #@! TO.C,R28*
X48935000Y8882000D02*
X48935000Y7882000D01*
X47585000Y7882000D02*
X47585000Y8882000D01*
G04 #@! TO.C,R29*
X71302000Y37173000D02*
X70302000Y37173000D01*
X70302000Y38523000D02*
X71302000Y38523000D01*
G04 #@! TO.C,R30*
X70302000Y40301000D02*
X71302000Y40301000D01*
X71302000Y38951000D02*
X70302000Y38951000D01*
G04 #@! TO.C,R31*
X70556000Y45889000D02*
X71556000Y45889000D01*
X71556000Y44539000D02*
X70556000Y44539000D01*
D12*
G04 #@! TO.C,U1*
X67384000Y26758000D02*
X64934000Y26758000D01*
X65584000Y23538000D02*
X67384000Y23538000D01*
G04 #@! TO.C,U4*
X45582000Y23536000D02*
X47382000Y23536000D01*
X47382000Y26756000D02*
X44932000Y26756000D01*
G04 #@! TO.C,U5*
X8611001Y23426999D02*
X10411001Y23426999D01*
X10411001Y26646999D02*
X7961001Y26646999D01*
D10*
G04 #@! TO.C,X1*
X19685000Y28321000D02*
X19685000Y27940000D01*
X19685000Y25019000D02*
X19685000Y25400000D01*
X29591000Y25019000D02*
X29591000Y25400000D01*
X29591000Y28321000D02*
X29591000Y27940000D01*
X30353000Y29210000D02*
X30353000Y27940000D01*
X30353000Y24130000D02*
X30353000Y25400000D01*
X18923000Y24130000D02*
X18923000Y25400000D01*
X18923000Y29210000D02*
X18923000Y27940000D01*
X19685000Y25019000D02*
X20320000Y24384000D01*
X20320000Y24384000D02*
X28956000Y24384000D01*
X28956000Y24384000D02*
X29591000Y25019000D01*
X29591000Y28321000D02*
X28956000Y28956000D01*
X28956000Y28956000D02*
X20320000Y28956000D01*
X20320000Y28956000D02*
X19685000Y28321000D01*
X30353000Y24130000D02*
X18923000Y24130000D01*
X18923000Y29210000D02*
X30353000Y29210000D01*
G04 #@! TO.C,U6*
X56540495Y31738819D02*
X56540495Y30929295D01*
X56588114Y30834057D01*
X56635733Y30786438D01*
X56730971Y30738819D01*
X56921447Y30738819D01*
X57016685Y30786438D01*
X57064304Y30834057D01*
X57111923Y30929295D01*
X57111923Y31738819D01*
X58016685Y31738819D02*
X57826209Y31738819D01*
X57730971Y31691200D01*
X57683352Y31643580D01*
X57588114Y31500723D01*
X57540495Y31310247D01*
X57540495Y30929295D01*
X57588114Y30834057D01*
X57635733Y30786438D01*
X57730971Y30738819D01*
X57921447Y30738819D01*
X58016685Y30786438D01*
X58064304Y30834057D01*
X58111923Y30929295D01*
X58111923Y31167390D01*
X58064304Y31262628D01*
X58016685Y31310247D01*
X57921447Y31357866D01*
X57730971Y31357866D01*
X57635733Y31310247D01*
X57588114Y31262628D01*
X57540495Y31167390D01*
X5479023Y50752857D02*
X5431404Y50705238D01*
X5288547Y50657619D01*
X5193309Y50657619D01*
X5050452Y50705238D01*
X4955214Y50800476D01*
X4907595Y50895714D01*
X4859976Y51086190D01*
X4859976Y51229047D01*
X4907595Y51419523D01*
X4955214Y51514761D01*
X5050452Y51610000D01*
X5193309Y51657619D01*
X5288547Y51657619D01*
X5431404Y51610000D01*
X5479023Y51562380D01*
X5859976Y50705238D02*
X6002833Y50657619D01*
X6240928Y50657619D01*
X6336166Y50705238D01*
X6383785Y50752857D01*
X6431404Y50848095D01*
X6431404Y50943333D01*
X6383785Y51038571D01*
X6336166Y51086190D01*
X6240928Y51133809D01*
X6050452Y51181428D01*
X5955214Y51229047D01*
X5907595Y51276666D01*
X5859976Y51371904D01*
X5859976Y51467142D01*
X5907595Y51562380D01*
X5955214Y51610000D01*
X6050452Y51657619D01*
X6288547Y51657619D01*
X6431404Y51610000D01*
X4812357Y49117619D02*
X5050452Y48117619D01*
X5240928Y48831904D01*
X5431404Y48117619D01*
X5669500Y49117619D01*
X6621880Y48117619D02*
X6288547Y48593809D01*
X6050452Y48117619D02*
X6050452Y49117619D01*
X6431404Y49117619D01*
X6526642Y49070000D01*
X6574261Y49022380D01*
X6621880Y48927142D01*
X6621880Y48784285D01*
X6574261Y48689047D01*
X6526642Y48641428D01*
X6431404Y48593809D01*
X6050452Y48593809D01*
X1976380Y44785595D02*
X976380Y44785595D01*
X976380Y45023690D01*
X1024000Y45166547D01*
X1119238Y45261785D01*
X1214476Y45309404D01*
X1404952Y45357023D01*
X1547809Y45357023D01*
X1738285Y45309404D01*
X1833523Y45261785D01*
X1928761Y45166547D01*
X1976380Y45023690D01*
X1976380Y44785595D01*
X1976380Y46214166D02*
X1452571Y46214166D01*
X1357333Y46166547D01*
X1309714Y46071309D01*
X1309714Y45880833D01*
X1357333Y45785595D01*
X1928761Y46214166D02*
X1976380Y46118928D01*
X1976380Y45880833D01*
X1928761Y45785595D01*
X1833523Y45737976D01*
X1738285Y45737976D01*
X1643047Y45785595D01*
X1595428Y45880833D01*
X1595428Y46118928D01*
X1547809Y46214166D01*
X1309714Y46547500D02*
X1309714Y46928452D01*
X976380Y46690357D02*
X1833523Y46690357D01*
X1928761Y46737976D01*
X1976380Y46833214D01*
X1976380Y46928452D01*
X1976380Y47690357D02*
X1452571Y47690357D01*
X1357333Y47642738D01*
X1309714Y47547500D01*
X1309714Y47357023D01*
X1357333Y47261785D01*
X1928761Y47690357D02*
X1976380Y47595119D01*
X1976380Y47357023D01*
X1928761Y47261785D01*
X1833523Y47214166D01*
X1738285Y47214166D01*
X1643047Y47261785D01*
X1595428Y47357023D01*
X1595428Y47595119D01*
X1547809Y47690357D01*
X5088000Y42769404D02*
X5040380Y42674166D01*
X5040380Y42531309D01*
X5088000Y42388452D01*
X5183238Y42293214D01*
X5278476Y42245595D01*
X5468952Y42197976D01*
X5611809Y42197976D01*
X5802285Y42245595D01*
X5897523Y42293214D01*
X5992761Y42388452D01*
X6040380Y42531309D01*
X6040380Y42626547D01*
X5992761Y42769404D01*
X5945142Y42817023D01*
X5611809Y42817023D01*
X5611809Y42626547D01*
X6040380Y43245595D02*
X5040380Y43245595D01*
X6040380Y43817023D01*
X5040380Y43817023D01*
X6040380Y44293214D02*
X5040380Y44293214D01*
X5040380Y44531309D01*
X5088000Y44674166D01*
X5183238Y44769404D01*
X5278476Y44817023D01*
X5468952Y44864642D01*
X5611809Y44864642D01*
X5802285Y44817023D01*
X5897523Y44769404D01*
X5992761Y44674166D01*
X6040380Y44531309D01*
X6040380Y44293214D01*
X976380Y39816738D02*
X1976380Y40150071D01*
X976380Y40483404D01*
X1928761Y41245309D02*
X1976380Y41150071D01*
X1976380Y40959595D01*
X1928761Y40864357D01*
X1881142Y40816738D01*
X1785904Y40769119D01*
X1500190Y40769119D01*
X1404952Y40816738D01*
X1357333Y40864357D01*
X1309714Y40959595D01*
X1309714Y41150071D01*
X1357333Y41245309D01*
X1928761Y42102452D02*
X1976380Y42007214D01*
X1976380Y41816738D01*
X1928761Y41721500D01*
X1881142Y41673880D01*
X1785904Y41626261D01*
X1500190Y41626261D01*
X1404952Y41673880D01*
X1357333Y41721500D01*
X1309714Y41816738D01*
X1309714Y42007214D01*
X1357333Y42102452D01*
X6040380Y37641785D02*
X6040380Y37165595D01*
X5040380Y37165595D01*
X5516571Y37975119D02*
X5516571Y38308452D01*
X6040380Y38451309D02*
X6040380Y37975119D01*
X5040380Y37975119D01*
X5040380Y38451309D01*
X6040380Y38879880D02*
X5040380Y38879880D01*
X5040380Y39117976D01*
X5088000Y39260833D01*
X5183238Y39356071D01*
X5278476Y39403690D01*
X5468952Y39451309D01*
X5611809Y39451309D01*
X5802285Y39403690D01*
X5897523Y39356071D01*
X5992761Y39260833D01*
X6040380Y39117976D01*
X6040380Y38879880D01*
X5659428Y39879880D02*
X5659428Y40641785D01*
X6040380Y40260833D02*
X5278476Y40260833D01*
X72700595Y45577619D02*
X72700595Y46577619D01*
X73272023Y45577619D02*
X72843452Y46149047D01*
X73272023Y46577619D02*
X72700595Y46006190D01*
X72795833Y43323333D02*
X73272023Y43323333D01*
X72700595Y43037619D02*
X73033928Y44037619D01*
X73367261Y43037619D01*
G04 #@! TO.C,C14*
X35409142Y2659142D02*
X35456761Y2611523D01*
X35504380Y2468666D01*
X35504380Y2373428D01*
X35456761Y2230571D01*
X35361523Y2135333D01*
X35266285Y2087714D01*
X35075809Y2040095D01*
X34932952Y2040095D01*
X34742476Y2087714D01*
X34647238Y2135333D01*
X34552000Y2230571D01*
X34504380Y2373428D01*
X34504380Y2468666D01*
X34552000Y2611523D01*
X34599619Y2659142D01*
X35504380Y3611523D02*
X35504380Y3040095D01*
X35504380Y3325809D02*
X34504380Y3325809D01*
X34647238Y3230571D01*
X34742476Y3135333D01*
X34790095Y3040095D01*
X34837714Y4468666D02*
X35504380Y4468666D01*
X34456761Y4230571D02*
X35171047Y3992476D01*
X35171047Y4611523D01*
G04 #@! TO.C,P3*
X50236380Y1801904D02*
X49236380Y1801904D01*
X49236380Y2182857D01*
X49284000Y2278095D01*
X49331619Y2325714D01*
X49426857Y2373333D01*
X49569714Y2373333D01*
X49664952Y2325714D01*
X49712571Y2278095D01*
X49760190Y2182857D01*
X49760190Y1801904D01*
X49236380Y2706666D02*
X49236380Y3325714D01*
X49617333Y2992380D01*
X49617333Y3135238D01*
X49664952Y3230476D01*
X49712571Y3278095D01*
X49807809Y3325714D01*
X50045904Y3325714D01*
X50141142Y3278095D01*
X50188761Y3230476D01*
X50236380Y3135238D01*
X50236380Y2849523D01*
X50188761Y2754285D01*
X50141142Y2706666D01*
G04 #@! TO.C,D2*
D13*
X66178952Y31523809D02*
X66178952Y32023809D01*
X66298000Y32023809D01*
X66369428Y32000000D01*
X66417047Y31952380D01*
X66440857Y31904761D01*
X66464666Y31809523D01*
X66464666Y31738095D01*
X66440857Y31642857D01*
X66417047Y31595238D01*
X66369428Y31547619D01*
X66298000Y31523809D01*
X66178952Y31523809D01*
X66655142Y31976190D02*
X66678952Y32000000D01*
X66726571Y32023809D01*
X66845619Y32023809D01*
X66893238Y32000000D01*
X66917047Y31976190D01*
X66940857Y31928571D01*
X66940857Y31880952D01*
X66917047Y31809523D01*
X66631333Y31523809D01*
X66940857Y31523809D01*
G04 #@! TO.C,D3*
X46112952Y31523809D02*
X46112952Y32023809D01*
X46232000Y32023809D01*
X46303428Y32000000D01*
X46351047Y31952380D01*
X46374857Y31904761D01*
X46398666Y31809523D01*
X46398666Y31738095D01*
X46374857Y31642857D01*
X46351047Y31595238D01*
X46303428Y31547619D01*
X46232000Y31523809D01*
X46112952Y31523809D01*
X46565333Y32023809D02*
X46874857Y32023809D01*
X46708190Y31833333D01*
X46779619Y31833333D01*
X46827238Y31809523D01*
X46851047Y31785714D01*
X46874857Y31738095D01*
X46874857Y31619047D01*
X46851047Y31571428D01*
X46827238Y31547619D01*
X46779619Y31523809D01*
X46636761Y31523809D01*
X46589142Y31547619D01*
X46565333Y31571428D01*
G04 #@! TO.C,D4*
X9028952Y31523809D02*
X9028952Y32023809D01*
X9148000Y32023809D01*
X9219428Y32000000D01*
X9267047Y31952380D01*
X9290857Y31904761D01*
X9314666Y31809523D01*
X9314666Y31738095D01*
X9290857Y31642857D01*
X9267047Y31595238D01*
X9219428Y31547619D01*
X9148000Y31523809D01*
X9028952Y31523809D01*
X9743238Y31857142D02*
X9743238Y31523809D01*
X9624190Y32047619D02*
X9505142Y31690476D01*
X9814666Y31690476D01*
G04 #@! TO.C,Q1*
D14*
X37544380Y26142190D02*
X37496761Y26166000D01*
X37449142Y26213619D01*
X37377714Y26285047D01*
X37330095Y26308857D01*
X37282476Y26308857D01*
X37306285Y26189809D02*
X37258666Y26213619D01*
X37211047Y26261238D01*
X37187238Y26356476D01*
X37187238Y26523142D01*
X37211047Y26618380D01*
X37258666Y26666000D01*
X37306285Y26689809D01*
X37401523Y26689809D01*
X37449142Y26666000D01*
X37496761Y26618380D01*
X37520571Y26523142D01*
X37520571Y26356476D01*
X37496761Y26261238D01*
X37449142Y26213619D01*
X37401523Y26189809D01*
X37306285Y26189809D01*
X37996761Y26189809D02*
X37711047Y26189809D01*
X37853904Y26189809D02*
X37853904Y26689809D01*
X37806285Y26618380D01*
X37758666Y26570761D01*
X37711047Y26546952D01*
G04 #@! TO.C,F1*
D10*
X61896666Y6167428D02*
X61563333Y6167428D01*
X61563333Y5643619D02*
X61563333Y6643619D01*
X62039523Y6643619D01*
X62944285Y5643619D02*
X62372857Y5643619D01*
X62658571Y5643619D02*
X62658571Y6643619D01*
X62563333Y6500761D01*
X62468095Y6405523D01*
X62372857Y6357904D01*
G04 #@! TO.C,C13*
X28567142Y30376857D02*
X28519523Y30329238D01*
X28376666Y30281619D01*
X28281428Y30281619D01*
X28138571Y30329238D01*
X28043333Y30424476D01*
X27995714Y30519714D01*
X27948095Y30710190D01*
X27948095Y30853047D01*
X27995714Y31043523D01*
X28043333Y31138761D01*
X28138571Y31234000D01*
X28281428Y31281619D01*
X28376666Y31281619D01*
X28519523Y31234000D01*
X28567142Y31186380D01*
X29519523Y30281619D02*
X28948095Y30281619D01*
X29233809Y30281619D02*
X29233809Y31281619D01*
X29138571Y31138761D01*
X29043333Y31043523D01*
X28948095Y30995904D01*
X29852857Y31281619D02*
X30471904Y31281619D01*
X30138571Y30900666D01*
X30281428Y30900666D01*
X30376666Y30853047D01*
X30424285Y30805428D01*
X30471904Y30710190D01*
X30471904Y30472095D01*
X30424285Y30376857D01*
X30376666Y30329238D01*
X30281428Y30281619D01*
X29995714Y30281619D01*
X29900476Y30329238D01*
X29852857Y30376857D01*
G04 #@! TO.C,C9*
X19899333Y30376857D02*
X19851714Y30329238D01*
X19708857Y30281619D01*
X19613619Y30281619D01*
X19470761Y30329238D01*
X19375523Y30424476D01*
X19327904Y30519714D01*
X19280285Y30710190D01*
X19280285Y30853047D01*
X19327904Y31043523D01*
X19375523Y31138761D01*
X19470761Y31234000D01*
X19613619Y31281619D01*
X19708857Y31281619D01*
X19851714Y31234000D01*
X19899333Y31186380D01*
X20375523Y30281619D02*
X20566000Y30281619D01*
X20661238Y30329238D01*
X20708857Y30376857D01*
X20804095Y30519714D01*
X20851714Y30710190D01*
X20851714Y31091142D01*
X20804095Y31186380D01*
X20756476Y31234000D01*
X20661238Y31281619D01*
X20470761Y31281619D01*
X20375523Y31234000D01*
X20327904Y31186380D01*
X20280285Y31091142D01*
X20280285Y30853047D01*
X20327904Y30757809D01*
X20375523Y30710190D01*
X20470761Y30662571D01*
X20661238Y30662571D01*
X20756476Y30710190D01*
X20804095Y30757809D01*
X20851714Y30853047D01*
G04 #@! TO.C,C7*
X28043142Y9993333D02*
X28090761Y9945714D01*
X28138380Y9802857D01*
X28138380Y9707619D01*
X28090761Y9564761D01*
X27995523Y9469523D01*
X27900285Y9421904D01*
X27709809Y9374285D01*
X27566952Y9374285D01*
X27376476Y9421904D01*
X27281238Y9469523D01*
X27186000Y9564761D01*
X27138380Y9707619D01*
X27138380Y9802857D01*
X27186000Y9945714D01*
X27233619Y9993333D01*
X27138380Y10326666D02*
X27138380Y10993333D01*
X28138380Y10564761D01*
G04 #@! TO.C,C5*
X21439142Y9993333D02*
X21486761Y9945714D01*
X21534380Y9802857D01*
X21534380Y9707619D01*
X21486761Y9564761D01*
X21391523Y9469523D01*
X21296285Y9421904D01*
X21105809Y9374285D01*
X20962952Y9374285D01*
X20772476Y9421904D01*
X20677238Y9469523D01*
X20582000Y9564761D01*
X20534380Y9707619D01*
X20534380Y9802857D01*
X20582000Y9945714D01*
X20629619Y9993333D01*
X20534380Y10898095D02*
X20534380Y10421904D01*
X21010571Y10374285D01*
X20962952Y10421904D01*
X20915333Y10517142D01*
X20915333Y10755238D01*
X20962952Y10850476D01*
X21010571Y10898095D01*
X21105809Y10945714D01*
X21343904Y10945714D01*
X21439142Y10898095D01*
X21486761Y10850476D01*
X21534380Y10755238D01*
X21534380Y10517142D01*
X21486761Y10421904D01*
X21439142Y10374285D01*
G04 #@! TO.C,C4*
X49617333Y5738857D02*
X49569714Y5691238D01*
X49426857Y5643619D01*
X49331619Y5643619D01*
X49188761Y5691238D01*
X49093523Y5786476D01*
X49045904Y5881714D01*
X48998285Y6072190D01*
X48998285Y6215047D01*
X49045904Y6405523D01*
X49093523Y6500761D01*
X49188761Y6596000D01*
X49331619Y6643619D01*
X49426857Y6643619D01*
X49569714Y6596000D01*
X49617333Y6548380D01*
X50474476Y6310285D02*
X50474476Y5643619D01*
X50236380Y6691238D02*
X49998285Y5976952D01*
X50617333Y5976952D01*
G04 #@! TO.C,C3*
X41235333Y5738857D02*
X41187714Y5691238D01*
X41044857Y5643619D01*
X40949619Y5643619D01*
X40806761Y5691238D01*
X40711523Y5786476D01*
X40663904Y5881714D01*
X40616285Y6072190D01*
X40616285Y6215047D01*
X40663904Y6405523D01*
X40711523Y6500761D01*
X40806761Y6596000D01*
X40949619Y6643619D01*
X41044857Y6643619D01*
X41187714Y6596000D01*
X41235333Y6548380D01*
X41568666Y6643619D02*
X42187714Y6643619D01*
X41854380Y6262666D01*
X41997238Y6262666D01*
X42092476Y6215047D01*
X42140095Y6167428D01*
X42187714Y6072190D01*
X42187714Y5834095D01*
X42140095Y5738857D01*
X42092476Y5691238D01*
X41997238Y5643619D01*
X41711523Y5643619D01*
X41616285Y5691238D01*
X41568666Y5738857D01*
G04 #@! TO.C,C2*
X54459142Y4659333D02*
X54506761Y4611714D01*
X54554380Y4468857D01*
X54554380Y4373619D01*
X54506761Y4230761D01*
X54411523Y4135523D01*
X54316285Y4087904D01*
X54125809Y4040285D01*
X53982952Y4040285D01*
X53792476Y4087904D01*
X53697238Y4135523D01*
X53602000Y4230761D01*
X53554380Y4373619D01*
X53554380Y4468857D01*
X53602000Y4611714D01*
X53649619Y4659333D01*
X53649619Y5040285D02*
X53602000Y5087904D01*
X53554380Y5183142D01*
X53554380Y5421238D01*
X53602000Y5516476D01*
X53649619Y5564095D01*
X53744857Y5611714D01*
X53840095Y5611714D01*
X53982952Y5564095D01*
X54554380Y4992666D01*
X54554380Y5611714D01*
G04 #@! TO.C,C1*
X51411142Y8215333D02*
X51458761Y8167714D01*
X51506380Y8024857D01*
X51506380Y7929619D01*
X51458761Y7786761D01*
X51363523Y7691523D01*
X51268285Y7643904D01*
X51077809Y7596285D01*
X50934952Y7596285D01*
X50744476Y7643904D01*
X50649238Y7691523D01*
X50554000Y7786761D01*
X50506380Y7929619D01*
X50506380Y8024857D01*
X50554000Y8167714D01*
X50601619Y8215333D01*
X51506380Y9167714D02*
X51506380Y8596285D01*
X51506380Y8882000D02*
X50506380Y8882000D01*
X50649238Y8786761D01*
X50744476Y8691523D01*
X50792095Y8596285D01*
G04 #@! TO.C,R2*
X29408380Y9993333D02*
X28932190Y9660000D01*
X29408380Y9421904D02*
X28408380Y9421904D01*
X28408380Y9802857D01*
X28456000Y9898095D01*
X28503619Y9945714D01*
X28598857Y9993333D01*
X28741714Y9993333D01*
X28836952Y9945714D01*
X28884571Y9898095D01*
X28932190Y9802857D01*
X28932190Y9421904D01*
X28503619Y10374285D02*
X28456000Y10421904D01*
X28408380Y10517142D01*
X28408380Y10755238D01*
X28456000Y10850476D01*
X28503619Y10898095D01*
X28598857Y10945714D01*
X28694095Y10945714D01*
X28836952Y10898095D01*
X29408380Y10326666D01*
X29408380Y10945714D01*
G04 #@! TO.C,R6*
X32456380Y13835333D02*
X31980190Y13502000D01*
X32456380Y13263904D02*
X31456380Y13263904D01*
X31456380Y13644857D01*
X31504000Y13740095D01*
X31551619Y13787714D01*
X31646857Y13835333D01*
X31789714Y13835333D01*
X31884952Y13787714D01*
X31932571Y13740095D01*
X31980190Y13644857D01*
X31980190Y13263904D01*
X31456380Y14692476D02*
X31456380Y14502000D01*
X31504000Y14406761D01*
X31551619Y14359142D01*
X31694476Y14263904D01*
X31884952Y14216285D01*
X32265904Y14216285D01*
X32361142Y14263904D01*
X32408761Y14311523D01*
X32456380Y14406761D01*
X32456380Y14597238D01*
X32408761Y14692476D01*
X32361142Y14740095D01*
X32265904Y14787714D01*
X32027809Y14787714D01*
X31932571Y14740095D01*
X31884952Y14692476D01*
X31837333Y14597238D01*
X31837333Y14406761D01*
X31884952Y14311523D01*
X31932571Y14263904D01*
X32027809Y14216285D01*
G04 #@! TO.C,C6*
X72731333Y22502857D02*
X72683714Y22455238D01*
X72540857Y22407619D01*
X72445619Y22407619D01*
X72302761Y22455238D01*
X72207523Y22550476D01*
X72159904Y22645714D01*
X72112285Y22836190D01*
X72112285Y22979047D01*
X72159904Y23169523D01*
X72207523Y23264761D01*
X72302761Y23360000D01*
X72445619Y23407619D01*
X72540857Y23407619D01*
X72683714Y23360000D01*
X72731333Y23312380D01*
X73588476Y23407619D02*
X73398000Y23407619D01*
X73302761Y23360000D01*
X73255142Y23312380D01*
X73159904Y23169523D01*
X73112285Y22979047D01*
X73112285Y22598095D01*
X73159904Y22502857D01*
X73207523Y22455238D01*
X73302761Y22407619D01*
X73493238Y22407619D01*
X73588476Y22455238D01*
X73636095Y22502857D01*
X73683714Y22598095D01*
X73683714Y22836190D01*
X73636095Y22931428D01*
X73588476Y22979047D01*
X73493238Y23026666D01*
X73302761Y23026666D01*
X73207523Y22979047D01*
X73159904Y22931428D01*
X73112285Y22836190D01*
G04 #@! TO.C,C8*
X63333333Y21740857D02*
X63285714Y21693238D01*
X63142857Y21645619D01*
X63047619Y21645619D01*
X62904761Y21693238D01*
X62809523Y21788476D01*
X62761904Y21883714D01*
X62714285Y22074190D01*
X62714285Y22217047D01*
X62761904Y22407523D01*
X62809523Y22502761D01*
X62904761Y22598000D01*
X63047619Y22645619D01*
X63142857Y22645619D01*
X63285714Y22598000D01*
X63333333Y22550380D01*
X63904761Y22217047D02*
X63809523Y22264666D01*
X63761904Y22312285D01*
X63714285Y22407523D01*
X63714285Y22455142D01*
X63761904Y22550380D01*
X63809523Y22598000D01*
X63904761Y22645619D01*
X64095238Y22645619D01*
X64190476Y22598000D01*
X64238095Y22550380D01*
X64285714Y22455142D01*
X64285714Y22407523D01*
X64238095Y22312285D01*
X64190476Y22264666D01*
X64095238Y22217047D01*
X63904761Y22217047D01*
X63809523Y22169428D01*
X63761904Y22121809D01*
X63714285Y22026571D01*
X63714285Y21836095D01*
X63761904Y21740857D01*
X63809523Y21693238D01*
X63904761Y21645619D01*
X64095238Y21645619D01*
X64190476Y21693238D01*
X64238095Y21740857D01*
X64285714Y21836095D01*
X64285714Y22026571D01*
X64238095Y22121809D01*
X64190476Y22169428D01*
X64095238Y22217047D01*
G04 #@! TO.C,C10*
X31869142Y3706857D02*
X31821523Y3659238D01*
X31678666Y3611619D01*
X31583428Y3611619D01*
X31440571Y3659238D01*
X31345333Y3754476D01*
X31297714Y3849714D01*
X31250095Y4040190D01*
X31250095Y4183047D01*
X31297714Y4373523D01*
X31345333Y4468761D01*
X31440571Y4564000D01*
X31583428Y4611619D01*
X31678666Y4611619D01*
X31821523Y4564000D01*
X31869142Y4516380D01*
X32821523Y3611619D02*
X32250095Y3611619D01*
X32535809Y3611619D02*
X32535809Y4611619D01*
X32440571Y4468761D01*
X32345333Y4373523D01*
X32250095Y4325904D01*
X33440571Y4611619D02*
X33535809Y4611619D01*
X33631047Y4564000D01*
X33678666Y4516380D01*
X33726285Y4421142D01*
X33773904Y4230666D01*
X33773904Y3992571D01*
X33726285Y3802095D01*
X33678666Y3706857D01*
X33631047Y3659238D01*
X33535809Y3611619D01*
X33440571Y3611619D01*
X33345333Y3659238D01*
X33297714Y3706857D01*
X33250095Y3802095D01*
X33202476Y3992571D01*
X33202476Y4230666D01*
X33250095Y4421142D01*
X33297714Y4516380D01*
X33345333Y4564000D01*
X33440571Y4611619D01*
X28752847Y5186371D02*
X29514752Y5186371D01*
X29133800Y4805419D02*
X29133800Y5567323D01*
G04 #@! TO.C,C11*
X52697142Y22502857D02*
X52649523Y22455238D01*
X52506666Y22407619D01*
X52411428Y22407619D01*
X52268571Y22455238D01*
X52173333Y22550476D01*
X52125714Y22645714D01*
X52078095Y22836190D01*
X52078095Y22979047D01*
X52125714Y23169523D01*
X52173333Y23264761D01*
X52268571Y23360000D01*
X52411428Y23407619D01*
X52506666Y23407619D01*
X52649523Y23360000D01*
X52697142Y23312380D01*
X53649523Y22407619D02*
X53078095Y22407619D01*
X53363809Y22407619D02*
X53363809Y23407619D01*
X53268571Y23264761D01*
X53173333Y23169523D01*
X53078095Y23121904D01*
X54601904Y22407619D02*
X54030476Y22407619D01*
X54316190Y22407619D02*
X54316190Y23407619D01*
X54220952Y23264761D01*
X54125714Y23169523D01*
X54030476Y23121904D01*
G04 #@! TO.C,C12*
X42537142Y21740857D02*
X42489523Y21693238D01*
X42346666Y21645619D01*
X42251428Y21645619D01*
X42108571Y21693238D01*
X42013333Y21788476D01*
X41965714Y21883714D01*
X41918095Y22074190D01*
X41918095Y22217047D01*
X41965714Y22407523D01*
X42013333Y22502761D01*
X42108571Y22598000D01*
X42251428Y22645619D01*
X42346666Y22645619D01*
X42489523Y22598000D01*
X42537142Y22550380D01*
X43489523Y21645619D02*
X42918095Y21645619D01*
X43203809Y21645619D02*
X43203809Y22645619D01*
X43108571Y22502761D01*
X43013333Y22407523D01*
X42918095Y22359904D01*
X43870476Y22550380D02*
X43918095Y22598000D01*
X44013333Y22645619D01*
X44251428Y22645619D01*
X44346666Y22598000D01*
X44394285Y22550380D01*
X44441904Y22455142D01*
X44441904Y22359904D01*
X44394285Y22217047D01*
X43822857Y21645619D01*
X44441904Y21645619D01*
G04 #@! TO.C,C15*
X16121142Y22502857D02*
X16073523Y22455238D01*
X15930666Y22407619D01*
X15835428Y22407619D01*
X15692571Y22455238D01*
X15597333Y22550476D01*
X15549714Y22645714D01*
X15502095Y22836190D01*
X15502095Y22979047D01*
X15549714Y23169523D01*
X15597333Y23264761D01*
X15692571Y23360000D01*
X15835428Y23407619D01*
X15930666Y23407619D01*
X16073523Y23360000D01*
X16121142Y23312380D01*
X17073523Y22407619D02*
X16502095Y22407619D01*
X16787809Y22407619D02*
X16787809Y23407619D01*
X16692571Y23264761D01*
X16597333Y23169523D01*
X16502095Y23121904D01*
X17978285Y23407619D02*
X17502095Y23407619D01*
X17454476Y22931428D01*
X17502095Y22979047D01*
X17597333Y23026666D01*
X17835428Y23026666D01*
X17930666Y22979047D01*
X17978285Y22931428D01*
X18025904Y22836190D01*
X18025904Y22598095D01*
X17978285Y22502857D01*
X17930666Y22455238D01*
X17835428Y22407619D01*
X17597333Y22407619D01*
X17502095Y22455238D01*
X17454476Y22502857D01*
G04 #@! TO.C,C16*
X5453142Y21486857D02*
X5405523Y21439238D01*
X5262666Y21391619D01*
X5167428Y21391619D01*
X5024571Y21439238D01*
X4929333Y21534476D01*
X4881714Y21629714D01*
X4834095Y21820190D01*
X4834095Y21963047D01*
X4881714Y22153523D01*
X4929333Y22248761D01*
X5024571Y22344000D01*
X5167428Y22391619D01*
X5262666Y22391619D01*
X5405523Y22344000D01*
X5453142Y22296380D01*
X6405523Y21391619D02*
X5834095Y21391619D01*
X6119809Y21391619D02*
X6119809Y22391619D01*
X6024571Y22248761D01*
X5929333Y22153523D01*
X5834095Y22105904D01*
X7262666Y22391619D02*
X7072190Y22391619D01*
X6976952Y22344000D01*
X6929333Y22296380D01*
X6834095Y22153523D01*
X6786476Y21963047D01*
X6786476Y21582095D01*
X6834095Y21486857D01*
X6881714Y21439238D01*
X6976952Y21391619D01*
X7167428Y21391619D01*
X7262666Y21439238D01*
X7310285Y21486857D01*
X7357904Y21582095D01*
X7357904Y21820190D01*
X7310285Y21915428D01*
X7262666Y21963047D01*
X7167428Y22010666D01*
X6976952Y22010666D01*
X6881714Y21963047D01*
X6834095Y21915428D01*
X6786476Y21820190D01*
G04 #@! TO.C,D1*
X56332380Y1039904D02*
X55332380Y1039904D01*
X55332380Y1278000D01*
X55380000Y1420857D01*
X55475238Y1516095D01*
X55570476Y1563714D01*
X55760952Y1611333D01*
X55903809Y1611333D01*
X56094285Y1563714D01*
X56189523Y1516095D01*
X56284761Y1420857D01*
X56332380Y1278000D01*
X56332380Y1039904D01*
X56332380Y2563714D02*
X56332380Y1992285D01*
X56332380Y2278000D02*
X55332380Y2278000D01*
X55475238Y2182761D01*
X55570476Y2087523D01*
X55618095Y1992285D01*
D14*
X62978952Y1186666D02*
X63217047Y1186666D01*
X62931333Y1043809D02*
X63098000Y1543809D01*
X63264666Y1043809D01*
X57167047Y1043809D02*
X57167047Y1543809D01*
X57452761Y1043809D02*
X57238476Y1329523D01*
X57452761Y1543809D02*
X57167047Y1258095D01*
G04 #@! TO.C,IC1*
D10*
X28995809Y21391619D02*
X28995809Y22391619D01*
X30043428Y21486857D02*
X29995809Y21439238D01*
X29852952Y21391619D01*
X29757714Y21391619D01*
X29614857Y21439238D01*
X29519619Y21534476D01*
X29472000Y21629714D01*
X29424380Y21820190D01*
X29424380Y21963047D01*
X29472000Y22153523D01*
X29519619Y22248761D01*
X29614857Y22344000D01*
X29757714Y22391619D01*
X29852952Y22391619D01*
X29995809Y22344000D01*
X30043428Y22296380D01*
X30995809Y21391619D02*
X30424380Y21391619D01*
X30710095Y21391619D02*
X30710095Y22391619D01*
X30614857Y22248761D01*
X30519619Y22153523D01*
X30424380Y22105904D01*
G04 #@! TO.C,P1*
X65301904Y6913619D02*
X65301904Y7913619D01*
X65682857Y7913619D01*
X65778095Y7866000D01*
X65825714Y7818380D01*
X65873333Y7723142D01*
X65873333Y7580285D01*
X65825714Y7485047D01*
X65778095Y7437428D01*
X65682857Y7389809D01*
X65301904Y7389809D01*
X66825714Y6913619D02*
X66254285Y6913619D01*
X66540000Y6913619D02*
X66540000Y7913619D01*
X66444761Y7770761D01*
X66349523Y7675523D01*
X66254285Y7627904D01*
G04 #@! TO.C,P2*
X55649904Y19105619D02*
X55649904Y20105619D01*
X56030857Y20105619D01*
X56126095Y20058000D01*
X56173714Y20010380D01*
X56221333Y19915142D01*
X56221333Y19772285D01*
X56173714Y19677047D01*
X56126095Y19629428D01*
X56030857Y19581809D01*
X55649904Y19581809D01*
X56602285Y20010380D02*
X56649904Y20058000D01*
X56745142Y20105619D01*
X56983238Y20105619D01*
X57078476Y20058000D01*
X57126095Y20010380D01*
X57173714Y19915142D01*
X57173714Y19819904D01*
X57126095Y19677047D01*
X56554666Y19105619D01*
X57173714Y19105619D01*
G04 #@! TO.C,Q3*
X68873619Y42068761D02*
X68826000Y41973523D01*
X68730761Y41878285D01*
X68587904Y41735428D01*
X68540285Y41640190D01*
X68540285Y41544952D01*
X68778380Y41592571D02*
X68730761Y41497333D01*
X68635523Y41402095D01*
X68445047Y41354476D01*
X68111714Y41354476D01*
X67921238Y41402095D01*
X67826000Y41497333D01*
X67778380Y41592571D01*
X67778380Y41783047D01*
X67826000Y41878285D01*
X67921238Y41973523D01*
X68111714Y42021142D01*
X68445047Y42021142D01*
X68635523Y41973523D01*
X68730761Y41878285D01*
X68778380Y41783047D01*
X68778380Y41592571D01*
X67778380Y42354476D02*
X67778380Y42973523D01*
X68159333Y42640190D01*
X68159333Y42783047D01*
X68206952Y42878285D01*
X68254571Y42925904D01*
X68349809Y42973523D01*
X68587904Y42973523D01*
X68683142Y42925904D01*
X68730761Y42878285D01*
X68778380Y42783047D01*
X68778380Y42497333D01*
X68730761Y42402095D01*
X68683142Y42354476D01*
G04 #@! TO.C,R1*
X37536380Y13835333D02*
X37060190Y13502000D01*
X37536380Y13263904D02*
X36536380Y13263904D01*
X36536380Y13644857D01*
X36584000Y13740095D01*
X36631619Y13787714D01*
X36726857Y13835333D01*
X36869714Y13835333D01*
X36964952Y13787714D01*
X37012571Y13740095D01*
X37060190Y13644857D01*
X37060190Y13263904D01*
X37536380Y14787714D02*
X37536380Y14216285D01*
X37536380Y14502000D02*
X36536380Y14502000D01*
X36679238Y14406761D01*
X36774476Y14311523D01*
X36822095Y14216285D01*
G04 #@! TO.C,R3*
X72477333Y25963619D02*
X72144000Y26439809D01*
X71905904Y25963619D02*
X71905904Y26963619D01*
X72286857Y26963619D01*
X72382095Y26916000D01*
X72429714Y26868380D01*
X72477333Y26773142D01*
X72477333Y26630285D01*
X72429714Y26535047D01*
X72382095Y26487428D01*
X72286857Y26439809D01*
X71905904Y26439809D01*
X72810666Y26963619D02*
X73429714Y26963619D01*
X73096380Y26582666D01*
X73239238Y26582666D01*
X73334476Y26535047D01*
X73382095Y26487428D01*
X73429714Y26392190D01*
X73429714Y26154095D01*
X73382095Y26058857D01*
X73334476Y26011238D01*
X73239238Y25963619D01*
X72953523Y25963619D01*
X72858285Y26011238D01*
X72810666Y26058857D01*
G04 #@! TO.C,R4*
X62174380Y26757333D02*
X61698190Y26424000D01*
X62174380Y26185904D02*
X61174380Y26185904D01*
X61174380Y26566857D01*
X61222000Y26662095D01*
X61269619Y26709714D01*
X61364857Y26757333D01*
X61507714Y26757333D01*
X61602952Y26709714D01*
X61650571Y26662095D01*
X61698190Y26566857D01*
X61698190Y26185904D01*
X61507714Y27614476D02*
X62174380Y27614476D01*
X61126761Y27376380D02*
X61841047Y27138285D01*
X61841047Y27757333D01*
G04 #@! TO.C,R5*
X72477333Y24185619D02*
X72144000Y24661809D01*
X71905904Y24185619D02*
X71905904Y25185619D01*
X72286857Y25185619D01*
X72382095Y25138000D01*
X72429714Y25090380D01*
X72477333Y24995142D01*
X72477333Y24852285D01*
X72429714Y24757047D01*
X72382095Y24709428D01*
X72286857Y24661809D01*
X71905904Y24661809D01*
X73382095Y25185619D02*
X72905904Y25185619D01*
X72858285Y24709428D01*
X72905904Y24757047D01*
X73001142Y24804666D01*
X73239238Y24804666D01*
X73334476Y24757047D01*
X73382095Y24709428D01*
X73429714Y24614190D01*
X73429714Y24376095D01*
X73382095Y24280857D01*
X73334476Y24233238D01*
X73239238Y24185619D01*
X73001142Y24185619D01*
X72905904Y24233238D01*
X72858285Y24280857D01*
G04 #@! TO.C,R10*
X61158380Y7993142D02*
X60682190Y7659809D01*
X61158380Y7421714D02*
X60158380Y7421714D01*
X60158380Y7802666D01*
X60206000Y7897904D01*
X60253619Y7945523D01*
X60348857Y7993142D01*
X60491714Y7993142D01*
X60586952Y7945523D01*
X60634571Y7897904D01*
X60682190Y7802666D01*
X60682190Y7421714D01*
X61158380Y8945523D02*
X61158380Y8374095D01*
X61158380Y8659809D02*
X60158380Y8659809D01*
X60301238Y8564571D01*
X60396476Y8469333D01*
X60444095Y8374095D01*
X60158380Y9564571D02*
X60158380Y9659809D01*
X60206000Y9755047D01*
X60253619Y9802666D01*
X60348857Y9850285D01*
X60539333Y9897904D01*
X60777428Y9897904D01*
X60967904Y9850285D01*
X61063142Y9802666D01*
X61110761Y9755047D01*
X61158380Y9659809D01*
X61158380Y9564571D01*
X61110761Y9469333D01*
X61063142Y9421714D01*
X60967904Y9374095D01*
X60777428Y9326476D01*
X60539333Y9326476D01*
X60348857Y9374095D01*
X60253619Y9421714D01*
X60206000Y9469333D01*
X60158380Y9564571D01*
G04 #@! TO.C,R11*
X62682380Y7993142D02*
X62206190Y7659809D01*
X62682380Y7421714D02*
X61682380Y7421714D01*
X61682380Y7802666D01*
X61730000Y7897904D01*
X61777619Y7945523D01*
X61872857Y7993142D01*
X62015714Y7993142D01*
X62110952Y7945523D01*
X62158571Y7897904D01*
X62206190Y7802666D01*
X62206190Y7421714D01*
X62682380Y8945523D02*
X62682380Y8374095D01*
X62682380Y8659809D02*
X61682380Y8659809D01*
X61825238Y8564571D01*
X61920476Y8469333D01*
X61968095Y8374095D01*
X62682380Y9897904D02*
X62682380Y9326476D01*
X62682380Y9612190D02*
X61682380Y9612190D01*
X61825238Y9516952D01*
X61920476Y9421714D01*
X61968095Y9326476D01*
G04 #@! TO.C,R12*
X52776380Y7739142D02*
X52300190Y7405809D01*
X52776380Y7167714D02*
X51776380Y7167714D01*
X51776380Y7548666D01*
X51824000Y7643904D01*
X51871619Y7691523D01*
X51966857Y7739142D01*
X52109714Y7739142D01*
X52204952Y7691523D01*
X52252571Y7643904D01*
X52300190Y7548666D01*
X52300190Y7167714D01*
X52776380Y8691523D02*
X52776380Y8120095D01*
X52776380Y8405809D02*
X51776380Y8405809D01*
X51919238Y8310571D01*
X52014476Y8215333D01*
X52062095Y8120095D01*
X51871619Y9072476D02*
X51824000Y9120095D01*
X51776380Y9215333D01*
X51776380Y9453428D01*
X51824000Y9548666D01*
X51871619Y9596285D01*
X51966857Y9643904D01*
X52062095Y9643904D01*
X52204952Y9596285D01*
X52776380Y9024857D01*
X52776380Y9643904D01*
G04 #@! TO.C,R13*
X59301142Y23677619D02*
X58967809Y24153809D01*
X58729714Y23677619D02*
X58729714Y24677619D01*
X59110666Y24677619D01*
X59205904Y24630000D01*
X59253523Y24582380D01*
X59301142Y24487142D01*
X59301142Y24344285D01*
X59253523Y24249047D01*
X59205904Y24201428D01*
X59110666Y24153809D01*
X58729714Y24153809D01*
X60253523Y23677619D02*
X59682095Y23677619D01*
X59967809Y23677619D02*
X59967809Y24677619D01*
X59872571Y24534761D01*
X59777333Y24439523D01*
X59682095Y24391904D01*
X60586857Y24677619D02*
X61205904Y24677619D01*
X60872571Y24296666D01*
X61015428Y24296666D01*
X61110666Y24249047D01*
X61158285Y24201428D01*
X61205904Y24106190D01*
X61205904Y23868095D01*
X61158285Y23772857D01*
X61110666Y23725238D01*
X61015428Y23677619D01*
X60729714Y23677619D01*
X60634476Y23725238D01*
X60586857Y23772857D01*
G04 #@! TO.C,R14*
X52697142Y24185619D02*
X52363809Y24661809D01*
X52125714Y24185619D02*
X52125714Y25185619D01*
X52506666Y25185619D01*
X52601904Y25138000D01*
X52649523Y25090380D01*
X52697142Y24995142D01*
X52697142Y24852285D01*
X52649523Y24757047D01*
X52601904Y24709428D01*
X52506666Y24661809D01*
X52125714Y24661809D01*
X53649523Y24185619D02*
X53078095Y24185619D01*
X53363809Y24185619D02*
X53363809Y25185619D01*
X53268571Y25042761D01*
X53173333Y24947523D01*
X53078095Y24899904D01*
X54506666Y24852285D02*
X54506666Y24185619D01*
X54268571Y25233238D02*
X54030476Y24518952D01*
X54649523Y24518952D01*
G04 #@! TO.C,R15*
X42108380Y26281142D02*
X41632190Y25947809D01*
X42108380Y25709714D02*
X41108380Y25709714D01*
X41108380Y26090666D01*
X41156000Y26185904D01*
X41203619Y26233523D01*
X41298857Y26281142D01*
X41441714Y26281142D01*
X41536952Y26233523D01*
X41584571Y26185904D01*
X41632190Y26090666D01*
X41632190Y25709714D01*
X42108380Y27233523D02*
X42108380Y26662095D01*
X42108380Y26947809D02*
X41108380Y26947809D01*
X41251238Y26852571D01*
X41346476Y26757333D01*
X41394095Y26662095D01*
X41108380Y28138285D02*
X41108380Y27662095D01*
X41584571Y27614476D01*
X41536952Y27662095D01*
X41489333Y27757333D01*
X41489333Y27995428D01*
X41536952Y28090666D01*
X41584571Y28138285D01*
X41679809Y28185904D01*
X41917904Y28185904D01*
X42013142Y28138285D01*
X42060761Y28090666D01*
X42108380Y27995428D01*
X42108380Y27757333D01*
X42060761Y27662095D01*
X42013142Y27614476D01*
G04 #@! TO.C,R16*
X52697142Y25963619D02*
X52363809Y26439809D01*
X52125714Y25963619D02*
X52125714Y26963619D01*
X52506666Y26963619D01*
X52601904Y26916000D01*
X52649523Y26868380D01*
X52697142Y26773142D01*
X52697142Y26630285D01*
X52649523Y26535047D01*
X52601904Y26487428D01*
X52506666Y26439809D01*
X52125714Y26439809D01*
X53649523Y25963619D02*
X53078095Y25963619D01*
X53363809Y25963619D02*
X53363809Y26963619D01*
X53268571Y26820761D01*
X53173333Y26725523D01*
X53078095Y26677904D01*
X54506666Y26963619D02*
X54316190Y26963619D01*
X54220952Y26916000D01*
X54173333Y26868380D01*
X54078095Y26725523D01*
X54030476Y26535047D01*
X54030476Y26154095D01*
X54078095Y26058857D01*
X54125714Y26011238D01*
X54220952Y25963619D01*
X54411428Y25963619D01*
X54506666Y26011238D01*
X54554285Y26058857D01*
X54601904Y26154095D01*
X54601904Y26392190D01*
X54554285Y26487428D01*
X54506666Y26535047D01*
X54411428Y26582666D01*
X54220952Y26582666D01*
X54125714Y26535047D01*
X54078095Y26487428D01*
X54030476Y26392190D01*
G04 #@! TO.C,R17*
X41346380Y23487142D02*
X40870190Y23153809D01*
X41346380Y22915714D02*
X40346380Y22915714D01*
X40346380Y23296666D01*
X40394000Y23391904D01*
X40441619Y23439523D01*
X40536857Y23487142D01*
X40679714Y23487142D01*
X40774952Y23439523D01*
X40822571Y23391904D01*
X40870190Y23296666D01*
X40870190Y22915714D01*
X41346380Y24439523D02*
X41346380Y23868095D01*
X41346380Y24153809D02*
X40346380Y24153809D01*
X40489238Y24058571D01*
X40584476Y23963333D01*
X40632095Y23868095D01*
X40346380Y24772857D02*
X40346380Y25439523D01*
X41346380Y25010952D01*
G04 #@! TO.C,R18*
X12819142Y27487619D02*
X12485809Y27963809D01*
X12247714Y27487619D02*
X12247714Y28487619D01*
X12628666Y28487619D01*
X12723904Y28440000D01*
X12771523Y28392380D01*
X12819142Y28297142D01*
X12819142Y28154285D01*
X12771523Y28059047D01*
X12723904Y28011428D01*
X12628666Y27963809D01*
X12247714Y27963809D01*
X13771523Y27487619D02*
X13200095Y27487619D01*
X13485809Y27487619D02*
X13485809Y28487619D01*
X13390571Y28344761D01*
X13295333Y28249523D01*
X13200095Y28201904D01*
X14342952Y28059047D02*
X14247714Y28106666D01*
X14200095Y28154285D01*
X14152476Y28249523D01*
X14152476Y28297142D01*
X14200095Y28392380D01*
X14247714Y28440000D01*
X14342952Y28487619D01*
X14533428Y28487619D01*
X14628666Y28440000D01*
X14676285Y28392380D01*
X14723904Y28297142D01*
X14723904Y28249523D01*
X14676285Y28154285D01*
X14628666Y28106666D01*
X14533428Y28059047D01*
X14342952Y28059047D01*
X14247714Y28011428D01*
X14200095Y27963809D01*
X14152476Y27868571D01*
X14152476Y27678095D01*
X14200095Y27582857D01*
X14247714Y27535238D01*
X14342952Y27487619D01*
X14533428Y27487619D01*
X14628666Y27535238D01*
X14676285Y27582857D01*
X14723904Y27678095D01*
X14723904Y27868571D01*
X14676285Y27963809D01*
X14628666Y28011428D01*
X14533428Y28059047D01*
G04 #@! TO.C,R21*
X5278380Y26281142D02*
X4802190Y25947809D01*
X5278380Y25709714D02*
X4278380Y25709714D01*
X4278380Y26090666D01*
X4326000Y26185904D01*
X4373619Y26233523D01*
X4468857Y26281142D01*
X4611714Y26281142D01*
X4706952Y26233523D01*
X4754571Y26185904D01*
X4802190Y26090666D01*
X4802190Y25709714D01*
X4373619Y26662095D02*
X4326000Y26709714D01*
X4278380Y26804952D01*
X4278380Y27043047D01*
X4326000Y27138285D01*
X4373619Y27185904D01*
X4468857Y27233523D01*
X4564095Y27233523D01*
X4706952Y27185904D01*
X5278380Y26614476D01*
X5278380Y27233523D01*
X5278380Y28185904D02*
X5278380Y27614476D01*
X5278380Y27900190D02*
X4278380Y27900190D01*
X4421238Y27804952D01*
X4516476Y27709714D01*
X4564095Y27614476D01*
G04 #@! TO.C,R22*
X15613142Y24185619D02*
X15279809Y24661809D01*
X15041714Y24185619D02*
X15041714Y25185619D01*
X15422666Y25185619D01*
X15517904Y25138000D01*
X15565523Y25090380D01*
X15613142Y24995142D01*
X15613142Y24852285D01*
X15565523Y24757047D01*
X15517904Y24709428D01*
X15422666Y24661809D01*
X15041714Y24661809D01*
X15994095Y25090380D02*
X16041714Y25138000D01*
X16136952Y25185619D01*
X16375047Y25185619D01*
X16470285Y25138000D01*
X16517904Y25090380D01*
X16565523Y24995142D01*
X16565523Y24899904D01*
X16517904Y24757047D01*
X15946476Y24185619D01*
X16565523Y24185619D01*
X16946476Y25090380D02*
X16994095Y25138000D01*
X17089333Y25185619D01*
X17327428Y25185619D01*
X17422666Y25138000D01*
X17470285Y25090380D01*
X17517904Y24995142D01*
X17517904Y24899904D01*
X17470285Y24757047D01*
X16898857Y24185619D01*
X17517904Y24185619D01*
G04 #@! TO.C,R23*
X2151142Y23677619D02*
X1817809Y24153809D01*
X1579714Y23677619D02*
X1579714Y24677619D01*
X1960666Y24677619D01*
X2055904Y24630000D01*
X2103523Y24582380D01*
X2151142Y24487142D01*
X2151142Y24344285D01*
X2103523Y24249047D01*
X2055904Y24201428D01*
X1960666Y24153809D01*
X1579714Y24153809D01*
X2532095Y24582380D02*
X2579714Y24630000D01*
X2674952Y24677619D01*
X2913047Y24677619D01*
X3008285Y24630000D01*
X3055904Y24582380D01*
X3103523Y24487142D01*
X3103523Y24391904D01*
X3055904Y24249047D01*
X2484476Y23677619D01*
X3103523Y23677619D01*
X3436857Y24677619D02*
X4055904Y24677619D01*
X3722571Y24296666D01*
X3865428Y24296666D01*
X3960666Y24249047D01*
X4008285Y24201428D01*
X4055904Y24106190D01*
X4055904Y23868095D01*
X4008285Y23772857D01*
X3960666Y23725238D01*
X3865428Y23677619D01*
X3579714Y23677619D01*
X3484476Y23725238D01*
X3436857Y23772857D01*
G04 #@! TO.C,R25*
X45156380Y10787142D02*
X44680190Y10453809D01*
X45156380Y10215714D02*
X44156380Y10215714D01*
X44156380Y10596666D01*
X44204000Y10691904D01*
X44251619Y10739523D01*
X44346857Y10787142D01*
X44489714Y10787142D01*
X44584952Y10739523D01*
X44632571Y10691904D01*
X44680190Y10596666D01*
X44680190Y10215714D01*
X44251619Y11168095D02*
X44204000Y11215714D01*
X44156380Y11310952D01*
X44156380Y11549047D01*
X44204000Y11644285D01*
X44251619Y11691904D01*
X44346857Y11739523D01*
X44442095Y11739523D01*
X44584952Y11691904D01*
X45156380Y11120476D01*
X45156380Y11739523D01*
X44156380Y12644285D02*
X44156380Y12168095D01*
X44632571Y12120476D01*
X44584952Y12168095D01*
X44537333Y12263333D01*
X44537333Y12501428D01*
X44584952Y12596666D01*
X44632571Y12644285D01*
X44727809Y12691904D01*
X44965904Y12691904D01*
X45061142Y12644285D01*
X45108761Y12596666D01*
X45156380Y12501428D01*
X45156380Y12263333D01*
X45108761Y12168095D01*
X45061142Y12120476D01*
G04 #@! TO.C,R26*
X46934380Y10787142D02*
X46458190Y10453809D01*
X46934380Y10215714D02*
X45934380Y10215714D01*
X45934380Y10596666D01*
X45982000Y10691904D01*
X46029619Y10739523D01*
X46124857Y10787142D01*
X46267714Y10787142D01*
X46362952Y10739523D01*
X46410571Y10691904D01*
X46458190Y10596666D01*
X46458190Y10215714D01*
X46029619Y11168095D02*
X45982000Y11215714D01*
X45934380Y11310952D01*
X45934380Y11549047D01*
X45982000Y11644285D01*
X46029619Y11691904D01*
X46124857Y11739523D01*
X46220095Y11739523D01*
X46362952Y11691904D01*
X46934380Y11120476D01*
X46934380Y11739523D01*
X45934380Y12596666D02*
X45934380Y12406190D01*
X45982000Y12310952D01*
X46029619Y12263333D01*
X46172476Y12168095D01*
X46362952Y12120476D01*
X46743904Y12120476D01*
X46839142Y12168095D01*
X46886761Y12215714D01*
X46934380Y12310952D01*
X46934380Y12501428D01*
X46886761Y12596666D01*
X46839142Y12644285D01*
X46743904Y12691904D01*
X46505809Y12691904D01*
X46410571Y12644285D01*
X46362952Y12596666D01*
X46315333Y12501428D01*
X46315333Y12310952D01*
X46362952Y12215714D01*
X46410571Y12168095D01*
X46505809Y12120476D01*
G04 #@! TO.C,R27*
X43378380Y10787142D02*
X42902190Y10453809D01*
X43378380Y10215714D02*
X42378380Y10215714D01*
X42378380Y10596666D01*
X42426000Y10691904D01*
X42473619Y10739523D01*
X42568857Y10787142D01*
X42711714Y10787142D01*
X42806952Y10739523D01*
X42854571Y10691904D01*
X42902190Y10596666D01*
X42902190Y10215714D01*
X42473619Y11168095D02*
X42426000Y11215714D01*
X42378380Y11310952D01*
X42378380Y11549047D01*
X42426000Y11644285D01*
X42473619Y11691904D01*
X42568857Y11739523D01*
X42664095Y11739523D01*
X42806952Y11691904D01*
X43378380Y11120476D01*
X43378380Y11739523D01*
X42378380Y12072857D02*
X42378380Y12739523D01*
X43378380Y12310952D01*
G04 #@! TO.C,R28*
X48712380Y10787142D02*
X48236190Y10453809D01*
X48712380Y10215714D02*
X47712380Y10215714D01*
X47712380Y10596666D01*
X47760000Y10691904D01*
X47807619Y10739523D01*
X47902857Y10787142D01*
X48045714Y10787142D01*
X48140952Y10739523D01*
X48188571Y10691904D01*
X48236190Y10596666D01*
X48236190Y10215714D01*
X47807619Y11168095D02*
X47760000Y11215714D01*
X47712380Y11310952D01*
X47712380Y11549047D01*
X47760000Y11644285D01*
X47807619Y11691904D01*
X47902857Y11739523D01*
X47998095Y11739523D01*
X48140952Y11691904D01*
X48712380Y11120476D01*
X48712380Y11739523D01*
X48140952Y12310952D02*
X48093333Y12215714D01*
X48045714Y12168095D01*
X47950476Y12120476D01*
X47902857Y12120476D01*
X47807619Y12168095D01*
X47760000Y12215714D01*
X47712380Y12310952D01*
X47712380Y12501428D01*
X47760000Y12596666D01*
X47807619Y12644285D01*
X47902857Y12691904D01*
X47950476Y12691904D01*
X48045714Y12644285D01*
X48093333Y12596666D01*
X48140952Y12501428D01*
X48140952Y12310952D01*
X48188571Y12215714D01*
X48236190Y12168095D01*
X48331428Y12120476D01*
X48521904Y12120476D01*
X48617142Y12168095D01*
X48664761Y12215714D01*
X48712380Y12310952D01*
X48712380Y12501428D01*
X48664761Y12596666D01*
X48617142Y12644285D01*
X48521904Y12691904D01*
X48331428Y12691904D01*
X48236190Y12644285D01*
X48188571Y12596666D01*
X48140952Y12501428D01*
G04 #@! TO.C,R29*
X73017142Y37393619D02*
X72683809Y37869809D01*
X72445714Y37393619D02*
X72445714Y38393619D01*
X72826666Y38393619D01*
X72921904Y38346000D01*
X72969523Y38298380D01*
X73017142Y38203142D01*
X73017142Y38060285D01*
X72969523Y37965047D01*
X72921904Y37917428D01*
X72826666Y37869809D01*
X72445714Y37869809D01*
X73398095Y38298380D02*
X73445714Y38346000D01*
X73540952Y38393619D01*
X73779047Y38393619D01*
X73874285Y38346000D01*
X73921904Y38298380D01*
X73969523Y38203142D01*
X73969523Y38107904D01*
X73921904Y37965047D01*
X73350476Y37393619D01*
X73969523Y37393619D01*
X74445714Y37393619D02*
X74636190Y37393619D01*
X74731428Y37441238D01*
X74779047Y37488857D01*
X74874285Y37631714D01*
X74921904Y37822190D01*
X74921904Y38203142D01*
X74874285Y38298380D01*
X74826666Y38346000D01*
X74731428Y38393619D01*
X74540952Y38393619D01*
X74445714Y38346000D01*
X74398095Y38298380D01*
X74350476Y38203142D01*
X74350476Y37965047D01*
X74398095Y37869809D01*
X74445714Y37822190D01*
X74540952Y37774571D01*
X74731428Y37774571D01*
X74826666Y37822190D01*
X74874285Y37869809D01*
X74921904Y37965047D01*
G04 #@! TO.C,R30*
X73017142Y39171619D02*
X72683809Y39647809D01*
X72445714Y39171619D02*
X72445714Y40171619D01*
X72826666Y40171619D01*
X72921904Y40124000D01*
X72969523Y40076380D01*
X73017142Y39981142D01*
X73017142Y39838285D01*
X72969523Y39743047D01*
X72921904Y39695428D01*
X72826666Y39647809D01*
X72445714Y39647809D01*
X73350476Y40171619D02*
X73969523Y40171619D01*
X73636190Y39790666D01*
X73779047Y39790666D01*
X73874285Y39743047D01*
X73921904Y39695428D01*
X73969523Y39600190D01*
X73969523Y39362095D01*
X73921904Y39266857D01*
X73874285Y39219238D01*
X73779047Y39171619D01*
X73493333Y39171619D01*
X73398095Y39219238D01*
X73350476Y39266857D01*
X74588571Y40171619D02*
X74683809Y40171619D01*
X74779047Y40124000D01*
X74826666Y40076380D01*
X74874285Y39981142D01*
X74921904Y39790666D01*
X74921904Y39552571D01*
X74874285Y39362095D01*
X74826666Y39266857D01*
X74779047Y39219238D01*
X74683809Y39171619D01*
X74588571Y39171619D01*
X74493333Y39219238D01*
X74445714Y39266857D01*
X74398095Y39362095D01*
X74350476Y39552571D01*
X74350476Y39790666D01*
X74398095Y39981142D01*
X74445714Y40076380D01*
X74493333Y40124000D01*
X74588571Y40171619D01*
G04 #@! TO.C,R31*
X67683142Y44759619D02*
X67349809Y45235809D01*
X67111714Y44759619D02*
X67111714Y45759619D01*
X67492666Y45759619D01*
X67587904Y45712000D01*
X67635523Y45664380D01*
X67683142Y45569142D01*
X67683142Y45426285D01*
X67635523Y45331047D01*
X67587904Y45283428D01*
X67492666Y45235809D01*
X67111714Y45235809D01*
X68016476Y45759619D02*
X68635523Y45759619D01*
X68302190Y45378666D01*
X68445047Y45378666D01*
X68540285Y45331047D01*
X68587904Y45283428D01*
X68635523Y45188190D01*
X68635523Y44950095D01*
X68587904Y44854857D01*
X68540285Y44807238D01*
X68445047Y44759619D01*
X68159333Y44759619D01*
X68064095Y44807238D01*
X68016476Y44854857D01*
X69587904Y44759619D02*
X69016476Y44759619D01*
X69302190Y44759619D02*
X69302190Y45759619D01*
X69206952Y45616761D01*
X69111714Y45521523D01*
X69016476Y45473904D01*
G04 #@! TO.C,U1*
D14*
X64897047Y27705809D02*
X64897047Y27301047D01*
X64920857Y27253428D01*
X64944666Y27229619D01*
X64992285Y27205809D01*
X65087523Y27205809D01*
X65135142Y27229619D01*
X65158952Y27253428D01*
X65182761Y27301047D01*
X65182761Y27705809D01*
X65682761Y27205809D02*
X65397047Y27205809D01*
X65539904Y27205809D02*
X65539904Y27705809D01*
X65492285Y27634380D01*
X65444666Y27586761D01*
X65397047Y27562952D01*
G04 #@! TO.C,U2*
D10*
X11644380Y4241895D02*
X12453904Y4241895D01*
X12549142Y4289514D01*
X12596761Y4337133D01*
X12644380Y4432371D01*
X12644380Y4622847D01*
X12596761Y4718085D01*
X12549142Y4765704D01*
X12453904Y4813323D01*
X11644380Y4813323D01*
X11739619Y5241895D02*
X11692000Y5289514D01*
X11644380Y5384752D01*
X11644380Y5622847D01*
X11692000Y5718085D01*
X11739619Y5765704D01*
X11834857Y5813323D01*
X11930095Y5813323D01*
X12072952Y5765704D01*
X12644380Y5194276D01*
X12644380Y5813323D01*
G04 #@! TO.C,U4*
D14*
X44831047Y27705809D02*
X44831047Y27301047D01*
X44854857Y27253428D01*
X44878666Y27229619D01*
X44926285Y27205809D01*
X45021523Y27205809D01*
X45069142Y27229619D01*
X45092952Y27253428D01*
X45116761Y27301047D01*
X45116761Y27705809D01*
X45569142Y27539142D02*
X45569142Y27205809D01*
X45450095Y27729619D02*
X45331047Y27372476D01*
X45640571Y27372476D01*
G04 #@! TO.C,U5*
X7747047Y27451809D02*
X7747047Y27047047D01*
X7770857Y26999428D01*
X7794666Y26975619D01*
X7842285Y26951809D01*
X7937523Y26951809D01*
X7985142Y26975619D01*
X8008952Y26999428D01*
X8032761Y27047047D01*
X8032761Y27451809D01*
X8508952Y27451809D02*
X8270857Y27451809D01*
X8247047Y27213714D01*
X8270857Y27237523D01*
X8318476Y27261333D01*
X8437523Y27261333D01*
X8485142Y27237523D01*
X8508952Y27213714D01*
X8532761Y27166095D01*
X8532761Y27047047D01*
X8508952Y26999428D01*
X8485142Y26975619D01*
X8437523Y26951809D01*
X8318476Y26951809D01*
X8270857Y26975619D01*
X8247047Y26999428D01*
G04 #@! TO.C,X1*
D10*
X30940476Y29249619D02*
X31607142Y28249619D01*
X31607142Y29249619D02*
X30940476Y28249619D01*
X32511904Y28249619D02*
X31940476Y28249619D01*
X32226190Y28249619D02*
X32226190Y29249619D01*
X32130952Y29106761D01*
X32035714Y29011523D01*
X31940476Y28963904D01*
G04 #@! TD*
M02*
