  0
SECTION
  2
HEADER
  9
$ANGBASE
  50
0.0
  9
$ANGDIR
  70
  1
  9
$MEASUREMENT
  70
0
  0
ENDSEC
  0
SECTION
  2
TABLES
  0
TABLE
  2
LTYPE
  70
4
  0
LTYPE
  5
40F
  2
CONTINUOUS
  70
0
  3
Solid line
  72
65
  73
0
  40
0.0
  0
LTYPE
  5
410
  2
DASHDOT
 70
0
  3
Dash Dot ____ _ ____ _
 72
65
 73
4
 40
2.0
 49
1.25
 49
-0.25
 49
0.25
 49
-0.25
  0
LTYPE
  5
411
  2
DASHED
 70
0
  3
Dashed __ __ __ __ __
 72
65
 73
2
 40
0.75
 49
0.5
 49
-0.25
  0
LTYPE
  5
43B
  2
DOTTED
 70
0
  3
Dotted .  .  .  .
 72
65
 73
2
 40
0.2
 49
0.0
 49
-0.2
  0
ENDTAB
  0
TABLE
  2
STYLE
  70
4
  0
STYLE
  2
KICAD
  70
0
  40
0
  41
1
  42
1
  50
0
  71
0
  3
isocp.shx
  0
STYLE
  2
KICADB
  70
0
  40
0
  41
1
  42
1
  50
0
  71
0
  3
isocp.shx
  0
STYLE
  2
KICADI
  70
0
  40
0
  41
1
  42
1
  50
15
  71
0
  3
isocp.shx
  0
STYLE
  2
KICADBI
  70
0
  40
0
  41
1
  42
1
  50
15
  71
0
  3
isocp.shx
  0
ENDTAB
  0
TABLE
  2
LAYER
  70
30
  0
LAYER
  2
BLACK
  70
0
  62
7
  6
CONTINUOUS
  0
LAYER
  2
GRAY1
  70
0
  62
251
  6
CONTINUOUS
  0
LAYER
  2
GRAY2
  70
0
  62
8
  6
CONTINUOUS
  0
LAYER
  2
GRAY3
  70
0
  62
9
  6
CONTINUOUS
  0
LAYER
  2
WHITE
  70
0
  62
7
  6
CONTINUOUS
  0
LAYER
  2
LYELLOW
  70
0
  62
51
  6
CONTINUOUS
  0
LAYER
  2
BLUE1
  70
0
  62
178
  6
CONTINUOUS
  0
LAYER
  2
GREEN1
  70
0
  62
98
  6
CONTINUOUS
  0
LAYER
  2
CYAN1
  70
0
  62
138
  6
CONTINUOUS
  0
LAYER
  2
RED1
  70
0
  62
18
  6
CONTINUOUS
  0
LAYER
  2
MAGENTA1
  70
0
  62
228
  6
CONTINUOUS
  0
LAYER
  2
BROWN1
  70
0
  62
58
  6
CONTINUOUS
  0
LAYER
  2
BLUE2
  70
0
  62
5
  6
CONTINUOUS
  0
LAYER
  2
GREEN2
  70
0
  62
3
  6
CONTINUOUS
  0
LAYER
  2
CYAN2
  70
0
  62
4
  6
CONTINUOUS
  0
LAYER
  2
RED2
  70
0
  62
1
  6
CONTINUOUS
  0
LAYER
  2
MAGENTA2
  70
0
  62
6
  6
CONTINUOUS
  0
LAYER
  2
BROWN2
  70
0
  62
54
  6
CONTINUOUS
  0
LAYER
  2
BLUE3
  70
0
  62
171
  6
CONTINUOUS
  0
LAYER
  2
GREEN3
  70
0
  62
91
  6
CONTINUOUS
  0
LAYER
  2
CYAN3
  70
0
  62
131
  6
CONTINUOUS
  0
LAYER
  2
RED3
  70
0
  62
11
  6
CONTINUOUS
  0
LAYER
  2
MAGENTA3
  70
0
  62
221
  6
CONTINUOUS
  0
LAYER
  2
YELLOW3
  70
0
  62
2
  6
CONTINUOUS
  0
LAYER
  2
BLUE4
  70
0
  62
5
  6
CONTINUOUS
  0
LAYER
  2
GREEN4
  70
0
  62
3
  6
CONTINUOUS
  0
LAYER
  2
CYAN4
  70
0
  62
4
  6
CONTINUOUS
  0
LAYER
  2
RED4
  70
0
  62
1
  6
CONTINUOUS
  0
LAYER
  2
MAGENTA4
  70
0
  62
6
  6
CONTINUOUS
  0
LAYER
  2
YELLOW4
  70
0
  62
2
  6
CONTINUOUS
  0
ENDTAB
  0
ENDSEC
  0
SECTION
  2
ENTITIES
0
ARC
8
BLACK
10
76
20
64
40
5
50
180
51
270
0
ARC
8
BLACK
10
0
20
64
40
5
50
-90
51
-0
0
ARC
8
BLACK
10
76
20
0
40
5
50
90
51
180
0
ARC
8
BLACK
10
0
20
0
40
5
50
-0
51
90
0
LINE
8
BLACK
6
CONTINUOUS
10
66.5
20
58.26
11
7
21
58.26
0
LINE
8
BLACK
6
CONTINUOUS
10
66.5
20
32.26
11
66.5
21
58.26
0
LINE
8
BLACK
6
CONTINUOUS
10
7
20
32.26
11
66.5
21
32.26
0
LINE
8
BLACK
6
CONTINUOUS
10
7
20
58.26
11
7
21
32.26
0
LINE
8
BLACK
6
CONTINUOUS
10
71
20
0
11
5
21
0
0
LINE
8
BLACK
6
CONTINUOUS
10
76
20
59
11
76
21
5
0
LINE
8
BLACK
6
CONTINUOUS
10
5
20
64
11
71
21
64
0
LINE
8
BLACK
6
CONTINUOUS
10
0
20
5
11
0
21
59
0
LINE
8
BLACK
6
CONTINUOUS
10
4.94288
20
22.9227
11
5.34288
21
22.5227
0
LINE
8
BLACK
6
CONTINUOUS
10
5.34288
20
22.9227
11
4.94288
21
22.5227
0
LINE
8
BLACK
6
CONTINUOUS
10
17.707
20
20.2152
11
18.107
21
19.8152
0
LINE
8
BLACK
6
CONTINUOUS
10
18.107
20
20.2152
11
17.707
21
19.8152
0
LINE
8
BLACK
6
CONTINUOUS
10
17.7324
20
22.5266
11
18.1324
21
22.1266
0
LINE
8
BLACK
6
CONTINUOUS
10
18.1324
20
22.5266
11
17.7324
21
22.1266
0
LINE
8
BLACK
6
CONTINUOUS
10
20.7042
20
21.9932
11
21.1042
21
21.5932
0
LINE
8
BLACK
6
CONTINUOUS
10
21.1042
20
21.9932
11
20.7042
21
21.5932
0
LINE
8
BLACK
6
CONTINUOUS
10
20.9582
20
23.6442
11
21.3582
21
23.2442
0
LINE
8
BLACK
6
CONTINUOUS
10
21.3582
20
23.6442
11
20.9582
21
23.2442
0
LINE
8
BLACK
6
CONTINUOUS
10
23.4391
20
23.6635
11
23.8391
21
23.2635
0
LINE
8
BLACK
6
CONTINUOUS
10
23.8391
20
23.6635
11
23.4391
21
23.2635
0
LINE
8
BLACK
6
CONTINUOUS
10
25.0784
20
24.7577
11
25.4784
21
24.3577
0
LINE
8
BLACK
6
CONTINUOUS
10
25.4784
20
24.7577
11
25.0784
21
24.3577
0
LINE
8
BLACK
6
CONTINUOUS
10
26.1313
20
20.576
11
26.5313
21
20.176
0
LINE
8
BLACK
6
CONTINUOUS
10
26.5313
20
20.576
11
26.1313
21
20.176
0
LINE
8
BLACK
6
CONTINUOUS
10
42.6752
20
23.0092
11
43.0752
21
22.6092
0
LINE
8
BLACK
6
CONTINUOUS
10
43.0752
20
23.0092
11
42.6752
21
22.6092
0
LINE
8
BLACK
6
CONTINUOUS
10
62.6904
20
23.0346
11
63.0904
21
22.6346
0
LINE
8
BLACK
6
CONTINUOUS
10
63.0904
20
23.0346
11
62.6904
21
22.6346
0
CIRCLE
8
BLACK
10
17.9324
20
24.4348
40
0.25
0
CIRCLE
8
BLACK
10
18.542
20
17.78
40
0.25
0
CIRCLE
8
BLACK
10
18.7665
20
15.7226
40
0.25
0
CIRCLE
8
BLACK
10
20.506
20
13.276
40
0.25
0
CIRCLE
8
BLACK
10
22.352
20
15.582
40
0.25
0
CIRCLE
8
BLACK
10
22.5911
20
17.352
40
0.25
0
CIRCLE
8
BLACK
10
24.1808
20
24.4856
40
0.25
0
CIRCLE
8
BLACK
10
24.4602
20
28.0162
40
0.25
0
CIRCLE
8
BLACK
10
25.3151
20
11.7366
40
0.25
0
CIRCLE
8
BLACK
10
25.654
20
15.1384
40
0.25
0
CIRCLE
8
BLACK
10
25.654
20
8.3312
40
0.25
0
CIRCLE
8
BLACK
10
25.7048
20
5.6134
40
0.25
0
CIRCLE
8
BLACK
10
27.305
20
15.4178
40
0.25
0
CIRCLE
8
BLACK
10
27.3232
20
7.1312
40
0.25
0
CIRCLE
8
BLACK
10
28.7782
20
3.683
40
0.25
0
CIRCLE
8
BLACK
10
29.2862
20
22.733
40
0.25
0
CIRCLE
8
BLACK
10
32.0294
20
12.2174
40
0.25
0
CIRCLE
8
BLACK
10
32.766
20
18.1568
40
0.25
0
CIRCLE
8
BLACK
10
33.7312
20
27.7368
40
0.25
0
CIRCLE
8
BLACK
10
34.5186
20
12.2174
40
0.25
0
CIRCLE
8
BLACK
10
35.3314
20
9.398
40
0.25
0
CIRCLE
8
BLACK
10
37.592
20
12.1158
40
0.25
0
CIRCLE
8
BLACK
10
37.6174
20
8.3566
40
0.25
0
CIRCLE
8
BLACK
10
37.6428
20
13.335
40
0.25
0
CIRCLE
8
BLACK
10
37.846
20
18.796
40
0.25
0
CIRCLE
8
BLACK
10
37.846
20
17.526
40
0.25
0
CIRCLE
8
BLACK
10
37.846
20
16.002
40
0.25
0
CIRCLE
8
BLACK
10
37.846
20
14.732
40
0.25
0
CIRCLE
8
BLACK
10
41.6814
20
5.4864
40
0.25
0
CIRCLE
8
BLACK
10
45.5207
20
4.75602
40
0.25
0
CIRCLE
8
BLACK
10
47.7012
20
4.5974
40
0.25
0
CIRCLE
8
BLACK
10
51.3588
20
4.6736
40
0.25
0
CIRCLE
8
BLACK
10
54.8894
20
6.8326
40
0.25
0
CIRCLE
8
BLACK
10
55.3212
20
28.2702
40
0.25
0
CIRCLE
8
BLACK
10
55.3212
20
26.2382
40
0.25
0
CIRCLE
8
BLACK
10
55.372
20
24.1554
40
0.25
0
CIRCLE
8
BLACK
10
56.388
20
26.974
40
0.25
0
LINE
8
BLACK
6
CONTINUOUS
10
3.4
20
51.61
11
3.4
21
50.61
0
LINE
8
BLACK
6
CONTINUOUS
10
2.9
20
51.11
11
3.9
21
51.11
0
LINE
8
BLACK
6
CONTINUOUS
10
3.4
20
49.07
11
3.4
21
48.07
0
LINE
8
BLACK
6
CONTINUOUS
10
2.9
20
48.57
11
3.9
21
48.57
0
LINE
8
BLACK
6
CONTINUOUS
10
3.4
20
46.53
11
3.4
21
45.53
0
LINE
8
BLACK
6
CONTINUOUS
10
2.9
20
46.03
11
3.9
21
46.03
0
LINE
8
BLACK
6
CONTINUOUS
10
3.4
20
43.99
11
3.4
21
42.99
0
LINE
8
BLACK
6
CONTINUOUS
10
2.9
20
43.49
11
3.9
21
43.49
0
LINE
8
BLACK
6
CONTINUOUS
10
3.4
20
41.45
11
3.4
21
40.45
0
LINE
8
BLACK
6
CONTINUOUS
10
2.9
20
40.95
11
3.9
21
40.95
0
LINE
8
BLACK
6
CONTINUOUS
10
3.4
20
38.91
11
3.4
21
37.91
0
LINE
8
BLACK
6
CONTINUOUS
10
2.9
20
38.41
11
3.9
21
38.41
0
LINE
8
BLACK
6
CONTINUOUS
10
74.6
20
46.53
11
74.6
21
45.53
0
LINE
8
BLACK
6
CONTINUOUS
10
74.1
20
46.03
11
75.1
21
46.03
0
LINE
8
BLACK
6
CONTINUOUS
10
74.6
20
43.99
11
74.6
21
42.99
0
LINE
8
BLACK
6
CONTINUOUS
10
74.1
20
43.49
11
75.1
21
43.49
0
LINE
8
BLACK
6
CONTINUOUS
10
55.4772
20
16.6588
11
55.4772
21
17.3772
0
LINE
8
BLACK
6
CONTINUOUS
10
55.4772
20
17.3772
11
54.7588
21
17.3772
0
LINE
8
BLACK
6
CONTINUOUS
10
54.7588
20
17.3772
11
54.7588
21
16.6588
0
LINE
8
BLACK
6
CONTINUOUS
10
54.7588
20
16.6588
11
55.4772
21
16.6588
0
LINE
8
BLACK
6
CONTINUOUS
10
55.4772
20
14.1188
11
55.4772
21
14.8372
0
LINE
8
BLACK
6
CONTINUOUS
10
55.4772
20
14.8372
11
54.7588
21
14.8372
0
LINE
8
BLACK
6
CONTINUOUS
10
54.7588
20
14.8372
11
54.7588
21
14.1188
0
LINE
8
BLACK
6
CONTINUOUS
10
54.7588
20
14.1188
11
55.4772
21
14.1188
0
LINE
8
BLACK
6
CONTINUOUS
10
55.4772
20
11.5788
11
55.4772
21
12.2972
0
LINE
8
BLACK
6
CONTINUOUS
10
55.4772
20
12.2972
11
54.7588
21
12.2972
0
LINE
8
BLACK
6
CONTINUOUS
10
54.7588
20
12.2972
11
54.7588
21
11.5788
0
LINE
8
BLACK
6
CONTINUOUS
10
54.7588
20
11.5788
11
55.4772
21
11.5788
0
LINE
8
BLACK
6
CONTINUOUS
10
58.0172
20
16.6588
11
58.0172
21
17.3772
0
LINE
8
BLACK
6
CONTINUOUS
10
58.0172
20
17.3772
11
57.2988
21
17.3772
0
LINE
8
BLACK
6
CONTINUOUS
10
57.2988
20
17.3772
11
57.2988
21
16.6588
0
LINE
8
BLACK
6
CONTINUOUS
10
57.2988
20
16.6588
11
58.0172
21
16.6588
0
LINE
8
BLACK
6
CONTINUOUS
10
58.0172
20
14.1188
11
58.0172
21
14.8372
0
LINE
8
BLACK
6
CONTINUOUS
10
58.0172
20
14.8372
11
57.2988
21
14.8372
0
LINE
8
BLACK
6
CONTINUOUS
10
57.2988
20
14.8372
11
57.2988
21
14.1188
0
LINE
8
BLACK
6
CONTINUOUS
10
57.2988
20
14.1188
11
58.0172
21
14.1188
0
LINE
8
BLACK
6
CONTINUOUS
10
58.0172
20
11.5788
11
58.0172
21
12.2972
0
LINE
8
BLACK
6
CONTINUOUS
10
58.0172
20
12.2972
11
57.2988
21
12.2972
0
LINE
8
BLACK
6
CONTINUOUS
10
57.2988
20
12.2972
11
57.2988
21
11.5788
0
LINE
8
BLACK
6
CONTINUOUS
10
57.2988
20
11.5788
11
58.0172
21
11.5788
0
LINE
8
BLACK
6
CONTINUOUS
10
40.2372
20
2.18079
11
40.2372
21
2.89921
0
LINE
8
BLACK
6
CONTINUOUS
10
40.2372
20
2.89921
11
39.5188
21
2.89921
0
LINE
8
BLACK
6
CONTINUOUS
10
39.5188
20
2.89921
11
39.5188
21
2.18079
0
LINE
8
BLACK
6
CONTINUOUS
10
39.5188
20
2.18079
11
40.2372
21
2.18079
0
LINE
8
BLACK
6
CONTINUOUS
10
42.7772
20
2.18079
11
42.7772
21
2.89921
0
LINE
8
BLACK
6
CONTINUOUS
10
42.7772
20
2.89921
11
42.0588
21
2.89921
0
LINE
8
BLACK
6
CONTINUOUS
10
42.0588
20
2.89921
11
42.0588
21
2.18079
0
LINE
8
BLACK
6
CONTINUOUS
10
42.0588
20
2.18079
11
42.7772
21
2.18079
0
LINE
8
BLACK
6
CONTINUOUS
10
45.3172
20
2.18079
11
45.3172
21
2.89921
0
LINE
8
BLACK
6
CONTINUOUS
10
45.3172
20
2.89921
11
44.5988
21
2.89921
0
LINE
8
BLACK
6
CONTINUOUS
10
44.5988
20
2.89921
11
44.5988
21
2.18079
0
LINE
8
BLACK
6
CONTINUOUS
10
44.5988
20
2.18079
11
45.3172
21
2.18079
0
LINE
8
BLACK
6
CONTINUOUS
10
47.8572
20
2.18079
11
47.8572
21
2.89921
0
LINE
8
BLACK
6
CONTINUOUS
10
47.8572
20
2.89921
11
47.1388
21
2.89921
0
LINE
8
BLACK
6
CONTINUOUS
10
47.1388
20
2.89921
11
47.1388
21
2.18079
0
LINE
8
BLACK
6
CONTINUOUS
10
47.1388
20
2.18079
11
47.8572
21
2.18079
0
LINE
8
BLACK
6
CONTINUOUS
10
66.3992
20
4.72079
11
66.3992
21
5.43921
0
LINE
8
BLACK
6
CONTINUOUS
10
66.3992
20
5.43921
11
65.6808
21
5.43921
0
LINE
8
BLACK
6
CONTINUOUS
10
65.6808
20
5.43921
11
65.6808
21
4.72079
0
LINE
8
BLACK
6
CONTINUOUS
10
65.6808
20
4.72079
11
66.3992
21
4.72079
0
LINE
8
BLACK
6
CONTINUOUS
10
66.3992
20
2.18079
11
66.3992
21
2.89921
0
LINE
8
BLACK
6
CONTINUOUS
10
66.3992
20
2.89921
11
65.6808
21
2.89921
0
LINE
8
BLACK
6
CONTINUOUS
10
65.6808
20
2.89921
11
65.6808
21
2.18079
0
LINE
8
BLACK
6
CONTINUOUS
10
65.6808
20
2.18079
11
66.3992
21
2.18079
0
LINE
8
BLACK
6
CONTINUOUS
10
9.5
20
28.65
11
10.35
21
29.5
0
LINE
8
BLACK
6
CONTINUOUS
10
10.35
20
29.5
11
9.5
21
30.35
0
LINE
8
BLACK
6
CONTINUOUS
10
9.5
20
30.35
11
8.65
21
29.5
0
LINE
8
BLACK
6
CONTINUOUS
10
8.65
20
29.5
11
9.5
21
28.65
0
LINE
8
BLACK
6
CONTINUOUS
10
8.65
20
30.3
11
8.65
21
28.7
0
LINE
8
BLACK
6
CONTINUOUS
10
10.35
20
30.3
11
10.35
21
28.7
0
ARC
8
BLACK
10
9.5
20
28.7
40
0.85
50
180
51
360
0
ARC
8
BLACK
10
9.5
20
30.3
40
0.85
50
0
51
180
0
LINE
8
BLACK
6
CONTINUOUS
10
46.5
20
28.65
11
47.35
21
29.5
0
LINE
8
BLACK
6
CONTINUOUS
10
47.35
20
29.5
11
46.5
21
30.35
0
LINE
8
BLACK
6
CONTINUOUS
10
46.5
20
30.35
11
45.65
21
29.5
0
LINE
8
BLACK
6
CONTINUOUS
10
45.65
20
29.5
11
46.5
21
28.65
0
LINE
8
BLACK
6
CONTINUOUS
10
45.65
20
30.3
11
45.65
21
28.7
0
LINE
8
BLACK
6
CONTINUOUS
10
47.35
20
30.3
11
47.35
21
28.7
0
ARC
8
BLACK
10
46.5
20
28.7
40
0.85
50
180
51
360
0
ARC
8
BLACK
10
46.5
20
30.3
40
0.85
50
0
51
180
0
LINE
8
BLACK
6
CONTINUOUS
10
66.5
20
28.654
11
67.35
21
29.504
0
LINE
8
BLACK
6
CONTINUOUS
10
67.35
20
29.504
11
66.5
21
30.354
0
LINE
8
BLACK
6
CONTINUOUS
10
66.5
20
30.354
11
65.65
21
29.504
0
LINE
8
BLACK
6
CONTINUOUS
10
65.65
20
29.504
11
66.5
21
28.654
0
LINE
8
BLACK
6
CONTINUOUS
10
65.65
20
30.304
11
65.65
21
28.704
0
LINE
8
BLACK
6
CONTINUOUS
10
67.35
20
30.304
11
67.35
21
28.704
0
ARC
8
BLACK
10
66.5
20
28.704
40
0.85
50
180
51
360
0
ARC
8
BLACK
10
66.5
20
30.304
40
0.85
50
0
51
180
0
LINE
8
BLACK
6
CONTINUOUS
10
32.96
20
25.492
11
38.16
21
20.292
0
LINE
8
BLACK
6
CONTINUOUS
10
38.16
20
25.492
11
32.96
21
20.292
0
CIRCLE
8
BLACK
10
35.56
20
22.892
40
2.6
0
LINE
8
BLACK
6
CONTINUOUS
10
2.78928
20
-4.73214
11
2.78928
21
-1.73214
0
LINE
8
BLACK
6
CONTINUOUS
10
2.78928
20
-1.73214
11
3.50357
21
-1.73214
0
LINE
8
BLACK
6
CONTINUOUS
10
3.50357
20
-1.73214
11
3.93214
21
-1.875
0
LINE
8
BLACK
6
CONTINUOUS
10
3.93214
20
-1.875
11
4.21786
21
-2.16071
0
LINE
8
BLACK
6
CONTINUOUS
10
4.21786
20
-2.16071
11
4.36071
21
-2.44643
0
LINE
8
BLACK
6
CONTINUOUS
10
4.36071
20
-2.44643
11
4.50357
21
-3.01786
0
LINE
8
BLACK
6
CONTINUOUS
10
4.50357
20
-3.01786
11
4.50357
21
-3.44643
0
LINE
8
BLACK
6
CONTINUOUS
10
4.50357
20
-3.44643
11
4.36071
21
-4.01786
0
LINE
8
BLACK
6
CONTINUOUS
10
4.36071
20
-4.01786
11
4.21786
21
-4.30357
0
LINE
8
BLACK
6
CONTINUOUS
10
4.21786
20
-4.30357
11
3.93214
21
-4.58929
0
LINE
8
BLACK
6
CONTINUOUS
10
3.93214
20
-4.58929
11
3.50357
21
-4.73214
0
LINE
8
BLACK
6
CONTINUOUS
10
3.50357
20
-4.73214
11
2.78928
21
-4.73214
0
LINE
8
BLACK
6
CONTINUOUS
10
5.78928
20
-4.73214
11
5.78928
21
-2.73214
0
LINE
8
BLACK
6
CONTINUOUS
10
5.78928
20
-3.30357
11
5.93214
21
-3.01786
0
LINE
8
BLACK
6
CONTINUOUS
10
5.93214
20
-3.01786
11
6.075
21
-2.875
0
LINE
8
BLACK
6
CONTINUOUS
10
6.075
20
-2.875
11
6.36071
21
-2.73214
0
LINE
8
BLACK
6
CONTINUOUS
10
6.36071
20
-2.73214
11
6.64643
21
-2.73214
0
LINE
8
BLACK
6
CONTINUOUS
10
7.64643
20
-4.73214
11
7.64643
21
-2.73214
0
LINE
8
BLACK
6
CONTINUOUS
10
7.64643
20
-1.73214
11
7.50357
21
-1.875
0
LINE
8
BLACK
6
CONTINUOUS
10
7.50357
20
-1.875
11
7.64643
21
-2.01786
0
LINE
8
BLACK
6
CONTINUOUS
10
7.64643
20
-2.01786
11
7.78928
21
-1.875
0
LINE
8
BLACK
6
CONTINUOUS
10
7.78928
20
-1.875
11
7.64643
21
-1.73214
0
LINE
8
BLACK
6
CONTINUOUS
10
7.64643
20
-1.73214
11
7.64643
21
-2.01786
0
LINE
8
BLACK
6
CONTINUOUS
10
9.50357
20
-4.73214
11
9.21786
21
-4.58929
0
LINE
8
BLACK
6
CONTINUOUS
10
9.21786
20
-4.58929
11
9.075
21
-4.30357
0
LINE
8
BLACK
6
CONTINUOUS
10
9.075
20
-4.30357
11
9.075
21
-1.73214
0
LINE
8
BLACK
6
CONTINUOUS
10
11.075
20
-4.73214
11
10.7893
21
-4.58929
0
LINE
8
BLACK
6
CONTINUOUS
10
10.7893
20
-4.58929
11
10.6464
21
-4.30357
0
LINE
8
BLACK
6
CONTINUOUS
10
10.6464
20
-4.30357
11
10.6464
21
-1.73214
0
LINE
8
BLACK
6
CONTINUOUS
10
14.5036
20
-4.73214
11
14.5036
21
-1.73214
0
LINE
8
BLACK
6
CONTINUOUS
10
14.5036
20
-1.73214
11
15.5036
21
-3.875
0
LINE
8
BLACK
6
CONTINUOUS
10
15.5036
20
-3.875
11
16.5036
21
-1.73214
0
LINE
8
BLACK
6
CONTINUOUS
10
16.5036
20
-1.73214
11
16.5036
21
-4.73214
0
LINE
8
BLACK
6
CONTINUOUS
10
19.2179
20
-4.73214
11
19.2179
21
-3.16071
0
LINE
8
BLACK
6
CONTINUOUS
10
19.2179
20
-3.16071
11
19.075
21
-2.875
0
LINE
8
BLACK
6
CONTINUOUS
10
19.075
20
-2.875
11
18.7893
21
-2.73214
0
LINE
8
BLACK
6
CONTINUOUS
10
18.7893
20
-2.73214
11
18.2179
21
-2.73214
0
LINE
8
BLACK
6
CONTINUOUS
10
18.2179
20
-2.73214
11
17.9321
21
-2.875
0
LINE
8
BLACK
6
CONTINUOUS
10
19.2179
20
-4.58929
11
18.9321
21
-4.73214
0
LINE
8
BLACK
6
CONTINUOUS
10
18.9321
20
-4.73214
11
18.2179
21
-4.73214
0
LINE
8
BLACK
6
CONTINUOUS
10
18.2179
20
-4.73214
11
17.9321
21
-4.58929
0
LINE
8
BLACK
6
CONTINUOUS
10
17.9321
20
-4.58929
11
17.7893
21
-4.30357
0
LINE
8
BLACK
6
CONTINUOUS
10
17.7893
20
-4.30357
11
17.7893
21
-4.01786
0
LINE
8
BLACK
6
CONTINUOUS
10
17.7893
20
-4.01786
11
17.9321
21
-3.73214
0
LINE
8
BLACK
6
CONTINUOUS
10
17.9321
20
-3.73214
11
18.2179
21
-3.58929
0
LINE
8
BLACK
6
CONTINUOUS
10
18.2179
20
-3.58929
11
18.9321
21
-3.58929
0
LINE
8
BLACK
6
CONTINUOUS
10
18.9321
20
-3.58929
11
19.2179
21
-3.44643
0
LINE
8
BLACK
6
CONTINUOUS
10
20.6464
20
-2.73214
11
20.6464
21
-5.73214
0
LINE
8
BLACK
6
CONTINUOUS
10
20.6464
20
-2.875
11
20.9321
21
-2.73214
0
LINE
8
BLACK
6
CONTINUOUS
10
20.9321
20
-2.73214
11
21.5036
21
-2.73214
0
LINE
8
BLACK
6
CONTINUOUS
10
21.5036
20
-2.73214
11
21.7893
21
-2.875
0
LINE
8
BLACK
6
CONTINUOUS
10
21.7893
20
-2.875
11
21.9321
21
-3.01786
0
LINE
8
BLACK
6
CONTINUOUS
10
21.9321
20
-3.01786
11
22.075
21
-3.30357
0
LINE
8
BLACK
6
CONTINUOUS
10
22.075
20
-3.30357
11
22.075
21
-4.16071
0
LINE
8
BLACK
6
CONTINUOUS
10
22.075
20
-4.16071
11
21.9321
21
-4.44643
0
LINE
8
BLACK
6
CONTINUOUS
10
21.9321
20
-4.44643
11
21.7893
21
-4.58929
0
LINE
8
BLACK
6
CONTINUOUS
10
21.7893
20
-4.58929
11
21.5036
21
-4.73214
0
LINE
8
BLACK
6
CONTINUOUS
10
21.5036
20
-4.73214
11
20.9321
21
-4.73214
0
LINE
8
BLACK
6
CONTINUOUS
10
20.9321
20
-4.73214
11
20.6464
21
-4.58929
0
LINE
8
BLACK
6
CONTINUOUS
10
23.3607
20
-4.44643
11
23.5036
21
-4.58929
0
LINE
8
BLACK
6
CONTINUOUS
10
23.5036
20
-4.58929
11
23.3607
21
-4.73214
0
LINE
8
BLACK
6
CONTINUOUS
10
23.3607
20
-4.73214
11
23.2179
21
-4.58929
0
LINE
8
BLACK
6
CONTINUOUS
10
23.2179
20
-4.58929
11
23.3607
21
-4.44643
0
LINE
8
BLACK
6
CONTINUOUS
10
23.3607
20
-4.44643
11
23.3607
21
-4.73214
0
LINE
8
BLACK
6
CONTINUOUS
10
23.3607
20
-2.875
11
23.5036
21
-3.01786
0
LINE
8
BLACK
6
CONTINUOUS
10
23.5036
20
-3.01786
11
23.3607
21
-3.16071
0
LINE
8
BLACK
6
CONTINUOUS
10
23.3607
20
-3.16071
11
23.2179
21
-3.01786
0
LINE
8
BLACK
6
CONTINUOUS
10
23.2179
20
-3.01786
11
23.3607
21
-2.875
0
LINE
8
BLACK
6
CONTINUOUS
10
23.3607
20
-2.875
11
23.3607
21
-3.16071
0
LINE
8
BLACK
6
CONTINUOUS
10
-0.475001
20
-9.475
11
-0.075001
21
-9.875
0
LINE
8
BLACK
6
CONTINUOUS
10
-0.075001
20
-9.475
11
-0.475001
21
-9.875
0
LINE
8
BLACK
6
CONTINUOUS
10
3.36071
20
-8.03214
11
3.64643
21
-8.03214
0
LINE
8
BLACK
6
CONTINUOUS
10
3.64643
20
-8.03214
11
3.93214
21
-8.175
0
LINE
8
BLACK
6
CONTINUOUS
10
3.93214
20
-8.175
11
4.075
21
-8.31786
0
LINE
8
BLACK
6
CONTINUOUS
10
4.075
20
-8.31786
11
4.21786
21
-8.60357
0
LINE
8
BLACK
6
CONTINUOUS
10
4.21786
20
-8.60357
11
4.36071
21
-9.175
0
LINE
8
BLACK
6
CONTINUOUS
10
4.36071
20
-9.175
11
4.36071
21
-9.88929
0
LINE
8
BLACK
6
CONTINUOUS
10
4.36071
20
-9.88929
11
4.21786
21
-10.4607
0
LINE
8
BLACK
6
CONTINUOUS
10
4.21786
20
-10.4607
11
4.075
21
-10.7464
0
LINE
8
BLACK
6
CONTINUOUS
10
4.075
20
-10.7464
11
3.93214
21
-10.8893
0
LINE
8
BLACK
6
CONTINUOUS
10
3.93214
20
-10.8893
11
3.64643
21
-11.0321
0
LINE
8
BLACK
6
CONTINUOUS
10
3.64643
20
-11.0321
11
3.36071
21
-11.0321
0
LINE
8
BLACK
6
CONTINUOUS
10
3.36071
20
-11.0321
11
3.075
21
-10.8893
0
LINE
8
BLACK
6
CONTINUOUS
10
3.075
20
-10.8893
11
2.93214
21
-10.7464
0
LINE
8
BLACK
6
CONTINUOUS
10
2.93214
20
-10.7464
11
2.78928
21
-10.4607
0
LINE
8
BLACK
6
CONTINUOUS
10
2.78928
20
-10.4607
11
2.64643
21
-9.88929
0
LINE
8
BLACK
6
CONTINUOUS
10
2.64643
20
-9.88929
11
2.64643
21
-9.175
0
LINE
8
BLACK
6
CONTINUOUS
10
2.64643
20
-9.175
11
2.78928
21
-8.60357
0
LINE
8
BLACK
6
CONTINUOUS
10
2.78928
20
-8.60357
11
2.93214
21
-8.31786
0
LINE
8
BLACK
6
CONTINUOUS
10
2.93214
20
-8.31786
11
3.075
21
-8.175
0
LINE
8
BLACK
6
CONTINUOUS
10
3.075
20
-8.175
11
3.36071
21
-8.03214
0
LINE
8
BLACK
6
CONTINUOUS
10
5.64643
20
-10.7464
11
5.78928
21
-10.8893
0
LINE
8
BLACK
6
CONTINUOUS
10
5.78928
20
-10.8893
11
5.64643
21
-11.0321
0
LINE
8
BLACK
6
CONTINUOUS
10
5.64643
20
-11.0321
11
5.50357
21
-10.8893
0
LINE
8
BLACK
6
CONTINUOUS
10
5.50357
20
-10.8893
11
5.64643
21
-10.7464
0
LINE
8
BLACK
6
CONTINUOUS
10
5.64643
20
-10.7464
11
5.64643
21
-11.0321
0
LINE
8
BLACK
6
CONTINUOUS
10
8.36071
20
-9.03214
11
8.36071
21
-11.0321
0
LINE
8
BLACK
6
CONTINUOUS
10
7.64643
20
-7.88929
11
6.93214
21
-10.0321
0
LINE
8
BLACK
6
CONTINUOUS
10
6.93214
20
-10.0321
11
8.78928
21
-10.0321
0
LINE
8
BLACK
6
CONTINUOUS
10
10.5036
20
-8.03214
11
10.7893
21
-8.03214
0
LINE
8
BLACK
6
CONTINUOUS
10
10.7893
20
-8.03214
11
11.075
21
-8.175
0
LINE
8
BLACK
6
CONTINUOUS
10
11.075
20
-8.175
11
11.2179
21
-8.31786
0
LINE
8
BLACK
6
CONTINUOUS
10
11.2179
20
-8.31786
11
11.3607
21
-8.60357
0
LINE
8
BLACK
6
CONTINUOUS
10
11.3607
20
-8.60357
11
11.5036
21
-9.175
0
LINE
8
BLACK
6
CONTINUOUS
10
11.5036
20
-9.175
11
11.5036
21
-9.88929
0
LINE
8
BLACK
6
CONTINUOUS
10
11.5036
20
-9.88929
11
11.3607
21
-10.4607
0
LINE
8
BLACK
6
CONTINUOUS
10
11.3607
20
-10.4607
11
11.2179
21
-10.7464
0
LINE
8
BLACK
6
CONTINUOUS
10
11.2179
20
-10.7464
11
11.075
21
-10.8893
0
LINE
8
BLACK
6
CONTINUOUS
10
11.075
20
-10.8893
11
10.7893
21
-11.0321
0
LINE
8
BLACK
6
CONTINUOUS
10
10.7893
20
-11.0321
11
10.5036
21
-11.0321
0
LINE
8
BLACK
6
CONTINUOUS
10
10.5036
20
-11.0321
11
10.2179
21
-10.8893
0
LINE
8
BLACK
6
CONTINUOUS
10
10.2179
20
-10.8893
11
10.075
21
-10.7464
0
LINE
8
BLACK
6
CONTINUOUS
10
10.075
20
-10.7464
11
9.93214
21
-10.4607
0
LINE
8
BLACK
6
CONTINUOUS
10
9.93214
20
-10.4607
11
9.78928
21
-9.88929
0
LINE
8
BLACK
6
CONTINUOUS
10
9.78928
20
-9.88929
11
9.78928
21
-9.175
0
LINE
8
BLACK
6
CONTINUOUS
10
9.78928
20
-9.175
11
9.93214
21
-8.60357
0
LINE
8
BLACK
6
CONTINUOUS
10
9.93214
20
-8.60357
11
10.075
21
-8.31786
0
LINE
8
BLACK
6
CONTINUOUS
10
10.075
20
-8.31786
11
10.2179
21
-8.175
0
LINE
8
BLACK
6
CONTINUOUS
10
10.2179
20
-8.175
11
10.5036
21
-8.03214
0
LINE
8
BLACK
6
CONTINUOUS
10
12.7893
20
-11.0321
11
12.7893
21
-9.03214
0
LINE
8
BLACK
6
CONTINUOUS
10
12.7893
20
-9.31786
11
12.9321
21
-9.175
0
LINE
8
BLACK
6
CONTINUOUS
10
12.9321
20
-9.175
11
13.2179
21
-9.03214
0
LINE
8
BLACK
6
CONTINUOUS
10
13.2179
20
-9.03214
11
13.6464
21
-9.03214
0
LINE
8
BLACK
6
CONTINUOUS
10
13.6464
20
-9.03214
11
13.9321
21
-9.175
0
LINE
8
BLACK
6
CONTINUOUS
10
13.9321
20
-9.175
11
14.075
21
-9.46072
0
LINE
8
BLACK
6
CONTINUOUS
10
14.075
20
-9.46072
11
14.075
21
-11.0321
0
LINE
8
BLACK
6
CONTINUOUS
10
14.075
20
-9.46072
11
14.2179
21
-9.175
0
LINE
8
BLACK
6
CONTINUOUS
10
14.2179
20
-9.175
11
14.5036
21
-9.03214
0
LINE
8
BLACK
6
CONTINUOUS
10
14.5036
20
-9.03214
11
14.9321
21
-9.03214
0
LINE
8
BLACK
6
CONTINUOUS
10
14.9321
20
-9.03214
11
15.2179
21
-9.175
0
LINE
8
BLACK
6
CONTINUOUS
10
15.2179
20
-9.175
11
15.3607
21
-9.46072
0
LINE
8
BLACK
6
CONTINUOUS
10
15.3607
20
-9.46072
11
15.3607
21
-11.0321
0
LINE
8
BLACK
6
CONTINUOUS
10
16.7893
20
-11.0321
11
16.7893
21
-9.03214
0
LINE
8
BLACK
6
CONTINUOUS
10
16.7893
20
-9.31786
11
16.9321
21
-9.175
0
LINE
8
BLACK
6
CONTINUOUS
10
16.9321
20
-9.175
11
17.2179
21
-9.03214
0
LINE
8
BLACK
6
CONTINUOUS
10
17.2179
20
-9.03214
11
17.6464
21
-9.03214
0
LINE
8
BLACK
6
CONTINUOUS
10
17.6464
20
-9.03214
11
17.9321
21
-9.175
0
LINE
8
BLACK
6
CONTINUOUS
10
17.9321
20
-9.175
11
18.075
21
-9.46072
0
LINE
8
BLACK
6
CONTINUOUS
10
18.075
20
-9.46072
11
18.075
21
-11.0321
0
LINE
8
BLACK
6
CONTINUOUS
10
18.075
20
-9.46072
11
18.2179
21
-9.175
0
LINE
8
BLACK
6
CONTINUOUS
10
18.2179
20
-9.175
11
18.5036
21
-9.03214
0
LINE
8
BLACK
6
CONTINUOUS
10
18.5036
20
-9.03214
11
18.9321
21
-9.03214
0
LINE
8
BLACK
6
CONTINUOUS
10
18.9321
20
-9.03214
11
19.2179
21
-9.175
0
LINE
8
BLACK
6
CONTINUOUS
10
19.2179
20
-9.175
11
19.3607
21
-9.46072
0
LINE
8
BLACK
6
CONTINUOUS
10
19.3607
20
-9.46072
11
19.3607
21
-11.0321
0
LINE
8
BLACK
6
CONTINUOUS
10
25.2179
20
-7.88929
11
22.6464
21
-11.7464
0
LINE
8
BLACK
6
CONTINUOUS
10
29.075
20
-8.03214
11
29.3607
21
-8.03214
0
LINE
8
BLACK
6
CONTINUOUS
10
29.3607
20
-8.03214
11
29.6464
21
-8.175
0
LINE
8
BLACK
6
CONTINUOUS
10
29.6464
20
-8.175
11
29.7893
21
-8.31786
0
LINE
8
BLACK
6
CONTINUOUS
10
29.7893
20
-8.31786
11
29.9321
21
-8.60357
0
LINE
8
BLACK
6
CONTINUOUS
10
29.9321
20
-8.60357
11
30.075
21
-9.175
0
LINE
8
BLACK
6
CONTINUOUS
10
30.075
20
-9.175
11
30.075
21
-9.88929
0
LINE
8
BLACK
6
CONTINUOUS
10
30.075
20
-9.88929
11
29.9321
21
-10.4607
0
LINE
8
BLACK
6
CONTINUOUS
10
29.9321
20
-10.4607
11
29.7893
21
-10.7464
0
LINE
8
BLACK
6
CONTINUOUS
10
29.7893
20
-10.7464
11
29.6464
21
-10.8893
0
LINE
8
BLACK
6
CONTINUOUS
10
29.6464
20
-10.8893
11
29.3607
21
-11.0321
0
LINE
8
BLACK
6
CONTINUOUS
10
29.3607
20
-11.0321
11
29.075
21
-11.0321
0
LINE
8
BLACK
6
CONTINUOUS
10
29.075
20
-11.0321
11
28.7893
21
-10.8893
0
LINE
8
BLACK
6
CONTINUOUS
10
28.7893
20
-10.8893
11
28.6464
21
-10.7464
0
LINE
8
BLACK
6
CONTINUOUS
10
28.6464
20
-10.7464
11
28.5036
21
-10.4607
0
LINE
8
BLACK
6
CONTINUOUS
10
28.5036
20
-10.4607
11
28.3607
21
-9.88929
0
LINE
8
BLACK
6
CONTINUOUS
10
28.3607
20
-9.88929
11
28.3607
21
-9.175
0
LINE
8
BLACK
6
CONTINUOUS
10
28.3607
20
-9.175
11
28.5036
21
-8.60357
0
LINE
8
BLACK
6
CONTINUOUS
10
28.5036
20
-8.60357
11
28.6464
21
-8.31786
0
LINE
8
BLACK
6
CONTINUOUS
10
28.6464
20
-8.31786
11
28.7893
21
-8.175
0
LINE
8
BLACK
6
CONTINUOUS
10
28.7893
20
-8.175
11
29.075
21
-8.03214
0
LINE
8
BLACK
6
CONTINUOUS
10
31.3607
20
-10.7464
11
31.5036
21
-10.8893
0
LINE
8
BLACK
6
CONTINUOUS
10
31.5036
20
-10.8893
11
31.3607
21
-11.0321
0
LINE
8
BLACK
6
CONTINUOUS
10
31.3607
20
-11.0321
11
31.2179
21
-10.8893
0
LINE
8
BLACK
6
CONTINUOUS
10
31.2179
20
-10.8893
11
31.3607
21
-10.7464
0
LINE
8
BLACK
6
CONTINUOUS
10
31.3607
20
-10.7464
11
31.3607
21
-11.0321
0
LINE
8
BLACK
6
CONTINUOUS
10
33.3607
20
-8.03214
11
33.6464
21
-8.03214
0
LINE
8
BLACK
6
CONTINUOUS
10
33.6464
20
-8.03214
11
33.9321
21
-8.175
0
LINE
8
BLACK
6
CONTINUOUS
10
33.9321
20
-8.175
11
34.075
21
-8.31786
0
LINE
8
BLACK
6
CONTINUOUS
10
34.075
20
-8.31786
11
34.2179
21
-8.60357
0
LINE
8
BLACK
6
CONTINUOUS
10
34.2179
20
-8.60357
11
34.3607
21
-9.175
0
LINE
8
BLACK
6
CONTINUOUS
10
34.3607
20
-9.175
11
34.3607
21
-9.88929
0
LINE
8
BLACK
6
CONTINUOUS
10
34.3607
20
-9.88929
11
34.2179
21
-10.4607
0
LINE
8
BLACK
6
CONTINUOUS
10
34.2179
20
-10.4607
11
34.075
21
-10.7464
0
LINE
8
BLACK
6
CONTINUOUS
10
34.075
20
-10.7464
11
33.9321
21
-10.8893
0
LINE
8
BLACK
6
CONTINUOUS
10
33.9321
20
-10.8893
11
33.6464
21
-11.0321
0
LINE
8
BLACK
6
CONTINUOUS
10
33.6464
20
-11.0321
11
33.3607
21
-11.0321
0
LINE
8
BLACK
6
CONTINUOUS
10
33.3607
20
-11.0321
11
33.075
21
-10.8893
0
LINE
8
BLACK
6
CONTINUOUS
10
33.075
20
-10.8893
11
32.9321
21
-10.7464
0
LINE
8
BLACK
6
CONTINUOUS
10
32.9321
20
-10.7464
11
32.7893
21
-10.4607
0
LINE
8
BLACK
6
CONTINUOUS
10
32.7893
20
-10.4607
11
32.6464
21
-9.88929
0
LINE
8
BLACK
6
CONTINUOUS
10
32.6464
20
-9.88929
11
32.6464
21
-9.175
0
LINE
8
BLACK
6
CONTINUOUS
10
32.6464
20
-9.175
11
32.7893
21
-8.60357
0
LINE
8
BLACK
6
CONTINUOUS
10
32.7893
20
-8.60357
11
32.9321
21
-8.31786
0
LINE
8
BLACK
6
CONTINUOUS
10
32.9321
20
-8.31786
11
33.075
21
-8.175
0
LINE
8
BLACK
6
CONTINUOUS
10
33.075
20
-8.175
11
33.3607
21
-8.03214
0
LINE
8
BLACK
6
CONTINUOUS
10
37.2179
20
-11.0321
11
35.5036
21
-11.0321
0
LINE
8
BLACK
6
CONTINUOUS
10
36.3607
20
-11.0321
11
36.3607
21
-8.03214
0
LINE
8
BLACK
6
CONTINUOUS
10
36.3607
20
-8.03214
11
36.075
21
-8.46072
0
LINE
8
BLACK
6
CONTINUOUS
10
36.075
20
-8.46072
11
35.7893
21
-8.74643
0
LINE
8
BLACK
6
CONTINUOUS
10
35.7893
20
-8.74643
11
35.5036
21
-8.88929
0
LINE
8
BLACK
6
CONTINUOUS
10
39.7893
20
-8.03214
11
39.2179
21
-8.03214
0
LINE
8
BLACK
6
CONTINUOUS
10
39.2179
20
-8.03214
11
38.9321
21
-8.175
0
LINE
8
BLACK
6
CONTINUOUS
10
38.9321
20
-8.175
11
38.7893
21
-8.31786
0
LINE
8
BLACK
6
CONTINUOUS
10
38.7893
20
-8.31786
11
38.5036
21
-8.74643
0
LINE
8
BLACK
6
CONTINUOUS
10
38.5036
20
-8.74643
11
38.3607
21
-9.31786
0
LINE
8
BLACK
6
CONTINUOUS
10
38.3607
20
-9.31786
11
38.3607
21
-10.4607
0
LINE
8
BLACK
6
CONTINUOUS
10
38.3607
20
-10.4607
11
38.5036
21
-10.7464
0
LINE
8
BLACK
6
CONTINUOUS
10
38.5036
20
-10.7464
11
38.6464
21
-10.8893
0
LINE
8
BLACK
6
CONTINUOUS
10
38.6464
20
-10.8893
11
38.9321
21
-11.0321
0
LINE
8
BLACK
6
CONTINUOUS
10
38.9321
20
-11.0321
11
39.5036
21
-11.0321
0
LINE
8
BLACK
6
CONTINUOUS
10
39.5036
20
-11.0321
11
39.7893
21
-10.8893
0
LINE
8
BLACK
6
CONTINUOUS
10
39.7893
20
-10.8893
11
39.9321
21
-10.7464
0
LINE
8
BLACK
6
CONTINUOUS
10
39.9321
20
-10.7464
11
40.075
21
-10.4607
0
LINE
8
BLACK
6
CONTINUOUS
10
40.075
20
-10.4607
11
40.075
21
-9.74643
0
LINE
8
BLACK
6
CONTINUOUS
10
40.075
20
-9.74643
11
39.9321
21
-9.46072
0
LINE
8
BLACK
6
CONTINUOUS
10
39.9321
20
-9.46072
11
39.7893
21
-9.31786
0
LINE
8
BLACK
6
CONTINUOUS
10
39.7893
20
-9.31786
11
39.5036
21
-9.175
0
LINE
8
BLACK
6
CONTINUOUS
10
39.5036
20
-9.175
11
38.9321
21
-9.175
0
LINE
8
BLACK
6
CONTINUOUS
10
38.9321
20
-9.175
11
38.6464
21
-9.31786
0
LINE
8
BLACK
6
CONTINUOUS
10
38.6464
20
-9.31786
11
38.5036
21
-9.46072
0
LINE
8
BLACK
6
CONTINUOUS
10
38.5036
20
-9.46072
11
38.3607
21
-9.74643
0
LINE
8
BLACK
6
CONTINUOUS
10
41.2179
20
-8.03214
11
41.2179
21
-8.60357
0
LINE
8
BLACK
6
CONTINUOUS
10
42.3607
20
-8.03214
11
42.3607
21
-8.60357
0
LINE
8
BLACK
6
CONTINUOUS
10
46.7893
20
-12.175
11
46.6464
21
-12.0321
0
LINE
8
BLACK
6
CONTINUOUS
10
46.6464
20
-12.0321
11
46.3607
21
-11.6036
0
LINE
8
BLACK
6
CONTINUOUS
10
46.3607
20
-11.6036
11
46.2179
21
-11.3179
0
LINE
8
BLACK
6
CONTINUOUS
10
46.2179
20
-11.3179
11
46.075
21
-10.8893
0
LINE
8
BLACK
6
CONTINUOUS
10
46.075
20
-10.8893
11
45.9321
21
-10.175
0
LINE
8
BLACK
6
CONTINUOUS
10
45.9321
20
-10.175
11
45.9321
21
-9.60357
0
LINE
8
BLACK
6
CONTINUOUS
10
45.9321
20
-9.60357
11
46.075
21
-8.88929
0
LINE
8
BLACK
6
CONTINUOUS
10
46.075
20
-8.88929
11
46.2179
21
-8.46072
0
LINE
8
BLACK
6
CONTINUOUS
10
46.2179
20
-8.46072
11
46.3607
21
-8.175
0
LINE
8
BLACK
6
CONTINUOUS
10
46.3607
20
-8.175
11
46.6464
21
-7.74643
0
LINE
8
BLACK
6
CONTINUOUS
10
46.6464
20
-7.74643
11
46.7893
21
-7.60357
0
LINE
8
BLACK
6
CONTINUOUS
10
49.5036
20
-11.0321
11
47.7893
21
-11.0321
0
LINE
8
BLACK
6
CONTINUOUS
10
48.6464
20
-11.0321
11
48.6464
21
-8.03214
0
LINE
8
BLACK
6
CONTINUOUS
10
48.6464
20
-8.03214
11
48.3607
21
-8.46072
0
LINE
8
BLACK
6
CONTINUOUS
10
48.3607
20
-8.46072
11
48.075
21
-8.74643
0
LINE
8
BLACK
6
CONTINUOUS
10
48.075
20
-8.74643
11
47.7893
21
-8.88929
0
LINE
8
BLACK
6
CONTINUOUS
10
51.3607
20
-8.03214
11
51.6464
21
-8.03214
0
LINE
8
BLACK
6
CONTINUOUS
10
51.6464
20
-8.03214
11
51.9321
21
-8.175
0
LINE
8
BLACK
6
CONTINUOUS
10
51.9321
20
-8.175
11
52.075
21
-8.31786
0
LINE
8
BLACK
6
CONTINUOUS
10
52.075
20
-8.31786
11
52.2179
21
-8.60357
0
LINE
8
BLACK
6
CONTINUOUS
10
52.2179
20
-8.60357
11
52.3607
21
-9.175
0
LINE
8
BLACK
6
CONTINUOUS
10
52.3607
20
-9.175
11
52.3607
21
-9.88929
0
LINE
8
BLACK
6
CONTINUOUS
10
52.3607
20
-9.88929
11
52.2179
21
-10.4607
0
LINE
8
BLACK
6
CONTINUOUS
10
52.2179
20
-10.4607
11
52.075
21
-10.7464
0
LINE
8
BLACK
6
CONTINUOUS
10
52.075
20
-10.7464
11
51.9321
21
-10.8893
0
LINE
8
BLACK
6
CONTINUOUS
10
51.9321
20
-10.8893
11
51.6464
21
-11.0321
0
LINE
8
BLACK
6
CONTINUOUS
10
51.6464
20
-11.0321
11
51.3607
21
-11.0321
0
LINE
8
BLACK
6
CONTINUOUS
10
51.3607
20
-11.0321
11
51.075
21
-10.8893
0
LINE
8
BLACK
6
CONTINUOUS
10
51.075
20
-10.8893
11
50.9321
21
-10.7464
0
LINE
8
BLACK
6
CONTINUOUS
10
50.9321
20
-10.7464
11
50.7893
21
-10.4607
0
LINE
8
BLACK
6
CONTINUOUS
10
50.7893
20
-10.4607
11
50.6464
21
-9.88929
0
LINE
8
BLACK
6
CONTINUOUS
10
50.6464
20
-9.88929
11
50.6464
21
-9.175
0
LINE
8
BLACK
6
CONTINUOUS
10
50.6464
20
-9.175
11
50.7893
21
-8.60357
0
LINE
8
BLACK
6
CONTINUOUS
10
50.7893
20
-8.60357
11
50.9321
21
-8.31786
0
LINE
8
BLACK
6
CONTINUOUS
10
50.9321
20
-8.31786
11
51.075
21
-8.175
0
LINE
8
BLACK
6
CONTINUOUS
10
51.075
20
-8.175
11
51.3607
21
-8.03214
0
LINE
8
BLACK
6
CONTINUOUS
10
55.9321
20
-11.0321
11
55.9321
21
-8.03214
0
LINE
8
BLACK
6
CONTINUOUS
10
57.2179
20
-11.0321
11
57.2179
21
-9.46072
0
LINE
8
BLACK
6
CONTINUOUS
10
57.2179
20
-9.46072
11
57.075
21
-9.175
0
LINE
8
BLACK
6
CONTINUOUS
10
57.075
20
-9.175
11
56.7893
21
-9.03214
0
LINE
8
BLACK
6
CONTINUOUS
10
56.7893
20
-9.03214
11
56.3607
21
-9.03214
0
LINE
8
BLACK
6
CONTINUOUS
10
56.3607
20
-9.03214
11
56.075
21
-9.175
0
LINE
8
BLACK
6
CONTINUOUS
10
56.075
20
-9.175
11
55.9321
21
-9.31786
0
LINE
8
BLACK
6
CONTINUOUS
10
59.075
20
-11.0321
11
58.7893
21
-10.8893
0
LINE
8
BLACK
6
CONTINUOUS
10
58.7893
20
-10.8893
11
58.6464
21
-10.7464
0
LINE
8
BLACK
6
CONTINUOUS
10
58.6464
20
-10.7464
11
58.5036
21
-10.4607
0
LINE
8
BLACK
6
CONTINUOUS
10
58.5036
20
-10.4607
11
58.5036
21
-9.60357
0
LINE
8
BLACK
6
CONTINUOUS
10
58.5036
20
-9.60357
11
58.6464
21
-9.31786
0
LINE
8
BLACK
6
CONTINUOUS
10
58.6464
20
-9.31786
11
58.7893
21
-9.175
0
LINE
8
BLACK
6
CONTINUOUS
10
58.7893
20
-9.175
11
59.075
21
-9.03214
0
LINE
8
BLACK
6
CONTINUOUS
10
59.075
20
-9.03214
11
59.5036
21
-9.03214
0
LINE
8
BLACK
6
CONTINUOUS
10
59.5036
20
-9.03214
11
59.7893
21
-9.175
0
LINE
8
BLACK
6
CONTINUOUS
10
59.7893
20
-9.175
11
59.9321
21
-9.31786
0
LINE
8
BLACK
6
CONTINUOUS
10
59.9321
20
-9.31786
11
60.075
21
-9.60357
0
LINE
8
BLACK
6
CONTINUOUS
10
60.075
20
-9.60357
11
60.075
21
-10.4607
0
LINE
8
BLACK
6
CONTINUOUS
10
60.075
20
-10.4607
11
59.9321
21
-10.7464
0
LINE
8
BLACK
6
CONTINUOUS
10
59.9321
20
-10.7464
11
59.7893
21
-10.8893
0
LINE
8
BLACK
6
CONTINUOUS
10
59.7893
20
-10.8893
11
59.5036
21
-11.0321
0
LINE
8
BLACK
6
CONTINUOUS
10
59.5036
20
-11.0321
11
59.075
21
-11.0321
0
LINE
8
BLACK
6
CONTINUOUS
10
61.7893
20
-11.0321
11
61.5036
21
-10.8893
0
LINE
8
BLACK
6
CONTINUOUS
10
61.5036
20
-10.8893
11
61.3607
21
-10.6036
0
LINE
8
BLACK
6
CONTINUOUS
10
61.3607
20
-10.6036
11
61.3607
21
-8.03214
0
LINE
8
BLACK
6
CONTINUOUS
10
64.075
20
-10.8893
11
63.7893
21
-11.0321
0
LINE
8
BLACK
6
CONTINUOUS
10
63.7893
20
-11.0321
11
63.2179
21
-11.0321
0
LINE
8
BLACK
6
CONTINUOUS
10
63.2179
20
-11.0321
11
62.9321
21
-10.8893
0
LINE
8
BLACK
6
CONTINUOUS
10
62.9321
20
-10.8893
11
62.7893
21
-10.6036
0
LINE
8
BLACK
6
CONTINUOUS
10
62.7893
20
-10.6036
11
62.7893
21
-9.46072
0
LINE
8
BLACK
6
CONTINUOUS
10
62.7893
20
-9.46072
11
62.9321
21
-9.175
0
LINE
8
BLACK
6
CONTINUOUS
10
62.9321
20
-9.175
11
63.2179
21
-9.03214
0
LINE
8
BLACK
6
CONTINUOUS
10
63.2179
20
-9.03214
11
63.7893
21
-9.03214
0
LINE
8
BLACK
6
CONTINUOUS
10
63.7893
20
-9.03214
11
64.075
21
-9.175
0
LINE
8
BLACK
6
CONTINUOUS
10
64.075
20
-9.175
11
64.2179
21
-9.46072
0
LINE
8
BLACK
6
CONTINUOUS
10
64.2179
20
-9.46072
11
64.2179
21
-9.74643
0
LINE
8
BLACK
6
CONTINUOUS
10
64.2179
20
-9.74643
11
62.7893
21
-10.0321
0
LINE
8
BLACK
6
CONTINUOUS
10
65.3607
20
-10.8893
11
65.6464
21
-11.0321
0
LINE
8
BLACK
6
CONTINUOUS
10
65.6464
20
-11.0321
11
66.2179
21
-11.0321
0
LINE
8
BLACK
6
CONTINUOUS
10
66.2179
20
-11.0321
11
66.5036
21
-10.8893
0
LINE
8
BLACK
6
CONTINUOUS
10
66.5036
20
-10.8893
11
66.6464
21
-10.6036
0
LINE
8
BLACK
6
CONTINUOUS
10
66.6464
20
-10.6036
11
66.6464
21
-10.4607
0
LINE
8
BLACK
6
CONTINUOUS
10
66.6464
20
-10.4607
11
66.5036
21
-10.175
0
LINE
8
BLACK
6
CONTINUOUS
10
66.5036
20
-10.175
11
66.2179
21
-10.0321
0
LINE
8
BLACK
6
CONTINUOUS
10
66.2179
20
-10.0321
11
65.7893
21
-10.0321
0
LINE
8
BLACK
6
CONTINUOUS
10
65.7893
20
-10.0321
11
65.5036
21
-9.88929
0
LINE
8
BLACK
6
CONTINUOUS
10
65.5036
20
-9.88929
11
65.3607
21
-9.60357
0
LINE
8
BLACK
6
CONTINUOUS
10
65.3607
20
-9.60357
11
65.3607
21
-9.46072
0
LINE
8
BLACK
6
CONTINUOUS
10
65.3607
20
-9.46072
11
65.5036
21
-9.175
0
LINE
8
BLACK
6
CONTINUOUS
10
65.5036
20
-9.175
11
65.7893
21
-9.03214
0
LINE
8
BLACK
6
CONTINUOUS
10
65.7893
20
-9.03214
11
66.2179
21
-9.03214
0
LINE
8
BLACK
6
CONTINUOUS
10
66.2179
20
-9.03214
11
66.5036
21
-9.175
0
LINE
8
BLACK
6
CONTINUOUS
10
67.6464
20
-12.175
11
67.7893
21
-12.0321
0
LINE
8
BLACK
6
CONTINUOUS
10
67.7893
20
-12.0321
11
68.075
21
-11.6036
0
LINE
8
BLACK
6
CONTINUOUS
10
68.075
20
-11.6036
11
68.2179
21
-11.3179
0
LINE
8
BLACK
6
CONTINUOUS
10
68.2179
20
-11.3179
11
68.3607
21
-10.8893
0
LINE
8
BLACK
6
CONTINUOUS
10
68.3607
20
-10.8893
11
68.5036
21
-10.175
0
LINE
8
BLACK
6
CONTINUOUS
10
68.5036
20
-10.175
11
68.5036
21
-9.60357
0
LINE
8
BLACK
6
CONTINUOUS
10
68.5036
20
-9.60357
11
68.3607
21
-8.88929
0
LINE
8
BLACK
6
CONTINUOUS
10
68.3607
20
-8.88929
11
68.2179
21
-8.46072
0
LINE
8
BLACK
6
CONTINUOUS
10
68.2179
20
-8.46072
11
68.075
21
-8.175
0
LINE
8
BLACK
6
CONTINUOUS
10
68.075
20
-8.175
11
67.7893
21
-7.74643
0
LINE
8
BLACK
6
CONTINUOUS
10
67.7893
20
-7.74643
11
67.6464
21
-7.60357
0
CIRCLE
8
BLACK
10
-0.325001
20
-13.635
40
0.25
0
LINE
8
BLACK
6
CONTINUOUS
10
3.36071
20
-11.9921
11
3.64643
21
-11.9921
0
LINE
8
BLACK
6
CONTINUOUS
10
3.64643
20
-11.9921
11
3.93214
21
-12.135
0
LINE
8
BLACK
6
CONTINUOUS
10
3.93214
20
-12.135
11
4.075
21
-12.2779
0
LINE
8
BLACK
6
CONTINUOUS
10
4.075
20
-12.2779
11
4.21786
21
-12.5636
0
LINE
8
BLACK
6
CONTINUOUS
10
4.21786
20
-12.5636
11
4.36071
21
-13.135
0
LINE
8
BLACK
6
CONTINUOUS
10
4.36071
20
-13.135
11
4.36071
21
-13.8493
0
LINE
8
BLACK
6
CONTINUOUS
10
4.36071
20
-13.8493
11
4.21786
21
-14.4207
0
LINE
8
BLACK
6
CONTINUOUS
10
4.21786
20
-14.4207
11
4.075
21
-14.7064
0
LINE
8
BLACK
6
CONTINUOUS
10
4.075
20
-14.7064
11
3.93214
21
-14.8493
0
LINE
8
BLACK
6
CONTINUOUS
10
3.93214
20
-14.8493
11
3.64643
21
-14.9921
0
LINE
8
BLACK
6
CONTINUOUS
10
3.64643
20
-14.9921
11
3.36071
21
-14.9921
0
LINE
8
BLACK
6
CONTINUOUS
10
3.36071
20
-14.9921
11
3.075
21
-14.8493
0
LINE
8
BLACK
6
CONTINUOUS
10
3.075
20
-14.8493
11
2.93214
21
-14.7064
0
LINE
8
BLACK
6
CONTINUOUS
10
2.93214
20
-14.7064
11
2.78928
21
-14.4207
0
LINE
8
BLACK
6
CONTINUOUS
10
2.78928
20
-14.4207
11
2.64643
21
-13.8493
0
LINE
8
BLACK
6
CONTINUOUS
10
2.64643
20
-13.8493
11
2.64643
21
-13.135
0
LINE
8
BLACK
6
CONTINUOUS
10
2.64643
20
-13.135
11
2.78928
21
-12.5636
0
LINE
8
BLACK
6
CONTINUOUS
10
2.78928
20
-12.5636
11
2.93214
21
-12.2779
0
LINE
8
BLACK
6
CONTINUOUS
10
2.93214
20
-12.2779
11
3.075
21
-12.135
0
LINE
8
BLACK
6
CONTINUOUS
10
3.075
20
-12.135
11
3.36071
21
-11.9921
0
LINE
8
BLACK
6
CONTINUOUS
10
5.64643
20
-14.7064
11
5.78928
21
-14.8493
0
LINE
8
BLACK
6
CONTINUOUS
10
5.78928
20
-14.8493
11
5.64643
21
-14.9921
0
LINE
8
BLACK
6
CONTINUOUS
10
5.64643
20
-14.9921
11
5.50357
21
-14.8493
0
LINE
8
BLACK
6
CONTINUOUS
10
5.50357
20
-14.8493
11
5.64643
21
-14.7064
0
LINE
8
BLACK
6
CONTINUOUS
10
5.64643
20
-14.7064
11
5.64643
21
-14.9921
0
LINE
8
BLACK
6
CONTINUOUS
10
8.50357
20
-11.9921
11
7.075
21
-11.9921
0
LINE
8
BLACK
6
CONTINUOUS
10
7.075
20
-11.9921
11
6.93214
21
-13.4207
0
LINE
8
BLACK
6
CONTINUOUS
10
6.93214
20
-13.4207
11
7.075
21
-13.2779
0
LINE
8
BLACK
6
CONTINUOUS
10
7.075
20
-13.2779
11
7.36071
21
-13.135
0
LINE
8
BLACK
6
CONTINUOUS
10
7.36071
20
-13.135
11
8.075
21
-13.135
0
LINE
8
BLACK
6
CONTINUOUS
10
8.075
20
-13.135
11
8.36071
21
-13.2779
0
LINE
8
BLACK
6
CONTINUOUS
10
8.36071
20
-13.2779
11
8.50357
21
-13.4207
0
LINE
8
BLACK
6
CONTINUOUS
10
8.50357
20
-13.4207
11
8.64643
21
-13.7064
0
LINE
8
BLACK
6
CONTINUOUS
10
8.64643
20
-13.7064
11
8.64643
21
-14.4207
0
LINE
8
BLACK
6
CONTINUOUS
10
8.64643
20
-14.4207
11
8.50357
21
-14.7064
0
LINE
8
BLACK
6
CONTINUOUS
10
8.50357
20
-14.7064
11
8.36071
21
-14.8493
0
LINE
8
BLACK
6
CONTINUOUS
10
8.36071
20
-14.8493
11
8.075
21
-14.9921
0
LINE
8
BLACK
6
CONTINUOUS
10
8.075
20
-14.9921
11
7.36071
21
-14.9921
0
LINE
8
BLACK
6
CONTINUOUS
10
7.36071
20
-14.9921
11
7.075
21
-14.8493
0
LINE
8
BLACK
6
CONTINUOUS
10
7.075
20
-14.8493
11
6.93214
21
-14.7064
0
LINE
8
BLACK
6
CONTINUOUS
10
10.5036
20
-11.9921
11
10.7893
21
-11.9921
0
LINE
8
BLACK
6
CONTINUOUS
10
10.7893
20
-11.9921
11
11.075
21
-12.135
0
LINE
8
BLACK
6
CONTINUOUS
10
11.075
20
-12.135
11
11.2179
21
-12.2779
0
LINE
8
BLACK
6
CONTINUOUS
10
11.2179
20
-12.2779
11
11.3607
21
-12.5636
0
LINE
8
BLACK
6
CONTINUOUS
10
11.3607
20
-12.5636
11
11.5036
21
-13.135
0
LINE
8
BLACK
6
CONTINUOUS
10
11.5036
20
-13.135
11
11.5036
21
-13.8493
0
LINE
8
BLACK
6
CONTINUOUS
10
11.5036
20
-13.8493
11
11.3607
21
-14.4207
0
LINE
8
BLACK
6
CONTINUOUS
10
11.3607
20
-14.4207
11
11.2179
21
-14.7064
0
LINE
8
BLACK
6
CONTINUOUS
10
11.2179
20
-14.7064
11
11.075
21
-14.8493
0
LINE
8
BLACK
6
CONTINUOUS
10
11.075
20
-14.8493
11
10.7893
21
-14.9921
0
LINE
8
BLACK
6
CONTINUOUS
10
10.7893
20
-14.9921
11
10.5036
21
-14.9921
0
LINE
8
BLACK
6
CONTINUOUS
10
10.5036
20
-14.9921
11
10.2179
21
-14.8493
0
LINE
8
BLACK
6
CONTINUOUS
10
10.2179
20
-14.8493
11
10.075
21
-14.7064
0
LINE
8
BLACK
6
CONTINUOUS
10
10.075
20
-14.7064
11
9.93214
21
-14.4207
0
LINE
8
BLACK
6
CONTINUOUS
10
9.93214
20
-14.4207
11
9.78928
21
-13.8493
0
LINE
8
BLACK
6
CONTINUOUS
10
9.78928
20
-13.8493
11
9.78928
21
-13.135
0
LINE
8
BLACK
6
CONTINUOUS
10
9.78928
20
-13.135
11
9.93214
21
-12.5636
0
LINE
8
BLACK
6
CONTINUOUS
10
9.93214
20
-12.5636
11
10.075
21
-12.2779
0
LINE
8
BLACK
6
CONTINUOUS
10
10.075
20
-12.2779
11
10.2179
21
-12.135
0
LINE
8
BLACK
6
CONTINUOUS
10
10.2179
20
-12.135
11
10.5036
21
-11.9921
0
LINE
8
BLACK
6
CONTINUOUS
10
12.7893
20
-14.9921
11
12.7893
21
-12.9921
0
LINE
8
BLACK
6
CONTINUOUS
10
12.7893
20
-13.2779
11
12.9321
21
-13.135
0
LINE
8
BLACK
6
CONTINUOUS
10
12.9321
20
-13.135
11
13.2179
21
-12.9921
0
LINE
8
BLACK
6
CONTINUOUS
10
13.2179
20
-12.9921
11
13.6464
21
-12.9921
0
LINE
8
BLACK
6
CONTINUOUS
10
13.6464
20
-12.9921
11
13.9321
21
-13.135
0
LINE
8
BLACK
6
CONTINUOUS
10
13.9321
20
-13.135
11
14.075
21
-13.4207
0
LINE
8
BLACK
6
CONTINUOUS
10
14.075
20
-13.4207
11
14.075
21
-14.9921
0
LINE
8
BLACK
6
CONTINUOUS
10
14.075
20
-13.4207
11
14.2179
21
-13.135
0
LINE
8
BLACK
6
CONTINUOUS
10
14.2179
20
-13.135
11
14.5036
21
-12.9921
0
LINE
8
BLACK
6
CONTINUOUS
10
14.5036
20
-12.9921
11
14.9321
21
-12.9921
0
LINE
8
BLACK
6
CONTINUOUS
10
14.9321
20
-12.9921
11
15.2179
21
-13.135
0
LINE
8
BLACK
6
CONTINUOUS
10
15.2179
20
-13.135
11
15.3607
21
-13.4207
0
LINE
8
BLACK
6
CONTINUOUS
10
15.3607
20
-13.4207
11
15.3607
21
-14.9921
0
LINE
8
BLACK
6
CONTINUOUS
10
16.7893
20
-14.9921
11
16.7893
21
-12.9921
0
LINE
8
BLACK
6
CONTINUOUS
10
16.7893
20
-13.2779
11
16.9321
21
-13.135
0
LINE
8
BLACK
6
CONTINUOUS
10
16.9321
20
-13.135
11
17.2179
21
-12.9921
0
LINE
8
BLACK
6
CONTINUOUS
10
17.2179
20
-12.9921
11
17.6464
21
-12.9921
0
LINE
8
BLACK
6
CONTINUOUS
10
17.6464
20
-12.9921
11
17.9321
21
-13.135
0
LINE
8
BLACK
6
CONTINUOUS
10
17.9321
20
-13.135
11
18.075
21
-13.4207
0
LINE
8
BLACK
6
CONTINUOUS
10
18.075
20
-13.4207
11
18.075
21
-14.9921
0
LINE
8
BLACK
6
CONTINUOUS
10
18.075
20
-13.4207
11
18.2179
21
-13.135
0
LINE
8
BLACK
6
CONTINUOUS
10
18.2179
20
-13.135
11
18.5036
21
-12.9921
0
LINE
8
BLACK
6
CONTINUOUS
10
18.5036
20
-12.9921
11
18.9321
21
-12.9921
0
LINE
8
BLACK
6
CONTINUOUS
10
18.9321
20
-12.9921
11
19.2179
21
-13.135
0
LINE
8
BLACK
6
CONTINUOUS
10
19.2179
20
-13.135
11
19.3607
21
-13.4207
0
LINE
8
BLACK
6
CONTINUOUS
10
19.3607
20
-13.4207
11
19.3607
21
-14.9921
0
LINE
8
BLACK
6
CONTINUOUS
10
25.2179
20
-11.8493
11
22.6464
21
-15.7064
0
LINE
8
BLACK
6
CONTINUOUS
10
29.075
20
-11.9921
11
29.3607
21
-11.9921
0
LINE
8
BLACK
6
CONTINUOUS
10
29.3607
20
-11.9921
11
29.6464
21
-12.135
0
LINE
8
BLACK
6
CONTINUOUS
10
29.6464
20
-12.135
11
29.7893
21
-12.2779
0
LINE
8
BLACK
6
CONTINUOUS
10
29.7893
20
-12.2779
11
29.9321
21
-12.5636
0
LINE
8
BLACK
6
CONTINUOUS
10
29.9321
20
-12.5636
11
30.075
21
-13.135
0
LINE
8
BLACK
6
CONTINUOUS
10
30.075
20
-13.135
11
30.075
21
-13.8493
0
LINE
8
BLACK
6
CONTINUOUS
10
30.075
20
-13.8493
11
29.9321
21
-14.4207
0
LINE
8
BLACK
6
CONTINUOUS
10
29.9321
20
-14.4207
11
29.7893
21
-14.7064
0
LINE
8
BLACK
6
CONTINUOUS
10
29.7893
20
-14.7064
11
29.6464
21
-14.8493
0
LINE
8
BLACK
6
CONTINUOUS
10
29.6464
20
-14.8493
11
29.3607
21
-14.9921
0
LINE
8
BLACK
6
CONTINUOUS
10
29.3607
20
-14.9921
11
29.075
21
-14.9921
0
LINE
8
BLACK
6
CONTINUOUS
10
29.075
20
-14.9921
11
28.7893
21
-14.8493
0
LINE
8
BLACK
6
CONTINUOUS
10
28.7893
20
-14.8493
11
28.6464
21
-14.7064
0
LINE
8
BLACK
6
CONTINUOUS
10
28.6464
20
-14.7064
11
28.5036
21
-14.4207
0
LINE
8
BLACK
6
CONTINUOUS
10
28.5036
20
-14.4207
11
28.3607
21
-13.8493
0
LINE
8
BLACK
6
CONTINUOUS
10
28.3607
20
-13.8493
11
28.3607
21
-13.135
0
LINE
8
BLACK
6
CONTINUOUS
10
28.3607
20
-13.135
11
28.5036
21
-12.5636
0
LINE
8
BLACK
6
CONTINUOUS
10
28.5036
20
-12.5636
11
28.6464
21
-12.2779
0
LINE
8
BLACK
6
CONTINUOUS
10
28.6464
20
-12.2779
11
28.7893
21
-12.135
0
LINE
8
BLACK
6
CONTINUOUS
10
28.7893
20
-12.135
11
29.075
21
-11.9921
0
LINE
8
BLACK
6
CONTINUOUS
10
31.3607
20
-14.7064
11
31.5036
21
-14.8493
0
LINE
8
BLACK
6
CONTINUOUS
10
31.5036
20
-14.8493
11
31.3607
21
-14.9921
0
LINE
8
BLACK
6
CONTINUOUS
10
31.3607
20
-14.9921
11
31.2179
21
-14.8493
0
LINE
8
BLACK
6
CONTINUOUS
10
31.2179
20
-14.8493
11
31.3607
21
-14.7064
0
LINE
8
BLACK
6
CONTINUOUS
10
31.3607
20
-14.7064
11
31.3607
21
-14.9921
0
LINE
8
BLACK
6
CONTINUOUS
10
33.3607
20
-11.9921
11
33.6464
21
-11.9921
0
LINE
8
BLACK
6
CONTINUOUS
10
33.6464
20
-11.9921
11
33.9321
21
-12.135
0
LINE
8
BLACK
6
CONTINUOUS
10
33.9321
20
-12.135
11
34.075
21
-12.2779
0
LINE
8
BLACK
6
CONTINUOUS
10
34.075
20
-12.2779
11
34.2179
21
-12.5636
0
LINE
8
BLACK
6
CONTINUOUS
10
34.2179
20
-12.5636
11
34.3607
21
-13.135
0
LINE
8
BLACK
6
CONTINUOUS
10
34.3607
20
-13.135
11
34.3607
21
-13.8493
0
LINE
8
BLACK
6
CONTINUOUS
10
34.3607
20
-13.8493
11
34.2179
21
-14.4207
0
LINE
8
BLACK
6
CONTINUOUS
10
34.2179
20
-14.4207
11
34.075
21
-14.7064
0
LINE
8
BLACK
6
CONTINUOUS
10
34.075
20
-14.7064
11
33.9321
21
-14.8493
0
LINE
8
BLACK
6
CONTINUOUS
10
33.9321
20
-14.8493
11
33.6464
21
-14.9921
0
LINE
8
BLACK
6
CONTINUOUS
10
33.6464
20
-14.9921
11
33.3607
21
-14.9921
0
LINE
8
BLACK
6
CONTINUOUS
10
33.3607
20
-14.9921
11
33.075
21
-14.8493
0
LINE
8
BLACK
6
CONTINUOUS
10
33.075
20
-14.8493
11
32.9321
21
-14.7064
0
LINE
8
BLACK
6
CONTINUOUS
10
32.9321
20
-14.7064
11
32.7893
21
-14.4207
0
LINE
8
BLACK
6
CONTINUOUS
10
32.7893
20
-14.4207
11
32.6464
21
-13.8493
0
LINE
8
BLACK
6
CONTINUOUS
10
32.6464
20
-13.8493
11
32.6464
21
-13.135
0
LINE
8
BLACK
6
CONTINUOUS
10
32.6464
20
-13.135
11
32.7893
21
-12.5636
0
LINE
8
BLACK
6
CONTINUOUS
10
32.7893
20
-12.5636
11
32.9321
21
-12.2779
0
LINE
8
BLACK
6
CONTINUOUS
10
32.9321
20
-12.2779
11
33.075
21
-12.135
0
LINE
8
BLACK
6
CONTINUOUS
10
33.075
20
-12.135
11
33.3607
21
-11.9921
0
LINE
8
BLACK
6
CONTINUOUS
10
35.5036
20
-12.2779
11
35.6464
21
-12.135
0
LINE
8
BLACK
6
CONTINUOUS
10
35.6464
20
-12.135
11
35.9321
21
-11.9921
0
LINE
8
BLACK
6
CONTINUOUS
10
35.9321
20
-11.9921
11
36.6464
21
-11.9921
0
LINE
8
BLACK
6
CONTINUOUS
10
36.6464
20
-11.9921
11
36.9321
21
-12.135
0
LINE
8
BLACK
6
CONTINUOUS
10
36.9321
20
-12.135
11
37.075
21
-12.2779
0
LINE
8
BLACK
6
CONTINUOUS
10
37.075
20
-12.2779
11
37.2179
21
-12.5636
0
LINE
8
BLACK
6
CONTINUOUS
10
37.2179
20
-12.5636
11
37.2179
21
-12.8493
0
LINE
8
BLACK
6
CONTINUOUS
10
37.2179
20
-12.8493
11
37.075
21
-13.2779
0
LINE
8
BLACK
6
CONTINUOUS
10
37.075
20
-13.2779
11
35.3607
21
-14.9921
0
LINE
8
BLACK
6
CONTINUOUS
10
35.3607
20
-14.9921
11
37.2179
21
-14.9921
0
LINE
8
BLACK
6
CONTINUOUS
10
39.075
20
-11.9921
11
39.3607
21
-11.9921
0
LINE
8
BLACK
6
CONTINUOUS
10
39.3607
20
-11.9921
11
39.6464
21
-12.135
0
LINE
8
BLACK
6
CONTINUOUS
10
39.6464
20
-12.135
11
39.7893
21
-12.2779
0
LINE
8
BLACK
6
CONTINUOUS
10
39.7893
20
-12.2779
11
39.9321
21
-12.5636
0
LINE
8
BLACK
6
CONTINUOUS
10
39.9321
20
-12.5636
11
40.075
21
-13.135
0
LINE
8
BLACK
6
CONTINUOUS
10
40.075
20
-13.135
11
40.075
21
-13.8493
0
LINE
8
BLACK
6
CONTINUOUS
10
40.075
20
-13.8493
11
39.9321
21
-14.4207
0
LINE
8
BLACK
6
CONTINUOUS
10
39.9321
20
-14.4207
11
39.7893
21
-14.7064
0
LINE
8
BLACK
6
CONTINUOUS
10
39.7893
20
-14.7064
11
39.6464
21
-14.8493
0
LINE
8
BLACK
6
CONTINUOUS
10
39.6464
20
-14.8493
11
39.3607
21
-14.9921
0
LINE
8
BLACK
6
CONTINUOUS
10
39.3607
20
-14.9921
11
39.075
21
-14.9921
0
LINE
8
BLACK
6
CONTINUOUS
10
39.075
20
-14.9921
11
38.7893
21
-14.8493
0
LINE
8
BLACK
6
CONTINUOUS
10
38.7893
20
-14.8493
11
38.6464
21
-14.7064
0
LINE
8
BLACK
6
CONTINUOUS
10
38.6464
20
-14.7064
11
38.5036
21
-14.4207
0
LINE
8
BLACK
6
CONTINUOUS
10
38.5036
20
-14.4207
11
38.3607
21
-13.8493
0
LINE
8
BLACK
6
CONTINUOUS
10
38.3607
20
-13.8493
11
38.3607
21
-13.135
0
LINE
8
BLACK
6
CONTINUOUS
10
38.3607
20
-13.135
11
38.5036
21
-12.5636
0
LINE
8
BLACK
6
CONTINUOUS
10
38.5036
20
-12.5636
11
38.6464
21
-12.2779
0
LINE
8
BLACK
6
CONTINUOUS
10
38.6464
20
-12.2779
11
38.7893
21
-12.135
0
LINE
8
BLACK
6
CONTINUOUS
10
38.7893
20
-12.135
11
39.075
21
-11.9921
0
LINE
8
BLACK
6
CONTINUOUS
10
41.2179
20
-11.9921
11
41.2179
21
-12.5636
0
LINE
8
BLACK
6
CONTINUOUS
10
42.3607
20
-11.9921
11
42.3607
21
-12.5636
0
LINE
8
BLACK
6
CONTINUOUS
10
46.7893
20
-16.135
11
46.6464
21
-15.9921
0
LINE
8
BLACK
6
CONTINUOUS
10
46.6464
20
-15.9921
11
46.3607
21
-15.5636
0
LINE
8
BLACK
6
CONTINUOUS
10
46.3607
20
-15.5636
11
46.2179
21
-15.2779
0
LINE
8
BLACK
6
CONTINUOUS
10
46.2179
20
-15.2779
11
46.075
21
-14.8493
0
LINE
8
BLACK
6
CONTINUOUS
10
46.075
20
-14.8493
11
45.9321
21
-14.135
0
LINE
8
BLACK
6
CONTINUOUS
10
45.9321
20
-14.135
11
45.9321
21
-13.5636
0
LINE
8
BLACK
6
CONTINUOUS
10
45.9321
20
-13.5636
11
46.075
21
-12.8493
0
LINE
8
BLACK
6
CONTINUOUS
10
46.075
20
-12.8493
11
46.2179
21
-12.4207
0
LINE
8
BLACK
6
CONTINUOUS
10
46.2179
20
-12.4207
11
46.3607
21
-12.135
0
LINE
8
BLACK
6
CONTINUOUS
10
46.3607
20
-12.135
11
46.6464
21
-11.7064
0
LINE
8
BLACK
6
CONTINUOUS
10
46.6464
20
-11.7064
11
46.7893
21
-11.5636
0
LINE
8
BLACK
6
CONTINUOUS
10
47.6464
20
-11.9921
11
49.5036
21
-11.9921
0
LINE
8
BLACK
6
CONTINUOUS
10
49.5036
20
-11.9921
11
48.5036
21
-13.135
0
LINE
8
BLACK
6
CONTINUOUS
10
48.5036
20
-13.135
11
48.9321
21
-13.135
0
LINE
8
BLACK
6
CONTINUOUS
10
48.9321
20
-13.135
11
49.2179
21
-13.2779
0
LINE
8
BLACK
6
CONTINUOUS
10
49.2179
20
-13.2779
11
49.3607
21
-13.4207
0
LINE
8
BLACK
6
CONTINUOUS
10
49.3607
20
-13.4207
11
49.5036
21
-13.7064
0
LINE
8
BLACK
6
CONTINUOUS
10
49.5036
20
-13.7064
11
49.5036
21
-14.4207
0
LINE
8
BLACK
6
CONTINUOUS
10
49.5036
20
-14.4207
11
49.3607
21
-14.7064
0
LINE
8
BLACK
6
CONTINUOUS
10
49.3607
20
-14.7064
11
49.2179
21
-14.8493
0
LINE
8
BLACK
6
CONTINUOUS
10
49.2179
20
-14.8493
11
48.9321
21
-14.9921
0
LINE
8
BLACK
6
CONTINUOUS
10
48.9321
20
-14.9921
11
48.075
21
-14.9921
0
LINE
8
BLACK
6
CONTINUOUS
10
48.075
20
-14.9921
11
47.7893
21
-14.8493
0
LINE
8
BLACK
6
CONTINUOUS
10
47.7893
20
-14.8493
11
47.6464
21
-14.7064
0
LINE
8
BLACK
6
CONTINUOUS
10
50.5036
20
-11.9921
11
52.5036
21
-11.9921
0
LINE
8
BLACK
6
CONTINUOUS
10
52.5036
20
-11.9921
11
51.2179
21
-14.9921
0
LINE
8
BLACK
6
CONTINUOUS
10
55.9321
20
-14.9921
11
55.9321
21
-11.9921
0
LINE
8
BLACK
6
CONTINUOUS
10
57.2179
20
-14.9921
11
57.2179
21
-13.4207
0
LINE
8
BLACK
6
CONTINUOUS
10
57.2179
20
-13.4207
11
57.075
21
-13.135
0
LINE
8
BLACK
6
CONTINUOUS
10
57.075
20
-13.135
11
56.7893
21
-12.9921
0
LINE
8
BLACK
6
CONTINUOUS
10
56.7893
20
-12.9921
11
56.3607
21
-12.9921
0
LINE
8
BLACK
6
CONTINUOUS
10
56.3607
20
-12.9921
11
56.075
21
-13.135
0
LINE
8
BLACK
6
CONTINUOUS
10
56.075
20
-13.135
11
55.9321
21
-13.2779
0
LINE
8
BLACK
6
CONTINUOUS
10
59.075
20
-14.9921
11
58.7893
21
-14.8493
0
LINE
8
BLACK
6
CONTINUOUS
10
58.7893
20
-14.8493
11
58.6464
21
-14.7064
0
LINE
8
BLACK
6
CONTINUOUS
10
58.6464
20
-14.7064
11
58.5036
21
-14.4207
0
LINE
8
BLACK
6
CONTINUOUS
10
58.5036
20
-14.4207
11
58.5036
21
-13.5636
0
LINE
8
BLACK
6
CONTINUOUS
10
58.5036
20
-13.5636
11
58.6464
21
-13.2779
0
LINE
8
BLACK
6
CONTINUOUS
10
58.6464
20
-13.2779
11
58.7893
21
-13.135
0
LINE
8
BLACK
6
CONTINUOUS
10
58.7893
20
-13.135
11
59.075
21
-12.9921
0
LINE
8
BLACK
6
CONTINUOUS
10
59.075
20
-12.9921
11
59.5036
21
-12.9921
0
LINE
8
BLACK
6
CONTINUOUS
10
59.5036
20
-12.9921
11
59.7893
21
-13.135
0
LINE
8
BLACK
6
CONTINUOUS
10
59.7893
20
-13.135
11
59.9321
21
-13.2779
0
LINE
8
BLACK
6
CONTINUOUS
10
59.9321
20
-13.2779
11
60.075
21
-13.5636
0
LINE
8
BLACK
6
CONTINUOUS
10
60.075
20
-13.5636
11
60.075
21
-14.4207
0
LINE
8
BLACK
6
CONTINUOUS
10
60.075
20
-14.4207
11
59.9321
21
-14.7064
0
LINE
8
BLACK
6
CONTINUOUS
10
59.9321
20
-14.7064
11
59.7893
21
-14.8493
0
LINE
8
BLACK
6
CONTINUOUS
10
59.7893
20
-14.8493
11
59.5036
21
-14.9921
0
LINE
8
BLACK
6
CONTINUOUS
10
59.5036
20
-14.9921
11
59.075
21
-14.9921
0
LINE
8
BLACK
6
CONTINUOUS
10
61.7893
20
-14.9921
11
61.5036
21
-14.8493
0
LINE
8
BLACK
6
CONTINUOUS
10
61.5036
20
-14.8493
11
61.3607
21
-14.5636
0
LINE
8
BLACK
6
CONTINUOUS
10
61.3607
20
-14.5636
11
61.3607
21
-11.9921
0
LINE
8
BLACK
6
CONTINUOUS
10
64.075
20
-14.8493
11
63.7893
21
-14.9921
0
LINE
8
BLACK
6
CONTINUOUS
10
63.7893
20
-14.9921
11
63.2179
21
-14.9921
0
LINE
8
BLACK
6
CONTINUOUS
10
63.2179
20
-14.9921
11
62.9321
21
-14.8493
0
LINE
8
BLACK
6
CONTINUOUS
10
62.9321
20
-14.8493
11
62.7893
21
-14.5636
0
LINE
8
BLACK
6
CONTINUOUS
10
62.7893
20
-14.5636
11
62.7893
21
-13.4207
0
LINE
8
BLACK
6
CONTINUOUS
10
62.7893
20
-13.4207
11
62.9321
21
-13.135
0
LINE
8
BLACK
6
CONTINUOUS
10
62.9321
20
-13.135
11
63.2179
21
-12.9921
0
LINE
8
BLACK
6
CONTINUOUS
10
63.2179
20
-12.9921
11
63.7893
21
-12.9921
0
LINE
8
BLACK
6
CONTINUOUS
10
63.7893
20
-12.9921
11
64.075
21
-13.135
0
LINE
8
BLACK
6
CONTINUOUS
10
64.075
20
-13.135
11
64.2179
21
-13.4207
0
LINE
8
BLACK
6
CONTINUOUS
10
64.2179
20
-13.4207
11
64.2179
21
-13.7064
0
LINE
8
BLACK
6
CONTINUOUS
10
64.2179
20
-13.7064
11
62.7893
21
-13.9921
0
LINE
8
BLACK
6
CONTINUOUS
10
65.3607
20
-14.8493
11
65.6464
21
-14.9921
0
LINE
8
BLACK
6
CONTINUOUS
10
65.6464
20
-14.9921
11
66.2179
21
-14.9921
0
LINE
8
BLACK
6
CONTINUOUS
10
66.2179
20
-14.9921
11
66.5036
21
-14.8493
0
LINE
8
BLACK
6
CONTINUOUS
10
66.5036
20
-14.8493
11
66.6464
21
-14.5636
0
LINE
8
BLACK
6
CONTINUOUS
10
66.6464
20
-14.5636
11
66.6464
21
-14.4207
0
LINE
8
BLACK
6
CONTINUOUS
10
66.6464
20
-14.4207
11
66.5036
21
-14.135
0
LINE
8
BLACK
6
CONTINUOUS
10
66.5036
20
-14.135
11
66.2179
21
-13.9921
0
LINE
8
BLACK
6
CONTINUOUS
10
66.2179
20
-13.9921
11
65.7893
21
-13.9921
0
LINE
8
BLACK
6
CONTINUOUS
10
65.7893
20
-13.9921
11
65.5036
21
-13.8493
0
LINE
8
BLACK
6
CONTINUOUS
10
65.5036
20
-13.8493
11
65.3607
21
-13.5636
0
LINE
8
BLACK
6
CONTINUOUS
10
65.3607
20
-13.5636
11
65.3607
21
-13.4207
0
LINE
8
BLACK
6
CONTINUOUS
10
65.3607
20
-13.4207
11
65.5036
21
-13.135
0
LINE
8
BLACK
6
CONTINUOUS
10
65.5036
20
-13.135
11
65.7893
21
-12.9921
0
LINE
8
BLACK
6
CONTINUOUS
10
65.7893
20
-12.9921
11
66.2179
21
-12.9921
0
LINE
8
BLACK
6
CONTINUOUS
10
66.2179
20
-12.9921
11
66.5036
21
-13.135
0
LINE
8
BLACK
6
CONTINUOUS
10
67.6464
20
-16.135
11
67.7893
21
-15.9921
0
LINE
8
BLACK
6
CONTINUOUS
10
67.7893
20
-15.9921
11
68.075
21
-15.5636
0
LINE
8
BLACK
6
CONTINUOUS
10
68.075
20
-15.5636
11
68.2179
21
-15.2779
0
LINE
8
BLACK
6
CONTINUOUS
10
68.2179
20
-15.2779
11
68.3607
21
-14.8493
0
LINE
8
BLACK
6
CONTINUOUS
10
68.3607
20
-14.8493
11
68.5036
21
-14.135
0
LINE
8
BLACK
6
CONTINUOUS
10
68.5036
20
-14.135
11
68.5036
21
-13.5636
0
LINE
8
BLACK
6
CONTINUOUS
10
68.5036
20
-13.5636
11
68.3607
21
-12.8493
0
LINE
8
BLACK
6
CONTINUOUS
10
68.3607
20
-12.8493
11
68.2179
21
-12.4207
0
LINE
8
BLACK
6
CONTINUOUS
10
68.2179
20
-12.4207
11
68.075
21
-12.135
0
LINE
8
BLACK
6
CONTINUOUS
10
68.075
20
-12.135
11
67.7893
21
-11.7064
0
LINE
8
BLACK
6
CONTINUOUS
10
67.7893
20
-11.7064
11
67.6464
21
-11.5636
0
LINE
8
BLACK
6
CONTINUOUS
10
-0.575001
20
-17.095
11
-0.575001
21
-18.095
0
LINE
8
BLACK
6
CONTINUOUS
10
-1.075
20
-17.595
11
-0.075001
21
-17.595
0
LINE
8
BLACK
6
CONTINUOUS
10
4.36071
20
-18.9521
11
2.64643
21
-18.9521
0
LINE
8
BLACK
6
CONTINUOUS
10
3.50357
20
-18.9521
11
3.50357
21
-15.9521
0
LINE
8
BLACK
6
CONTINUOUS
10
3.50357
20
-15.9521
11
3.21786
21
-16.3807
0
LINE
8
BLACK
6
CONTINUOUS
10
3.21786
20
-16.3807
11
2.93214
21
-16.6664
0
LINE
8
BLACK
6
CONTINUOUS
10
2.93214
20
-16.6664
11
2.64643
21
-16.8093
0
LINE
8
BLACK
6
CONTINUOUS
10
5.64643
20
-18.6664
11
5.78928
21
-18.8093
0
LINE
8
BLACK
6
CONTINUOUS
10
5.78928
20
-18.8093
11
5.64643
21
-18.9521
0
LINE
8
BLACK
6
CONTINUOUS
10
5.64643
20
-18.9521
11
5.50357
21
-18.8093
0
LINE
8
BLACK
6
CONTINUOUS
10
5.50357
20
-18.8093
11
5.64643
21
-18.6664
0
LINE
8
BLACK
6
CONTINUOUS
10
5.64643
20
-18.6664
11
5.64643
21
-18.9521
0
LINE
8
BLACK
6
CONTINUOUS
10
7.64643
20
-15.9521
11
7.93214
21
-15.9521
0
LINE
8
BLACK
6
CONTINUOUS
10
7.93214
20
-15.9521
11
8.21786
21
-16.095
0
LINE
8
BLACK
6
CONTINUOUS
10
8.21786
20
-16.095
11
8.36071
21
-16.2379
0
LINE
8
BLACK
6
CONTINUOUS
10
8.36071
20
-16.2379
11
8.50357
21
-16.5236
0
LINE
8
BLACK
6
CONTINUOUS
10
8.50357
20
-16.5236
11
8.64643
21
-17.095
0
LINE
8
BLACK
6
CONTINUOUS
10
8.64643
20
-17.095
11
8.64643
21
-17.8093
0
LINE
8
BLACK
6
CONTINUOUS
10
8.64643
20
-17.8093
11
8.50357
21
-18.3807
0
LINE
8
BLACK
6
CONTINUOUS
10
8.50357
20
-18.3807
11
8.36071
21
-18.6664
0
LINE
8
BLACK
6
CONTINUOUS
10
8.36071
20
-18.6664
11
8.21786
21
-18.8093
0
LINE
8
BLACK
6
CONTINUOUS
10
8.21786
20
-18.8093
11
7.93214
21
-18.9521
0
LINE
8
BLACK
6
CONTINUOUS
10
7.93214
20
-18.9521
11
7.64643
21
-18.9521
0
LINE
8
BLACK
6
CONTINUOUS
10
7.64643
20
-18.9521
11
7.36071
21
-18.8093
0
LINE
8
BLACK
6
CONTINUOUS
10
7.36071
20
-18.8093
11
7.21786
21
-18.6664
0
LINE
8
BLACK
6
CONTINUOUS
10
7.21786
20
-18.6664
11
7.075
21
-18.3807
0
LINE
8
BLACK
6
CONTINUOUS
10
7.075
20
-18.3807
11
6.93214
21
-17.8093
0
LINE
8
BLACK
6
CONTINUOUS
10
6.93214
20
-17.8093
11
6.93214
21
-17.095
0
LINE
8
BLACK
6
CONTINUOUS
10
6.93214
20
-17.095
11
7.075
21
-16.5236
0
LINE
8
BLACK
6
CONTINUOUS
10
7.075
20
-16.5236
11
7.21786
21
-16.2379
0
LINE
8
BLACK
6
CONTINUOUS
10
7.21786
20
-16.2379
11
7.36071
21
-16.095
0
LINE
8
BLACK
6
CONTINUOUS
10
7.36071
20
-16.095
11
7.64643
21
-15.9521
0
LINE
8
BLACK
6
CONTINUOUS
10
10.5036
20
-15.9521
11
10.7893
21
-15.9521
0
LINE
8
BLACK
6
CONTINUOUS
10
10.7893
20
-15.9521
11
11.075
21
-16.095
0
LINE
8
BLACK
6
CONTINUOUS
10
11.075
20
-16.095
11
11.2179
21
-16.2379
0
LINE
8
BLACK
6
CONTINUOUS
10
11.2179
20
-16.2379
11
11.3607
21
-16.5236
0
LINE
8
BLACK
6
CONTINUOUS
10
11.3607
20
-16.5236
11
11.5036
21
-17.095
0
LINE
8
BLACK
6
CONTINUOUS
10
11.5036
20
-17.095
11
11.5036
21
-17.8093
0
LINE
8
BLACK
6
CONTINUOUS
10
11.5036
20
-17.8093
11
11.3607
21
-18.3807
0
LINE
8
BLACK
6
CONTINUOUS
10
11.3607
20
-18.3807
11
11.2179
21
-18.6664
0
LINE
8
BLACK
6
CONTINUOUS
10
11.2179
20
-18.6664
11
11.075
21
-18.8093
0
LINE
8
BLACK
6
CONTINUOUS
10
11.075
20
-18.8093
11
10.7893
21
-18.9521
0
LINE
8
BLACK
6
CONTINUOUS
10
10.7893
20
-18.9521
11
10.5036
21
-18.9521
0
LINE
8
BLACK
6
CONTINUOUS
10
10.5036
20
-18.9521
11
10.2179
21
-18.8093
0
LINE
8
BLACK
6
CONTINUOUS
10
10.2179
20
-18.8093
11
10.075
21
-18.6664
0
LINE
8
BLACK
6
CONTINUOUS
10
10.075
20
-18.6664
11
9.93214
21
-18.3807
0
LINE
8
BLACK
6
CONTINUOUS
10
9.93214
20
-18.3807
11
9.78928
21
-17.8093
0
LINE
8
BLACK
6
CONTINUOUS
10
9.78928
20
-17.8093
11
9.78928
21
-17.095
0
LINE
8
BLACK
6
CONTINUOUS
10
9.78928
20
-17.095
11
9.93214
21
-16.5236
0
LINE
8
BLACK
6
CONTINUOUS
10
9.93214
20
-16.5236
11
10.075
21
-16.2379
0
LINE
8
BLACK
6
CONTINUOUS
10
10.075
20
-16.2379
11
10.2179
21
-16.095
0
LINE
8
BLACK
6
CONTINUOUS
10
10.2179
20
-16.095
11
10.5036
21
-15.9521
0
LINE
8
BLACK
6
CONTINUOUS
10
12.7893
20
-18.9521
11
12.7893
21
-16.9521
0
LINE
8
BLACK
6
CONTINUOUS
10
12.7893
20
-17.2379
11
12.9321
21
-17.095
0
LINE
8
BLACK
6
CONTINUOUS
10
12.9321
20
-17.095
11
13.2179
21
-16.9521
0
LINE
8
BLACK
6
CONTINUOUS
10
13.2179
20
-16.9521
11
13.6464
21
-16.9521
0
LINE
8
BLACK
6
CONTINUOUS
10
13.6464
20
-16.9521
11
13.9321
21
-17.095
0
LINE
8
BLACK
6
CONTINUOUS
10
13.9321
20
-17.095
11
14.075
21
-17.3807
0
LINE
8
BLACK
6
CONTINUOUS
10
14.075
20
-17.3807
11
14.075
21
-18.9521
0
LINE
8
BLACK
6
CONTINUOUS
10
14.075
20
-17.3807
11
14.2179
21
-17.095
0
LINE
8
BLACK
6
CONTINUOUS
10
14.2179
20
-17.095
11
14.5036
21
-16.9521
0
LINE
8
BLACK
6
CONTINUOUS
10
14.5036
20
-16.9521
11
14.9321
21
-16.9521
0
LINE
8
BLACK
6
CONTINUOUS
10
14.9321
20
-16.9521
11
15.2179
21
-17.095
0
LINE
8
BLACK
6
CONTINUOUS
10
15.2179
20
-17.095
11
15.3607
21
-17.3807
0
LINE
8
BLACK
6
CONTINUOUS
10
15.3607
20
-17.3807
11
15.3607
21
-18.9521
0
LINE
8
BLACK
6
CONTINUOUS
10
16.7893
20
-18.9521
11
16.7893
21
-16.9521
0
LINE
8
BLACK
6
CONTINUOUS
10
16.7893
20
-17.2379
11
16.9321
21
-17.095
0
LINE
8
BLACK
6
CONTINUOUS
10
16.9321
20
-17.095
11
17.2179
21
-16.9521
0
LINE
8
BLACK
6
CONTINUOUS
10
17.2179
20
-16.9521
11
17.6464
21
-16.9521
0
LINE
8
BLACK
6
CONTINUOUS
10
17.6464
20
-16.9521
11
17.9321
21
-17.095
0
LINE
8
BLACK
6
CONTINUOUS
10
17.9321
20
-17.095
11
18.075
21
-17.3807
0
LINE
8
BLACK
6
CONTINUOUS
10
18.075
20
-17.3807
11
18.075
21
-18.9521
0
LINE
8
BLACK
6
CONTINUOUS
10
18.075
20
-17.3807
11
18.2179
21
-17.095
0
LINE
8
BLACK
6
CONTINUOUS
10
18.2179
20
-17.095
11
18.5036
21
-16.9521
0
LINE
8
BLACK
6
CONTINUOUS
10
18.5036
20
-16.9521
11
18.9321
21
-16.9521
0
LINE
8
BLACK
6
CONTINUOUS
10
18.9321
20
-16.9521
11
19.2179
21
-17.095
0
LINE
8
BLACK
6
CONTINUOUS
10
19.2179
20
-17.095
11
19.3607
21
-17.3807
0
LINE
8
BLACK
6
CONTINUOUS
10
19.3607
20
-17.3807
11
19.3607
21
-18.9521
0
LINE
8
BLACK
6
CONTINUOUS
10
25.2179
20
-15.8093
11
22.6464
21
-19.6664
0
LINE
8
BLACK
6
CONTINUOUS
10
29.075
20
-15.9521
11
29.3607
21
-15.9521
0
LINE
8
BLACK
6
CONTINUOUS
10
29.3607
20
-15.9521
11
29.6464
21
-16.095
0
LINE
8
BLACK
6
CONTINUOUS
10
29.6464
20
-16.095
11
29.7893
21
-16.2379
0
LINE
8
BLACK
6
CONTINUOUS
10
29.7893
20
-16.2379
11
29.9321
21
-16.5236
0
LINE
8
BLACK
6
CONTINUOUS
10
29.9321
20
-16.5236
11
30.075
21
-17.095
0
LINE
8
BLACK
6
CONTINUOUS
10
30.075
20
-17.095
11
30.075
21
-17.8093
0
LINE
8
BLACK
6
CONTINUOUS
10
30.075
20
-17.8093
11
29.9321
21
-18.3807
0
LINE
8
BLACK
6
CONTINUOUS
10
29.9321
20
-18.3807
11
29.7893
21
-18.6664
0
LINE
8
BLACK
6
CONTINUOUS
10
29.7893
20
-18.6664
11
29.6464
21
-18.8093
0
LINE
8
BLACK
6
CONTINUOUS
10
29.6464
20
-18.8093
11
29.3607
21
-18.9521
0
LINE
8
BLACK
6
CONTINUOUS
10
29.3607
20
-18.9521
11
29.075
21
-18.9521
0
LINE
8
BLACK
6
CONTINUOUS
10
29.075
20
-18.9521
11
28.7893
21
-18.8093
0
LINE
8
BLACK
6
CONTINUOUS
10
28.7893
20
-18.8093
11
28.6464
21
-18.6664
0
LINE
8
BLACK
6
CONTINUOUS
10
28.6464
20
-18.6664
11
28.5036
21
-18.3807
0
LINE
8
BLACK
6
CONTINUOUS
10
28.5036
20
-18.3807
11
28.3607
21
-17.8093
0
LINE
8
BLACK
6
CONTINUOUS
10
28.3607
20
-17.8093
11
28.3607
21
-17.095
0
LINE
8
BLACK
6
CONTINUOUS
10
28.3607
20
-17.095
11
28.5036
21
-16.5236
0
LINE
8
BLACK
6
CONTINUOUS
10
28.5036
20
-16.5236
11
28.6464
21
-16.2379
0
LINE
8
BLACK
6
CONTINUOUS
10
28.6464
20
-16.2379
11
28.7893
21
-16.095
0
LINE
8
BLACK
6
CONTINUOUS
10
28.7893
20
-16.095
11
29.075
21
-15.9521
0
LINE
8
BLACK
6
CONTINUOUS
10
31.3607
20
-18.6664
11
31.5036
21
-18.8093
0
LINE
8
BLACK
6
CONTINUOUS
10
31.5036
20
-18.8093
11
31.3607
21
-18.9521
0
LINE
8
BLACK
6
CONTINUOUS
10
31.3607
20
-18.9521
11
31.2179
21
-18.8093
0
LINE
8
BLACK
6
CONTINUOUS
10
31.2179
20
-18.8093
11
31.3607
21
-18.6664
0
LINE
8
BLACK
6
CONTINUOUS
10
31.3607
20
-18.6664
11
31.3607
21
-18.9521
0
LINE
8
BLACK
6
CONTINUOUS
10
33.3607
20
-15.9521
11
33.6464
21
-15.9521
0
LINE
8
BLACK
6
CONTINUOUS
10
33.6464
20
-15.9521
11
33.9321
21
-16.095
0
LINE
8
BLACK
6
CONTINUOUS
10
33.9321
20
-16.095
11
34.075
21
-16.2379
0
LINE
8
BLACK
6
CONTINUOUS
10
34.075
20
-16.2379
11
34.2179
21
-16.5236
0
LINE
8
BLACK
6
CONTINUOUS
10
34.2179
20
-16.5236
11
34.3607
21
-17.095
0
LINE
8
BLACK
6
CONTINUOUS
10
34.3607
20
-17.095
11
34.3607
21
-17.8093
0
LINE
8
BLACK
6
CONTINUOUS
10
34.3607
20
-17.8093
11
34.2179
21
-18.3807
0
LINE
8
BLACK
6
CONTINUOUS
10
34.2179
20
-18.3807
11
34.075
21
-18.6664
0
LINE
8
BLACK
6
CONTINUOUS
10
34.075
20
-18.6664
11
33.9321
21
-18.8093
0
LINE
8
BLACK
6
CONTINUOUS
10
33.9321
20
-18.8093
11
33.6464
21
-18.9521
0
LINE
8
BLACK
6
CONTINUOUS
10
33.6464
20
-18.9521
11
33.3607
21
-18.9521
0
LINE
8
BLACK
6
CONTINUOUS
10
33.3607
20
-18.9521
11
33.075
21
-18.8093
0
LINE
8
BLACK
6
CONTINUOUS
10
33.075
20
-18.8093
11
32.9321
21
-18.6664
0
LINE
8
BLACK
6
CONTINUOUS
10
32.9321
20
-18.6664
11
32.7893
21
-18.3807
0
LINE
8
BLACK
6
CONTINUOUS
10
32.7893
20
-18.3807
11
32.6464
21
-17.8093
0
LINE
8
BLACK
6
CONTINUOUS
10
32.6464
20
-17.8093
11
32.6464
21
-17.095
0
LINE
8
BLACK
6
CONTINUOUS
10
32.6464
20
-17.095
11
32.7893
21
-16.5236
0
LINE
8
BLACK
6
CONTINUOUS
10
32.7893
20
-16.5236
11
32.9321
21
-16.2379
0
LINE
8
BLACK
6
CONTINUOUS
10
32.9321
20
-16.2379
11
33.075
21
-16.095
0
LINE
8
BLACK
6
CONTINUOUS
10
33.075
20
-16.095
11
33.3607
21
-15.9521
0
LINE
8
BLACK
6
CONTINUOUS
10
35.3607
20
-15.9521
11
37.2179
21
-15.9521
0
LINE
8
BLACK
6
CONTINUOUS
10
37.2179
20
-15.9521
11
36.2179
21
-17.095
0
LINE
8
BLACK
6
CONTINUOUS
10
36.2179
20
-17.095
11
36.6464
21
-17.095
0
LINE
8
BLACK
6
CONTINUOUS
10
36.6464
20
-17.095
11
36.9321
21
-17.2379
0
LINE
8
BLACK
6
CONTINUOUS
10
36.9321
20
-17.2379
11
37.075
21
-17.3807
0
LINE
8
BLACK
6
CONTINUOUS
10
37.075
20
-17.3807
11
37.2179
21
-17.6664
0
LINE
8
BLACK
6
CONTINUOUS
10
37.2179
20
-17.6664
11
37.2179
21
-18.3807
0
LINE
8
BLACK
6
CONTINUOUS
10
37.2179
20
-18.3807
11
37.075
21
-18.6664
0
LINE
8
BLACK
6
CONTINUOUS
10
37.075
20
-18.6664
11
36.9321
21
-18.8093
0
LINE
8
BLACK
6
CONTINUOUS
10
36.9321
20
-18.8093
11
36.6464
21
-18.9521
0
LINE
8
BLACK
6
CONTINUOUS
10
36.6464
20
-18.9521
11
35.7893
21
-18.9521
0
LINE
8
BLACK
6
CONTINUOUS
10
35.7893
20
-18.9521
11
35.5036
21
-18.8093
0
LINE
8
BLACK
6
CONTINUOUS
10
35.5036
20
-18.8093
11
35.3607
21
-18.6664
0
LINE
8
BLACK
6
CONTINUOUS
10
38.6464
20
-18.9521
11
39.2179
21
-18.9521
0
LINE
8
BLACK
6
CONTINUOUS
10
39.2179
20
-18.9521
11
39.5036
21
-18.8093
0
LINE
8
BLACK
6
CONTINUOUS
10
39.5036
20
-18.8093
11
39.6464
21
-18.6664
0
LINE
8
BLACK
6
CONTINUOUS
10
39.6464
20
-18.6664
11
39.9321
21
-18.2379
0
LINE
8
BLACK
6
CONTINUOUS
10
39.9321
20
-18.2379
11
40.075
21
-17.6664
0
LINE
8
BLACK
6
CONTINUOUS
10
40.075
20
-17.6664
11
40.075
21
-16.5236
0
LINE
8
BLACK
6
CONTINUOUS
10
40.075
20
-16.5236
11
39.9321
21
-16.2379
0
LINE
8
BLACK
6
CONTINUOUS
10
39.9321
20
-16.2379
11
39.7893
21
-16.095
0
LINE
8
BLACK
6
CONTINUOUS
10
39.7893
20
-16.095
11
39.5036
21
-15.9521
0
LINE
8
BLACK
6
CONTINUOUS
10
39.5036
20
-15.9521
11
38.9321
21
-15.9521
0
LINE
8
BLACK
6
CONTINUOUS
10
38.9321
20
-15.9521
11
38.6464
21
-16.095
0
LINE
8
BLACK
6
CONTINUOUS
10
38.6464
20
-16.095
11
38.5036
21
-16.2379
0
LINE
8
BLACK
6
CONTINUOUS
10
38.5036
20
-16.2379
11
38.3607
21
-16.5236
0
LINE
8
BLACK
6
CONTINUOUS
10
38.3607
20
-16.5236
11
38.3607
21
-17.2379
0
LINE
8
BLACK
6
CONTINUOUS
10
38.3607
20
-17.2379
11
38.5036
21
-17.5236
0
LINE
8
BLACK
6
CONTINUOUS
10
38.5036
20
-17.5236
11
38.6464
21
-17.6664
0
LINE
8
BLACK
6
CONTINUOUS
10
38.6464
20
-17.6664
11
38.9321
21
-17.8093
0
LINE
8
BLACK
6
CONTINUOUS
10
38.9321
20
-17.8093
11
39.5036
21
-17.8093
0
LINE
8
BLACK
6
CONTINUOUS
10
39.5036
20
-17.8093
11
39.7893
21
-17.6664
0
LINE
8
BLACK
6
CONTINUOUS
10
39.7893
20
-17.6664
11
39.9321
21
-17.5236
0
LINE
8
BLACK
6
CONTINUOUS
10
39.9321
20
-17.5236
11
40.075
21
-17.2379
0
LINE
8
BLACK
6
CONTINUOUS
10
41.2179
20
-15.9521
11
41.2179
21
-16.5236
0
LINE
8
BLACK
6
CONTINUOUS
10
42.3607
20
-15.9521
11
42.3607
21
-16.5236
0
LINE
8
BLACK
6
CONTINUOUS
10
46.7893
20
-20.095
11
46.6464
21
-19.9521
0
LINE
8
BLACK
6
CONTINUOUS
10
46.6464
20
-19.9521
11
46.3607
21
-19.5236
0
LINE
8
BLACK
6
CONTINUOUS
10
46.3607
20
-19.5236
11
46.2179
21
-19.2379
0
LINE
8
BLACK
6
CONTINUOUS
10
46.2179
20
-19.2379
11
46.075
21
-18.8093
0
LINE
8
BLACK
6
CONTINUOUS
10
46.075
20
-18.8093
11
45.9321
21
-18.095
0
LINE
8
BLACK
6
CONTINUOUS
10
45.9321
20
-18.095
11
45.9321
21
-17.5236
0
LINE
8
BLACK
6
CONTINUOUS
10
45.9321
20
-17.5236
11
46.075
21
-16.8093
0
LINE
8
BLACK
6
CONTINUOUS
10
46.075
20
-16.8093
11
46.2179
21
-16.3807
0
LINE
8
BLACK
6
CONTINUOUS
10
46.2179
20
-16.3807
11
46.3607
21
-16.095
0
LINE
8
BLACK
6
CONTINUOUS
10
46.3607
20
-16.095
11
46.6464
21
-15.6664
0
LINE
8
BLACK
6
CONTINUOUS
10
46.6464
20
-15.6664
11
46.7893
21
-15.5236
0
LINE
8
BLACK
6
CONTINUOUS
10
48.3607
20
-17.2379
11
48.075
21
-17.095
0
LINE
8
BLACK
6
CONTINUOUS
10
48.075
20
-17.095
11
47.9321
21
-16.9521
0
LINE
8
BLACK
6
CONTINUOUS
10
47.9321
20
-16.9521
11
47.7893
21
-16.6664
0
LINE
8
BLACK
6
CONTINUOUS
10
47.7893
20
-16.6664
11
47.7893
21
-16.5236
0
LINE
8
BLACK
6
CONTINUOUS
10
47.7893
20
-16.5236
11
47.9321
21
-16.2379
0
LINE
8
BLACK
6
CONTINUOUS
10
47.9321
20
-16.2379
11
48.075
21
-16.095
0
LINE
8
BLACK
6
CONTINUOUS
10
48.075
20
-16.095
11
48.3607
21
-15.9521
0
LINE
8
BLACK
6
CONTINUOUS
10
48.3607
20
-15.9521
11
48.9321
21
-15.9521
0
LINE
8
BLACK
6
CONTINUOUS
10
48.9321
20
-15.9521
11
49.2179
21
-16.095
0
LINE
8
BLACK
6
CONTINUOUS
10
49.2179
20
-16.095
11
49.3607
21
-16.2379
0
LINE
8
BLACK
6
CONTINUOUS
10
49.3607
20
-16.2379
11
49.5036
21
-16.5236
0
LINE
8
BLACK
6
CONTINUOUS
10
49.5036
20
-16.5236
11
49.5036
21
-16.6664
0
LINE
8
BLACK
6
CONTINUOUS
10
49.5036
20
-16.6664
11
49.3607
21
-16.9521
0
LINE
8
BLACK
6
CONTINUOUS
10
49.3607
20
-16.9521
11
49.2179
21
-17.095
0
LINE
8
BLACK
6
CONTINUOUS
10
49.2179
20
-17.095
11
48.9321
21
-17.2379
0
LINE
8
BLACK
6
CONTINUOUS
10
48.9321
20
-17.2379
11
48.3607
21
-17.2379
0
LINE
8
BLACK
6
CONTINUOUS
10
48.3607
20
-17.2379
11
48.075
21
-17.3807
0
LINE
8
BLACK
6
CONTINUOUS
10
48.075
20
-17.3807
11
47.9321
21
-17.5236
0
LINE
8
BLACK
6
CONTINUOUS
10
47.9321
20
-17.5236
11
47.7893
21
-17.8093
0
LINE
8
BLACK
6
CONTINUOUS
10
47.7893
20
-17.8093
11
47.7893
21
-18.3807
0
LINE
8
BLACK
6
CONTINUOUS
10
47.7893
20
-18.3807
11
47.9321
21
-18.6664
0
LINE
8
BLACK
6
CONTINUOUS
10
47.9321
20
-18.6664
11
48.075
21
-18.8093
0
LINE
8
BLACK
6
CONTINUOUS
10
48.075
20
-18.8093
11
48.3607
21
-18.9521
0
LINE
8
BLACK
6
CONTINUOUS
10
48.3607
20
-18.9521
11
48.9321
21
-18.9521
0
LINE
8
BLACK
6
CONTINUOUS
10
48.9321
20
-18.9521
11
49.2179
21
-18.8093
0
LINE
8
BLACK
6
CONTINUOUS
10
49.2179
20
-18.8093
11
49.3607
21
-18.6664
0
LINE
8
BLACK
6
CONTINUOUS
10
49.3607
20
-18.6664
11
49.5036
21
-18.3807
0
LINE
8
BLACK
6
CONTINUOUS
10
49.5036
20
-18.3807
11
49.5036
21
-17.8093
0
LINE
8
BLACK
6
CONTINUOUS
10
49.5036
20
-17.8093
11
49.3607
21
-17.5236
0
LINE
8
BLACK
6
CONTINUOUS
10
49.3607
20
-17.5236
11
49.2179
21
-17.3807
0
LINE
8
BLACK
6
CONTINUOUS
10
49.2179
20
-17.3807
11
48.9321
21
-17.2379
0
LINE
8
BLACK
6
CONTINUOUS
10
53.075
20
-18.9521
11
53.075
21
-15.9521
0
LINE
8
BLACK
6
CONTINUOUS
10
54.3607
20
-18.9521
11
54.3607
21
-17.3807
0
LINE
8
BLACK
6
CONTINUOUS
10
54.3607
20
-17.3807
11
54.2179
21
-17.095
0
LINE
8
BLACK
6
CONTINUOUS
10
54.2179
20
-17.095
11
53.9321
21
-16.9521
0
LINE
8
BLACK
6
CONTINUOUS
10
53.9321
20
-16.9521
11
53.5036
21
-16.9521
0
LINE
8
BLACK
6
CONTINUOUS
10
53.5036
20
-16.9521
11
53.2179
21
-17.095
0
LINE
8
BLACK
6
CONTINUOUS
10
53.2179
20
-17.095
11
53.075
21
-17.2379
0
LINE
8
BLACK
6
CONTINUOUS
10
56.2179
20
-18.9521
11
55.9321
21
-18.8093
0
LINE
8
BLACK
6
CONTINUOUS
10
55.9321
20
-18.8093
11
55.7893
21
-18.6664
0
LINE
8
BLACK
6
CONTINUOUS
10
55.7893
20
-18.6664
11
55.6464
21
-18.3807
0
LINE
8
BLACK
6
CONTINUOUS
10
55.6464
20
-18.3807
11
55.6464
21
-17.5236
0
LINE
8
BLACK
6
CONTINUOUS
10
55.6464
20
-17.5236
11
55.7893
21
-17.2379
0
LINE
8
BLACK
6
CONTINUOUS
10
55.7893
20
-17.2379
11
55.9321
21
-17.095
0
LINE
8
BLACK
6
CONTINUOUS
10
55.9321
20
-17.095
11
56.2179
21
-16.9521
0
LINE
8
BLACK
6
CONTINUOUS
10
56.2179
20
-16.9521
11
56.6464
21
-16.9521
0
LINE
8
BLACK
6
CONTINUOUS
10
56.6464
20
-16.9521
11
56.9321
21
-17.095
0
LINE
8
BLACK
6
CONTINUOUS
10
56.9321
20
-17.095
11
57.075
21
-17.2379
0
LINE
8
BLACK
6
CONTINUOUS
10
57.075
20
-17.2379
11
57.2179
21
-17.5236
0
LINE
8
BLACK
6
CONTINUOUS
10
57.2179
20
-17.5236
11
57.2179
21
-18.3807
0
LINE
8
BLACK
6
CONTINUOUS
10
57.2179
20
-18.3807
11
57.075
21
-18.6664
0
LINE
8
BLACK
6
CONTINUOUS
10
57.075
20
-18.6664
11
56.9321
21
-18.8093
0
LINE
8
BLACK
6
CONTINUOUS
10
56.9321
20
-18.8093
11
56.6464
21
-18.9521
0
LINE
8
BLACK
6
CONTINUOUS
10
56.6464
20
-18.9521
11
56.2179
21
-18.9521
0
LINE
8
BLACK
6
CONTINUOUS
10
58.9321
20
-18.9521
11
58.6464
21
-18.8093
0
LINE
8
BLACK
6
CONTINUOUS
10
58.6464
20
-18.8093
11
58.5036
21
-18.5236
0
LINE
8
BLACK
6
CONTINUOUS
10
58.5036
20
-18.5236
11
58.5036
21
-15.9521
0
LINE
8
BLACK
6
CONTINUOUS
10
61.2179
20
-18.8093
11
60.9321
21
-18.9521
0
LINE
8
BLACK
6
CONTINUOUS
10
60.9321
20
-18.9521
11
60.3607
21
-18.9521
0
LINE
8
BLACK
6
CONTINUOUS
10
60.3607
20
-18.9521
11
60.075
21
-18.8093
0
LINE
8
BLACK
6
CONTINUOUS
10
60.075
20
-18.8093
11
59.9321
21
-18.5236
0
LINE
8
BLACK
6
CONTINUOUS
10
59.9321
20
-18.5236
11
59.9321
21
-17.3807
0
LINE
8
BLACK
6
CONTINUOUS
10
59.9321
20
-17.3807
11
60.075
21
-17.095
0
LINE
8
BLACK
6
CONTINUOUS
10
60.075
20
-17.095
11
60.3607
21
-16.9521
0
LINE
8
BLACK
6
CONTINUOUS
10
60.3607
20
-16.9521
11
60.9321
21
-16.9521
0
LINE
8
BLACK
6
CONTINUOUS
10
60.9321
20
-16.9521
11
61.2179
21
-17.095
0
LINE
8
BLACK
6
CONTINUOUS
10
61.2179
20
-17.095
11
61.3607
21
-17.3807
0
LINE
8
BLACK
6
CONTINUOUS
10
61.3607
20
-17.3807
11
61.3607
21
-17.6664
0
LINE
8
BLACK
6
CONTINUOUS
10
61.3607
20
-17.6664
11
59.9321
21
-17.9521
0
LINE
8
BLACK
6
CONTINUOUS
10
62.5036
20
-18.8093
11
62.7893
21
-18.9521
0
LINE
8
BLACK
6
CONTINUOUS
10
62.7893
20
-18.9521
11
63.3607
21
-18.9521
0
LINE
8
BLACK
6
CONTINUOUS
10
63.3607
20
-18.9521
11
63.6464
21
-18.8093
0
LINE
8
BLACK
6
CONTINUOUS
10
63.6464
20
-18.8093
11
63.7893
21
-18.5236
0
LINE
8
BLACK
6
CONTINUOUS
10
63.7893
20
-18.5236
11
63.7893
21
-18.3807
0
LINE
8
BLACK
6
CONTINUOUS
10
63.7893
20
-18.3807
11
63.6464
21
-18.095
0
LINE
8
BLACK
6
CONTINUOUS
10
63.6464
20
-18.095
11
63.3607
21
-17.9521
0
LINE
8
BLACK
6
CONTINUOUS
10
63.3607
20
-17.9521
11
62.9321
21
-17.9521
0
LINE
8
BLACK
6
CONTINUOUS
10
62.9321
20
-17.9521
11
62.6464
21
-17.8093
0
LINE
8
BLACK
6
CONTINUOUS
10
62.6464
20
-17.8093
11
62.5036
21
-17.5236
0
LINE
8
BLACK
6
CONTINUOUS
10
62.5036
20
-17.5236
11
62.5036
21
-17.3807
0
LINE
8
BLACK
6
CONTINUOUS
10
62.5036
20
-17.3807
11
62.6464
21
-17.095
0
LINE
8
BLACK
6
CONTINUOUS
10
62.6464
20
-17.095
11
62.9321
21
-16.9521
0
LINE
8
BLACK
6
CONTINUOUS
10
62.9321
20
-16.9521
11
63.3607
21
-16.9521
0
LINE
8
BLACK
6
CONTINUOUS
10
63.3607
20
-16.9521
11
63.6464
21
-17.095
0
LINE
8
BLACK
6
CONTINUOUS
10
64.7893
20
-20.095
11
64.9321
21
-19.9521
0
LINE
8
BLACK
6
CONTINUOUS
10
64.9321
20
-19.9521
11
65.2179
21
-19.5236
0
LINE
8
BLACK
6
CONTINUOUS
10
65.2179
20
-19.5236
11
65.3607
21
-19.2379
0
LINE
8
BLACK
6
CONTINUOUS
10
65.3607
20
-19.2379
11
65.5036
21
-18.8093
0
LINE
8
BLACK
6
CONTINUOUS
10
65.5036
20
-18.8093
11
65.6464
21
-18.095
0
LINE
8
BLACK
6
CONTINUOUS
10
65.6464
20
-18.095
11
65.6464
21
-17.5236
0
LINE
8
BLACK
6
CONTINUOUS
10
65.6464
20
-17.5236
11
65.5036
21
-16.8093
0
LINE
8
BLACK
6
CONTINUOUS
10
65.5036
20
-16.8093
11
65.3607
21
-16.3807
0
LINE
8
BLACK
6
CONTINUOUS
10
65.3607
20
-16.3807
11
65.2179
21
-16.095
0
LINE
8
BLACK
6
CONTINUOUS
10
65.2179
20
-16.095
11
64.9321
21
-15.6664
0
LINE
8
BLACK
6
CONTINUOUS
10
64.9321
20
-15.6664
11
64.7893
21
-15.5236
0
LINE
8
BLACK
6
CONTINUOUS
10
-0.223787
20
-21.9142
11
-0.223787
21
-21.1958
0
LINE
8
BLACK
6
CONTINUOUS
10
-0.223787
20
-21.1958
11
-0.942215
21
-21.1958
0
LINE
8
BLACK
6
CONTINUOUS
10
-0.942215
20
-21.1958
11
-0.942215
21
-21.9142
0
LINE
8
BLACK
6
CONTINUOUS
10
-0.942215
20
-21.9142
11
-0.223787
21
-21.9142
0
LINE
8
BLACK
6
CONTINUOUS
10
4.36071
20
-22.9121
11
2.64643
21
-22.9121
0
LINE
8
BLACK
6
CONTINUOUS
10
3.50357
20
-22.9121
11
3.50357
21
-19.9121
0
LINE
8
BLACK
6
CONTINUOUS
10
3.50357
20
-19.9121
11
3.21786
21
-20.3407
0
LINE
8
BLACK
6
CONTINUOUS
10
3.21786
20
-20.3407
11
2.93214
21
-20.6264
0
LINE
8
BLACK
6
CONTINUOUS
10
2.93214
20
-20.6264
11
2.64643
21
-20.7693
0
LINE
8
BLACK
6
CONTINUOUS
10
5.64643
20
-22.6264
11
5.78928
21
-22.7693
0
LINE
8
BLACK
6
CONTINUOUS
10
5.78928
20
-22.7693
11
5.64643
21
-22.9121
0
LINE
8
BLACK
6
CONTINUOUS
10
5.64643
20
-22.9121
11
5.50357
21
-22.7693
0
LINE
8
BLACK
6
CONTINUOUS
10
5.50357
20
-22.7693
11
5.64643
21
-22.6264
0
LINE
8
BLACK
6
CONTINUOUS
10
5.64643
20
-22.6264
11
5.64643
21
-22.9121
0
LINE
8
BLACK
6
CONTINUOUS
10
7.64643
20
-19.9121
11
7.93214
21
-19.9121
0
LINE
8
BLACK
6
CONTINUOUS
10
7.93214
20
-19.9121
11
8.21786
21
-20.055
0
LINE
8
BLACK
6
CONTINUOUS
10
8.21786
20
-20.055
11
8.36071
21
-20.1979
0
LINE
8
BLACK
6
CONTINUOUS
10
8.36071
20
-20.1979
11
8.50357
21
-20.4836
0
LINE
8
BLACK
6
CONTINUOUS
10
8.50357
20
-20.4836
11
8.64643
21
-21.055
0
LINE
8
BLACK
6
CONTINUOUS
10
8.64643
20
-21.055
11
8.64643
21
-21.7693
0
LINE
8
BLACK
6
CONTINUOUS
10
8.64643
20
-21.7693
11
8.50357
21
-22.3407
0
LINE
8
BLACK
6
CONTINUOUS
10
8.50357
20
-22.3407
11
8.36071
21
-22.6264
0
LINE
8
BLACK
6
CONTINUOUS
10
8.36071
20
-22.6264
11
8.21786
21
-22.7693
0
LINE
8
BLACK
6
CONTINUOUS
10
8.21786
20
-22.7693
11
7.93214
21
-22.9121
0
LINE
8
BLACK
6
CONTINUOUS
10
7.93214
20
-22.9121
11
7.64643
21
-22.9121
0
LINE
8
BLACK
6
CONTINUOUS
10
7.64643
20
-22.9121
11
7.36071
21
-22.7693
0
LINE
8
BLACK
6
CONTINUOUS
10
7.36071
20
-22.7693
11
7.21786
21
-22.6264
0
LINE
8
BLACK
6
CONTINUOUS
10
7.21786
20
-22.6264
11
7.075
21
-22.3407
0
LINE
8
BLACK
6
CONTINUOUS
10
7.075
20
-22.3407
11
6.93214
21
-21.7693
0
LINE
8
BLACK
6
CONTINUOUS
10
6.93214
20
-21.7693
11
6.93214
21
-21.055
0
LINE
8
BLACK
6
CONTINUOUS
10
6.93214
20
-21.055
11
7.075
21
-20.4836
0
LINE
8
BLACK
6
CONTINUOUS
10
7.075
20
-20.4836
11
7.21786
21
-20.1979
0
LINE
8
BLACK
6
CONTINUOUS
10
7.21786
20
-20.1979
11
7.36071
21
-20.055
0
LINE
8
BLACK
6
CONTINUOUS
10
7.36071
20
-20.055
11
7.64643
21
-19.9121
0
LINE
8
BLACK
6
CONTINUOUS
10
9.78928
20
-20.1979
11
9.93214
21
-20.055
0
LINE
8
BLACK
6
CONTINUOUS
10
9.93214
20
-20.055
11
10.2179
21
-19.9121
0
LINE
8
BLACK
6
CONTINUOUS
10
10.2179
20
-19.9121
11
10.9321
21
-19.9121
0
LINE
8
BLACK
6
CONTINUOUS
10
10.9321
20
-19.9121
11
11.2179
21
-20.055
0
LINE
8
BLACK
6
CONTINUOUS
10
11.2179
20
-20.055
11
11.3607
21
-20.1979
0
LINE
8
BLACK
6
CONTINUOUS
10
11.3607
20
-20.1979
11
11.5036
21
-20.4836
0
LINE
8
BLACK
6
CONTINUOUS
10
11.5036
20
-20.4836
11
11.5036
21
-20.7693
0
LINE
8
BLACK
6
CONTINUOUS
10
11.5036
20
-20.7693
11
11.3607
21
-21.1979
0
LINE
8
BLACK
6
CONTINUOUS
10
11.3607
20
-21.1979
11
9.64643
21
-22.9121
0
LINE
8
BLACK
6
CONTINUOUS
10
9.64643
20
-22.9121
11
11.5036
21
-22.9121
0
LINE
8
BLACK
6
CONTINUOUS
10
12.7893
20
-22.9121
11
12.7893
21
-20.9121
0
LINE
8
BLACK
6
CONTINUOUS
10
12.7893
20
-21.1979
11
12.9321
21
-21.055
0
LINE
8
BLACK
6
CONTINUOUS
10
12.9321
20
-21.055
11
13.2179
21
-20.9121
0
LINE
8
BLACK
6
CONTINUOUS
10
13.2179
20
-20.9121
11
13.6464
21
-20.9121
0
LINE
8
BLACK
6
CONTINUOUS
10
13.6464
20
-20.9121
11
13.9321
21
-21.055
0
LINE
8
BLACK
6
CONTINUOUS
10
13.9321
20
-21.055
11
14.075
21
-21.3407
0
LINE
8
BLACK
6
CONTINUOUS
10
14.075
20
-21.3407
11
14.075
21
-22.9121
0
LINE
8
BLACK
6
CONTINUOUS
10
14.075
20
-21.3407
11
14.2179
21
-21.055
0
LINE
8
BLACK
6
CONTINUOUS
10
14.2179
20
-21.055
11
14.5036
21
-20.9121
0
LINE
8
BLACK
6
CONTINUOUS
10
14.5036
20
-20.9121
11
14.9321
21
-20.9121
0
LINE
8
BLACK
6
CONTINUOUS
10
14.9321
20
-20.9121
11
15.2179
21
-21.055
0
LINE
8
BLACK
6
CONTINUOUS
10
15.2179
20
-21.055
11
15.3607
21
-21.3407
0
LINE
8
BLACK
6
CONTINUOUS
10
15.3607
20
-21.3407
11
15.3607
21
-22.9121
0
LINE
8
BLACK
6
CONTINUOUS
10
16.7893
20
-22.9121
11
16.7893
21
-20.9121
0
LINE
8
BLACK
6
CONTINUOUS
10
16.7893
20
-21.1979
11
16.9321
21
-21.055
0
LINE
8
BLACK
6
CONTINUOUS
10
16.9321
20
-21.055
11
17.2179
21
-20.9121
0
LINE
8
BLACK
6
CONTINUOUS
10
17.2179
20
-20.9121
11
17.6464
21
-20.9121
0
LINE
8
BLACK
6
CONTINUOUS
10
17.6464
20
-20.9121
11
17.9321
21
-21.055
0
LINE
8
BLACK
6
CONTINUOUS
10
17.9321
20
-21.055
11
18.075
21
-21.3407
0
LINE
8
BLACK
6
CONTINUOUS
10
18.075
20
-21.3407
11
18.075
21
-22.9121
0
LINE
8
BLACK
6
CONTINUOUS
10
18.075
20
-21.3407
11
18.2179
21
-21.055
0
LINE
8
BLACK
6
CONTINUOUS
10
18.2179
20
-21.055
11
18.5036
21
-20.9121
0
LINE
8
BLACK
6
CONTINUOUS
10
18.5036
20
-20.9121
11
18.9321
21
-20.9121
0
LINE
8
BLACK
6
CONTINUOUS
10
18.9321
20
-20.9121
11
19.2179
21
-21.055
0
LINE
8
BLACK
6
CONTINUOUS
10
19.2179
20
-21.055
11
19.3607
21
-21.3407
0
LINE
8
BLACK
6
CONTINUOUS
10
19.3607
20
-21.3407
11
19.3607
21
-22.9121
0
LINE
8
BLACK
6
CONTINUOUS
10
25.2179
20
-19.7693
11
22.6464
21
-23.6264
0
LINE
8
BLACK
6
CONTINUOUS
10
29.075
20
-19.9121
11
29.3607
21
-19.9121
0
LINE
8
BLACK
6
CONTINUOUS
10
29.3607
20
-19.9121
11
29.6464
21
-20.055
0
LINE
8
BLACK
6
CONTINUOUS
10
29.6464
20
-20.055
11
29.7893
21
-20.1979
0
LINE
8
BLACK
6
CONTINUOUS
10
29.7893
20
-20.1979
11
29.9321
21
-20.4836
0
LINE
8
BLACK
6
CONTINUOUS
10
29.9321
20
-20.4836
11
30.075
21
-21.055
0
LINE
8
BLACK
6
CONTINUOUS
10
30.075
20
-21.055
11
30.075
21
-21.7693
0
LINE
8
BLACK
6
CONTINUOUS
10
30.075
20
-21.7693
11
29.9321
21
-22.3407
0
LINE
8
BLACK
6
CONTINUOUS
10
29.9321
20
-22.3407
11
29.7893
21
-22.6264
0
LINE
8
BLACK
6
CONTINUOUS
10
29.7893
20
-22.6264
11
29.6464
21
-22.7693
0
LINE
8
BLACK
6
CONTINUOUS
10
29.6464
20
-22.7693
11
29.3607
21
-22.9121
0
LINE
8
BLACK
6
CONTINUOUS
10
29.3607
20
-22.9121
11
29.075
21
-22.9121
0
LINE
8
BLACK
6
CONTINUOUS
10
29.075
20
-22.9121
11
28.7893
21
-22.7693
0
LINE
8
BLACK
6
CONTINUOUS
10
28.7893
20
-22.7693
11
28.6464
21
-22.6264
0
LINE
8
BLACK
6
CONTINUOUS
10
28.6464
20
-22.6264
11
28.5036
21
-22.3407
0
LINE
8
BLACK
6
CONTINUOUS
10
28.5036
20
-22.3407
11
28.3607
21
-21.7693
0
LINE
8
BLACK
6
CONTINUOUS
10
28.3607
20
-21.7693
11
28.3607
21
-21.055
0
LINE
8
BLACK
6
CONTINUOUS
10
28.3607
20
-21.055
11
28.5036
21
-20.4836
0
LINE
8
BLACK
6
CONTINUOUS
10
28.5036
20
-20.4836
11
28.6464
21
-20.1979
0
LINE
8
BLACK
6
CONTINUOUS
10
28.6464
20
-20.1979
11
28.7893
21
-20.055
0
LINE
8
BLACK
6
CONTINUOUS
10
28.7893
20
-20.055
11
29.075
21
-19.9121
0
LINE
8
BLACK
6
CONTINUOUS
10
31.3607
20
-22.6264
11
31.5036
21
-22.7693
0
LINE
8
BLACK
6
CONTINUOUS
10
31.5036
20
-22.7693
11
31.3607
21
-22.9121
0
LINE
8
BLACK
6
CONTINUOUS
10
31.3607
20
-22.9121
11
31.2179
21
-22.7693
0
LINE
8
BLACK
6
CONTINUOUS
10
31.2179
20
-22.7693
11
31.3607
21
-22.6264
0
LINE
8
BLACK
6
CONTINUOUS
10
31.3607
20
-22.6264
11
31.3607
21
-22.9121
0
LINE
8
BLACK
6
CONTINUOUS
10
33.3607
20
-19.9121
11
33.6464
21
-19.9121
0
LINE
8
BLACK
6
CONTINUOUS
10
33.6464
20
-19.9121
11
33.9321
21
-20.055
0
LINE
8
BLACK
6
CONTINUOUS
10
33.9321
20
-20.055
11
34.075
21
-20.1979
0
LINE
8
BLACK
6
CONTINUOUS
10
34.075
20
-20.1979
11
34.2179
21
-20.4836
0
LINE
8
BLACK
6
CONTINUOUS
10
34.2179
20
-20.4836
11
34.3607
21
-21.055
0
LINE
8
BLACK
6
CONTINUOUS
10
34.3607
20
-21.055
11
34.3607
21
-21.7693
0
LINE
8
BLACK
6
CONTINUOUS
10
34.3607
20
-21.7693
11
34.2179
21
-22.3407
0
LINE
8
BLACK
6
CONTINUOUS
10
34.2179
20
-22.3407
11
34.075
21
-22.6264
0
LINE
8
BLACK
6
CONTINUOUS
10
34.075
20
-22.6264
11
33.9321
21
-22.7693
0
LINE
8
BLACK
6
CONTINUOUS
10
33.9321
20
-22.7693
11
33.6464
21
-22.9121
0
LINE
8
BLACK
6
CONTINUOUS
10
33.6464
20
-22.9121
11
33.3607
21
-22.9121
0
LINE
8
BLACK
6
CONTINUOUS
10
33.3607
20
-22.9121
11
33.075
21
-22.7693
0
LINE
8
BLACK
6
CONTINUOUS
10
33.075
20
-22.7693
11
32.9321
21
-22.6264
0
LINE
8
BLACK
6
CONTINUOUS
10
32.9321
20
-22.6264
11
32.7893
21
-22.3407
0
LINE
8
BLACK
6
CONTINUOUS
10
32.7893
20
-22.3407
11
32.6464
21
-21.7693
0
LINE
8
BLACK
6
CONTINUOUS
10
32.6464
20
-21.7693
11
32.6464
21
-21.055
0
LINE
8
BLACK
6
CONTINUOUS
10
32.6464
20
-21.055
11
32.7893
21
-20.4836
0
LINE
8
BLACK
6
CONTINUOUS
10
32.7893
20
-20.4836
11
32.9321
21
-20.1979
0
LINE
8
BLACK
6
CONTINUOUS
10
32.9321
20
-20.1979
11
33.075
21
-20.055
0
LINE
8
BLACK
6
CONTINUOUS
10
33.075
20
-20.055
11
33.3607
21
-19.9121
0
LINE
8
BLACK
6
CONTINUOUS
10
36.9321
20
-20.9121
11
36.9321
21
-22.9121
0
LINE
8
BLACK
6
CONTINUOUS
10
36.2179
20
-19.7693
11
35.5036
21
-21.9121
0
LINE
8
BLACK
6
CONTINUOUS
10
35.5036
20
-21.9121
11
37.3607
21
-21.9121
0
LINE
8
BLACK
6
CONTINUOUS
10
39.075
20
-19.9121
11
39.3607
21
-19.9121
0
LINE
8
BLACK
6
CONTINUOUS
10
39.3607
20
-19.9121
11
39.6464
21
-20.055
0
LINE
8
BLACK
6
CONTINUOUS
10
39.6464
20
-20.055
11
39.7893
21
-20.1979
0
LINE
8
BLACK
6
CONTINUOUS
10
39.7893
20
-20.1979
11
39.9321
21
-20.4836
0
LINE
8
BLACK
6
CONTINUOUS
10
39.9321
20
-20.4836
11
40.075
21
-21.055
0
LINE
8
BLACK
6
CONTINUOUS
10
40.075
20
-21.055
11
40.075
21
-21.7693
0
LINE
8
BLACK
6
CONTINUOUS
10
40.075
20
-21.7693
11
39.9321
21
-22.3407
0
LINE
8
BLACK
6
CONTINUOUS
10
39.9321
20
-22.3407
11
39.7893
21
-22.6264
0
LINE
8
BLACK
6
CONTINUOUS
10
39.7893
20
-22.6264
11
39.6464
21
-22.7693
0
LINE
8
BLACK
6
CONTINUOUS
10
39.6464
20
-22.7693
11
39.3607
21
-22.9121
0
LINE
8
BLACK
6
CONTINUOUS
10
39.3607
20
-22.9121
11
39.075
21
-22.9121
0
LINE
8
BLACK
6
CONTINUOUS
10
39.075
20
-22.9121
11
38.7893
21
-22.7693
0
LINE
8
BLACK
6
CONTINUOUS
10
38.7893
20
-22.7693
11
38.6464
21
-22.6264
0
LINE
8
BLACK
6
CONTINUOUS
10
38.6464
20
-22.6264
11
38.5036
21
-22.3407
0
LINE
8
BLACK
6
CONTINUOUS
10
38.5036
20
-22.3407
11
38.3607
21
-21.7693
0
LINE
8
BLACK
6
CONTINUOUS
10
38.3607
20
-21.7693
11
38.3607
21
-21.055
0
LINE
8
BLACK
6
CONTINUOUS
10
38.3607
20
-21.055
11
38.5036
21
-20.4836
0
LINE
8
BLACK
6
CONTINUOUS
10
38.5036
20
-20.4836
11
38.6464
21
-20.1979
0
LINE
8
BLACK
6
CONTINUOUS
10
38.6464
20
-20.1979
11
38.7893
21
-20.055
0
LINE
8
BLACK
6
CONTINUOUS
10
38.7893
20
-20.055
11
39.075
21
-19.9121
0
LINE
8
BLACK
6
CONTINUOUS
10
41.2179
20
-19.9121
11
41.2179
21
-20.4836
0
LINE
8
BLACK
6
CONTINUOUS
10
42.3607
20
-19.9121
11
42.3607
21
-20.4836
0
LINE
8
BLACK
6
CONTINUOUS
10
46.7893
20
-24.055
11
46.6464
21
-23.9121
0
LINE
8
BLACK
6
CONTINUOUS
10
46.6464
20
-23.9121
11
46.3607
21
-23.4836
0
LINE
8
BLACK
6
CONTINUOUS
10
46.3607
20
-23.4836
11
46.2179
21
-23.1979
0
LINE
8
BLACK
6
CONTINUOUS
10
46.2179
20
-23.1979
11
46.075
21
-22.7693
0
LINE
8
BLACK
6
CONTINUOUS
10
46.075
20
-22.7693
11
45.9321
21
-22.055
0
LINE
8
BLACK
6
CONTINUOUS
10
45.9321
20
-22.055
11
45.9321
21
-21.4836
0
LINE
8
BLACK
6
CONTINUOUS
10
45.9321
20
-21.4836
11
46.075
21
-20.7693
0
LINE
8
BLACK
6
CONTINUOUS
10
46.075
20
-20.7693
11
46.2179
21
-20.3407
0
LINE
8
BLACK
6
CONTINUOUS
10
46.2179
20
-20.3407
11
46.3607
21
-20.055
0
LINE
8
BLACK
6
CONTINUOUS
10
46.3607
20
-20.055
11
46.6464
21
-19.6264
0
LINE
8
BLACK
6
CONTINUOUS
10
46.6464
20
-19.6264
11
46.7893
21
-19.4836
0
LINE
8
BLACK
6
CONTINUOUS
10
49.5036
20
-22.9121
11
47.7893
21
-22.9121
0
LINE
8
BLACK
6
CONTINUOUS
10
48.6464
20
-22.9121
11
48.6464
21
-19.9121
0
LINE
8
BLACK
6
CONTINUOUS
10
48.6464
20
-19.9121
11
48.3607
21
-20.3407
0
LINE
8
BLACK
6
CONTINUOUS
10
48.3607
20
-20.3407
11
48.075
21
-20.6264
0
LINE
8
BLACK
6
CONTINUOUS
10
48.075
20
-20.6264
11
47.7893
21
-20.7693
0
LINE
8
BLACK
6
CONTINUOUS
10
50.6464
20
-20.1979
11
50.7893
21
-20.055
0
LINE
8
BLACK
6
CONTINUOUS
10
50.7893
20
-20.055
11
51.075
21
-19.9121
0
LINE
8
BLACK
6
CONTINUOUS
10
51.075
20
-19.9121
11
51.7893
21
-19.9121
0
LINE
8
BLACK
6
CONTINUOUS
10
51.7893
20
-19.9121
11
52.075
21
-20.055
0
LINE
8
BLACK
6
CONTINUOUS
10
52.075
20
-20.055
11
52.2179
21
-20.1979
0
LINE
8
BLACK
6
CONTINUOUS
10
52.2179
20
-20.1979
11
52.3607
21
-20.4836
0
LINE
8
BLACK
6
CONTINUOUS
10
52.3607
20
-20.4836
11
52.3607
21
-20.7693
0
LINE
8
BLACK
6
CONTINUOUS
10
52.3607
20
-20.7693
11
52.2179
21
-21.1979
0
LINE
8
BLACK
6
CONTINUOUS
10
52.2179
20
-21.1979
11
50.5036
21
-22.9121
0
LINE
8
BLACK
6
CONTINUOUS
10
50.5036
20
-22.9121
11
52.3607
21
-22.9121
0
LINE
8
BLACK
6
CONTINUOUS
10
55.9321
20
-22.9121
11
55.9321
21
-19.9121
0
LINE
8
BLACK
6
CONTINUOUS
10
57.2179
20
-22.9121
11
57.2179
21
-21.3407
0
LINE
8
BLACK
6
CONTINUOUS
10
57.2179
20
-21.3407
11
57.075
21
-21.055
0
LINE
8
BLACK
6
CONTINUOUS
10
57.075
20
-21.055
11
56.7893
21
-20.9121
0
LINE
8
BLACK
6
CONTINUOUS
10
56.7893
20
-20.9121
11
56.3607
21
-20.9121
0
LINE
8
BLACK
6
CONTINUOUS
10
56.3607
20
-20.9121
11
56.075
21
-21.055
0
LINE
8
BLACK
6
CONTINUOUS
10
56.075
20
-21.055
11
55.9321
21
-21.1979
0
LINE
8
BLACK
6
CONTINUOUS
10
59.075
20
-22.9121
11
58.7893
21
-22.7693
0
LINE
8
BLACK
6
CONTINUOUS
10
58.7893
20
-22.7693
11
58.6464
21
-22.6264
0
LINE
8
BLACK
6
CONTINUOUS
10
58.6464
20
-22.6264
11
58.5036
21
-22.3407
0
LINE
8
BLACK
6
CONTINUOUS
10
58.5036
20
-22.3407
11
58.5036
21
-21.4836
0
LINE
8
BLACK
6
CONTINUOUS
10
58.5036
20
-21.4836
11
58.6464
21
-21.1979
0
LINE
8
BLACK
6
CONTINUOUS
10
58.6464
20
-21.1979
11
58.7893
21
-21.055
0
LINE
8
BLACK
6
CONTINUOUS
10
58.7893
20
-21.055
11
59.075
21
-20.9121
0
LINE
8
BLACK
6
CONTINUOUS
10
59.075
20
-20.9121
11
59.5036
21
-20.9121
0
LINE
8
BLACK
6
CONTINUOUS
10
59.5036
20
-20.9121
11
59.7893
21
-21.055
0
LINE
8
BLACK
6
CONTINUOUS
10
59.7893
20
-21.055
11
59.9321
21
-21.1979
0
LINE
8
BLACK
6
CONTINUOUS
10
59.9321
20
-21.1979
11
60.075
21
-21.4836
0
LINE
8
BLACK
6
CONTINUOUS
10
60.075
20
-21.4836
11
60.075
21
-22.3407
0
LINE
8
BLACK
6
CONTINUOUS
10
60.075
20
-22.3407
11
59.9321
21
-22.6264
0
LINE
8
BLACK
6
CONTINUOUS
10
59.9321
20
-22.6264
11
59.7893
21
-22.7693
0
LINE
8
BLACK
6
CONTINUOUS
10
59.7893
20
-22.7693
11
59.5036
21
-22.9121
0
LINE
8
BLACK
6
CONTINUOUS
10
59.5036
20
-22.9121
11
59.075
21
-22.9121
0
LINE
8
BLACK
6
CONTINUOUS
10
61.7893
20
-22.9121
11
61.5036
21
-22.7693
0
LINE
8
BLACK
6
CONTINUOUS
10
61.5036
20
-22.7693
11
61.3607
21
-22.4836
0
LINE
8
BLACK
6
CONTINUOUS
10
61.3607
20
-22.4836
11
61.3607
21
-19.9121
0
LINE
8
BLACK
6
CONTINUOUS
10
64.075
20
-22.7693
11
63.7893
21
-22.9121
0
LINE
8
BLACK
6
CONTINUOUS
10
63.7893
20
-22.9121
11
63.2179
21
-22.9121
0
LINE
8
BLACK
6
CONTINUOUS
10
63.2179
20
-22.9121
11
62.9321
21
-22.7693
0
LINE
8
BLACK
6
CONTINUOUS
10
62.9321
20
-22.7693
11
62.7893
21
-22.4836
0
LINE
8
BLACK
6
CONTINUOUS
10
62.7893
20
-22.4836
11
62.7893
21
-21.3407
0
LINE
8
BLACK
6
CONTINUOUS
10
62.7893
20
-21.3407
11
62.9321
21
-21.055
0
LINE
8
BLACK
6
CONTINUOUS
10
62.9321
20
-21.055
11
63.2179
21
-20.9121
0
LINE
8
BLACK
6
CONTINUOUS
10
63.2179
20
-20.9121
11
63.7893
21
-20.9121
0
LINE
8
BLACK
6
CONTINUOUS
10
63.7893
20
-20.9121
11
64.075
21
-21.055
0
LINE
8
BLACK
6
CONTINUOUS
10
64.075
20
-21.055
11
64.2179
21
-21.3407
0
LINE
8
BLACK
6
CONTINUOUS
10
64.2179
20
-21.3407
11
64.2179
21
-21.6264
0
LINE
8
BLACK
6
CONTINUOUS
10
64.2179
20
-21.6264
11
62.7893
21
-21.9121
0
LINE
8
BLACK
6
CONTINUOUS
10
65.3607
20
-22.7693
11
65.6464
21
-22.9121
0
LINE
8
BLACK
6
CONTINUOUS
10
65.6464
20
-22.9121
11
66.2179
21
-22.9121
0
LINE
8
BLACK
6
CONTINUOUS
10
66.2179
20
-22.9121
11
66.5036
21
-22.7693
0
LINE
8
BLACK
6
CONTINUOUS
10
66.5036
20
-22.7693
11
66.6464
21
-22.4836
0
LINE
8
BLACK
6
CONTINUOUS
10
66.6464
20
-22.4836
11
66.6464
21
-22.3407
0
LINE
8
BLACK
6
CONTINUOUS
10
66.6464
20
-22.3407
11
66.5036
21
-22.055
0
LINE
8
BLACK
6
CONTINUOUS
10
66.5036
20
-22.055
11
66.2179
21
-21.9121
0
LINE
8
BLACK
6
CONTINUOUS
10
66.2179
20
-21.9121
11
65.7893
21
-21.9121
0
LINE
8
BLACK
6
CONTINUOUS
10
65.7893
20
-21.9121
11
65.5036
21
-21.7693
0
LINE
8
BLACK
6
CONTINUOUS
10
65.5036
20
-21.7693
11
65.3607
21
-21.4836
0
LINE
8
BLACK
6
CONTINUOUS
10
65.3607
20
-21.4836
11
65.3607
21
-21.3407
0
LINE
8
BLACK
6
CONTINUOUS
10
65.3607
20
-21.3407
11
65.5036
21
-21.055
0
LINE
8
BLACK
6
CONTINUOUS
10
65.5036
20
-21.055
11
65.7893
21
-20.9121
0
LINE
8
BLACK
6
CONTINUOUS
10
65.7893
20
-20.9121
11
66.2179
21
-20.9121
0
LINE
8
BLACK
6
CONTINUOUS
10
66.2179
20
-20.9121
11
66.5036
21
-21.055
0
LINE
8
BLACK
6
CONTINUOUS
10
67.6464
20
-24.055
11
67.7893
21
-23.9121
0
LINE
8
BLACK
6
CONTINUOUS
10
67.7893
20
-23.9121
11
68.075
21
-23.4836
0
LINE
8
BLACK
6
CONTINUOUS
10
68.075
20
-23.4836
11
68.2179
21
-23.1979
0
LINE
8
BLACK
6
CONTINUOUS
10
68.2179
20
-23.1979
11
68.3607
21
-22.7693
0
LINE
8
BLACK
6
CONTINUOUS
10
68.3607
20
-22.7693
11
68.5036
21
-22.055
0
LINE
8
BLACK
6
CONTINUOUS
10
68.5036
20
-22.055
11
68.5036
21
-21.4836
0
LINE
8
BLACK
6
CONTINUOUS
10
68.5036
20
-21.4836
11
68.3607
21
-20.7693
0
LINE
8
BLACK
6
CONTINUOUS
10
68.3607
20
-20.7693
11
68.2179
21
-20.3407
0
LINE
8
BLACK
6
CONTINUOUS
10
68.2179
20
-20.3407
11
68.075
21
-20.055
0
LINE
8
BLACK
6
CONTINUOUS
10
68.075
20
-20.055
11
67.7893
21
-19.6264
0
LINE
8
BLACK
6
CONTINUOUS
10
67.7893
20
-19.6264
11
67.6464
21
-19.4836
0
LINE
8
BLACK
6
CONTINUOUS
10
-0.925001
20
-26.365
11
-0.075001
21
-25.515
0
LINE
8
BLACK
6
CONTINUOUS
10
-0.075001
20
-25.515
11
-0.925001
21
-24.665
0
LINE
8
BLACK
6
CONTINUOUS
10
-0.925001
20
-24.665
11
-1.775
21
-25.515
0
LINE
8
BLACK
6
CONTINUOUS
10
-1.775
20
-25.515
11
-0.925001
21
-26.365
0
LINE
8
BLACK
6
CONTINUOUS
10
4.36071
20
-26.8721
11
2.64643
21
-26.8721
0
LINE
8
BLACK
6
CONTINUOUS
10
3.50357
20
-26.8721
11
3.50357
21
-23.8721
0
LINE
8
BLACK
6
CONTINUOUS
10
3.50357
20
-23.8721
11
3.21786
21
-24.3007
0
LINE
8
BLACK
6
CONTINUOUS
10
3.21786
20
-24.3007
11
2.93214
21
-24.5864
0
LINE
8
BLACK
6
CONTINUOUS
10
2.93214
20
-24.5864
11
2.64643
21
-24.7293
0
LINE
8
BLACK
6
CONTINUOUS
10
5.64643
20
-26.5864
11
5.78928
21
-26.7293
0
LINE
8
BLACK
6
CONTINUOUS
10
5.78928
20
-26.7293
11
5.64643
21
-26.8721
0
LINE
8
BLACK
6
CONTINUOUS
10
5.64643
20
-26.8721
11
5.50357
21
-26.7293
0
LINE
8
BLACK
6
CONTINUOUS
10
5.50357
20
-26.7293
11
5.64643
21
-26.5864
0
LINE
8
BLACK
6
CONTINUOUS
10
5.64643
20
-26.5864
11
5.64643
21
-26.8721
0
LINE
8
BLACK
6
CONTINUOUS
10
6.78928
20
-23.8721
11
8.78928
21
-23.8721
0
LINE
8
BLACK
6
CONTINUOUS
10
8.78928
20
-23.8721
11
7.50357
21
-26.8721
0
LINE
8
BLACK
6
CONTINUOUS
10
10.5036
20
-23.8721
11
10.7893
21
-23.8721
0
LINE
8
BLACK
6
CONTINUOUS
10
10.7893
20
-23.8721
11
11.075
21
-24.015
0
LINE
8
BLACK
6
CONTINUOUS
10
11.075
20
-24.015
11
11.2179
21
-24.1579
0
LINE
8
BLACK
6
CONTINUOUS
10
11.2179
20
-24.1579
11
11.3607
21
-24.4436
0
LINE
8
BLACK
6
CONTINUOUS
10
11.3607
20
-24.4436
11
11.5036
21
-25.015
0
LINE
8
BLACK
6
CONTINUOUS
10
11.5036
20
-25.015
11
11.5036
21
-25.7293
0
LINE
8
BLACK
6
CONTINUOUS
10
11.5036
20
-25.7293
11
11.3607
21
-26.3007
0
LINE
8
BLACK
6
CONTINUOUS
10
11.3607
20
-26.3007
11
11.2179
21
-26.5864
0
LINE
8
BLACK
6
CONTINUOUS
10
11.2179
20
-26.5864
11
11.075
21
-26.7293
0
LINE
8
BLACK
6
CONTINUOUS
10
11.075
20
-26.7293
11
10.7893
21
-26.8721
0
LINE
8
BLACK
6
CONTINUOUS
10
10.7893
20
-26.8721
11
10.5036
21
-26.8721
0
LINE
8
BLACK
6
CONTINUOUS
10
10.5036
20
-26.8721
11
10.2179
21
-26.7293
0
LINE
8
BLACK
6
CONTINUOUS
10
10.2179
20
-26.7293
11
10.075
21
-26.5864
0
LINE
8
BLACK
6
CONTINUOUS
10
10.075
20
-26.5864
11
9.93214
21
-26.3007
0
LINE
8
BLACK
6
CONTINUOUS
10
9.93214
20
-26.3007
11
9.78928
21
-25.7293
0
LINE
8
BLACK
6
CONTINUOUS
10
9.78928
20
-25.7293
11
9.78928
21
-25.015
0
LINE
8
BLACK
6
CONTINUOUS
10
9.78928
20
-25.015
11
9.93214
21
-24.4436
0
LINE
8
BLACK
6
CONTINUOUS
10
9.93214
20
-24.4436
11
10.075
21
-24.1579
0
LINE
8
BLACK
6
CONTINUOUS
10
10.075
20
-24.1579
11
10.2179
21
-24.015
0
LINE
8
BLACK
6
CONTINUOUS
10
10.2179
20
-24.015
11
10.5036
21
-23.8721
0
LINE
8
BLACK
6
CONTINUOUS
10
12.7893
20
-26.8721
11
12.7893
21
-24.8721
0
LINE
8
BLACK
6
CONTINUOUS
10
12.7893
20
-25.1579
11
12.9321
21
-25.015
0
LINE
8
BLACK
6
CONTINUOUS
10
12.9321
20
-25.015
11
13.2179
21
-24.8721
0
LINE
8
BLACK
6
CONTINUOUS
10
13.2179
20
-24.8721
11
13.6464
21
-24.8721
0
LINE
8
BLACK
6
CONTINUOUS
10
13.6464
20
-24.8721
11
13.9321
21
-25.015
0
LINE
8
BLACK
6
CONTINUOUS
10
13.9321
20
-25.015
11
14.075
21
-25.3007
0
LINE
8
BLACK
6
CONTINUOUS
10
14.075
20
-25.3007
11
14.075
21
-26.8721
0
LINE
8
BLACK
6
CONTINUOUS
10
14.075
20
-25.3007
11
14.2179
21
-25.015
0
LINE
8
BLACK
6
CONTINUOUS
10
14.2179
20
-25.015
11
14.5036
21
-24.8721
0
LINE
8
BLACK
6
CONTINUOUS
10
14.5036
20
-24.8721
11
14.9321
21
-24.8721
0
LINE
8
BLACK
6
CONTINUOUS
10
14.9321
20
-24.8721
11
15.2179
21
-25.015
0
LINE
8
BLACK
6
CONTINUOUS
10
15.2179
20
-25.015
11
15.3607
21
-25.3007
0
LINE
8
BLACK
6
CONTINUOUS
10
15.3607
20
-25.3007
11
15.3607
21
-26.8721
0
LINE
8
BLACK
6
CONTINUOUS
10
16.7893
20
-26.8721
11
16.7893
21
-24.8721
0
LINE
8
BLACK
6
CONTINUOUS
10
16.7893
20
-25.1579
11
16.9321
21
-25.015
0
LINE
8
BLACK
6
CONTINUOUS
10
16.9321
20
-25.015
11
17.2179
21
-24.8721
0
LINE
8
BLACK
6
CONTINUOUS
10
17.2179
20
-24.8721
11
17.6464
21
-24.8721
0
LINE
8
BLACK
6
CONTINUOUS
10
17.6464
20
-24.8721
11
17.9321
21
-25.015
0
LINE
8
BLACK
6
CONTINUOUS
10
17.9321
20
-25.015
11
18.075
21
-25.3007
0
LINE
8
BLACK
6
CONTINUOUS
10
18.075
20
-25.3007
11
18.075
21
-26.8721
0
LINE
8
BLACK
6
CONTINUOUS
10
18.075
20
-25.3007
11
18.2179
21
-25.015
0
LINE
8
BLACK
6
CONTINUOUS
10
18.2179
20
-25.015
11
18.5036
21
-24.8721
0
LINE
8
BLACK
6
CONTINUOUS
10
18.5036
20
-24.8721
11
18.9321
21
-24.8721
0
LINE
8
BLACK
6
CONTINUOUS
10
18.9321
20
-24.8721
11
19.2179
21
-25.015
0
LINE
8
BLACK
6
CONTINUOUS
10
19.2179
20
-25.015
11
19.3607
21
-25.3007
0
LINE
8
BLACK
6
CONTINUOUS
10
19.3607
20
-25.3007
11
19.3607
21
-26.8721
0
LINE
8
BLACK
6
CONTINUOUS
10
25.2179
20
-23.7293
11
22.6464
21
-27.5864
0
LINE
8
BLACK
6
CONTINUOUS
10
29.075
20
-23.8721
11
29.3607
21
-23.8721
0
LINE
8
BLACK
6
CONTINUOUS
10
29.3607
20
-23.8721
11
29.6464
21
-24.015
0
LINE
8
BLACK
6
CONTINUOUS
10
29.6464
20
-24.015
11
29.7893
21
-24.1579
0
LINE
8
BLACK
6
CONTINUOUS
10
29.7893
20
-24.1579
11
29.9321
21
-24.4436
0
LINE
8
BLACK
6
CONTINUOUS
10
29.9321
20
-24.4436
11
30.075
21
-25.015
0
LINE
8
BLACK
6
CONTINUOUS
10
30.075
20
-25.015
11
30.075
21
-25.7293
0
LINE
8
BLACK
6
CONTINUOUS
10
30.075
20
-25.7293
11
29.9321
21
-26.3007
0
LINE
8
BLACK
6
CONTINUOUS
10
29.9321
20
-26.3007
11
29.7893
21
-26.5864
0
LINE
8
BLACK
6
CONTINUOUS
10
29.7893
20
-26.5864
11
29.6464
21
-26.7293
0
LINE
8
BLACK
6
CONTINUOUS
10
29.6464
20
-26.7293
11
29.3607
21
-26.8721
0
LINE
8
BLACK
6
CONTINUOUS
10
29.3607
20
-26.8721
11
29.075
21
-26.8721
0
LINE
8
BLACK
6
CONTINUOUS
10
29.075
20
-26.8721
11
28.7893
21
-26.7293
0
LINE
8
BLACK
6
CONTINUOUS
10
28.7893
20
-26.7293
11
28.6464
21
-26.5864
0
LINE
8
BLACK
6
CONTINUOUS
10
28.6464
20
-26.5864
11
28.5036
21
-26.3007
0
LINE
8
BLACK
6
CONTINUOUS
10
28.5036
20
-26.3007
11
28.3607
21
-25.7293
0
LINE
8
BLACK
6
CONTINUOUS
10
28.3607
20
-25.7293
11
28.3607
21
-25.015
0
LINE
8
BLACK
6
CONTINUOUS
10
28.3607
20
-25.015
11
28.5036
21
-24.4436
0
LINE
8
BLACK
6
CONTINUOUS
10
28.5036
20
-24.4436
11
28.6464
21
-24.1579
0
LINE
8
BLACK
6
CONTINUOUS
10
28.6464
20
-24.1579
11
28.7893
21
-24.015
0
LINE
8
BLACK
6
CONTINUOUS
10
28.7893
20
-24.015
11
29.075
21
-23.8721
0
LINE
8
BLACK
6
CONTINUOUS
10
31.3607
20
-26.5864
11
31.5036
21
-26.7293
0
LINE
8
BLACK
6
CONTINUOUS
10
31.5036
20
-26.7293
11
31.3607
21
-26.8721
0
LINE
8
BLACK
6
CONTINUOUS
10
31.3607
20
-26.8721
11
31.2179
21
-26.7293
0
LINE
8
BLACK
6
CONTINUOUS
10
31.2179
20
-26.7293
11
31.3607
21
-26.5864
0
LINE
8
BLACK
6
CONTINUOUS
10
31.3607
20
-26.5864
11
31.3607
21
-26.8721
0
LINE
8
BLACK
6
CONTINUOUS
10
33.3607
20
-23.8721
11
33.6464
21
-23.8721
0
LINE
8
BLACK
6
CONTINUOUS
10
33.6464
20
-23.8721
11
33.9321
21
-24.015
0
LINE
8
BLACK
6
CONTINUOUS
10
33.9321
20
-24.015
11
34.075
21
-24.1579
0
LINE
8
BLACK
6
CONTINUOUS
10
34.075
20
-24.1579
11
34.2179
21
-24.4436
0
LINE
8
BLACK
6
CONTINUOUS
10
34.2179
20
-24.4436
11
34.3607
21
-25.015
0
LINE
8
BLACK
6
CONTINUOUS
10
34.3607
20
-25.015
11
34.3607
21
-25.7293
0
LINE
8
BLACK
6
CONTINUOUS
10
34.3607
20
-25.7293
11
34.2179
21
-26.3007
0
LINE
8
BLACK
6
CONTINUOUS
10
34.2179
20
-26.3007
11
34.075
21
-26.5864
0
LINE
8
BLACK
6
CONTINUOUS
10
34.075
20
-26.5864
11
33.9321
21
-26.7293
0
LINE
8
BLACK
6
CONTINUOUS
10
33.9321
20
-26.7293
11
33.6464
21
-26.8721
0
LINE
8
BLACK
6
CONTINUOUS
10
33.6464
20
-26.8721
11
33.3607
21
-26.8721
0
LINE
8
BLACK
6
CONTINUOUS
10
33.3607
20
-26.8721
11
33.075
21
-26.7293
0
LINE
8
BLACK
6
CONTINUOUS
10
33.075
20
-26.7293
11
32.9321
21
-26.5864
0
LINE
8
BLACK
6
CONTINUOUS
10
32.9321
20
-26.5864
11
32.7893
21
-26.3007
0
LINE
8
BLACK
6
CONTINUOUS
10
32.7893
20
-26.3007
11
32.6464
21
-25.7293
0
LINE
8
BLACK
6
CONTINUOUS
10
32.6464
20
-25.7293
11
32.6464
21
-25.015
0
LINE
8
BLACK
6
CONTINUOUS
10
32.6464
20
-25.015
11
32.7893
21
-24.4436
0
LINE
8
BLACK
6
CONTINUOUS
10
32.7893
20
-24.4436
11
32.9321
21
-24.1579
0
LINE
8
BLACK
6
CONTINUOUS
10
32.9321
20
-24.1579
11
33.075
21
-24.015
0
LINE
8
BLACK
6
CONTINUOUS
10
33.075
20
-24.015
11
33.3607
21
-23.8721
0
LINE
8
BLACK
6
CONTINUOUS
10
36.9321
20
-23.8721
11
36.3607
21
-23.8721
0
LINE
8
BLACK
6
CONTINUOUS
10
36.3607
20
-23.8721
11
36.075
21
-24.015
0
LINE
8
BLACK
6
CONTINUOUS
10
36.075
20
-24.015
11
35.9321
21
-24.1579
0
LINE
8
BLACK
6
CONTINUOUS
10
35.9321
20
-24.1579
11
35.6464
21
-24.5864
0
LINE
8
BLACK
6
CONTINUOUS
10
35.6464
20
-24.5864
11
35.5036
21
-25.1579
0
LINE
8
BLACK
6
CONTINUOUS
10
35.5036
20
-25.1579
11
35.5036
21
-26.3007
0
LINE
8
BLACK
6
CONTINUOUS
10
35.5036
20
-26.3007
11
35.6464
21
-26.5864
0
LINE
8
BLACK
6
CONTINUOUS
10
35.6464
20
-26.5864
11
35.7893
21
-26.7293
0
LINE
8
BLACK
6
CONTINUOUS
10
35.7893
20
-26.7293
11
36.075
21
-26.8721
0
LINE
8
BLACK
6
CONTINUOUS
10
36.075
20
-26.8721
11
36.6464
21
-26.8721
0
LINE
8
BLACK
6
CONTINUOUS
10
36.6464
20
-26.8721
11
36.9321
21
-26.7293
0
LINE
8
BLACK
6
CONTINUOUS
10
36.9321
20
-26.7293
11
37.075
21
-26.5864
0
LINE
8
BLACK
6
CONTINUOUS
10
37.075
20
-26.5864
11
37.2179
21
-26.3007
0
LINE
8
BLACK
6
CONTINUOUS
10
37.2179
20
-26.3007
11
37.2179
21
-25.5864
0
LINE
8
BLACK
6
CONTINUOUS
10
37.2179
20
-25.5864
11
37.075
21
-25.3007
0
LINE
8
BLACK
6
CONTINUOUS
10
37.075
20
-25.3007
11
36.9321
21
-25.1579
0
LINE
8
BLACK
6
CONTINUOUS
10
36.9321
20
-25.1579
11
36.6464
21
-25.015
0
LINE
8
BLACK
6
CONTINUOUS
10
36.6464
20
-25.015
11
36.075
21
-25.015
0
LINE
8
BLACK
6
CONTINUOUS
10
36.075
20
-25.015
11
35.7893
21
-25.1579
0
LINE
8
BLACK
6
CONTINUOUS
10
35.7893
20
-25.1579
11
35.6464
21
-25.3007
0
LINE
8
BLACK
6
CONTINUOUS
10
35.6464
20
-25.3007
11
35.5036
21
-25.5864
0
LINE
8
BLACK
6
CONTINUOUS
10
38.2179
20
-23.8721
11
40.2179
21
-23.8721
0
LINE
8
BLACK
6
CONTINUOUS
10
40.2179
20
-23.8721
11
38.9321
21
-26.8721
0
LINE
8
BLACK
6
CONTINUOUS
10
41.2179
20
-23.8721
11
41.2179
21
-24.4436
0
LINE
8
BLACK
6
CONTINUOUS
10
42.3607
20
-23.8721
11
42.3607
21
-24.4436
0
LINE
8
BLACK
6
CONTINUOUS
10
46.7893
20
-28.015
11
46.6464
21
-27.8721
0
LINE
8
BLACK
6
CONTINUOUS
10
46.6464
20
-27.8721
11
46.3607
21
-27.4436
0
LINE
8
BLACK
6
CONTINUOUS
10
46.3607
20
-27.4436
11
46.2179
21
-27.1579
0
LINE
8
BLACK
6
CONTINUOUS
10
46.2179
20
-27.1579
11
46.075
21
-26.7293
0
LINE
8
BLACK
6
CONTINUOUS
10
46.075
20
-26.7293
11
45.9321
21
-26.015
0
LINE
8
BLACK
6
CONTINUOUS
10
45.9321
20
-26.015
11
45.9321
21
-25.4436
0
LINE
8
BLACK
6
CONTINUOUS
10
45.9321
20
-25.4436
11
46.075
21
-24.7293
0
LINE
8
BLACK
6
CONTINUOUS
10
46.075
20
-24.7293
11
46.2179
21
-24.3007
0
LINE
8
BLACK
6
CONTINUOUS
10
46.2179
20
-24.3007
11
46.3607
21
-24.015
0
LINE
8
BLACK
6
CONTINUOUS
10
46.3607
20
-24.015
11
46.6464
21
-23.5864
0
LINE
8
BLACK
6
CONTINUOUS
10
46.6464
20
-23.5864
11
46.7893
21
-23.4436
0
LINE
8
BLACK
6
CONTINUOUS
10
48.5036
20
-23.8721
11
48.7893
21
-23.8721
0
LINE
8
BLACK
6
CONTINUOUS
10
48.7893
20
-23.8721
11
49.075
21
-24.015
0
LINE
8
BLACK
6
CONTINUOUS
10
49.075
20
-24.015
11
49.2179
21
-24.1579
0
LINE
8
BLACK
6
CONTINUOUS
10
49.2179
20
-24.1579
11
49.3607
21
-24.4436
0
LINE
8
BLACK
6
CONTINUOUS
10
49.3607
20
-24.4436
11
49.5036
21
-25.015
0
LINE
8
BLACK
6
CONTINUOUS
10
49.5036
20
-25.015
11
49.5036
21
-25.7293
0
LINE
8
BLACK
6
CONTINUOUS
10
49.5036
20
-25.7293
11
49.3607
21
-26.3007
0
LINE
8
BLACK
6
CONTINUOUS
10
49.3607
20
-26.3007
11
49.2179
21
-26.5864
0
LINE
8
BLACK
6
CONTINUOUS
10
49.2179
20
-26.5864
11
49.075
21
-26.7293
0
LINE
8
BLACK
6
CONTINUOUS
10
49.075
20
-26.7293
11
48.7893
21
-26.8721
0
LINE
8
BLACK
6
CONTINUOUS
10
48.7893
20
-26.8721
11
48.5036
21
-26.8721
0
LINE
8
BLACK
6
CONTINUOUS
10
48.5036
20
-26.8721
11
48.2179
21
-26.7293
0
LINE
8
BLACK
6
CONTINUOUS
10
48.2179
20
-26.7293
11
48.075
21
-26.5864
0
LINE
8
BLACK
6
CONTINUOUS
10
48.075
20
-26.5864
11
47.9321
21
-26.3007
0
LINE
8
BLACK
6
CONTINUOUS
10
47.9321
20
-26.3007
11
47.7893
21
-25.7293
0
LINE
8
BLACK
6
CONTINUOUS
10
47.7893
20
-25.7293
11
47.7893
21
-25.015
0
LINE
8
BLACK
6
CONTINUOUS
10
47.7893
20
-25.015
11
47.9321
21
-24.4436
0
LINE
8
BLACK
6
CONTINUOUS
10
47.9321
20
-24.4436
11
48.075
21
-24.1579
0
LINE
8
BLACK
6
CONTINUOUS
10
48.075
20
-24.1579
11
48.2179
21
-24.015
0
LINE
8
BLACK
6
CONTINUOUS
10
48.2179
20
-24.015
11
48.5036
21
-23.8721
0
LINE
8
BLACK
6
CONTINUOUS
10
53.075
20
-26.8721
11
53.075
21
-23.8721
0
LINE
8
BLACK
6
CONTINUOUS
10
54.3607
20
-26.8721
11
54.3607
21
-25.3007
0
LINE
8
BLACK
6
CONTINUOUS
10
54.3607
20
-25.3007
11
54.2179
21
-25.015
0
LINE
8
BLACK
6
CONTINUOUS
10
54.2179
20
-25.015
11
53.9321
21
-24.8721
0
LINE
8
BLACK
6
CONTINUOUS
10
53.9321
20
-24.8721
11
53.5036
21
-24.8721
0
LINE
8
BLACK
6
CONTINUOUS
10
53.5036
20
-24.8721
11
53.2179
21
-25.015
0
LINE
8
BLACK
6
CONTINUOUS
10
53.2179
20
-25.015
11
53.075
21
-25.1579
0
LINE
8
BLACK
6
CONTINUOUS
10
56.2179
20
-26.8721
11
55.9321
21
-26.7293
0
LINE
8
BLACK
6
CONTINUOUS
10
55.9321
20
-26.7293
11
55.7893
21
-26.5864
0
LINE
8
BLACK
6
CONTINUOUS
10
55.7893
20
-26.5864
11
55.6464
21
-26.3007
0
LINE
8
BLACK
6
CONTINUOUS
10
55.6464
20
-26.3007
11
55.6464
21
-25.4436
0
LINE
8
BLACK
6
CONTINUOUS
10
55.6464
20
-25.4436
11
55.7893
21
-25.1579
0
LINE
8
BLACK
6
CONTINUOUS
10
55.7893
20
-25.1579
11
55.9321
21
-25.015
0
LINE
8
BLACK
6
CONTINUOUS
10
55.9321
20
-25.015
11
56.2179
21
-24.8721
0
LINE
8
BLACK
6
CONTINUOUS
10
56.2179
20
-24.8721
11
56.6464
21
-24.8721
0
LINE
8
BLACK
6
CONTINUOUS
10
56.6464
20
-24.8721
11
56.9321
21
-25.015
0
LINE
8
BLACK
6
CONTINUOUS
10
56.9321
20
-25.015
11
57.075
21
-25.1579
0
LINE
8
BLACK
6
CONTINUOUS
10
57.075
20
-25.1579
11
57.2179
21
-25.4436
0
LINE
8
BLACK
6
CONTINUOUS
10
57.2179
20
-25.4436
11
57.2179
21
-26.3007
0
LINE
8
BLACK
6
CONTINUOUS
10
57.2179
20
-26.3007
11
57.075
21
-26.5864
0
LINE
8
BLACK
6
CONTINUOUS
10
57.075
20
-26.5864
11
56.9321
21
-26.7293
0
LINE
8
BLACK
6
CONTINUOUS
10
56.9321
20
-26.7293
11
56.6464
21
-26.8721
0
LINE
8
BLACK
6
CONTINUOUS
10
56.6464
20
-26.8721
11
56.2179
21
-26.8721
0
LINE
8
BLACK
6
CONTINUOUS
10
58.9321
20
-26.8721
11
58.6464
21
-26.7293
0
LINE
8
BLACK
6
CONTINUOUS
10
58.6464
20
-26.7293
11
58.5036
21
-26.4436
0
LINE
8
BLACK
6
CONTINUOUS
10
58.5036
20
-26.4436
11
58.5036
21
-23.8721
0
LINE
8
BLACK
6
CONTINUOUS
10
61.2179
20
-26.7293
11
60.9321
21
-26.8721
0
LINE
8
BLACK
6
CONTINUOUS
10
60.9321
20
-26.8721
11
60.3607
21
-26.8721
0
LINE
8
BLACK
6
CONTINUOUS
10
60.3607
20
-26.8721
11
60.075
21
-26.7293
0
LINE
8
BLACK
6
CONTINUOUS
10
60.075
20
-26.7293
11
59.9321
21
-26.4436
0
LINE
8
BLACK
6
CONTINUOUS
10
59.9321
20
-26.4436
11
59.9321
21
-25.3007
0
LINE
8
BLACK
6
CONTINUOUS
10
59.9321
20
-25.3007
11
60.075
21
-25.015
0
LINE
8
BLACK
6
CONTINUOUS
10
60.075
20
-25.015
11
60.3607
21
-24.8721
0
LINE
8
BLACK
6
CONTINUOUS
10
60.3607
20
-24.8721
11
60.9321
21
-24.8721
0
LINE
8
BLACK
6
CONTINUOUS
10
60.9321
20
-24.8721
11
61.2179
21
-25.015
0
LINE
8
BLACK
6
CONTINUOUS
10
61.2179
20
-25.015
11
61.3607
21
-25.3007
0
LINE
8
BLACK
6
CONTINUOUS
10
61.3607
20
-25.3007
11
61.3607
21
-25.5864
0
LINE
8
BLACK
6
CONTINUOUS
10
61.3607
20
-25.5864
11
59.9321
21
-25.8721
0
LINE
8
BLACK
6
CONTINUOUS
10
62.5036
20
-26.7293
11
62.7893
21
-26.8721
0
LINE
8
BLACK
6
CONTINUOUS
10
62.7893
20
-26.8721
11
63.3607
21
-26.8721
0
LINE
8
BLACK
6
CONTINUOUS
10
63.3607
20
-26.8721
11
63.6464
21
-26.7293
0
LINE
8
BLACK
6
CONTINUOUS
10
63.6464
20
-26.7293
11
63.7893
21
-26.4436
0
LINE
8
BLACK
6
CONTINUOUS
10
63.7893
20
-26.4436
11
63.7893
21
-26.3007
0
LINE
8
BLACK
6
CONTINUOUS
10
63.7893
20
-26.3007
11
63.6464
21
-26.015
0
LINE
8
BLACK
6
CONTINUOUS
10
63.6464
20
-26.015
11
63.3607
21
-25.8721
0
LINE
8
BLACK
6
CONTINUOUS
10
63.3607
20
-25.8721
11
62.9321
21
-25.8721
0
LINE
8
BLACK
6
CONTINUOUS
10
62.9321
20
-25.8721
11
62.6464
21
-25.7293
0
LINE
8
BLACK
6
CONTINUOUS
10
62.6464
20
-25.7293
11
62.5036
21
-25.4436
0
LINE
8
BLACK
6
CONTINUOUS
10
62.5036
20
-25.4436
11
62.5036
21
-25.3007
0
LINE
8
BLACK
6
CONTINUOUS
10
62.5036
20
-25.3007
11
62.6464
21
-25.015
0
LINE
8
BLACK
6
CONTINUOUS
10
62.6464
20
-25.015
11
62.9321
21
-24.8721
0
LINE
8
BLACK
6
CONTINUOUS
10
62.9321
20
-24.8721
11
63.3607
21
-24.8721
0
LINE
8
BLACK
6
CONTINUOUS
10
63.3607
20
-24.8721
11
63.6464
21
-25.015
0
LINE
8
BLACK
6
CONTINUOUS
10
67.3607
20
-25.7293
11
69.6464
21
-25.7293
0
LINE
8
BLACK
6
CONTINUOUS
10
68.5036
20
-26.8721
11
68.5036
21
-24.5864
0
LINE
8
BLACK
6
CONTINUOUS
10
73.075
20
-23.8721
11
74.9321
21
-23.8721
0
LINE
8
BLACK
6
CONTINUOUS
10
74.9321
20
-23.8721
11
73.9321
21
-25.015
0
LINE
8
BLACK
6
CONTINUOUS
10
73.9321
20
-25.015
11
74.3607
21
-25.015
0
LINE
8
BLACK
6
CONTINUOUS
10
74.3607
20
-25.015
11
74.6464
21
-25.1579
0
LINE
8
BLACK
6
CONTINUOUS
10
74.6464
20
-25.1579
11
74.7893
21
-25.3007
0
LINE
8
BLACK
6
CONTINUOUS
10
74.7893
20
-25.3007
11
74.9321
21
-25.5864
0
LINE
8
BLACK
6
CONTINUOUS
10
74.9321
20
-25.5864
11
74.9321
21
-26.3007
0
LINE
8
BLACK
6
CONTINUOUS
10
74.9321
20
-26.3007
11
74.7893
21
-26.5864
0
LINE
8
BLACK
6
CONTINUOUS
10
74.7893
20
-26.5864
11
74.6464
21
-26.7293
0
LINE
8
BLACK
6
CONTINUOUS
10
74.6464
20
-26.7293
11
74.3607
21
-26.8721
0
LINE
8
BLACK
6
CONTINUOUS
10
74.3607
20
-26.8721
11
73.5036
21
-26.8721
0
LINE
8
BLACK
6
CONTINUOUS
10
73.5036
20
-26.8721
11
73.2179
21
-26.7293
0
LINE
8
BLACK
6
CONTINUOUS
10
73.2179
20
-26.7293
11
73.075
21
-26.5864
0
LINE
8
BLACK
6
CONTINUOUS
10
78.3607
20
-26.7293
11
78.6464
21
-26.8721
0
LINE
8
BLACK
6
CONTINUOUS
10
78.6464
20
-26.8721
11
79.2179
21
-26.8721
0
LINE
8
BLACK
6
CONTINUOUS
10
79.2179
20
-26.8721
11
79.5036
21
-26.7293
0
LINE
8
BLACK
6
CONTINUOUS
10
79.5036
20
-26.7293
11
79.6464
21
-26.4436
0
LINE
8
BLACK
6
CONTINUOUS
10
79.6464
20
-26.4436
11
79.6464
21
-26.3007
0
LINE
8
BLACK
6
CONTINUOUS
10
79.6464
20
-26.3007
11
79.5036
21
-26.015
0
LINE
8
BLACK
6
CONTINUOUS
10
79.5036
20
-26.015
11
79.2179
21
-25.8721
0
LINE
8
BLACK
6
CONTINUOUS
10
79.2179
20
-25.8721
11
78.7893
21
-25.8721
0
LINE
8
BLACK
6
CONTINUOUS
10
78.7893
20
-25.8721
11
78.5036
21
-25.7293
0
LINE
8
BLACK
6
CONTINUOUS
10
78.5036
20
-25.7293
11
78.3607
21
-25.4436
0
LINE
8
BLACK
6
CONTINUOUS
10
78.3607
20
-25.4436
11
78.3607
21
-25.3007
0
LINE
8
BLACK
6
CONTINUOUS
10
78.3607
20
-25.3007
11
78.5036
21
-25.015
0
LINE
8
BLACK
6
CONTINUOUS
10
78.5036
20
-25.015
11
78.7893
21
-24.8721
0
LINE
8
BLACK
6
CONTINUOUS
10
78.7893
20
-24.8721
11
79.2179
21
-24.8721
0
LINE
8
BLACK
6
CONTINUOUS
10
79.2179
20
-24.8721
11
79.5036
21
-25.015
0
LINE
8
BLACK
6
CONTINUOUS
10
81.3607
20
-26.8721
11
81.075
21
-26.7293
0
LINE
8
BLACK
6
CONTINUOUS
10
81.075
20
-26.7293
11
80.9321
21
-26.4436
0
LINE
8
BLACK
6
CONTINUOUS
10
80.9321
20
-26.4436
11
80.9321
21
-23.8721
0
LINE
8
BLACK
6
CONTINUOUS
10
82.9321
20
-26.8721
11
82.6464
21
-26.7293
0
LINE
8
BLACK
6
CONTINUOUS
10
82.6464
20
-26.7293
11
82.5036
21
-26.5864
0
LINE
8
BLACK
6
CONTINUOUS
10
82.5036
20
-26.5864
11
82.3607
21
-26.3007
0
LINE
8
BLACK
6
CONTINUOUS
10
82.3607
20
-26.3007
11
82.3607
21
-25.4436
0
LINE
8
BLACK
6
CONTINUOUS
10
82.3607
20
-25.4436
11
82.5036
21
-25.1579
0
LINE
8
BLACK
6
CONTINUOUS
10
82.5036
20
-25.1579
11
82.6464
21
-25.015
0
LINE
8
BLACK
6
CONTINUOUS
10
82.6464
20
-25.015
11
82.9321
21
-24.8721
0
LINE
8
BLACK
6
CONTINUOUS
10
82.9321
20
-24.8721
11
83.3607
21
-24.8721
0
LINE
8
BLACK
6
CONTINUOUS
10
83.3607
20
-24.8721
11
83.6464
21
-25.015
0
LINE
8
BLACK
6
CONTINUOUS
10
83.6464
20
-25.015
11
83.7893
21
-25.1579
0
LINE
8
BLACK
6
CONTINUOUS
10
83.7893
20
-25.1579
11
83.9321
21
-25.4436
0
LINE
8
BLACK
6
CONTINUOUS
10
83.9321
20
-25.4436
11
83.9321
21
-26.3007
0
LINE
8
BLACK
6
CONTINUOUS
10
83.9321
20
-26.3007
11
83.7893
21
-26.5864
0
LINE
8
BLACK
6
CONTINUOUS
10
83.7893
20
-26.5864
11
83.6464
21
-26.7293
0
LINE
8
BLACK
6
CONTINUOUS
10
83.6464
20
-26.7293
11
83.3607
21
-26.8721
0
LINE
8
BLACK
6
CONTINUOUS
10
83.3607
20
-26.8721
11
82.9321
21
-26.8721
0
LINE
8
BLACK
6
CONTINUOUS
10
84.7893
20
-24.8721
11
85.9321
21
-24.8721
0
LINE
8
BLACK
6
CONTINUOUS
10
85.2179
20
-23.8721
11
85.2179
21
-26.4436
0
LINE
8
BLACK
6
CONTINUOUS
10
85.2179
20
-26.4436
11
85.3607
21
-26.7293
0
LINE
8
BLACK
6
CONTINUOUS
10
85.3607
20
-26.7293
11
85.6464
21
-26.8721
0
LINE
8
BLACK
6
CONTINUOUS
10
85.6464
20
-26.8721
11
85.9321
21
-26.8721
0
LINE
8
BLACK
6
CONTINUOUS
10
86.7893
20
-26.7293
11
87.075
21
-26.8721
0
LINE
8
BLACK
6
CONTINUOUS
10
87.075
20
-26.8721
11
87.6464
21
-26.8721
0
LINE
8
BLACK
6
CONTINUOUS
10
87.6464
20
-26.8721
11
87.9321
21
-26.7293
0
LINE
8
BLACK
6
CONTINUOUS
10
87.9321
20
-26.7293
11
88.075
21
-26.4436
0
LINE
8
BLACK
6
CONTINUOUS
10
88.075
20
-26.4436
11
88.075
21
-26.3007
0
LINE
8
BLACK
6
CONTINUOUS
10
88.075
20
-26.3007
11
87.9321
21
-26.015
0
LINE
8
BLACK
6
CONTINUOUS
10
87.9321
20
-26.015
11
87.6464
21
-25.8721
0
LINE
8
BLACK
6
CONTINUOUS
10
87.6464
20
-25.8721
11
87.2179
21
-25.8721
0
LINE
8
BLACK
6
CONTINUOUS
10
87.2179
20
-25.8721
11
86.9321
21
-25.7293
0
LINE
8
BLACK
6
CONTINUOUS
10
86.9321
20
-25.7293
11
86.7893
21
-25.4436
0
LINE
8
BLACK
6
CONTINUOUS
10
86.7893
20
-25.4436
11
86.7893
21
-25.3007
0
LINE
8
BLACK
6
CONTINUOUS
10
86.7893
20
-25.3007
11
86.9321
21
-25.015
0
LINE
8
BLACK
6
CONTINUOUS
10
86.9321
20
-25.015
11
87.2179
21
-24.8721
0
LINE
8
BLACK
6
CONTINUOUS
10
87.2179
20
-24.8721
11
87.6464
21
-24.8721
0
LINE
8
BLACK
6
CONTINUOUS
10
87.6464
20
-24.8721
11
87.9321
21
-25.015
0
LINE
8
BLACK
6
CONTINUOUS
10
89.075
20
-28.015
11
89.2179
21
-27.8721
0
LINE
8
BLACK
6
CONTINUOUS
10
89.2179
20
-27.8721
11
89.5036
21
-27.4436
0
LINE
8
BLACK
6
CONTINUOUS
10
89.5036
20
-27.4436
11
89.6464
21
-27.1579
0
LINE
8
BLACK
6
CONTINUOUS
10
89.6464
20
-27.1579
11
89.7893
21
-26.7293
0
LINE
8
BLACK
6
CONTINUOUS
10
89.7893
20
-26.7293
11
89.9321
21
-26.015
0
LINE
8
BLACK
6
CONTINUOUS
10
89.9321
20
-26.015
11
89.9321
21
-25.4436
0
LINE
8
BLACK
6
CONTINUOUS
10
89.9321
20
-25.4436
11
89.7893
21
-24.7293
0
LINE
8
BLACK
6
CONTINUOUS
10
89.7893
20
-24.7293
11
89.6464
21
-24.3007
0
LINE
8
BLACK
6
CONTINUOUS
10
89.6464
20
-24.3007
11
89.5036
21
-24.015
0
LINE
8
BLACK
6
CONTINUOUS
10
89.5036
20
-24.015
11
89.2179
21
-23.5864
0
LINE
8
BLACK
6
CONTINUOUS
10
89.2179
20
-23.5864
11
89.075
21
-23.4436
0
LINE
8
BLACK
6
CONTINUOUS
10
94.5036
20
-28.015
11
94.3607
21
-27.8721
0
LINE
8
BLACK
6
CONTINUOUS
10
94.3607
20
-27.8721
11
94.075
21
-27.4436
0
LINE
8
BLACK
6
CONTINUOUS
10
94.075
20
-27.4436
11
93.9321
21
-27.1579
0
LINE
8
BLACK
6
CONTINUOUS
10
93.9321
20
-27.1579
11
93.7893
21
-26.7293
0
LINE
8
BLACK
6
CONTINUOUS
10
93.7893
20
-26.7293
11
93.6464
21
-26.015
0
LINE
8
BLACK
6
CONTINUOUS
10
93.6464
20
-26.015
11
93.6464
21
-25.4436
0
LINE
8
BLACK
6
CONTINUOUS
10
93.6464
20
-25.4436
11
93.7893
21
-24.7293
0
LINE
8
BLACK
6
CONTINUOUS
10
93.7893
20
-24.7293
11
93.9321
21
-24.3007
0
LINE
8
BLACK
6
CONTINUOUS
10
93.9321
20
-24.3007
11
94.075
21
-24.015
0
LINE
8
BLACK
6
CONTINUOUS
10
94.075
20
-24.015
11
94.3607
21
-23.5864
0
LINE
8
BLACK
6
CONTINUOUS
10
94.3607
20
-23.5864
11
94.5036
21
-23.4436
0
LINE
8
BLACK
6
CONTINUOUS
10
95.6464
20
-24.8721
11
95.6464
21
-26.8721
0
LINE
8
BLACK
6
CONTINUOUS
10
95.6464
20
-25.1579
11
95.7893
21
-25.015
0
LINE
8
BLACK
6
CONTINUOUS
10
95.7893
20
-25.015
11
96.075
21
-24.8721
0
LINE
8
BLACK
6
CONTINUOUS
10
96.075
20
-24.8721
11
96.5036
21
-24.8721
0
LINE
8
BLACK
6
CONTINUOUS
10
96.5036
20
-24.8721
11
96.7893
21
-25.015
0
LINE
8
BLACK
6
CONTINUOUS
10
96.7893
20
-25.015
11
96.9321
21
-25.3007
0
LINE
8
BLACK
6
CONTINUOUS
10
96.9321
20
-25.3007
11
96.9321
21
-26.8721
0
LINE
8
BLACK
6
CONTINUOUS
10
98.7893
20
-26.8721
11
98.5036
21
-26.7293
0
LINE
8
BLACK
6
CONTINUOUS
10
98.5036
20
-26.7293
11
98.3607
21
-26.5864
0
LINE
8
BLACK
6
CONTINUOUS
10
98.3607
20
-26.5864
11
98.2179
21
-26.3007
0
LINE
8
BLACK
6
CONTINUOUS
10
98.2179
20
-26.3007
11
98.2179
21
-25.4436
0
LINE
8
BLACK
6
CONTINUOUS
10
98.2179
20
-25.4436
11
98.3607
21
-25.1579
0
LINE
8
BLACK
6
CONTINUOUS
10
98.3607
20
-25.1579
11
98.5036
21
-25.015
0
LINE
8
BLACK
6
CONTINUOUS
10
98.5036
20
-25.015
11
98.7893
21
-24.8721
0
LINE
8
BLACK
6
CONTINUOUS
10
98.7893
20
-24.8721
11
99.2179
21
-24.8721
0
LINE
8
BLACK
6
CONTINUOUS
10
99.2179
20
-24.8721
11
99.5036
21
-25.015
0
LINE
8
BLACK
6
CONTINUOUS
10
99.5036
20
-25.015
11
99.6464
21
-25.1579
0
LINE
8
BLACK
6
CONTINUOUS
10
99.6464
20
-25.1579
11
99.7893
21
-25.4436
0
LINE
8
BLACK
6
CONTINUOUS
10
99.7893
20
-25.4436
11
99.7893
21
-26.3007
0
LINE
8
BLACK
6
CONTINUOUS
10
99.7893
20
-26.3007
11
99.6464
21
-26.5864
0
LINE
8
BLACK
6
CONTINUOUS
10
99.6464
20
-26.5864
11
99.5036
21
-26.7293
0
LINE
8
BLACK
6
CONTINUOUS
10
99.5036
20
-26.7293
11
99.2179
21
-26.8721
0
LINE
8
BLACK
6
CONTINUOUS
10
99.2179
20
-26.8721
11
98.7893
21
-26.8721
0
LINE
8
BLACK
6
CONTINUOUS
10
100.646
20
-24.8721
11
101.789
21
-24.8721
0
LINE
8
BLACK
6
CONTINUOUS
10
101.075
20
-23.8721
11
101.075
21
-26.4436
0
LINE
8
BLACK
6
CONTINUOUS
10
101.075
20
-26.4436
11
101.218
21
-26.7293
0
LINE
8
BLACK
6
CONTINUOUS
10
101.218
20
-26.7293
11
101.504
21
-26.8721
0
LINE
8
BLACK
6
CONTINUOUS
10
101.504
20
-26.8721
11
101.789
21
-26.8721
0
LINE
8
BLACK
6
CONTINUOUS
10
105.075
20
-24.8721
11
105.075
21
-27.8721
0
LINE
8
BLACK
6
CONTINUOUS
10
105.075
20
-25.015
11
105.361
21
-24.8721
0
LINE
8
BLACK
6
CONTINUOUS
10
105.361
20
-24.8721
11
105.932
21
-24.8721
0
LINE
8
BLACK
6
CONTINUOUS
10
105.932
20
-24.8721
11
106.218
21
-25.015
0
LINE
8
BLACK
6
CONTINUOUS
10
106.218
20
-25.015
11
106.361
21
-25.1579
0
LINE
8
BLACK
6
CONTINUOUS
10
106.361
20
-25.1579
11
106.504
21
-25.4436
0
LINE
8
BLACK
6
CONTINUOUS
10
106.504
20
-25.4436
11
106.504
21
-26.3007
0
LINE
8
BLACK
6
CONTINUOUS
10
106.504
20
-26.3007
11
106.361
21
-26.5864
0
LINE
8
BLACK
6
CONTINUOUS
10
106.361
20
-26.5864
11
106.218
21
-26.7293
0
LINE
8
BLACK
6
CONTINUOUS
10
106.218
20
-26.7293
11
105.932
21
-26.8721
0
LINE
8
BLACK
6
CONTINUOUS
10
105.932
20
-26.8721
11
105.361
21
-26.8721
0
LINE
8
BLACK
6
CONTINUOUS
10
105.361
20
-26.8721
11
105.075
21
-26.7293
0
LINE
8
BLACK
6
CONTINUOUS
10
108.218
20
-26.8721
11
107.932
21
-26.7293
0
LINE
8
BLACK
6
CONTINUOUS
10
107.932
20
-26.7293
11
107.789
21
-26.4436
0
LINE
8
BLACK
6
CONTINUOUS
10
107.789
20
-26.4436
11
107.789
21
-23.8721
0
LINE
8
BLACK
6
CONTINUOUS
10
110.646
20
-26.8721
11
110.646
21
-25.3007
0
LINE
8
BLACK
6
CONTINUOUS
10
110.646
20
-25.3007
11
110.504
21
-25.015
0
LINE
8
BLACK
6
CONTINUOUS
10
110.504
20
-25.015
11
110.218
21
-24.8721
0
LINE
8
BLACK
6
CONTINUOUS
10
110.218
20
-24.8721
11
109.646
21
-24.8721
0
LINE
8
BLACK
6
CONTINUOUS
10
109.646
20
-24.8721
11
109.361
21
-25.015
0
LINE
8
BLACK
6
CONTINUOUS
10
110.646
20
-26.7293
11
110.361
21
-26.8721
0
LINE
8
BLACK
6
CONTINUOUS
10
110.361
20
-26.8721
11
109.646
21
-26.8721
0
LINE
8
BLACK
6
CONTINUOUS
10
109.646
20
-26.8721
11
109.361
21
-26.7293
0
LINE
8
BLACK
6
CONTINUOUS
10
109.361
20
-26.7293
11
109.218
21
-26.4436
0
LINE
8
BLACK
6
CONTINUOUS
10
109.218
20
-26.4436
11
109.218
21
-26.1579
0
LINE
8
BLACK
6
CONTINUOUS
10
109.218
20
-26.1579
11
109.361
21
-25.8721
0
LINE
8
BLACK
6
CONTINUOUS
10
109.361
20
-25.8721
11
109.646
21
-25.7293
0
LINE
8
BLACK
6
CONTINUOUS
10
109.646
20
-25.7293
11
110.361
21
-25.7293
0
LINE
8
BLACK
6
CONTINUOUS
10
110.361
20
-25.7293
11
110.646
21
-25.5864
0
LINE
8
BLACK
6
CONTINUOUS
10
111.646
20
-24.8721
11
112.789
21
-24.8721
0
LINE
8
BLACK
6
CONTINUOUS
10
112.075
20
-23.8721
11
112.075
21
-26.4436
0
LINE
8
BLACK
6
CONTINUOUS
10
112.075
20
-26.4436
11
112.218
21
-26.7293
0
LINE
8
BLACK
6
CONTINUOUS
10
112.218
20
-26.7293
11
112.504
21
-26.8721
0
LINE
8
BLACK
6
CONTINUOUS
10
112.504
20
-26.8721
11
112.789
21
-26.8721
0
LINE
8
BLACK
6
CONTINUOUS
10
114.932
20
-26.7293
11
114.646
21
-26.8721
0
LINE
8
BLACK
6
CONTINUOUS
10
114.646
20
-26.8721
11
114.075
21
-26.8721
0
LINE
8
BLACK
6
CONTINUOUS
10
114.075
20
-26.8721
11
113.789
21
-26.7293
0
LINE
8
BLACK
6
CONTINUOUS
10
113.789
20
-26.7293
11
113.646
21
-26.4436
0
LINE
8
BLACK
6
CONTINUOUS
10
113.646
20
-26.4436
11
113.646
21
-25.3007
0
LINE
8
BLACK
6
CONTINUOUS
10
113.646
20
-25.3007
11
113.789
21
-25.015
0
LINE
8
BLACK
6
CONTINUOUS
10
113.789
20
-25.015
11
114.075
21
-24.8721
0
LINE
8
BLACK
6
CONTINUOUS
10
114.075
20
-24.8721
11
114.646
21
-24.8721
0
LINE
8
BLACK
6
CONTINUOUS
10
114.646
20
-24.8721
11
114.932
21
-25.015
0
LINE
8
BLACK
6
CONTINUOUS
10
114.932
20
-25.015
11
115.075
21
-25.3007
0
LINE
8
BLACK
6
CONTINUOUS
10
115.075
20
-25.3007
11
115.075
21
-25.5864
0
LINE
8
BLACK
6
CONTINUOUS
10
115.075
20
-25.5864
11
113.646
21
-25.8721
0
LINE
8
BLACK
6
CONTINUOUS
10
117.646
20
-26.8721
11
117.646
21
-23.8721
0
LINE
8
BLACK
6
CONTINUOUS
10
117.646
20
-26.7293
11
117.361
21
-26.8721
0
LINE
8
BLACK
6
CONTINUOUS
10
117.361
20
-26.8721
11
116.789
21
-26.8721
0
LINE
8
BLACK
6
CONTINUOUS
10
116.789
20
-26.8721
11
116.504
21
-26.7293
0
LINE
8
BLACK
6
CONTINUOUS
10
116.504
20
-26.7293
11
116.361
21
-26.5864
0
LINE
8
BLACK
6
CONTINUOUS
10
116.361
20
-26.5864
11
116.218
21
-26.3007
0
LINE
8
BLACK
6
CONTINUOUS
10
116.218
20
-26.3007
11
116.218
21
-25.4436
0
LINE
8
BLACK
6
CONTINUOUS
10
116.218
20
-25.4436
11
116.361
21
-25.1579
0
LINE
8
BLACK
6
CONTINUOUS
10
116.361
20
-25.1579
11
116.504
21
-25.015
0
LINE
8
BLACK
6
CONTINUOUS
10
116.504
20
-25.015
11
116.789
21
-24.8721
0
LINE
8
BLACK
6
CONTINUOUS
10
116.789
20
-24.8721
11
117.361
21
-24.8721
0
LINE
8
BLACK
6
CONTINUOUS
10
117.361
20
-24.8721
11
117.646
21
-25.015
0
LINE
8
BLACK
6
CONTINUOUS
10
118.789
20
-28.015
11
118.932
21
-27.8721
0
LINE
8
BLACK
6
CONTINUOUS
10
118.932
20
-27.8721
11
119.218
21
-27.4436
0
LINE
8
BLACK
6
CONTINUOUS
10
119.218
20
-27.4436
11
119.361
21
-27.1579
0
LINE
8
BLACK
6
CONTINUOUS
10
119.361
20
-27.1579
11
119.504
21
-26.7293
0
LINE
8
BLACK
6
CONTINUOUS
10
119.504
20
-26.7293
11
119.646
21
-26.015
0
LINE
8
BLACK
6
CONTINUOUS
10
119.646
20
-26.015
11
119.646
21
-25.4436
0
LINE
8
BLACK
6
CONTINUOUS
10
119.646
20
-25.4436
11
119.504
21
-24.7293
0
LINE
8
BLACK
6
CONTINUOUS
10
119.504
20
-24.7293
11
119.361
21
-24.3007
0
LINE
8
BLACK
6
CONTINUOUS
10
119.361
20
-24.3007
11
119.218
21
-24.015
0
LINE
8
BLACK
6
CONTINUOUS
10
119.218
20
-24.015
11
118.932
21
-23.5864
0
LINE
8
BLACK
6
CONTINUOUS
10
118.932
20
-23.5864
11
118.789
21
-23.4436
0
LINE
8
BLACK
6
CONTINUOUS
10
-5.275
20
-26.875
11
-0.075001
21
-32.075
0
LINE
8
BLACK
6
CONTINUOUS
10
-0.075001
20
-26.875
11
-5.275
21
-32.075
0
CIRCLE
8
BLACK
10
-2.675
20
-29.475
40
2.6
0
LINE
8
BLACK
6
CONTINUOUS
10
4.21786
20
-27.8321
11
2.78928
21
-27.8321
0
LINE
8
BLACK
6
CONTINUOUS
10
2.78928
20
-27.8321
11
2.64643
21
-29.2607
0
LINE
8
BLACK
6
CONTINUOUS
10
2.64643
20
-29.2607
11
2.78928
21
-29.1179
0
LINE
8
BLACK
6
CONTINUOUS
10
2.78928
20
-29.1179
11
3.075
21
-28.975
0
LINE
8
BLACK
6
CONTINUOUS
10
3.075
20
-28.975
11
3.78928
21
-28.975
0
LINE
8
BLACK
6
CONTINUOUS
10
3.78928
20
-28.975
11
4.075
21
-29.1179
0
LINE
8
BLACK
6
CONTINUOUS
10
4.075
20
-29.1179
11
4.21786
21
-29.2607
0
LINE
8
BLACK
6
CONTINUOUS
10
4.21786
20
-29.2607
11
4.36071
21
-29.5464
0
LINE
8
BLACK
6
CONTINUOUS
10
4.36071
20
-29.5464
11
4.36071
21
-30.2607
0
LINE
8
BLACK
6
CONTINUOUS
10
4.36071
20
-30.2607
11
4.21786
21
-30.5464
0
LINE
8
BLACK
6
CONTINUOUS
10
4.21786
20
-30.5464
11
4.075
21
-30.6893
0
LINE
8
BLACK
6
CONTINUOUS
10
4.075
20
-30.6893
11
3.78928
21
-30.8321
0
LINE
8
BLACK
6
CONTINUOUS
10
3.78928
20
-30.8321
11
3.075
21
-30.8321
0
LINE
8
BLACK
6
CONTINUOUS
10
3.075
20
-30.8321
11
2.78928
21
-30.6893
0
LINE
8
BLACK
6
CONTINUOUS
10
2.78928
20
-30.6893
11
2.64643
21
-30.5464
0
LINE
8
BLACK
6
CONTINUOUS
10
5.64643
20
-30.5464
11
5.78928
21
-30.6893
0
LINE
8
BLACK
6
CONTINUOUS
10
5.78928
20
-30.6893
11
5.64643
21
-30.8321
0
LINE
8
BLACK
6
CONTINUOUS
10
5.64643
20
-30.8321
11
5.50357
21
-30.6893
0
LINE
8
BLACK
6
CONTINUOUS
10
5.50357
20
-30.6893
11
5.64643
21
-30.5464
0
LINE
8
BLACK
6
CONTINUOUS
10
5.64643
20
-30.5464
11
5.64643
21
-30.8321
0
LINE
8
BLACK
6
CONTINUOUS
10
6.93214
20
-28.1179
11
7.075
21
-27.975
0
LINE
8
BLACK
6
CONTINUOUS
10
7.075
20
-27.975
11
7.36071
21
-27.8321
0
LINE
8
BLACK
6
CONTINUOUS
10
7.36071
20
-27.8321
11
8.075
21
-27.8321
0
LINE
8
BLACK
6
CONTINUOUS
10
8.075
20
-27.8321
11
8.36071
21
-27.975
0
LINE
8
BLACK
6
CONTINUOUS
10
8.36071
20
-27.975
11
8.50357
21
-28.1179
0
LINE
8
BLACK
6
CONTINUOUS
10
8.50357
20
-28.1179
11
8.64643
21
-28.4036
0
LINE
8
BLACK
6
CONTINUOUS
10
8.64643
20
-28.4036
11
8.64643
21
-28.6893
0
LINE
8
BLACK
6
CONTINUOUS
10
8.64643
20
-28.6893
11
8.50357
21
-29.1179
0
LINE
8
BLACK
6
CONTINUOUS
10
8.50357
20
-29.1179
11
6.78928
21
-30.8321
0
LINE
8
BLACK
6
CONTINUOUS
10
6.78928
20
-30.8321
11
8.64643
21
-30.8321
0
LINE
8
BLACK
6
CONTINUOUS
10
10.5036
20
-27.8321
11
10.7893
21
-27.8321
0
LINE
8
BLACK
6
CONTINUOUS
10
10.7893
20
-27.8321
11
11.075
21
-27.975
0
LINE
8
BLACK
6
CONTINUOUS
10
11.075
20
-27.975
11
11.2179
21
-28.1179
0
LINE
8
BLACK
6
CONTINUOUS
10
11.2179
20
-28.1179
11
11.3607
21
-28.4036
0
LINE
8
BLACK
6
CONTINUOUS
10
11.3607
20
-28.4036
11
11.5036
21
-28.975
0
LINE
8
BLACK
6
CONTINUOUS
10
11.5036
20
-28.975
11
11.5036
21
-29.6893
0
LINE
8
BLACK
6
CONTINUOUS
10
11.5036
20
-29.6893
11
11.3607
21
-30.2607
0
LINE
8
BLACK
6
CONTINUOUS
10
11.3607
20
-30.2607
11
11.2179
21
-30.5464
0
LINE
8
BLACK
6
CONTINUOUS
10
11.2179
20
-30.5464
11
11.075
21
-30.6893
0
LINE
8
BLACK
6
CONTINUOUS
10
11.075
20
-30.6893
11
10.7893
21
-30.8321
0
LINE
8
BLACK
6
CONTINUOUS
10
10.7893
20
-30.8321
11
10.5036
21
-30.8321
0
LINE
8
BLACK
6
CONTINUOUS
10
10.5036
20
-30.8321
11
10.2179
21
-30.6893
0
LINE
8
BLACK
6
CONTINUOUS
10
10.2179
20
-30.6893
11
10.075
21
-30.5464
0
LINE
8
BLACK
6
CONTINUOUS
10
10.075
20
-30.5464
11
9.93214
21
-30.2607
0
LINE
8
BLACK
6
CONTINUOUS
10
9.93214
20
-30.2607
11
9.78928
21
-29.6893
0
LINE
8
BLACK
6
CONTINUOUS
10
9.78928
20
-29.6893
11
9.78928
21
-28.975
0
LINE
8
BLACK
6
CONTINUOUS
10
9.78928
20
-28.975
11
9.93214
21
-28.4036
0
LINE
8
BLACK
6
CONTINUOUS
10
9.93214
20
-28.4036
11
10.075
21
-28.1179
0
LINE
8
BLACK
6
CONTINUOUS
10
10.075
20
-28.1179
11
10.2179
21
-27.975
0
LINE
8
BLACK
6
CONTINUOUS
10
10.2179
20
-27.975
11
10.5036
21
-27.8321
0
LINE
8
BLACK
6
CONTINUOUS
10
12.7893
20
-30.8321
11
12.7893
21
-28.8321
0
LINE
8
BLACK
6
CONTINUOUS
10
12.7893
20
-29.1179
11
12.9321
21
-28.975
0
LINE
8
BLACK
6
CONTINUOUS
10
12.9321
20
-28.975
11
13.2179
21
-28.8321
0
LINE
8
BLACK
6
CONTINUOUS
10
13.2179
20
-28.8321
11
13.6464
21
-28.8321
0
LINE
8
BLACK
6
CONTINUOUS
10
13.6464
20
-28.8321
11
13.9321
21
-28.975
0
LINE
8
BLACK
6
CONTINUOUS
10
13.9321
20
-28.975
11
14.075
21
-29.2607
0
LINE
8
BLACK
6
CONTINUOUS
10
14.075
20
-29.2607
11
14.075
21
-30.8321
0
LINE
8
BLACK
6
CONTINUOUS
10
14.075
20
-29.2607
11
14.2179
21
-28.975
0
LINE
8
BLACK
6
CONTINUOUS
10
14.2179
20
-28.975
11
14.5036
21
-28.8321
0
LINE
8
BLACK
6
CONTINUOUS
10
14.5036
20
-28.8321
11
14.9321
21
-28.8321
0
LINE
8
BLACK
6
CONTINUOUS
10
14.9321
20
-28.8321
11
15.2179
21
-28.975
0
LINE
8
BLACK
6
CONTINUOUS
10
15.2179
20
-28.975
11
15.3607
21
-29.2607
0
LINE
8
BLACK
6
CONTINUOUS
10
15.3607
20
-29.2607
11
15.3607
21
-30.8321
0
LINE
8
BLACK
6
CONTINUOUS
10
16.7893
20
-30.8321
11
16.7893
21
-28.8321
0
LINE
8
BLACK
6
CONTINUOUS
10
16.7893
20
-29.1179
11
16.9321
21
-28.975
0
LINE
8
BLACK
6
CONTINUOUS
10
16.9321
20
-28.975
11
17.2179
21
-28.8321
0
LINE
8
BLACK
6
CONTINUOUS
10
17.2179
20
-28.8321
11
17.6464
21
-28.8321
0
LINE
8
BLACK
6
CONTINUOUS
10
17.6464
20
-28.8321
11
17.9321
21
-28.975
0
LINE
8
BLACK
6
CONTINUOUS
10
17.9321
20
-28.975
11
18.075
21
-29.2607
0
LINE
8
BLACK
6
CONTINUOUS
10
18.075
20
-29.2607
11
18.075
21
-30.8321
0
LINE
8
BLACK
6
CONTINUOUS
10
18.075
20
-29.2607
11
18.2179
21
-28.975
0
LINE
8
BLACK
6
CONTINUOUS
10
18.2179
20
-28.975
11
18.5036
21
-28.8321
0
LINE
8
BLACK
6
CONTINUOUS
10
18.5036
20
-28.8321
11
18.9321
21
-28.8321
0
LINE
8
BLACK
6
CONTINUOUS
10
18.9321
20
-28.8321
11
19.2179
21
-28.975
0
LINE
8
BLACK
6
CONTINUOUS
10
19.2179
20
-28.975
11
19.3607
21
-29.2607
0
LINE
8
BLACK
6
CONTINUOUS
10
19.3607
20
-29.2607
11
19.3607
21
-30.8321
0
LINE
8
BLACK
6
CONTINUOUS
10
25.2179
20
-27.6893
11
22.6464
21
-31.5464
0
LINE
8
BLACK
6
CONTINUOUS
10
29.075
20
-27.8321
11
29.3607
21
-27.8321
0
LINE
8
BLACK
6
CONTINUOUS
10
29.3607
20
-27.8321
11
29.6464
21
-27.975
0
LINE
8
BLACK
6
CONTINUOUS
10
29.6464
20
-27.975
11
29.7893
21
-28.1179
0
LINE
8
BLACK
6
CONTINUOUS
10
29.7893
20
-28.1179
11
29.9321
21
-28.4036
0
LINE
8
BLACK
6
CONTINUOUS
10
29.9321
20
-28.4036
11
30.075
21
-28.975
0
LINE
8
BLACK
6
CONTINUOUS
10
30.075
20
-28.975
11
30.075
21
-29.6893
0
LINE
8
BLACK
6
CONTINUOUS
10
30.075
20
-29.6893
11
29.9321
21
-30.2607
0
LINE
8
BLACK
6
CONTINUOUS
10
29.9321
20
-30.2607
11
29.7893
21
-30.5464
0
LINE
8
BLACK
6
CONTINUOUS
10
29.7893
20
-30.5464
11
29.6464
21
-30.6893
0
LINE
8
BLACK
6
CONTINUOUS
10
29.6464
20
-30.6893
11
29.3607
21
-30.8321
0
LINE
8
BLACK
6
CONTINUOUS
10
29.3607
20
-30.8321
11
29.075
21
-30.8321
0
LINE
8
BLACK
6
CONTINUOUS
10
29.075
20
-30.8321
11
28.7893
21
-30.6893
0
LINE
8
BLACK
6
CONTINUOUS
10
28.7893
20
-30.6893
11
28.6464
21
-30.5464
0
LINE
8
BLACK
6
CONTINUOUS
10
28.6464
20
-30.5464
11
28.5036
21
-30.2607
0
LINE
8
BLACK
6
CONTINUOUS
10
28.5036
20
-30.2607
11
28.3607
21
-29.6893
0
LINE
8
BLACK
6
CONTINUOUS
10
28.3607
20
-29.6893
11
28.3607
21
-28.975
0
LINE
8
BLACK
6
CONTINUOUS
10
28.3607
20
-28.975
11
28.5036
21
-28.4036
0
LINE
8
BLACK
6
CONTINUOUS
10
28.5036
20
-28.4036
11
28.6464
21
-28.1179
0
LINE
8
BLACK
6
CONTINUOUS
10
28.6464
20
-28.1179
11
28.7893
21
-27.975
0
LINE
8
BLACK
6
CONTINUOUS
10
28.7893
20
-27.975
11
29.075
21
-27.8321
0
LINE
8
BLACK
6
CONTINUOUS
10
31.3607
20
-30.5464
11
31.5036
21
-30.6893
0
LINE
8
BLACK
6
CONTINUOUS
10
31.5036
20
-30.6893
11
31.3607
21
-30.8321
0
LINE
8
BLACK
6
CONTINUOUS
10
31.3607
20
-30.8321
11
31.2179
21
-30.6893
0
LINE
8
BLACK
6
CONTINUOUS
10
31.2179
20
-30.6893
11
31.3607
21
-30.5464
0
LINE
8
BLACK
6
CONTINUOUS
10
31.3607
20
-30.5464
11
31.3607
21
-30.8321
0
LINE
8
BLACK
6
CONTINUOUS
10
32.6464
20
-28.1179
11
32.7893
21
-27.975
0
LINE
8
BLACK
6
CONTINUOUS
10
32.7893
20
-27.975
11
33.075
21
-27.8321
0
LINE
8
BLACK
6
CONTINUOUS
10
33.075
20
-27.8321
11
33.7893
21
-27.8321
0
LINE
8
BLACK
6
CONTINUOUS
10
33.7893
20
-27.8321
11
34.075
21
-27.975
0
LINE
8
BLACK
6
CONTINUOUS
10
34.075
20
-27.975
11
34.2179
21
-28.1179
0
LINE
8
BLACK
6
CONTINUOUS
10
34.2179
20
-28.1179
11
34.3607
21
-28.4036
0
LINE
8
BLACK
6
CONTINUOUS
10
34.3607
20
-28.4036
11
34.3607
21
-28.6893
0
LINE
8
BLACK
6
CONTINUOUS
10
34.3607
20
-28.6893
11
34.2179
21
-29.1179
0
LINE
8
BLACK
6
CONTINUOUS
10
34.2179
20
-29.1179
11
32.5036
21
-30.8321
0
LINE
8
BLACK
6
CONTINUOUS
10
32.5036
20
-30.8321
11
34.3607
21
-30.8321
0
LINE
8
BLACK
6
CONTINUOUS
10
36.2179
20
-27.8321
11
36.5036
21
-27.8321
0
LINE
8
BLACK
6
CONTINUOUS
10
36.5036
20
-27.8321
11
36.7893
21
-27.975
0
LINE
8
BLACK
6
CONTINUOUS
10
36.7893
20
-27.975
11
36.9321
21
-28.1179
0
LINE
8
BLACK
6
CONTINUOUS
10
36.9321
20
-28.1179
11
37.075
21
-28.4036
0
LINE
8
BLACK
6
CONTINUOUS
10
37.075
20
-28.4036
11
37.2179
21
-28.975
0
LINE
8
BLACK
6
CONTINUOUS
10
37.2179
20
-28.975
11
37.2179
21
-29.6893
0
LINE
8
BLACK
6
CONTINUOUS
10
37.2179
20
-29.6893
11
37.075
21
-30.2607
0
LINE
8
BLACK
6
CONTINUOUS
10
37.075
20
-30.2607
11
36.9321
21
-30.5464
0
LINE
8
BLACK
6
CONTINUOUS
10
36.9321
20
-30.5464
11
36.7893
21
-30.6893
0
LINE
8
BLACK
6
CONTINUOUS
10
36.7893
20
-30.6893
11
36.5036
21
-30.8321
0
LINE
8
BLACK
6
CONTINUOUS
10
36.5036
20
-30.8321
11
36.2179
21
-30.8321
0
LINE
8
BLACK
6
CONTINUOUS
10
36.2179
20
-30.8321
11
35.9321
21
-30.6893
0
LINE
8
BLACK
6
CONTINUOUS
10
35.9321
20
-30.6893
11
35.7893
21
-30.5464
0
LINE
8
BLACK
6
CONTINUOUS
10
35.7893
20
-30.5464
11
35.6464
21
-30.2607
0
LINE
8
BLACK
6
CONTINUOUS
10
35.6464
20
-30.2607
11
35.5036
21
-29.6893
0
LINE
8
BLACK
6
CONTINUOUS
10
35.5036
20
-29.6893
11
35.5036
21
-28.975
0
LINE
8
BLACK
6
CONTINUOUS
10
35.5036
20
-28.975
11
35.6464
21
-28.4036
0
LINE
8
BLACK
6
CONTINUOUS
10
35.6464
20
-28.4036
11
35.7893
21
-28.1179
0
LINE
8
BLACK
6
CONTINUOUS
10
35.7893
20
-28.1179
11
35.9321
21
-27.975
0
LINE
8
BLACK
6
CONTINUOUS
10
35.9321
20
-27.975
11
36.2179
21
-27.8321
0
LINE
8
BLACK
6
CONTINUOUS
10
39.9321
20
-27.8321
11
38.5036
21
-27.8321
0
LINE
8
BLACK
6
CONTINUOUS
10
38.5036
20
-27.8321
11
38.3607
21
-29.2607
0
LINE
8
BLACK
6
CONTINUOUS
10
38.3607
20
-29.2607
11
38.5036
21
-29.1179
0
LINE
8
BLACK
6
CONTINUOUS
10
38.5036
20
-29.1179
11
38.7893
21
-28.975
0
LINE
8
BLACK
6
CONTINUOUS
10
38.7893
20
-28.975
11
39.5036
21
-28.975
0
LINE
8
BLACK
6
CONTINUOUS
10
39.5036
20
-28.975
11
39.7893
21
-29.1179
0
LINE
8
BLACK
6
CONTINUOUS
10
39.7893
20
-29.1179
11
39.9321
21
-29.2607
0
LINE
8
BLACK
6
CONTINUOUS
10
39.9321
20
-29.2607
11
40.075
21
-29.5464
0
LINE
8
BLACK
6
CONTINUOUS
10
40.075
20
-29.5464
11
40.075
21
-30.2607
0
LINE
8
BLACK
6
CONTINUOUS
10
40.075
20
-30.2607
11
39.9321
21
-30.5464
0
LINE
8
BLACK
6
CONTINUOUS
10
39.9321
20
-30.5464
11
39.7893
21
-30.6893
0
LINE
8
BLACK
6
CONTINUOUS
10
39.7893
20
-30.6893
11
39.5036
21
-30.8321
0
LINE
8
BLACK
6
CONTINUOUS
10
39.5036
20
-30.8321
11
38.7893
21
-30.8321
0
LINE
8
BLACK
6
CONTINUOUS
10
38.7893
20
-30.8321
11
38.5036
21
-30.6893
0
LINE
8
BLACK
6
CONTINUOUS
10
38.5036
20
-30.6893
11
38.3607
21
-30.5464
0
LINE
8
BLACK
6
CONTINUOUS
10
41.2179
20
-27.8321
11
41.2179
21
-28.4036
0
LINE
8
BLACK
6
CONTINUOUS
10
42.3607
20
-27.8321
11
42.3607
21
-28.4036
0
LINE
8
BLACK
6
CONTINUOUS
10
46.7893
20
-31.975
11
46.6464
21
-31.8321
0
LINE
8
BLACK
6
CONTINUOUS
10
46.6464
20
-31.8321
11
46.3607
21
-31.4036
0
LINE
8
BLACK
6
CONTINUOUS
10
46.3607
20
-31.4036
11
46.2179
21
-31.1179
0
LINE
8
BLACK
6
CONTINUOUS
10
46.2179
20
-31.1179
11
46.075
21
-30.6893
0
LINE
8
BLACK
6
CONTINUOUS
10
46.075
20
-30.6893
11
45.9321
21
-29.975
0
LINE
8
BLACK
6
CONTINUOUS
10
45.9321
20
-29.975
11
45.9321
21
-29.4036
0
LINE
8
BLACK
6
CONTINUOUS
10
45.9321
20
-29.4036
11
46.075
21
-28.6893
0
LINE
8
BLACK
6
CONTINUOUS
10
46.075
20
-28.6893
11
46.2179
21
-28.2607
0
LINE
8
BLACK
6
CONTINUOUS
10
46.2179
20
-28.2607
11
46.3607
21
-27.975
0
LINE
8
BLACK
6
CONTINUOUS
10
46.3607
20
-27.975
11
46.6464
21
-27.5464
0
LINE
8
BLACK
6
CONTINUOUS
10
46.6464
20
-27.5464
11
46.7893
21
-27.4036
0
LINE
8
BLACK
6
CONTINUOUS
10
49.5036
20
-30.8321
11
47.7893
21
-30.8321
0
LINE
8
BLACK
6
CONTINUOUS
10
48.6464
20
-30.8321
11
48.6464
21
-27.8321
0
LINE
8
BLACK
6
CONTINUOUS
10
48.6464
20
-27.8321
11
48.3607
21
-28.2607
0
LINE
8
BLACK
6
CONTINUOUS
10
48.3607
20
-28.2607
11
48.075
21
-28.5464
0
LINE
8
BLACK
6
CONTINUOUS
10
48.075
20
-28.5464
11
47.7893
21
-28.6893
0
LINE
8
BLACK
6
CONTINUOUS
10
53.075
20
-30.8321
11
53.075
21
-27.8321
0
LINE
8
BLACK
6
CONTINUOUS
10
54.3607
20
-30.8321
11
54.3607
21
-29.2607
0
LINE
8
BLACK
6
CONTINUOUS
10
54.3607
20
-29.2607
11
54.2179
21
-28.975
0
LINE
8
BLACK
6
CONTINUOUS
10
54.2179
20
-28.975
11
53.9321
21
-28.8321
0
LINE
8
BLACK
6
CONTINUOUS
10
53.9321
20
-28.8321
11
53.5036
21
-28.8321
0
LINE
8
BLACK
6
CONTINUOUS
10
53.5036
20
-28.8321
11
53.2179
21
-28.975
0
LINE
8
BLACK
6
CONTINUOUS
10
53.2179
20
-28.975
11
53.075
21
-29.1179
0
LINE
8
BLACK
6
CONTINUOUS
10
56.2179
20
-30.8321
11
55.9321
21
-30.6893
0
LINE
8
BLACK
6
CONTINUOUS
10
55.9321
20
-30.6893
11
55.7893
21
-30.5464
0
LINE
8
BLACK
6
CONTINUOUS
10
55.7893
20
-30.5464
11
55.6464
21
-30.2607
0
LINE
8
BLACK
6
CONTINUOUS
10
55.6464
20
-30.2607
11
55.6464
21
-29.4036
0
LINE
8
BLACK
6
CONTINUOUS
10
55.6464
20
-29.4036
11
55.7893
21
-29.1179
0
LINE
8
BLACK
6
CONTINUOUS
10
55.7893
20
-29.1179
11
55.9321
21
-28.975
0
LINE
8
BLACK
6
CONTINUOUS
10
55.9321
20
-28.975
11
56.2179
21
-28.8321
0
LINE
8
BLACK
6
CONTINUOUS
10
56.2179
20
-28.8321
11
56.6464
21
-28.8321
0
LINE
8
BLACK
6
CONTINUOUS
10
56.6464
20
-28.8321
11
56.9321
21
-28.975
0
LINE
8
BLACK
6
CONTINUOUS
10
56.9321
20
-28.975
11
57.075
21
-29.1179
0
LINE
8
BLACK
6
CONTINUOUS
10
57.075
20
-29.1179
11
57.2179
21
-29.4036
0
LINE
8
BLACK
6
CONTINUOUS
10
57.2179
20
-29.4036
11
57.2179
21
-30.2607
0
LINE
8
BLACK
6
CONTINUOUS
10
57.2179
20
-30.2607
11
57.075
21
-30.5464
0
LINE
8
BLACK
6
CONTINUOUS
10
57.075
20
-30.5464
11
56.9321
21
-30.6893
0
LINE
8
BLACK
6
CONTINUOUS
10
56.9321
20
-30.6893
11
56.6464
21
-30.8321
0
LINE
8
BLACK
6
CONTINUOUS
10
56.6464
20
-30.8321
11
56.2179
21
-30.8321
0
LINE
8
BLACK
6
CONTINUOUS
10
58.9321
20
-30.8321
11
58.6464
21
-30.6893
0
LINE
8
BLACK
6
CONTINUOUS
10
58.6464
20
-30.6893
11
58.5036
21
-30.4036
0
LINE
8
BLACK
6
CONTINUOUS
10
58.5036
20
-30.4036
11
58.5036
21
-27.8321
0
LINE
8
BLACK
6
CONTINUOUS
10
61.2179
20
-30.6893
11
60.9321
21
-30.8321
0
LINE
8
BLACK
6
CONTINUOUS
10
60.9321
20
-30.8321
11
60.3607
21
-30.8321
0
LINE
8
BLACK
6
CONTINUOUS
10
60.3607
20
-30.8321
11
60.075
21
-30.6893
0
LINE
8
BLACK
6
CONTINUOUS
10
60.075
20
-30.6893
11
59.9321
21
-30.4036
0
LINE
8
BLACK
6
CONTINUOUS
10
59.9321
20
-30.4036
11
59.9321
21
-29.2607
0
LINE
8
BLACK
6
CONTINUOUS
10
59.9321
20
-29.2607
11
60.075
21
-28.975
0
LINE
8
BLACK
6
CONTINUOUS
10
60.075
20
-28.975
11
60.3607
21
-28.8321
0
LINE
8
BLACK
6
CONTINUOUS
10
60.3607
20
-28.8321
11
60.9321
21
-28.8321
0
LINE
8
BLACK
6
CONTINUOUS
10
60.9321
20
-28.8321
11
61.2179
21
-28.975
0
LINE
8
BLACK
6
CONTINUOUS
10
61.2179
20
-28.975
11
61.3607
21
-29.2607
0
LINE
8
BLACK
6
CONTINUOUS
10
61.3607
20
-29.2607
11
61.3607
21
-29.5464
0
LINE
8
BLACK
6
CONTINUOUS
10
61.3607
20
-29.5464
11
59.9321
21
-29.8321
0
LINE
8
BLACK
6
CONTINUOUS
10
62.3607
20
-31.975
11
62.5036
21
-31.8321
0
LINE
8
BLACK
6
CONTINUOUS
10
62.5036
20
-31.8321
11
62.7893
21
-31.4036
0
LINE
8
BLACK
6
CONTINUOUS
10
62.7893
20
-31.4036
11
62.9321
21
-31.1179
0
LINE
8
BLACK
6
CONTINUOUS
10
62.9321
20
-31.1179
11
63.075
21
-30.6893
0
LINE
8
BLACK
6
CONTINUOUS
10
63.075
20
-30.6893
11
63.2179
21
-29.975
0
LINE
8
BLACK
6
CONTINUOUS
10
63.2179
20
-29.975
11
63.2179
21
-29.4036
0
LINE
8
BLACK
6
CONTINUOUS
10
63.2179
20
-29.4036
11
63.075
21
-28.6893
0
LINE
8
BLACK
6
CONTINUOUS
10
63.075
20
-28.6893
11
62.9321
21
-28.2607
0
LINE
8
BLACK
6
CONTINUOUS
10
62.9321
20
-28.2607
11
62.7893
21
-27.975
0
LINE
8
BLACK
6
CONTINUOUS
10
62.7893
20
-27.975
11
62.5036
21
-27.5464
0
LINE
8
BLACK
6
CONTINUOUS
10
62.5036
20
-27.5464
11
62.3607
21
-27.4036
0
LINE
8
BLACK
6
CONTINUOUS
10
67.7893
20
-31.975
11
67.6464
21
-31.8321
0
LINE
8
BLACK
6
CONTINUOUS
10
67.6464
20
-31.8321
11
67.3607
21
-31.4036
0
LINE
8
BLACK
6
CONTINUOUS
10
67.3607
20
-31.4036
11
67.2179
21
-31.1179
0
LINE
8
BLACK
6
CONTINUOUS
10
67.2179
20
-31.1179
11
67.075
21
-30.6893
0
LINE
8
BLACK
6
CONTINUOUS
10
67.075
20
-30.6893
11
66.9321
21
-29.975
0
LINE
8
BLACK
6
CONTINUOUS
10
66.9321
20
-29.975
11
66.9321
21
-29.4036
0
LINE
8
BLACK
6
CONTINUOUS
10
66.9321
20
-29.4036
11
67.075
21
-28.6893
0
LINE
8
BLACK
6
CONTINUOUS
10
67.075
20
-28.6893
11
67.2179
21
-28.2607
0
LINE
8
BLACK
6
CONTINUOUS
10
67.2179
20
-28.2607
11
67.3607
21
-27.975
0
LINE
8
BLACK
6
CONTINUOUS
10
67.3607
20
-27.975
11
67.6464
21
-27.5464
0
LINE
8
BLACK
6
CONTINUOUS
10
67.6464
20
-27.5464
11
67.7893
21
-27.4036
0
LINE
8
BLACK
6
CONTINUOUS
10
68.9321
20
-28.8321
11
68.9321
21
-30.8321
0
LINE
8
BLACK
6
CONTINUOUS
10
68.9321
20
-29.1179
11
69.075
21
-28.975
0
LINE
8
BLACK
6
CONTINUOUS
10
69.075
20
-28.975
11
69.3607
21
-28.8321
0
LINE
8
BLACK
6
CONTINUOUS
10
69.3607
20
-28.8321
11
69.7893
21
-28.8321
0
LINE
8
BLACK
6
CONTINUOUS
10
69.7893
20
-28.8321
11
70.075
21
-28.975
0
LINE
8
BLACK
6
CONTINUOUS
10
70.075
20
-28.975
11
70.2179
21
-29.2607
0
LINE
8
BLACK
6
CONTINUOUS
10
70.2179
20
-29.2607
11
70.2179
21
-30.8321
0
LINE
8
BLACK
6
CONTINUOUS
10
72.075
20
-30.8321
11
71.7893
21
-30.6893
0
LINE
8
BLACK
6
CONTINUOUS
10
71.7893
20
-30.6893
11
71.6464
21
-30.5464
0
LINE
8
BLACK
6
CONTINUOUS
10
71.6464
20
-30.5464
11
71.5036
21
-30.2607
0
LINE
8
BLACK
6
CONTINUOUS
10
71.5036
20
-30.2607
11
71.5036
21
-29.4036
0
LINE
8
BLACK
6
CONTINUOUS
10
71.5036
20
-29.4036
11
71.6464
21
-29.1179
0
LINE
8
BLACK
6
CONTINUOUS
10
71.6464
20
-29.1179
11
71.7893
21
-28.975
0
LINE
8
BLACK
6
CONTINUOUS
10
71.7893
20
-28.975
11
72.075
21
-28.8321
0
LINE
8
BLACK
6
CONTINUOUS
10
72.075
20
-28.8321
11
72.5036
21
-28.8321
0
LINE
8
BLACK
6
CONTINUOUS
10
72.5036
20
-28.8321
11
72.7893
21
-28.975
0
LINE
8
BLACK
6
CONTINUOUS
10
72.7893
20
-28.975
11
72.9321
21
-29.1179
0
LINE
8
BLACK
6
CONTINUOUS
10
72.9321
20
-29.1179
11
73.075
21
-29.4036
0
LINE
8
BLACK
6
CONTINUOUS
10
73.075
20
-29.4036
11
73.075
21
-30.2607
0
LINE
8
BLACK
6
CONTINUOUS
10
73.075
20
-30.2607
11
72.9321
21
-30.5464
0
LINE
8
BLACK
6
CONTINUOUS
10
72.9321
20
-30.5464
11
72.7893
21
-30.6893
0
LINE
8
BLACK
6
CONTINUOUS
10
72.7893
20
-30.6893
11
72.5036
21
-30.8321
0
LINE
8
BLACK
6
CONTINUOUS
10
72.5036
20
-30.8321
11
72.075
21
-30.8321
0
LINE
8
BLACK
6
CONTINUOUS
10
73.9321
20
-28.8321
11
75.075
21
-28.8321
0
LINE
8
BLACK
6
CONTINUOUS
10
74.3607
20
-27.8321
11
74.3607
21
-30.4036
0
LINE
8
BLACK
6
CONTINUOUS
10
74.3607
20
-30.4036
11
74.5036
21
-30.6893
0
LINE
8
BLACK
6
CONTINUOUS
10
74.5036
20
-30.6893
11
74.7893
21
-30.8321
0
LINE
8
BLACK
6
CONTINUOUS
10
74.7893
20
-30.8321
11
75.075
21
-30.8321
0
LINE
8
BLACK
6
CONTINUOUS
10
78.3607
20
-28.8321
11
78.3607
21
-31.8321
0
LINE
8
BLACK
6
CONTINUOUS
10
78.3607
20
-28.975
11
78.6464
21
-28.8321
0
LINE
8
BLACK
6
CONTINUOUS
10
78.6464
20
-28.8321
11
79.2179
21
-28.8321
0
LINE
8
BLACK
6
CONTINUOUS
10
79.2179
20
-28.8321
11
79.5036
21
-28.975
0
LINE
8
BLACK
6
CONTINUOUS
10
79.5036
20
-28.975
11
79.6464
21
-29.1179
0
LINE
8
BLACK
6
CONTINUOUS
10
79.6464
20
-29.1179
11
79.7893
21
-29.4036
0
LINE
8
BLACK
6
CONTINUOUS
10
79.7893
20
-29.4036
11
79.7893
21
-30.2607
0
LINE
8
BLACK
6
CONTINUOUS
10
79.7893
20
-30.2607
11
79.6464
21
-30.5464
0
LINE
8
BLACK
6
CONTINUOUS
10
79.6464
20
-30.5464
11
79.5036
21
-30.6893
0
LINE
8
BLACK
6
CONTINUOUS
10
79.5036
20
-30.6893
11
79.2179
21
-30.8321
0
LINE
8
BLACK
6
CONTINUOUS
10
79.2179
20
-30.8321
11
78.6464
21
-30.8321
0
LINE
8
BLACK
6
CONTINUOUS
10
78.6464
20
-30.8321
11
78.3607
21
-30.6893
0
LINE
8
BLACK
6
CONTINUOUS
10
81.5036
20
-30.8321
11
81.2179
21
-30.6893
0
LINE
8
BLACK
6
CONTINUOUS
10
81.2179
20
-30.6893
11
81.075
21
-30.4036
0
LINE
8
BLACK
6
CONTINUOUS
10
81.075
20
-30.4036
11
81.075
21
-27.8321
0
LINE
8
BLACK
6
CONTINUOUS
10
83.9321
20
-30.8321
11
83.9321
21
-29.2607
0
LINE
8
BLACK
6
CONTINUOUS
10
83.9321
20
-29.2607
11
83.7893
21
-28.975
0
LINE
8
BLACK
6
CONTINUOUS
10
83.7893
20
-28.975
11
83.5036
21
-28.8321
0
LINE
8
BLACK
6
CONTINUOUS
10
83.5036
20
-28.8321
11
82.9321
21
-28.8321
0
LINE
8
BLACK
6
CONTINUOUS
10
82.9321
20
-28.8321
11
82.6464
21
-28.975
0
LINE
8
BLACK
6
CONTINUOUS
10
83.9321
20
-30.6893
11
83.6464
21
-30.8321
0
LINE
8
BLACK
6
CONTINUOUS
10
83.6464
20
-30.8321
11
82.9321
21
-30.8321
0
LINE
8
BLACK
6
CONTINUOUS
10
82.9321
20
-30.8321
11
82.6464
21
-30.6893
0
LINE
8
BLACK
6
CONTINUOUS
10
82.6464
20
-30.6893
11
82.5036
21
-30.4036
0
LINE
8
BLACK
6
CONTINUOUS
10
82.5036
20
-30.4036
11
82.5036
21
-30.1179
0
LINE
8
BLACK
6
CONTINUOUS
10
82.5036
20
-30.1179
11
82.6464
21
-29.8321
0
LINE
8
BLACK
6
CONTINUOUS
10
82.6464
20
-29.8321
11
82.9321
21
-29.6893
0
LINE
8
BLACK
6
CONTINUOUS
10
82.9321
20
-29.6893
11
83.6464
21
-29.6893
0
LINE
8
BLACK
6
CONTINUOUS
10
83.6464
20
-29.6893
11
83.9321
21
-29.5464
0
LINE
8
BLACK
6
CONTINUOUS
10
84.9321
20
-28.8321
11
86.075
21
-28.8321
0
LINE
8
BLACK
6
CONTINUOUS
10
85.3607
20
-27.8321
11
85.3607
21
-30.4036
0
LINE
8
BLACK
6
CONTINUOUS
10
85.3607
20
-30.4036
11
85.5036
21
-30.6893
0
LINE
8
BLACK
6
CONTINUOUS
10
85.5036
20
-30.6893
11
85.7893
21
-30.8321
0
LINE
8
BLACK
6
CONTINUOUS
10
85.7893
20
-30.8321
11
86.075
21
-30.8321
0
LINE
8
BLACK
6
CONTINUOUS
10
88.2179
20
-30.6893
11
87.9321
21
-30.8321
0
LINE
8
BLACK
6
CONTINUOUS
10
87.9321
20
-30.8321
11
87.3607
21
-30.8321
0
LINE
8
BLACK
6
CONTINUOUS
10
87.3607
20
-30.8321
11
87.075
21
-30.6893
0
LINE
8
BLACK
6
CONTINUOUS
10
87.075
20
-30.6893
11
86.9321
21
-30.4036
0
LINE
8
BLACK
6
CONTINUOUS
10
86.9321
20
-30.4036
11
86.9321
21
-29.2607
0
LINE
8
BLACK
6
CONTINUOUS
10
86.9321
20
-29.2607
11
87.075
21
-28.975
0
LINE
8
BLACK
6
CONTINUOUS
10
87.075
20
-28.975
11
87.3607
21
-28.8321
0
LINE
8
BLACK
6
CONTINUOUS
10
87.3607
20
-28.8321
11
87.9321
21
-28.8321
0
LINE
8
BLACK
6
CONTINUOUS
10
87.9321
20
-28.8321
11
88.2179
21
-28.975
0
LINE
8
BLACK
6
CONTINUOUS
10
88.2179
20
-28.975
11
88.3607
21
-29.2607
0
LINE
8
BLACK
6
CONTINUOUS
10
88.3607
20
-29.2607
11
88.3607
21
-29.5464
0
LINE
8
BLACK
6
CONTINUOUS
10
88.3607
20
-29.5464
11
86.9321
21
-29.8321
0
LINE
8
BLACK
6
CONTINUOUS
10
90.9321
20
-30.8321
11
90.9321
21
-27.8321
0
LINE
8
BLACK
6
CONTINUOUS
10
90.9321
20
-30.6893
11
90.6464
21
-30.8321
0
LINE
8
BLACK
6
CONTINUOUS
10
90.6464
20
-30.8321
11
90.075
21
-30.8321
0
LINE
8
BLACK
6
CONTINUOUS
10
90.075
20
-30.8321
11
89.7893
21
-30.6893
0
LINE
8
BLACK
6
CONTINUOUS
10
89.7893
20
-30.6893
11
89.6464
21
-30.5464
0
LINE
8
BLACK
6
CONTINUOUS
10
89.6464
20
-30.5464
11
89.5036
21
-30.2607
0
LINE
8
BLACK
6
CONTINUOUS
10
89.5036
20
-30.2607
11
89.5036
21
-29.4036
0
LINE
8
BLACK
6
CONTINUOUS
10
89.5036
20
-29.4036
11
89.6464
21
-29.1179
0
LINE
8
BLACK
6
CONTINUOUS
10
89.6464
20
-29.1179
11
89.7893
21
-28.975
0
LINE
8
BLACK
6
CONTINUOUS
10
89.7893
20
-28.975
11
90.075
21
-28.8321
0
LINE
8
BLACK
6
CONTINUOUS
10
90.075
20
-28.8321
11
90.6464
21
-28.8321
0
LINE
8
BLACK
6
CONTINUOUS
10
90.6464
20
-28.8321
11
90.9321
21
-28.975
0
LINE
8
BLACK
6
CONTINUOUS
10
92.075
20
-31.975
11
92.2179
21
-31.8321
0
LINE
8
BLACK
6
CONTINUOUS
10
92.2179
20
-31.8321
11
92.5036
21
-31.4036
0
LINE
8
BLACK
6
CONTINUOUS
10
92.5036
20
-31.4036
11
92.6464
21
-31.1179
0
LINE
8
BLACK
6
CONTINUOUS
10
92.6464
20
-31.1179
11
92.7893
21
-30.6893
0
LINE
8
BLACK
6
CONTINUOUS
10
92.7893
20
-30.6893
11
92.9321
21
-29.975
0
LINE
8
BLACK
6
CONTINUOUS
10
92.9321
20
-29.975
11
92.9321
21
-29.4036
0
LINE
8
BLACK
6
CONTINUOUS
10
92.9321
20
-29.4036
11
92.7893
21
-28.6893
0
LINE
8
BLACK
6
CONTINUOUS
10
92.7893
20
-28.6893
11
92.6464
21
-28.2607
0
LINE
8
BLACK
6
CONTINUOUS
10
92.6464
20
-28.2607
11
92.5036
21
-27.975
0
LINE
8
BLACK
6
CONTINUOUS
10
92.5036
20
-27.975
11
92.2179
21
-27.5464
0
LINE
8
BLACK
6
CONTINUOUS
10
92.2179
20
-27.5464
11
92.075
21
-27.4036
  0
ENDSEC
  0
EOF
