G04 #@! TF.GenerationSoftware,KiCad,Pcbnew,(6.0.0-rc1-dev-199-g6b039bc99)*
G04 #@! TF.CreationDate,2018-12-03T23:01:24+01:00*
G04 #@! TF.ProjectId,Ali-FM,416C692D464D2E6B696361645F706362,rev?*
G04 #@! TF.SameCoordinates,Original*
G04 #@! TF.FileFunction,Copper,L1,Top,Signal*
G04 #@! TF.FilePolarity,Positive*
%FSLAX46Y46*%
G04 Gerber Fmt 4.6, Leading zero omitted, Abs format (unit mm)*
G04 Created by KiCad (PCBNEW (6.0.0-rc1-dev-199-g6b039bc99)) date Mon Dec  3 23:01:24 2018*
%MOMM*%
%LPD*%
G01*
G04 APERTURE LIST*
G04 #@! TA.AperFunction,ComponentPad*
%ADD10C,1.700000*%
G04 #@! TD*
G04 #@! TA.AperFunction,SMDPad,CuDef*
%ADD11R,0.750000X0.800000*%
G04 #@! TD*
G04 #@! TA.AperFunction,ComponentPad*
%ADD12R,1.727200X2.032000*%
G04 #@! TD*
G04 #@! TA.AperFunction,ComponentPad*
%ADD13O,1.727200X2.032000*%
G04 #@! TD*
G04 #@! TA.AperFunction,SMDPad,CuDef*
%ADD14R,1.000000X2.000000*%
G04 #@! TD*
G04 #@! TA.AperFunction,SMDPad,CuDef*
%ADD15R,2.000000X4.000000*%
G04 #@! TD*
G04 #@! TA.AperFunction,SMDPad,CuDef*
%ADD16R,1.000000X1.600000*%
G04 #@! TD*
G04 #@! TA.AperFunction,SMDPad,CuDef*
%ADD17R,0.800000X0.750000*%
G04 #@! TD*
G04 #@! TA.AperFunction,SMDPad,CuDef*
%ADD18R,0.900000X0.500000*%
G04 #@! TD*
G04 #@! TA.AperFunction,SMDPad,CuDef*
%ADD19R,1.000000X1.250000*%
G04 #@! TD*
G04 #@! TA.AperFunction,SMDPad,CuDef*
%ADD20R,3.000000X1.600000*%
G04 #@! TD*
G04 #@! TA.AperFunction,SMDPad,CuDef*
%ADD21R,2.499360X1.800860*%
G04 #@! TD*
G04 #@! TA.AperFunction,SMDPad,CuDef*
%ADD22R,0.550000X1.600000*%
G04 #@! TD*
G04 #@! TA.AperFunction,SMDPad,CuDef*
%ADD23R,1.600000X0.550000*%
G04 #@! TD*
G04 #@! TA.AperFunction,ComponentPad*
%ADD24R,2.032000X2.032000*%
G04 #@! TD*
G04 #@! TA.AperFunction,ComponentPad*
%ADD25O,2.032000X2.032000*%
G04 #@! TD*
G04 #@! TA.AperFunction,ComponentPad*
%ADD26R,1.727200X1.727200*%
G04 #@! TD*
G04 #@! TA.AperFunction,ComponentPad*
%ADD27O,1.727200X1.727200*%
G04 #@! TD*
G04 #@! TA.AperFunction,SMDPad,CuDef*
%ADD28R,0.800000X0.900000*%
G04 #@! TD*
G04 #@! TA.AperFunction,SMDPad,CuDef*
%ADD29R,0.500000X0.900000*%
G04 #@! TD*
G04 #@! TA.AperFunction,SMDPad,CuDef*
%ADD30R,1.060000X0.650000*%
G04 #@! TD*
G04 #@! TA.AperFunction,SMDPad,CuDef*
%ADD31R,2.780000X1.550000*%
G04 #@! TD*
G04 #@! TA.AperFunction,SMDPad,CuDef*
%ADD32R,6.730000X6.740000*%
G04 #@! TD*
G04 #@! TA.AperFunction,SMDPad,CuDef*
%ADD33R,5.499100X1.998980*%
G04 #@! TD*
G04 #@! TA.AperFunction,ViaPad*
%ADD34C,0.800000*%
G04 #@! TD*
G04 #@! TA.AperFunction,ViaPad*
%ADD35C,1.000000*%
G04 #@! TD*
G04 #@! TA.AperFunction,Conductor*
%ADD36C,0.500000*%
G04 #@! TD*
G04 #@! TA.AperFunction,Conductor*
%ADD37C,0.400000*%
G04 #@! TD*
G04 #@! TA.AperFunction,Conductor*
%ADD38C,0.300000*%
G04 #@! TD*
G04 #@! TA.AperFunction,Conductor*
%ADD39C,1.000000*%
G04 #@! TD*
G04 #@! TA.AperFunction,Conductor*
%ADD40C,0.200000*%
G04 #@! TD*
G04 #@! TA.AperFunction,Conductor*
%ADD41C,0.254000*%
G04 #@! TD*
G04 APERTURE END LIST*
D10*
G04 #@! TO.P,U6,1*
G04 #@! TO.N,/D13(SCLK)*
X3400000Y51110000D03*
G04 #@! TO.P,U6,2*
G04 #@! TO.N,/D12(MISO)*
X3400000Y48570000D03*
G04 #@! TO.P,U6,3*
G04 #@! TO.N,/D7*
X3400000Y46030000D03*
G04 #@! TO.P,U6,4*
G04 #@! TO.N,GND*
X3400000Y43490000D03*
G04 #@! TO.P,U6,5*
G04 #@! TO.N,+5V*
X3400000Y40950000D03*
G04 #@! TO.P,U6,6*
G04 #@! TO.N,N/C*
X3400000Y38410000D03*
G04 #@! TO.P,U6,7*
G04 #@! TO.N,Net-(R31-Pad2)*
X74600000Y46030000D03*
G04 #@! TO.P,U6,8*
G04 #@! TO.N,N/C*
X74600000Y43490000D03*
G04 #@! TD*
D11*
G04 #@! TO.P,C14,1*
G04 #@! TO.N,+5V*
X36576000Y2552000D03*
G04 #@! TO.P,C14,2*
G04 #@! TO.N,GND*
X36576000Y4052000D03*
G04 #@! TD*
D12*
G04 #@! TO.P,P3,1*
G04 #@! TO.N,+5V*
X39878000Y2540000D03*
D13*
G04 #@! TO.P,P3,2*
G04 #@! TO.N,Net-(C3-Pad1)*
X42418000Y2540000D03*
G04 #@! TO.P,P3,3*
G04 #@! TO.N,Net-(C4-Pad1)*
X44958000Y2540000D03*
G04 #@! TO.P,P3,4*
G04 #@! TO.N,GND*
X47498000Y2540000D03*
G04 #@! TD*
D14*
G04 #@! TO.P,D2,1*
G04 #@! TO.N,GND*
X67850000Y29504000D03*
G04 #@! TO.P,D2,2*
G04 #@! TO.N,Net-(D2-Pad2)*
X65150000Y29504000D03*
G04 #@! TD*
G04 #@! TO.P,D3,2*
G04 #@! TO.N,Net-(D3-Pad2)*
X45150000Y29500000D03*
G04 #@! TO.P,D3,1*
G04 #@! TO.N,GND*
X47850000Y29500000D03*
G04 #@! TD*
G04 #@! TO.P,D4,1*
G04 #@! TO.N,GND*
X10850000Y29500000D03*
G04 #@! TO.P,D4,2*
G04 #@! TO.N,Net-(D4-Pad2)*
X8150000Y29500000D03*
G04 #@! TD*
D15*
G04 #@! TO.P,Q1,1*
G04 #@! TO.N,+5V*
X35560000Y27892000D03*
G04 #@! TO.P,Q1,2*
G04 #@! TO.N,/A7*
X35560000Y17892000D03*
G04 #@! TD*
D16*
G04 #@! TO.P,F1,2*
G04 #@! TO.N,Net-(C2-Pad1)*
X57428000Y6096000D03*
G04 #@! TO.P,F1,1*
G04 #@! TO.N,Net-(D1-Pad1)*
X60428000Y6096000D03*
G04 #@! TD*
D17*
G04 #@! TO.P,C13,2*
G04 #@! TO.N,GND*
X25412000Y30734000D03*
G04 #@! TO.P,C13,1*
G04 #@! TO.N,Net-(C13-Pad1)*
X26912000Y30734000D03*
G04 #@! TD*
G04 #@! TO.P,C9,2*
G04 #@! TO.N,GND*
X23610000Y30734000D03*
G04 #@! TO.P,C9,1*
G04 #@! TO.N,Net-(C9-Pad1)*
X22110000Y30734000D03*
G04 #@! TD*
D11*
G04 #@! TO.P,C7,2*
G04 #@! TO.N,GND*
X24384000Y9410000D03*
G04 #@! TO.P,C7,1*
G04 #@! TO.N,Net-(C7-Pad1)*
X24384000Y10910000D03*
G04 #@! TD*
G04 #@! TO.P,C5,2*
G04 #@! TO.N,GND*
X22606000Y9410000D03*
G04 #@! TO.P,C5,1*
G04 #@! TO.N,+5V*
X22606000Y10910000D03*
G04 #@! TD*
D17*
G04 #@! TO.P,C4,2*
G04 #@! TO.N,GND*
X47994000Y6096000D03*
G04 #@! TO.P,C4,1*
G04 #@! TO.N,Net-(C4-Pad1)*
X46494000Y6096000D03*
G04 #@! TD*
G04 #@! TO.P,C3,2*
G04 #@! TO.N,GND*
X43192000Y6096000D03*
G04 #@! TO.P,C3,1*
G04 #@! TO.N,Net-(C3-Pad1)*
X44692000Y6096000D03*
G04 #@! TD*
D11*
G04 #@! TO.P,C2,2*
G04 #@! TO.N,GND*
X55626000Y4076000D03*
G04 #@! TO.P,C2,1*
G04 #@! TO.N,Net-(C2-Pad1)*
X55626000Y5576000D03*
G04 #@! TD*
G04 #@! TO.P,C1,2*
G04 #@! TO.N,/A6*
X53848000Y9132000D03*
G04 #@! TO.P,C1,1*
G04 #@! TO.N,GND*
X53848000Y7632000D03*
G04 #@! TD*
D18*
G04 #@! TO.P,R2,2*
G04 #@! TO.N,+5V*
X26162000Y9410000D03*
G04 #@! TO.P,R2,1*
G04 #@! TO.N,Net-(C7-Pad1)*
X26162000Y10910000D03*
G04 #@! TD*
G04 #@! TO.P,R6,1*
G04 #@! TO.N,+5V*
X33528000Y13252000D03*
G04 #@! TO.P,R6,2*
G04 #@! TO.N,/RES*
X33528000Y14752000D03*
G04 #@! TD*
D17*
G04 #@! TO.P,C6,1*
G04 #@! TO.N,GND*
X71044000Y22862000D03*
G04 #@! TO.P,C6,2*
G04 #@! TO.N,+5V*
X69544000Y22862000D03*
G04 #@! TD*
D19*
G04 #@! TO.P,C8,2*
G04 #@! TO.N,Net-(C8-Pad2)*
X67484000Y22100000D03*
G04 #@! TO.P,C8,1*
G04 #@! TO.N,Net-(C8-Pad1)*
X65484000Y22100000D03*
G04 #@! TD*
D20*
G04 #@! TO.P,C10,1*
G04 #@! TO.N,+5V*
X30312000Y7620000D03*
G04 #@! TO.P,C10,2*
G04 #@! TO.N,GND*
X34712000Y7620000D03*
G04 #@! TD*
D17*
G04 #@! TO.P,C11,2*
G04 #@! TO.N,+5V*
X49542000Y22860000D03*
G04 #@! TO.P,C11,1*
G04 #@! TO.N,GND*
X51042000Y22860000D03*
G04 #@! TD*
D19*
G04 #@! TO.P,C12,1*
G04 #@! TO.N,Net-(C12-Pad1)*
X45482000Y22098000D03*
G04 #@! TO.P,C12,2*
G04 #@! TO.N,Net-(C12-Pad2)*
X47482000Y22098000D03*
G04 #@! TD*
D17*
G04 #@! TO.P,C15,1*
G04 #@! TO.N,GND*
X14466000Y22860000D03*
G04 #@! TO.P,C15,2*
G04 #@! TO.N,+5V*
X12966000Y22860000D03*
G04 #@! TD*
D19*
G04 #@! TO.P,C16,2*
G04 #@! TO.N,Net-(C16-Pad2)*
X10411001Y21736999D03*
G04 #@! TO.P,C16,1*
G04 #@! TO.N,Net-(C16-Pad1)*
X8411001Y21736999D03*
G04 #@! TD*
D21*
G04 #@! TO.P,D1,2*
G04 #@! TO.N,Net-(D1-Pad2)*
X62196980Y2794000D03*
G04 #@! TO.P,D1,1*
G04 #@! TO.N,Net-(D1-Pad1)*
X58199020Y2794000D03*
G04 #@! TD*
D22*
G04 #@! TO.P,IC1,1*
G04 #@! TO.N,/D3*
X27692000Y21776000D03*
G04 #@! TO.P,IC1,2*
G04 #@! TO.N,/D4*
X26892000Y21776000D03*
G04 #@! TO.P,IC1,3*
G04 #@! TO.N,GND*
X26092000Y21776000D03*
G04 #@! TO.P,IC1,4*
G04 #@! TO.N,+5V*
X25292000Y21776000D03*
G04 #@! TO.P,IC1,5*
G04 #@! TO.N,GND*
X24492000Y21776000D03*
G04 #@! TO.P,IC1,6*
G04 #@! TO.N,+5V*
X23692000Y21776000D03*
G04 #@! TO.P,IC1,7*
G04 #@! TO.N,Net-(C13-Pad1)*
X22892000Y21776000D03*
G04 #@! TO.P,IC1,8*
G04 #@! TO.N,Net-(C9-Pad1)*
X22092000Y21776000D03*
D23*
G04 #@! TO.P,IC1,9*
G04 #@! TO.N,/D5*
X20642000Y20326000D03*
G04 #@! TO.P,IC1,10*
G04 #@! TO.N,N/C*
X20642000Y19526000D03*
G04 #@! TO.P,IC1,11*
G04 #@! TO.N,/D7*
X20642000Y18726000D03*
G04 #@! TO.P,IC1,12*
G04 #@! TO.N,/D8*
X20642000Y17926000D03*
G04 #@! TO.P,IC1,13*
G04 #@! TO.N,/D9*
X20642000Y17126000D03*
G04 #@! TO.P,IC1,14*
G04 #@! TO.N,N/C*
X20642000Y16326000D03*
G04 #@! TO.P,IC1,15*
G04 #@! TO.N,/D11(MOSI)*
X20642000Y15526000D03*
G04 #@! TO.P,IC1,16*
G04 #@! TO.N,/D12(MISO)*
X20642000Y14726000D03*
D22*
G04 #@! TO.P,IC1,17*
G04 #@! TO.N,/D13(SCLK)*
X22092000Y13276000D03*
G04 #@! TO.P,IC1,18*
G04 #@! TO.N,+5V*
X22892000Y13276000D03*
G04 #@! TO.P,IC1,19*
G04 #@! TO.N,/A6*
X23692000Y13276000D03*
G04 #@! TO.P,IC1,20*
G04 #@! TO.N,Net-(C7-Pad1)*
X24492000Y13276000D03*
G04 #@! TO.P,IC1,21*
G04 #@! TO.N,GND*
X25292000Y13276000D03*
G04 #@! TO.P,IC1,22*
G04 #@! TO.N,/A7*
X26092000Y13276000D03*
G04 #@! TO.P,IC1,23*
G04 #@! TO.N,N/C*
X26892000Y13276000D03*
G04 #@! TO.P,IC1,24*
X27692000Y13276000D03*
D23*
G04 #@! TO.P,IC1,25*
X29142000Y14726000D03*
G04 #@! TO.P,IC1,26*
X29142000Y15526000D03*
G04 #@! TO.P,IC1,27*
X29142000Y16326000D03*
G04 #@! TO.P,IC1,28*
X29142000Y17126000D03*
G04 #@! TO.P,IC1,29*
G04 #@! TO.N,/RES*
X29142000Y17926000D03*
G04 #@! TO.P,IC1,30*
G04 #@! TO.N,N/C*
X29142000Y18726000D03*
G04 #@! TO.P,IC1,31*
X29142000Y19526000D03*
G04 #@! TO.P,IC1,32*
G04 #@! TO.N,/D2*
X29142000Y20326000D03*
G04 #@! TD*
D24*
G04 #@! TO.P,P1,1*
G04 #@! TO.N,Net-(D1-Pad2)*
X66040000Y2540000D03*
D25*
G04 #@! TO.P,P1,2*
G04 #@! TO.N,GND*
X66040000Y5080000D03*
G04 #@! TD*
D26*
G04 #@! TO.P,P2,1*
G04 #@! TO.N,/D12(MISO)*
X57658000Y11938000D03*
D27*
G04 #@! TO.P,P2,2*
G04 #@! TO.N,+5V*
X55118000Y11938000D03*
G04 #@! TO.P,P2,3*
G04 #@! TO.N,/D13(SCLK)*
X57658000Y14478000D03*
G04 #@! TO.P,P2,4*
G04 #@! TO.N,/D11(MOSI)*
X55118000Y14478000D03*
G04 #@! TO.P,P2,5*
G04 #@! TO.N,/RES*
X57658000Y17018000D03*
G04 #@! TO.P,P2,6*
G04 #@! TO.N,GND*
X55118000Y17018000D03*
G04 #@! TD*
D28*
G04 #@! TO.P,Q3,1*
G04 #@! TO.N,Net-(Q3-Pad1)*
X69852000Y41420000D03*
G04 #@! TO.P,Q3,2*
G04 #@! TO.N,GND*
X71752000Y41420000D03*
G04 #@! TO.P,Q3,3*
G04 #@! TO.N,Net-(Q3-Pad3)*
X70802000Y43420000D03*
G04 #@! TD*
D18*
G04 #@! TO.P,R1,2*
G04 #@! TO.N,GND*
X35560000Y13252000D03*
G04 #@! TO.P,R1,1*
G04 #@! TO.N,/A7*
X35560000Y14752000D03*
G04 #@! TD*
D29*
G04 #@! TO.P,R3,1*
G04 #@! TO.N,GND*
X71044000Y26418000D03*
G04 #@! TO.P,R3,2*
G04 #@! TO.N,Net-(R3-Pad2)*
X69544000Y26418000D03*
G04 #@! TD*
D18*
G04 #@! TO.P,R4,1*
G04 #@! TO.N,Net-(D2-Pad2)*
X63246000Y27674000D03*
G04 #@! TO.P,R4,2*
G04 #@! TO.N,/D8*
X63246000Y26174000D03*
G04 #@! TD*
D29*
G04 #@! TO.P,R5,2*
G04 #@! TO.N,+5V*
X71044000Y24640000D03*
G04 #@! TO.P,R5,1*
G04 #@! TO.N,Net-(R3-Pad2)*
X69544000Y24640000D03*
G04 #@! TD*
D18*
G04 #@! TO.P,R10,2*
G04 #@! TO.N,Net-(C2-Pad1)*
X57404000Y7874000D03*
G04 #@! TO.P,R10,1*
G04 #@! TO.N,Net-(R10-Pad1)*
X57404000Y9374000D03*
G04 #@! TD*
G04 #@! TO.P,R11,1*
G04 #@! TO.N,GND*
X59182000Y7886000D03*
G04 #@! TO.P,R11,2*
G04 #@! TO.N,Net-(R10-Pad1)*
X59182000Y9386000D03*
G04 #@! TD*
G04 #@! TO.P,R12,1*
G04 #@! TO.N,/A6*
X55626000Y7886000D03*
G04 #@! TO.P,R12,2*
G04 #@! TO.N,Net-(R10-Pad1)*
X55626000Y9386000D03*
G04 #@! TD*
D29*
G04 #@! TO.P,R13,1*
G04 #@! TO.N,Butt-1*
X62178000Y24132000D03*
G04 #@! TO.P,R13,2*
G04 #@! TO.N,Net-(C8-Pad1)*
X63678000Y24132000D03*
G04 #@! TD*
G04 #@! TO.P,R14,1*
G04 #@! TO.N,GND*
X51054000Y26416000D03*
G04 #@! TO.P,R14,2*
G04 #@! TO.N,Net-(R14-Pad2)*
X49554000Y26416000D03*
G04 #@! TD*
D18*
G04 #@! TO.P,R15,2*
G04 #@! TO.N,/D9*
X43180000Y26174000D03*
G04 #@! TO.P,R15,1*
G04 #@! TO.N,Net-(D3-Pad2)*
X43180000Y27674000D03*
G04 #@! TD*
D29*
G04 #@! TO.P,R16,2*
G04 #@! TO.N,+5V*
X51042000Y24638000D03*
G04 #@! TO.P,R16,1*
G04 #@! TO.N,Net-(R14-Pad2)*
X49542000Y24638000D03*
G04 #@! TD*
G04 #@! TO.P,R17,1*
G04 #@! TO.N,Butt-2*
X42176000Y24130000D03*
G04 #@! TO.P,R17,2*
G04 #@! TO.N,Net-(C12-Pad1)*
X43676000Y24130000D03*
G04 #@! TD*
G04 #@! TO.P,R18,1*
G04 #@! TO.N,GND*
X14212000Y26416000D03*
G04 #@! TO.P,R18,2*
G04 #@! TO.N,Net-(R18-Pad2)*
X12712000Y26416000D03*
G04 #@! TD*
D18*
G04 #@! TO.P,R21,2*
G04 #@! TO.N,/D4*
X6350000Y26174000D03*
G04 #@! TO.P,R21,1*
G04 #@! TO.N,Net-(D4-Pad2)*
X6350000Y27674000D03*
G04 #@! TD*
D29*
G04 #@! TO.P,R22,2*
G04 #@! TO.N,+5V*
X14212000Y24638000D03*
G04 #@! TO.P,R22,1*
G04 #@! TO.N,Net-(R18-Pad2)*
X12712000Y24638000D03*
G04 #@! TD*
G04 #@! TO.P,R23,2*
G04 #@! TO.N,Net-(C16-Pad1)*
X6592000Y24130000D03*
G04 #@! TO.P,R23,1*
G04 #@! TO.N,Butt-3*
X5092000Y24130000D03*
G04 #@! TD*
D18*
G04 #@! TO.P,R25,2*
G04 #@! TO.N,/D2*
X44704000Y9132000D03*
G04 #@! TO.P,R25,1*
G04 #@! TO.N,Net-(C3-Pad1)*
X44704000Y7632000D03*
G04 #@! TD*
G04 #@! TO.P,R26,2*
G04 #@! TO.N,/D3*
X46482000Y9132000D03*
G04 #@! TO.P,R26,1*
G04 #@! TO.N,Net-(C4-Pad1)*
X46482000Y7632000D03*
G04 #@! TD*
G04 #@! TO.P,R27,1*
G04 #@! TO.N,Net-(C3-Pad1)*
X42926000Y7632000D03*
G04 #@! TO.P,R27,2*
G04 #@! TO.N,+5V*
X42926000Y9132000D03*
G04 #@! TD*
G04 #@! TO.P,R28,1*
G04 #@! TO.N,Net-(C4-Pad1)*
X48260000Y7632000D03*
G04 #@! TO.P,R28,2*
G04 #@! TO.N,+5V*
X48260000Y9132000D03*
G04 #@! TD*
D29*
G04 #@! TO.P,R29,1*
G04 #@! TO.N,Net-(Q3-Pad1)*
X70052000Y37848000D03*
G04 #@! TO.P,R29,2*
G04 #@! TO.N,/D5*
X71552000Y37848000D03*
G04 #@! TD*
G04 #@! TO.P,R30,2*
G04 #@! TO.N,GND*
X71552000Y39626000D03*
G04 #@! TO.P,R30,1*
G04 #@! TO.N,Net-(Q3-Pad1)*
X70052000Y39626000D03*
G04 #@! TD*
G04 #@! TO.P,R31,2*
G04 #@! TO.N,Net-(R31-Pad2)*
X71806000Y45214000D03*
G04 #@! TO.P,R31,1*
G04 #@! TO.N,Net-(Q3-Pad3)*
X70306000Y45214000D03*
G04 #@! TD*
D30*
G04 #@! TO.P,U1,5*
G04 #@! TO.N,+5V*
X67584000Y25148000D03*
G04 #@! TO.P,U1,6*
G04 #@! TO.N,Net-(R3-Pad2)*
X67584000Y26098000D03*
G04 #@! TO.P,U1,4*
G04 #@! TO.N,Net-(C8-Pad2)*
X67584000Y24198000D03*
G04 #@! TO.P,U1,3*
G04 #@! TO.N,Net-(C8-Pad1)*
X65384000Y24198000D03*
G04 #@! TO.P,U1,2*
G04 #@! TO.N,GND*
X65384000Y25148000D03*
G04 #@! TO.P,U1,1*
G04 #@! TO.N,/D8*
X65384000Y26098000D03*
G04 #@! TD*
D31*
G04 #@! TO.P,U2,3*
G04 #@! TO.N,+5V*
X23350000Y7183800D03*
D32*
G04 #@! TO.P,U2,4*
G04 #@! TO.N,GND*
X16715000Y5003800D03*
D31*
G04 #@! TO.P,U2,1*
G04 #@! TO.N,Net-(C2-Pad1)*
X23350000Y2823800D03*
G04 #@! TD*
D30*
G04 #@! TO.P,U4,1*
G04 #@! TO.N,/D9*
X45382000Y26096000D03*
G04 #@! TO.P,U4,2*
G04 #@! TO.N,GND*
X45382000Y25146000D03*
G04 #@! TO.P,U4,3*
G04 #@! TO.N,Net-(C12-Pad1)*
X45382000Y24196000D03*
G04 #@! TO.P,U4,4*
G04 #@! TO.N,Net-(C12-Pad2)*
X47582000Y24196000D03*
G04 #@! TO.P,U4,6*
G04 #@! TO.N,Net-(R14-Pad2)*
X47582000Y26096000D03*
G04 #@! TO.P,U4,5*
G04 #@! TO.N,+5V*
X47582000Y25146000D03*
G04 #@! TD*
G04 #@! TO.P,U5,1*
G04 #@! TO.N,/D4*
X8411001Y25986999D03*
G04 #@! TO.P,U5,2*
G04 #@! TO.N,GND*
X8411001Y25036999D03*
G04 #@! TO.P,U5,3*
G04 #@! TO.N,Net-(C16-Pad1)*
X8411001Y24086999D03*
G04 #@! TO.P,U5,4*
G04 #@! TO.N,Net-(C16-Pad2)*
X10611001Y24086999D03*
G04 #@! TO.P,U5,6*
G04 #@! TO.N,Net-(R18-Pad2)*
X10611001Y25986999D03*
G04 #@! TO.P,U5,5*
G04 #@! TO.N,+5V*
X10611001Y25036999D03*
G04 #@! TD*
D33*
G04 #@! TO.P,X1,1*
G04 #@! TO.N,Net-(C9-Pad1)*
X19939000Y26670000D03*
G04 #@! TO.P,X1,2*
G04 #@! TO.N,Net-(C13-Pad1)*
X29337000Y26670000D03*
G04 #@! TD*
D34*
G04 #@! TO.N,GND*
X17932400Y22326600D03*
D35*
X17932400Y24434800D03*
X24180800Y24485600D03*
X24460200Y28016200D03*
X29286200Y22733000D03*
X25654000Y8331200D03*
X25315127Y11736624D03*
X25704800Y5613400D03*
X34518600Y12217400D03*
X35331400Y9398000D03*
X55321200Y28270200D03*
X55321200Y26238200D03*
X55372000Y24155400D03*
X47701200Y4597400D03*
X51358800Y4673600D03*
X54889400Y6832600D03*
X41681400Y5486400D03*
D34*
G04 #@! TO.N,+5V*
X21158200Y23444200D03*
X23639149Y23463515D03*
D35*
X56388000Y26973999D03*
X28778200Y3683000D03*
X27323198Y7131198D03*
G04 #@! TO.N,/RES*
X37846000Y17526000D03*
X32766000Y18156831D03*
G04 #@! TO.N,/D3*
X25654000Y15138400D03*
X45520684Y4756020D03*
D34*
G04 #@! TO.N,/D4*
X17907000Y20015200D03*
X26331321Y20375997D03*
G04 #@! TO.N,/D5*
X20904200Y21793200D03*
X25278448Y24557673D03*
D35*
G04 #@! TO.N,/D8*
X37846000Y18796000D03*
X18542000Y17780000D03*
G04 #@! TO.N,/D9*
X33731200Y27736800D03*
X22591068Y17352021D03*
G04 #@! TO.N,/D11(MOSI)*
X37846000Y16002000D03*
X22352000Y15582010D03*
G04 #@! TO.N,/D12(MISO)*
X37642800Y13335000D03*
X18766522Y15722600D03*
G04 #@! TO.N,/D13(SCLK)*
X37846000Y14732000D03*
X20506000Y13276000D03*
G04 #@! TO.N,/A6*
X32029400Y12217400D03*
X37592000Y12115800D03*
G04 #@! TO.N,/D2*
X27305000Y15417800D03*
X37617400Y8356600D03*
D34*
G04 #@! TO.N,Butt-1*
X62890400Y22834600D03*
G04 #@! TO.N,Butt-2*
X42875200Y22809200D03*
G04 #@! TO.N,Butt-3*
X5142877Y22722718D03*
G04 #@! TD*
D36*
G04 #@! TO.N,GND*
X7381001Y25036999D02*
X7145000Y25273000D01*
X8411001Y25036999D02*
X7381001Y25036999D01*
X6224998Y25273000D02*
X5816600Y24864602D01*
X7145000Y25273000D02*
X6224998Y25273000D01*
X5992878Y23130719D02*
X5992878Y22607522D01*
X5816600Y23306997D02*
X5992878Y23130719D01*
X5816600Y24864602D02*
X5816600Y23306997D01*
X5992878Y22220120D02*
X7664398Y20548600D01*
X5992878Y22607522D02*
X5992878Y22220120D01*
X14212000Y27138000D02*
X14212000Y26416000D01*
X11850000Y29500000D02*
X14212000Y27138000D01*
X10850000Y29500000D02*
X11850000Y29500000D01*
X16154400Y20548600D02*
X17932400Y22326600D01*
X7664398Y20548600D02*
X16154400Y20548600D01*
X16193200Y24434800D02*
X14212000Y26416000D01*
X17932400Y24434800D02*
X16193200Y24434800D01*
X16065800Y24434800D02*
X16193200Y24434800D01*
X14491000Y22860000D02*
X16065800Y24434800D01*
X14466000Y22860000D02*
X14491000Y22860000D01*
X24492000Y21776000D02*
X24492000Y24174400D01*
X24492000Y24174400D02*
X24180800Y24485600D01*
X26092000Y22861002D02*
X26573598Y23342600D01*
X26092000Y21776000D02*
X26092000Y22861002D01*
X26573598Y23342600D02*
X29184600Y23342600D01*
X46412000Y25146000D02*
X46431200Y25165200D01*
X45382000Y25146000D02*
X46412000Y25146000D01*
X46431200Y26610202D02*
X47075198Y27254200D01*
X46431200Y25165200D02*
X46431200Y26610202D01*
X47075198Y27254200D02*
X47523400Y27254200D01*
X47850000Y27580800D02*
X47850000Y29500000D01*
X47523400Y27254200D02*
X47850000Y27580800D01*
X25412000Y30734000D02*
X24511000Y30734000D01*
X24511000Y30734000D02*
X24511000Y28067000D01*
X24511000Y30734000D02*
X23610000Y30734000D01*
X24511000Y28067000D02*
X24460200Y28016200D01*
X29184600Y22834600D02*
X29184600Y23342600D01*
X29286200Y22733000D02*
X29184600Y22834600D01*
X24575200Y9410000D02*
X25654000Y8331200D01*
X24384000Y9410000D02*
X24575200Y9410000D01*
X25315127Y13252873D02*
X25292000Y13276000D01*
X25315127Y11736624D02*
X25315127Y13252873D01*
D37*
X22606000Y9410000D02*
X24384000Y9410000D01*
D36*
X35553200Y13252000D02*
X34518600Y12217400D01*
X35560000Y13252000D02*
X35553200Y13252000D01*
X10850000Y31000000D02*
X10850000Y29500000D01*
X10176200Y31673800D02*
X10850000Y31000000D01*
X5283200Y31673800D02*
X10176200Y31673800D01*
X3657600Y33299400D02*
X5283200Y31673800D01*
X5328800Y43490000D02*
X5892800Y42926000D01*
X3400000Y43490000D02*
X5328800Y43490000D01*
X5892800Y37719000D02*
X3657600Y35483800D01*
X3657600Y35483800D02*
X3657600Y33299400D01*
X5892800Y42926000D02*
X5892800Y37719000D01*
D38*
X52708200Y28270200D02*
X55321200Y28270200D01*
X51054000Y26616000D02*
X52708200Y28270200D01*
X51054000Y26416000D02*
X51054000Y26616000D01*
X51067000Y22860000D02*
X51042000Y22860000D01*
X51742000Y23535000D02*
X51067000Y22860000D01*
X51742000Y23560000D02*
X51742000Y23535000D01*
X54420200Y26238200D02*
X51742000Y23560000D01*
X55321200Y26238200D02*
X54420200Y26238200D01*
X56331601Y15804399D02*
X59035199Y15804399D01*
X55118000Y17018000D02*
X56331601Y15804399D01*
X47701200Y5803200D02*
X47994000Y6096000D01*
X47701200Y4597400D02*
X47701200Y5803200D01*
X54647400Y6832600D02*
X53848000Y7632000D01*
X54889400Y6832600D02*
X54647400Y6832600D01*
D37*
X47701200Y2743200D02*
X47498000Y2540000D01*
X47701200Y4597400D02*
X47701200Y2743200D01*
D36*
X42582400Y5486400D02*
X43192000Y6096000D01*
X41681400Y5486400D02*
X42582400Y5486400D01*
G04 #@! TO.N,+5V*
X68614000Y25148000D02*
X67584000Y25148000D01*
X69544000Y22862000D02*
X69519000Y22862000D01*
X69519000Y22862000D02*
X68656200Y23724800D01*
X68656200Y23724800D02*
X68656200Y25105800D01*
X68656200Y25105800D02*
X68614000Y25148000D01*
X22892000Y14576000D02*
X22892000Y13276000D01*
X23692000Y15376000D02*
X22892000Y14576000D01*
X25292000Y20476000D02*
X25273000Y20457000D01*
X25292000Y21776000D02*
X25292000Y20476000D01*
X25273000Y20457000D02*
X25273000Y19989800D01*
X24866600Y19583400D02*
X23692000Y19583400D01*
X25273000Y19989800D02*
X24866600Y19583400D01*
X23692000Y19583400D02*
X23692000Y15376000D01*
X23692000Y21776000D02*
X23692000Y19583400D01*
X22892000Y11196000D02*
X22606000Y10910000D01*
X22892000Y13276000D02*
X22892000Y11196000D01*
X11641001Y25036999D02*
X10611001Y25036999D01*
X12966000Y22860000D02*
X12066000Y22860000D01*
X12066000Y22860000D02*
X11785600Y23140400D01*
X11785600Y23140400D02*
X11785600Y24892400D01*
X11785600Y24892400D02*
X11641001Y25036999D01*
X71044000Y24511200D02*
X71044000Y24640000D01*
X69544000Y23011200D02*
X71044000Y24511200D01*
X69544000Y22862000D02*
X69544000Y23011200D01*
X14212000Y24397400D02*
X14212000Y24638000D01*
X12966000Y23151400D02*
X14212000Y24397400D01*
X12966000Y22860000D02*
X12966000Y23151400D01*
X48297002Y25146000D02*
X48717200Y24725802D01*
X48717200Y24725802D02*
X48717200Y23266400D01*
X49123600Y22860000D02*
X49542000Y22860000D01*
X48717200Y23266400D02*
X49123600Y22860000D01*
X49542000Y22999000D02*
X49542000Y22860000D01*
X51042000Y24499000D02*
X49542000Y22999000D01*
X51042000Y24638000D02*
X51042000Y24499000D01*
X12966000Y21985000D02*
X12966000Y22860000D01*
X21158200Y23444200D02*
X16865600Y23444200D01*
X16865600Y23444200D02*
X14935200Y21513800D01*
X14935200Y21513800D02*
X13437200Y21513800D01*
X13437200Y21513800D02*
X12966000Y21985000D01*
X23692000Y23410664D02*
X23639149Y23463515D01*
X23692000Y21776000D02*
X23692000Y23410664D01*
X25292000Y23076000D02*
X26258611Y24042611D01*
X35560000Y27584400D02*
X35560000Y27892000D01*
X25292000Y21776000D02*
X25292000Y23076000D01*
X32018211Y24042611D02*
X35560000Y27584400D01*
X26258611Y24042611D02*
X32018211Y24042611D01*
X66554000Y25148000D02*
X67584000Y25148000D01*
X66497200Y25204800D02*
X66554000Y25148000D01*
X66497200Y26644600D02*
X66497200Y25204800D01*
X66167801Y26973999D02*
X66497200Y26644600D01*
X30436000Y9410000D02*
X27112000Y9410000D01*
X27112000Y9410000D02*
X26162000Y9410000D01*
D39*
X22735000Y7183800D02*
X23350000Y7183800D01*
X22606000Y10910000D02*
X21231000Y10910000D01*
X20960000Y10639000D02*
X20960000Y8958800D01*
X21231000Y10910000D02*
X20960000Y10639000D01*
X20960000Y8958800D02*
X22735000Y7183800D01*
D36*
X30312000Y9286000D02*
X30436000Y9410000D01*
X30312000Y7620000D02*
X30312000Y9286000D01*
X47582000Y25146000D02*
X48297002Y25146000D01*
X56388000Y26973999D02*
X66167801Y26973999D01*
X33528000Y12309996D02*
X30628004Y9410000D01*
X30628004Y9410000D02*
X30436000Y9410000D01*
X33528000Y13252000D02*
X33528000Y12309996D01*
D39*
X27812000Y7620000D02*
X30312000Y7620000D01*
X27323198Y7131198D02*
X27812000Y7620000D01*
X23402602Y7131198D02*
X27323198Y7131198D01*
X23350000Y7183800D02*
X23402602Y7131198D01*
D36*
X9895999Y25036999D02*
X9474200Y25458798D01*
X2870200Y28905200D02*
X2870200Y35686364D01*
X8834202Y26924000D02*
X4851400Y26924000D01*
X4851400Y26924000D02*
X2870200Y28905200D01*
X2870200Y35686364D02*
X4978400Y37794564D01*
X4978400Y37794564D02*
X4978400Y39371600D01*
X8986602Y27076400D02*
X8834202Y26924000D01*
X10611001Y25036999D02*
X9895999Y25036999D01*
X4978400Y39371600D02*
X3400000Y40950000D01*
X9474200Y25458798D02*
X9474200Y26588802D01*
X9474200Y26588802D02*
X8986602Y27076400D01*
X51792000Y24638000D02*
X54342201Y27188201D01*
X51042000Y24638000D02*
X51792000Y24638000D01*
X54342201Y27188201D02*
X56173798Y27188201D01*
X56173798Y27188201D02*
X56388000Y26973999D01*
X48562001Y24881001D02*
X48562001Y21242999D01*
X35989000Y27892000D02*
X35560000Y27892000D01*
X43138789Y20742211D02*
X35989000Y27892000D01*
X48562001Y21242999D02*
X48061213Y20742211D01*
X48061213Y20742211D02*
X43138789Y20742211D01*
X48297002Y25146000D02*
X48562001Y24881001D01*
D38*
X43126000Y9132000D02*
X42926000Y9132000D01*
X48209999Y9732001D02*
X43726001Y9732001D01*
X48260000Y9682000D02*
X48209999Y9732001D01*
X43726001Y9732001D02*
X43126000Y9132000D01*
X48260000Y9132000D02*
X48260000Y9682000D01*
X48460000Y9132000D02*
X49580800Y8011200D01*
X48260000Y9132000D02*
X48460000Y9132000D01*
X39878000Y2387600D02*
X39878000Y2540000D01*
X41091610Y1173990D02*
X39878000Y2387600D01*
X48000693Y1173990D02*
X41091610Y1173990D01*
X49580800Y2754097D02*
X48000693Y1173990D01*
X49580800Y8011200D02*
X49580800Y2754097D01*
D36*
X36588000Y2540000D02*
X36576000Y2552000D01*
X39878000Y2540000D02*
X36588000Y2540000D01*
X29909200Y2552000D02*
X28778200Y3683000D01*
X36576000Y2552000D02*
X29909200Y2552000D01*
G04 #@! TO.N,Net-(C8-Pad2)*
X67584000Y22200000D02*
X67484000Y22100000D01*
X67584000Y24198000D02*
X67584000Y22200000D01*
G04 #@! TO.N,Net-(C8-Pad1)*
X63744000Y24198000D02*
X63678000Y24132000D01*
X65384000Y24198000D02*
X63744000Y24198000D01*
X65384000Y22200000D02*
X65484000Y22100000D01*
X65384000Y24198000D02*
X65384000Y22200000D01*
G04 #@! TO.N,Net-(C12-Pad1)*
X45382000Y22198000D02*
X45482000Y22098000D01*
X45382000Y24196000D02*
X45382000Y22198000D01*
X45316000Y24130000D02*
X45382000Y24196000D01*
X43676000Y24130000D02*
X45316000Y24130000D01*
G04 #@! TO.N,Net-(C12-Pad2)*
X47582000Y22198000D02*
X47482000Y22098000D01*
X47582000Y24196000D02*
X47582000Y22198000D01*
G04 #@! TO.N,Net-(C16-Pad2)*
X10611001Y21936999D02*
X10411001Y21736999D01*
X10611001Y24086999D02*
X10611001Y21936999D01*
G04 #@! TO.N,Net-(C16-Pad1)*
X8411001Y24086999D02*
X8411001Y21736999D01*
X6635001Y24086999D02*
X6592000Y24130000D01*
X8411001Y24086999D02*
X6635001Y24086999D01*
G04 #@! TO.N,/RES*
X32112000Y17926000D02*
X30442000Y17926000D01*
X30442000Y17926000D02*
X29142000Y17926000D01*
X33528000Y16510000D02*
X32112000Y17926000D01*
X33528000Y14752000D02*
X33528000Y16510000D01*
D38*
X38551601Y18231601D02*
X37846000Y17526000D01*
X56444399Y18231601D02*
X38551601Y18231601D01*
X57658000Y17018000D02*
X56444399Y18231601D01*
D36*
X32342831Y18156831D02*
X32112000Y17926000D01*
X32766000Y18156831D02*
X32342831Y18156831D01*
D39*
G04 #@! TO.N,Net-(D1-Pad2)*
X65786000Y2794000D02*
X66040000Y2540000D01*
X62196980Y2794000D02*
X65786000Y2794000D01*
G04 #@! TO.N,Net-(D1-Pad1)*
X60428000Y5022980D02*
X58199020Y2794000D01*
X60428000Y6096000D02*
X60428000Y5022980D01*
D36*
G04 #@! TO.N,Net-(D2-Pad2)*
X63246000Y28600000D02*
X63246000Y27674000D01*
X64150000Y29504000D02*
X63246000Y28600000D01*
X65150000Y29504000D02*
X64150000Y29504000D01*
G04 #@! TO.N,Net-(D3-Pad2)*
X43180000Y27674000D02*
X43180000Y28981400D01*
X43698600Y29500000D02*
X45150000Y29500000D01*
X43180000Y28981400D02*
X43698600Y29500000D01*
D38*
G04 #@! TO.N,/D3*
X27692000Y20676000D02*
X25527000Y18511000D01*
X27692000Y21776000D02*
X27692000Y20676000D01*
X25527000Y15265400D02*
X25654000Y15138400D01*
X25527000Y18511000D02*
X25527000Y15265400D01*
D37*
X46482000Y9132000D02*
X46282000Y9132000D01*
X45632000Y8482000D02*
X45632000Y5574442D01*
X45520684Y5463126D02*
X45520684Y4756020D01*
X45632000Y5574442D02*
X45520684Y5463126D01*
X46282000Y9132000D02*
X45632000Y8482000D01*
D36*
G04 #@! TO.N,/D4*
X8224000Y26174000D02*
X8411001Y25986999D01*
X6350000Y26174000D02*
X8224000Y26174000D01*
X3708400Y24482400D02*
X5400000Y26174000D01*
X7031585Y19615201D02*
X3708400Y22938386D01*
X5400000Y26174000D02*
X6350000Y26174000D01*
X3708400Y22938386D02*
X3708400Y24482400D01*
X17507001Y19615201D02*
X7031585Y19615201D01*
X17907000Y20015200D02*
X17507001Y19615201D01*
X26427334Y20375997D02*
X26331321Y20375997D01*
X26892000Y21776000D02*
X26892000Y20840663D01*
X26892000Y20840663D02*
X26427334Y20375997D01*
G04 #@! TO.N,/D5*
X20642000Y21531000D02*
X20904200Y21793200D01*
X20642000Y20326000D02*
X20642000Y21531000D01*
D38*
X25678447Y24957672D02*
X25278448Y24557673D01*
X32842200Y25715142D02*
X32084730Y24957672D01*
X32842200Y29832745D02*
X32842200Y25715142D01*
X71552000Y37848000D02*
X71552000Y35103000D01*
X71552000Y35103000D02*
X68097400Y31648400D01*
X68097400Y31648400D02*
X34657855Y31648400D01*
X32084730Y24957672D02*
X25678447Y24957672D01*
X34657855Y31648400D02*
X32842200Y29832745D01*
G04 #@! TO.N,/D7*
X2550001Y45180001D02*
X3400000Y46030000D01*
X19542000Y18726000D02*
X19487978Y18780022D01*
X2199990Y44829990D02*
X2550001Y45180001D01*
X2199990Y23598256D02*
X2199990Y44829990D01*
X19487978Y18780022D02*
X7018224Y18780022D01*
X20642000Y18726000D02*
X19542000Y18726000D01*
X7018224Y18780022D02*
X2199990Y23598256D01*
D36*
G04 #@! TO.N,/D8*
X63322000Y26098000D02*
X63246000Y26174000D01*
X65384000Y26098000D02*
X63322000Y26098000D01*
D38*
X18688000Y17926000D02*
X18542000Y17780000D01*
X20642000Y17926000D02*
X18688000Y17926000D01*
X38989000Y20142200D02*
X37846000Y18999200D01*
X50114200Y21894800D02*
X48361600Y20142200D01*
X51358800Y21894800D02*
X50114200Y21894800D01*
X48361600Y20142200D02*
X38989000Y20142200D01*
X63246000Y26174000D02*
X56846003Y26174000D01*
X37846000Y18999200D02*
X37846000Y18796000D01*
X56846003Y26174000D02*
X56060202Y25388199D01*
X56060202Y25388199D02*
X54852199Y25388199D01*
X54852199Y25388199D02*
X51358800Y21894800D01*
D36*
G04 #@! TO.N,/D9*
X45304000Y26174000D02*
X45382000Y26096000D01*
X43180000Y26174000D02*
X45304000Y26174000D01*
X42230000Y26174000D02*
X37924000Y30480000D01*
X43180000Y26174000D02*
X42230000Y26174000D01*
X33731200Y29873202D02*
X33731200Y27736800D01*
X34199999Y30342001D02*
X33731200Y29873202D01*
X37924000Y30480000D02*
X37786001Y30342001D01*
X37786001Y30342001D02*
X34199999Y30342001D01*
X22365047Y17126000D02*
X22591068Y17352021D01*
X20642000Y17126000D02*
X22365047Y17126000D01*
D38*
G04 #@! TO.N,/D11(MOSI)*
X55118000Y14478000D02*
X53896686Y14478000D01*
X39370000Y14478000D02*
X37846000Y16002000D01*
X53896686Y14478000D02*
X39370000Y14478000D01*
X20642000Y15526000D02*
X22295990Y15526000D01*
X22295990Y15526000D02*
X22352000Y15582010D01*
G04 #@! TO.N,/D12(MISO)*
X20642000Y14726000D02*
X19763122Y14726000D01*
X6811113Y18280011D02*
X1699979Y23391145D01*
X1699979Y23391145D02*
X1699979Y46869979D01*
X1699979Y46869979D02*
X2550001Y47720001D01*
X16209111Y18280011D02*
X6811113Y18280011D01*
X2550001Y47720001D02*
X3400000Y48570000D01*
X57658000Y10774400D02*
X57450000Y10566400D01*
X57658000Y11938000D02*
X57658000Y10774400D01*
X57450000Y10566400D02*
X54483000Y10566400D01*
X54483000Y10566400D02*
X51790600Y13258800D01*
X37719000Y13258800D02*
X37642800Y13335000D01*
X51790600Y13258800D02*
X37719000Y13258800D01*
X19763122Y14726000D02*
X18766522Y15722600D01*
X18766522Y15722600D02*
X16209111Y18280011D01*
G04 #@! TO.N,/D13(SCLK)*
X22092000Y13276000D02*
X20506000Y13276000D01*
X56388000Y13208000D02*
X53594000Y13208000D01*
X57658000Y14478000D02*
X56388000Y13208000D01*
X53594000Y13208000D02*
X52832000Y13970000D01*
X38608000Y13970000D02*
X37846000Y14732000D01*
X52832000Y13970000D02*
X38608000Y13970000D01*
X1199968Y48909968D02*
X2550001Y50260001D01*
X1199968Y23184034D02*
X1199968Y48909968D01*
X20506000Y13276000D02*
X19972600Y13276000D01*
X2550001Y50260001D02*
X3400000Y51110000D01*
X19972600Y13276000D02*
X15570200Y17678400D01*
X15570200Y17678400D02*
X6705602Y17678400D01*
X6705602Y17678400D02*
X1199968Y23184034D01*
D40*
G04 #@! TO.N,/A6*
X23692000Y13276000D02*
X23692000Y10293200D01*
X23692000Y10293200D02*
X23825200Y10160000D01*
X29972000Y10160000D02*
X32029400Y12217400D01*
X23825200Y10160000D02*
X29972000Y10160000D01*
D38*
X51181000Y12115800D02*
X37592000Y12115800D01*
X53848000Y9448800D02*
X51181000Y12115800D01*
X53848000Y9132000D02*
X53848000Y9448800D01*
D36*
X54139400Y9132000D02*
X53848000Y9132000D01*
X55385400Y7886000D02*
X54139400Y9132000D01*
X55626000Y7886000D02*
X55385400Y7886000D01*
G04 #@! TO.N,/A7*
X35560000Y14752000D02*
X35560000Y17892000D01*
X34603400Y13995400D02*
X32401396Y13995400D01*
X35560000Y14752000D02*
X35360000Y14752000D01*
X35360000Y14752000D02*
X34603400Y13995400D01*
X26265128Y12195388D02*
X26092000Y12368516D01*
X30216996Y11811000D02*
X26265128Y11811000D01*
X32401396Y13995400D02*
X30216996Y11811000D01*
X26265128Y11811000D02*
X26265128Y12195388D01*
X26092000Y12368516D02*
X26092000Y13276000D01*
D38*
G04 #@! TO.N,/D2*
X27305000Y19394002D02*
X27305000Y15417800D01*
X28236998Y20326000D02*
X27305000Y19394002D01*
X29142000Y20326000D02*
X28236998Y20326000D01*
D37*
X44504000Y9132000D02*
X43728600Y8356600D01*
X44704000Y9132000D02*
X44504000Y9132000D01*
X43728600Y8356600D02*
X37617400Y8356600D01*
D36*
G04 #@! TO.N,Net-(Q3-Pad1)*
X69852000Y39826000D02*
X70052000Y39626000D01*
X69852000Y41420000D02*
X69852000Y39826000D01*
X70052000Y39626000D02*
X70052000Y37848000D01*
G04 #@! TO.N,Net-(Q3-Pad3)*
X70306000Y43916000D02*
X70802000Y43420000D01*
X70306000Y45214000D02*
X70306000Y43916000D01*
G04 #@! TO.N,Net-(R3-Pad2)*
X69224000Y26098000D02*
X69544000Y26418000D01*
X67584000Y26098000D02*
X69224000Y26098000D01*
X69544000Y24640000D02*
X69544000Y26418000D01*
G04 #@! TO.N,Butt-1*
X62178000Y23547000D02*
X62890400Y22834600D01*
X62178000Y24132000D02*
X62178000Y23547000D01*
G04 #@! TO.N,Net-(R14-Pad2)*
X49234000Y26096000D02*
X49554000Y26416000D01*
X47582000Y26096000D02*
X49234000Y26096000D01*
X49542000Y26404000D02*
X49554000Y26416000D01*
X49542000Y24638000D02*
X49542000Y26404000D01*
G04 #@! TO.N,Butt-2*
X42176000Y23508400D02*
X42875200Y22809200D01*
X42176000Y24130000D02*
X42176000Y23508400D01*
G04 #@! TO.N,Net-(R18-Pad2)*
X12282999Y25986999D02*
X12712000Y26416000D01*
X10611001Y25986999D02*
X12282999Y25986999D01*
X12712000Y26416000D02*
X12712000Y24638000D01*
G04 #@! TO.N,Butt-3*
X5092000Y22773595D02*
X5142877Y22722718D01*
X5092000Y24130000D02*
X5092000Y22773595D01*
G04 #@! TO.N,Net-(R31-Pad2)*
X72622000Y46030000D02*
X71806000Y45214000D01*
X74600000Y46030000D02*
X72622000Y46030000D01*
G04 #@! TO.N,Net-(R10-Pad1)*
X57392000Y9386000D02*
X57404000Y9374000D01*
X55626000Y9386000D02*
X57392000Y9386000D01*
X59170000Y9374000D02*
X59182000Y9386000D01*
X57404000Y9374000D02*
X59170000Y9374000D01*
G04 #@! TO.N,Net-(C2-Pad1)*
X57404000Y6120000D02*
X57428000Y6096000D01*
X57404000Y7874000D02*
X57404000Y6120000D01*
D39*
X56146000Y6096000D02*
X55626000Y5576000D01*
X57428000Y6096000D02*
X56146000Y6096000D01*
X27996200Y5080000D02*
X25740000Y2823800D01*
X31673800Y5080000D02*
X27996200Y5080000D01*
X55626000Y5576000D02*
X53868998Y5576000D01*
X32512000Y8788400D02*
X32512000Y5918200D01*
X48573798Y10871200D02*
X34594800Y10871200D01*
X25740000Y2823800D02*
X23350000Y2823800D01*
X53868998Y5576000D02*
X48573798Y10871200D01*
X32512000Y5918200D02*
X31673800Y5080000D01*
X34594800Y10871200D02*
X32512000Y8788400D01*
D36*
G04 #@! TO.N,Net-(C3-Pad1)*
X42926000Y7632000D02*
X44704000Y7632000D01*
X44704000Y6108000D02*
X44692000Y6096000D01*
X44704000Y7632000D02*
X44704000Y6108000D01*
X44692000Y6096000D02*
X44667000Y6096000D01*
D37*
X44667000Y6096000D02*
X44551600Y5980600D01*
X42418000Y2692400D02*
X42418000Y2540000D01*
X44551600Y4826000D02*
X42418000Y2692400D01*
X44551600Y5980600D02*
X44551600Y4826000D01*
D36*
G04 #@! TO.N,Net-(C4-Pad1)*
X46482000Y6108000D02*
X46494000Y6096000D01*
X46482000Y7632000D02*
X46482000Y6108000D01*
X48260000Y7632000D02*
X46482000Y7632000D01*
D37*
X46494000Y5321000D02*
X46507400Y5307600D01*
X46494000Y6096000D02*
X46494000Y5321000D01*
X44958000Y2692400D02*
X44958000Y2540000D01*
X46507400Y4241800D02*
X44958000Y2692400D01*
X46507400Y5307600D02*
X46507400Y4241800D01*
D36*
G04 #@! TO.N,Net-(C7-Pad1)*
X24348575Y12211939D02*
X24348575Y10945425D01*
X24507377Y10786623D02*
X24384000Y10910000D01*
X24492000Y13276000D02*
X24492000Y12355364D01*
X26038623Y10786623D02*
X24507377Y10786623D01*
X24492000Y12355364D02*
X24348575Y12211939D01*
X26162000Y10910000D02*
X26038623Y10786623D01*
X24348575Y10945425D02*
X24384000Y10910000D01*
G04 #@! TO.N,Net-(C9-Pad1)*
X21259800Y26670000D02*
X19939000Y26670000D01*
X22110000Y27520200D02*
X21259800Y26670000D01*
X22110000Y30734000D02*
X22110000Y27520200D01*
X22089137Y24519863D02*
X19939000Y26670000D01*
X22092000Y21776000D02*
X22089137Y21778863D01*
X22089137Y21778863D02*
X22089137Y24519863D01*
G04 #@! TO.N,Net-(C13-Pad1)*
X26486000Y26670000D02*
X29337000Y26670000D01*
X26912000Y27096000D02*
X26912000Y30734000D01*
X26486000Y26670000D02*
X26912000Y27096000D01*
X24857596Y26670000D02*
X26486000Y26670000D01*
X22892000Y21776000D02*
X22892000Y22952662D01*
X22789148Y24601552D02*
X24857596Y26670000D01*
X22789148Y23055514D02*
X22789148Y24601552D01*
X22892000Y22952662D02*
X22789148Y23055514D01*
G04 #@! TO.N,Net-(D4-Pad2)*
X7150000Y29500000D02*
X8150000Y29500000D01*
X6350000Y28700000D02*
X7150000Y29500000D01*
X6350000Y27674000D02*
X6350000Y28700000D01*
G04 #@! TD*
D41*
G04 #@! TO.N,GND*
G36*
X70552986Y63232819D02*
X70554902Y63221119D01*
X70555274Y63209276D01*
X70565508Y63152395D01*
X70773028Y62288013D01*
X70778067Y62273042D01*
X70781350Y62257594D01*
X70801496Y62203425D01*
X71158804Y61389454D01*
X71166414Y61375611D01*
X71172381Y61360990D01*
X71201801Y61311244D01*
X71697604Y60573410D01*
X71707542Y60561138D01*
X71716007Y60547799D01*
X71753771Y60504050D01*
X72372398Y59865677D01*
X72384352Y59855358D01*
X72395045Y59843730D01*
X72439959Y59807359D01*
X73161855Y59288624D01*
X73175454Y59280582D01*
X73188031Y59271035D01*
X73238676Y59243192D01*
X74041023Y58860492D01*
X74055831Y58854985D01*
X74069901Y58847816D01*
X74124676Y58829382D01*
X74982111Y58594814D01*
X74997658Y58592017D01*
X75012777Y58587452D01*
X75069951Y58579009D01*
X75498000Y58540807D01*
X75498000Y46937950D01*
X75323362Y47112588D01*
X74854011Y47307000D01*
X74345989Y47307000D01*
X73876638Y47112588D01*
X73517412Y46753362D01*
X73498208Y46707000D01*
X72688676Y46707000D01*
X72621999Y46720263D01*
X72555323Y46707000D01*
X72555322Y46707000D01*
X72357848Y46667720D01*
X72133910Y46518090D01*
X72096140Y46461562D01*
X71733943Y46099365D01*
X71556000Y46099365D01*
X71389393Y46066225D01*
X71248150Y45971850D01*
X71153775Y45830607D01*
X71120635Y45664000D01*
X71120635Y45238623D01*
X71115737Y45214000D01*
X71120635Y45189377D01*
X71120635Y44764000D01*
X71153775Y44597393D01*
X71248150Y44456150D01*
X71389393Y44361775D01*
X71556000Y44328635D01*
X72056000Y44328635D01*
X72222607Y44361775D01*
X72363850Y44456150D01*
X72458225Y44597393D01*
X72491365Y44764000D01*
X72491365Y44941943D01*
X72902422Y45353000D01*
X73498208Y45353000D01*
X73517412Y45306638D01*
X73876638Y44947412D01*
X74329090Y44760000D01*
X73876638Y44572588D01*
X73517412Y44213362D01*
X73323000Y43744011D01*
X73323000Y43235989D01*
X73517412Y42766638D01*
X73876638Y42407412D01*
X74345989Y42213000D01*
X74854011Y42213000D01*
X75323362Y42407412D01*
X75498000Y42582050D01*
X75498001Y5466488D01*
X75232820Y5447014D01*
X75221120Y5445098D01*
X75209276Y5444726D01*
X75152396Y5434492D01*
X74288013Y5226972D01*
X74273042Y5221934D01*
X74257594Y5218650D01*
X74203425Y5198504D01*
X73389454Y4841195D01*
X73375616Y4833588D01*
X73360990Y4827619D01*
X73311257Y4798207D01*
X73311243Y4798199D01*
X73311238Y4798195D01*
X72573410Y4302396D01*
X72561138Y4292458D01*
X72547799Y4283993D01*
X72504050Y4246229D01*
X71865677Y3627602D01*
X71855358Y3615648D01*
X71843730Y3604955D01*
X71807359Y3560041D01*
X71288624Y2838145D01*
X71280582Y2824546D01*
X71271035Y2811969D01*
X71243192Y2761323D01*
X70860492Y1958977D01*
X70854985Y1944169D01*
X70847816Y1930099D01*
X70829382Y1875324D01*
X70594814Y1017888D01*
X70592017Y1002342D01*
X70587452Y987223D01*
X70579009Y930049D01*
X70540807Y502000D01*
X5466487Y502000D01*
X5447014Y767180D01*
X5445098Y778880D01*
X5444726Y790724D01*
X5434492Y847604D01*
X5226972Y1711987D01*
X5221932Y1726963D01*
X5218650Y1742406D01*
X5198504Y1796575D01*
X4841195Y2610546D01*
X4833588Y2624384D01*
X4827619Y2639010D01*
X4798207Y2688743D01*
X4798199Y2688757D01*
X4798195Y2688762D01*
X4302396Y3426590D01*
X4292458Y3438862D01*
X4283993Y3452201D01*
X4246229Y3495950D01*
X3627602Y4134323D01*
X3615648Y4144642D01*
X3604955Y4156270D01*
X3560041Y4192641D01*
X2838145Y4711376D01*
X2824546Y4719418D01*
X2811969Y4728965D01*
X2761323Y4756808D01*
X1958977Y5139508D01*
X1944169Y5145015D01*
X1930099Y5152184D01*
X1875324Y5170618D01*
X1017888Y5405186D01*
X1002342Y5407983D01*
X987223Y5412548D01*
X930049Y5420991D01*
X502000Y5459193D01*
X502000Y48909968D01*
X611664Y48909968D01*
X622969Y48853135D01*
X622968Y23240862D01*
X611664Y23184034D01*
X622968Y23127206D01*
X656446Y22958901D01*
X783974Y22768040D01*
X832156Y22735846D01*
X6257416Y17310585D01*
X6289608Y17262406D01*
X6480468Y17134878D01*
X6648773Y17101400D01*
X6705601Y17090096D01*
X6762429Y17101400D01*
X15331200Y17101400D01*
X19524414Y12908185D01*
X19556606Y12860006D01*
X19649278Y12798085D01*
X19720586Y12750438D01*
X19980897Y12490127D01*
X20321608Y12349000D01*
X20690392Y12349000D01*
X21031103Y12490127D01*
X21239976Y12699000D01*
X21381635Y12699000D01*
X21381635Y12476000D01*
X21414775Y12309393D01*
X21509150Y12168150D01*
X21650393Y12073775D01*
X21817000Y12040635D01*
X22215001Y12040635D01*
X22215001Y11837000D01*
X21322300Y11837000D01*
X21231000Y11855161D01*
X21139700Y11837000D01*
X21139698Y11837000D01*
X20869303Y11783215D01*
X20562670Y11578330D01*
X20510949Y11500924D01*
X20369076Y11359051D01*
X20291670Y11307330D01*
X20086785Y11000696D01*
X20033000Y10730302D01*
X20014839Y10639000D01*
X20033000Y10547699D01*
X20033001Y9050105D01*
X20014839Y8958800D01*
X20086786Y8597103D01*
X20156202Y8493215D01*
X20291671Y8290470D01*
X20369073Y8238752D01*
X21524635Y7083189D01*
X21524635Y6408800D01*
X21557775Y6242193D01*
X21652150Y6100950D01*
X21793393Y6006575D01*
X21960000Y5973435D01*
X24740000Y5973435D01*
X24906607Y6006575D01*
X25047850Y6100950D01*
X25116838Y6204198D01*
X27231898Y6204198D01*
X27323198Y6186037D01*
X27414498Y6204198D01*
X27507590Y6204198D01*
X27593594Y6239822D01*
X27684895Y6257983D01*
X27762296Y6309701D01*
X27848301Y6345325D01*
X27914126Y6411150D01*
X27991528Y6462868D01*
X28043247Y6540271D01*
X28109071Y6606095D01*
X28109072Y6606097D01*
X28195975Y6693000D01*
X28401897Y6693000D01*
X28409775Y6653393D01*
X28504150Y6512150D01*
X28645393Y6417775D01*
X28812000Y6384635D01*
X31585001Y6384635D01*
X31585001Y6302176D01*
X31289825Y6007000D01*
X28087501Y6007000D01*
X27996200Y6025161D01*
X27904899Y6007000D01*
X27904898Y6007000D01*
X27634503Y5953215D01*
X27327870Y5748330D01*
X27276151Y5670927D01*
X25356025Y3750800D01*
X25145130Y3750800D01*
X25142225Y3765407D01*
X25047850Y3906650D01*
X24906607Y4001025D01*
X24740000Y4034165D01*
X21960000Y4034165D01*
X21793393Y4001025D01*
X21652150Y3906650D01*
X21557775Y3765407D01*
X21524635Y3598800D01*
X21524635Y2048800D01*
X21557775Y1882193D01*
X21652150Y1740950D01*
X21793393Y1646575D01*
X21960000Y1613435D01*
X24740000Y1613435D01*
X24906607Y1646575D01*
X25047850Y1740950D01*
X25142225Y1882193D01*
X25145130Y1896800D01*
X25648700Y1896800D01*
X25740000Y1878639D01*
X25831300Y1896800D01*
X25831302Y1896800D01*
X26101697Y1950585D01*
X26408330Y2155470D01*
X26460051Y2232875D01*
X27851200Y3624024D01*
X27851200Y3498608D01*
X27992327Y3157897D01*
X28253097Y2897127D01*
X28593808Y2756000D01*
X28747778Y2756000D01*
X29383339Y2120438D01*
X29421110Y2063910D01*
X29477637Y2026140D01*
X29645047Y1914280D01*
X29909200Y1861737D01*
X29975878Y1875000D01*
X35872537Y1875000D01*
X35893150Y1844150D01*
X36034393Y1749775D01*
X36201000Y1716635D01*
X36951000Y1716635D01*
X37117607Y1749775D01*
X37258850Y1844150D01*
X37271445Y1863000D01*
X38579035Y1863000D01*
X38579035Y1524000D01*
X38612175Y1357393D01*
X38706550Y1216150D01*
X38847793Y1121775D01*
X39014400Y1088635D01*
X40360964Y1088635D01*
X40643424Y806175D01*
X40675616Y757996D01*
X40760142Y701518D01*
X40866475Y630468D01*
X41091610Y585686D01*
X41148439Y596990D01*
X47943865Y596990D01*
X48000693Y585686D01*
X48057521Y596990D01*
X48057522Y596990D01*
X48225827Y630468D01*
X48416687Y757996D01*
X48448881Y806178D01*
X49948615Y2305911D01*
X49996794Y2338103D01*
X50090437Y2478250D01*
X50124322Y2528962D01*
X50169104Y2754097D01*
X50157800Y2810926D01*
X50157800Y3790250D01*
X54616000Y3790250D01*
X54616000Y3549691D01*
X54712673Y3316302D01*
X54891301Y3137673D01*
X55124690Y3041000D01*
X55340250Y3041000D01*
X55499000Y3199750D01*
X55499000Y3949000D01*
X55753000Y3949000D01*
X55753000Y3199750D01*
X55911750Y3041000D01*
X56127310Y3041000D01*
X56360699Y3137673D01*
X56513975Y3290950D01*
X56513975Y1893570D01*
X56547115Y1726963D01*
X56641490Y1585720D01*
X56782733Y1491345D01*
X56949340Y1458205D01*
X59448700Y1458205D01*
X59615307Y1491345D01*
X59756550Y1585720D01*
X59850925Y1726963D01*
X59884065Y1893570D01*
X59884065Y3168070D01*
X60537140Y3821144D01*
X60511935Y3694430D01*
X60511935Y1893570D01*
X60545075Y1726963D01*
X60639450Y1585720D01*
X60780693Y1491345D01*
X60947300Y1458205D01*
X63446660Y1458205D01*
X63613267Y1491345D01*
X63754510Y1585720D01*
X63848885Y1726963D01*
X63876740Y1867000D01*
X64588635Y1867000D01*
X64588635Y1524000D01*
X64621775Y1357393D01*
X64716150Y1216150D01*
X64857393Y1121775D01*
X65024000Y1088635D01*
X67056000Y1088635D01*
X67222607Y1121775D01*
X67363850Y1216150D01*
X67458225Y1357393D01*
X67491365Y1524000D01*
X67491365Y3556000D01*
X67458225Y3722607D01*
X67363850Y3863850D01*
X67222607Y3958225D01*
X67210377Y3960658D01*
X67446385Y4215182D01*
X67645975Y4697056D01*
X67526836Y4953000D01*
X66167000Y4953000D01*
X66167000Y4933000D01*
X65913000Y4933000D01*
X65913000Y4953000D01*
X64553164Y4953000D01*
X64434025Y4697056D01*
X64633615Y4215182D01*
X64869623Y3960658D01*
X64857393Y3958225D01*
X64716150Y3863850D01*
X64621775Y3722607D01*
X64621455Y3721000D01*
X63876740Y3721000D01*
X63848885Y3861037D01*
X63754510Y4002280D01*
X63613267Y4096655D01*
X63446660Y4129795D01*
X60947300Y4129795D01*
X60820586Y4104590D01*
X61018927Y4302931D01*
X61096330Y4354650D01*
X61301215Y4661283D01*
X61355000Y4931678D01*
X61355000Y4931679D01*
X61373161Y5022980D01*
X61355000Y5114281D01*
X61355000Y5253946D01*
X61363365Y5296000D01*
X61363365Y5462944D01*
X64434025Y5462944D01*
X64553164Y5207000D01*
X65913000Y5207000D01*
X65913000Y6567367D01*
X66167000Y6567367D01*
X66167000Y5207000D01*
X67526836Y5207000D01*
X67645975Y5462944D01*
X67446385Y5944818D01*
X67008379Y6417188D01*
X66422946Y6685983D01*
X66167000Y6567367D01*
X65913000Y6567367D01*
X65657054Y6685983D01*
X65071621Y6417188D01*
X64633615Y5944818D01*
X64434025Y5462944D01*
X61363365Y5462944D01*
X61363365Y6896000D01*
X61330225Y7062607D01*
X61235850Y7203850D01*
X61094607Y7298225D01*
X60928000Y7331365D01*
X60193135Y7331365D01*
X60267000Y7509691D01*
X60267000Y7602250D01*
X60108250Y7761000D01*
X59309000Y7761000D01*
X59309000Y7159750D01*
X59467750Y7001000D01*
X59513521Y7001000D01*
X59492635Y6896000D01*
X59492635Y5398591D01*
X58223840Y4129795D01*
X56949340Y4129795D01*
X56782733Y4096655D01*
X56641490Y4002280D01*
X56554364Y3871886D01*
X56477250Y3949000D01*
X55753000Y3949000D01*
X55499000Y3949000D01*
X54774750Y3949000D01*
X54616000Y3790250D01*
X50157800Y3790250D01*
X50157800Y7954371D01*
X50161425Y7972597D01*
X53148949Y4985073D01*
X53200668Y4907670D01*
X53507301Y4702785D01*
X53777696Y4649000D01*
X53777697Y4649000D01*
X53868998Y4630839D01*
X53960299Y4649000D01*
X54635340Y4649000D01*
X54616000Y4602309D01*
X54616000Y4361750D01*
X54774750Y4203000D01*
X55499000Y4203000D01*
X55499000Y4223000D01*
X55753000Y4223000D01*
X55753000Y4203000D01*
X56477250Y4203000D01*
X56636000Y4361750D01*
X56636000Y4602309D01*
X56539327Y4835698D01*
X56388168Y4986858D01*
X56403225Y5009393D01*
X56411383Y5050408D01*
X56519901Y5158926D01*
X56525775Y5129393D01*
X56620150Y4988150D01*
X56761393Y4893775D01*
X56928000Y4860635D01*
X57928000Y4860635D01*
X58094607Y4893775D01*
X58235850Y4988150D01*
X58330225Y5129393D01*
X58363365Y5296000D01*
X58363365Y6046752D01*
X58373161Y6096000D01*
X58363365Y6145248D01*
X58363365Y6896000D01*
X58330225Y7062607D01*
X58235850Y7203850D01*
X58114815Y7284722D01*
X58161850Y7316150D01*
X58171306Y7330301D01*
X58193673Y7276302D01*
X58372301Y7097673D01*
X58605690Y7001000D01*
X58896250Y7001000D01*
X59055000Y7159750D01*
X59055000Y7761000D01*
X59035000Y7761000D01*
X59035000Y8011000D01*
X59055000Y8011000D01*
X59055000Y8033000D01*
X59309000Y8033000D01*
X59309000Y8011000D01*
X60108250Y8011000D01*
X60267000Y8169750D01*
X60267000Y8262309D01*
X60170327Y8495698D01*
X59991699Y8674327D01*
X59817577Y8746451D01*
X59939850Y8828150D01*
X60034225Y8969393D01*
X60067365Y9136000D01*
X60067365Y9636000D01*
X60034225Y9802607D01*
X59939850Y9943850D01*
X59798607Y10038225D01*
X59632000Y10071365D01*
X59206624Y10071365D01*
X59182000Y10076263D01*
X59157376Y10071365D01*
X58732000Y10071365D01*
X58629618Y10051000D01*
X57896054Y10051000D01*
X57854000Y10059365D01*
X57729741Y10059365D01*
X57865994Y10150406D01*
X57898188Y10198588D01*
X58025812Y10326212D01*
X58073994Y10358406D01*
X58201522Y10549266D01*
X58219378Y10639035D01*
X58521600Y10639035D01*
X58688207Y10672175D01*
X58829450Y10766550D01*
X58923825Y10907793D01*
X58956965Y11074400D01*
X58956965Y12801600D01*
X58923825Y12968207D01*
X58829450Y13109450D01*
X58688207Y13203825D01*
X58521600Y13236965D01*
X58034290Y13236965D01*
X58161567Y13262282D01*
X58588470Y13547530D01*
X58873718Y13974433D01*
X58973884Y14478000D01*
X58873718Y14981567D01*
X58588470Y15408470D01*
X58161567Y15693718D01*
X57888674Y15748000D01*
X58161567Y15802282D01*
X58588470Y16087530D01*
X58873718Y16514433D01*
X58973884Y17018000D01*
X58873718Y17521567D01*
X58588470Y17948470D01*
X58161567Y18233718D01*
X57785111Y18308600D01*
X57530889Y18308600D01*
X57241053Y18250948D01*
X56892587Y18599413D01*
X56860393Y18647595D01*
X56669533Y18775123D01*
X56501228Y18808601D01*
X56501227Y18808601D01*
X56444399Y18819905D01*
X56387571Y18808601D01*
X38773000Y18808601D01*
X38773000Y18980392D01*
X38734980Y19072180D01*
X39228001Y19565200D01*
X48304772Y19565200D01*
X48361600Y19553896D01*
X48418428Y19565200D01*
X48418429Y19565200D01*
X48586734Y19598678D01*
X48777594Y19726206D01*
X48809788Y19774388D01*
X50353202Y21317800D01*
X51301972Y21317800D01*
X51358800Y21306496D01*
X51415628Y21317800D01*
X51415629Y21317800D01*
X51583934Y21351278D01*
X51774794Y21478806D01*
X51806988Y21526988D01*
X55091200Y24811199D01*
X56003374Y24811199D01*
X56060202Y24799895D01*
X56117030Y24811199D01*
X56117031Y24811199D01*
X56285336Y24844677D01*
X56476196Y24972205D01*
X56508390Y25020387D01*
X57085004Y25597000D01*
X62516810Y25597000D01*
X62629393Y25521775D01*
X62796000Y25488635D01*
X63015412Y25488635D01*
X63057848Y25460280D01*
X63255322Y25421000D01*
X63255323Y25421000D01*
X63321999Y25407737D01*
X63388676Y25421000D01*
X64231750Y25421000D01*
X64377750Y25275000D01*
X65257000Y25275000D01*
X65257000Y25295000D01*
X65511000Y25295000D01*
X65511000Y25275000D01*
X65531000Y25275000D01*
X65531000Y25021000D01*
X65511000Y25021000D01*
X65511000Y25001000D01*
X65257000Y25001000D01*
X65257000Y25021000D01*
X64377750Y25021000D01*
X64240156Y24883406D01*
X64235850Y24889850D01*
X64094607Y24984225D01*
X63928000Y25017365D01*
X63428000Y25017365D01*
X63261393Y24984225D01*
X63120150Y24889850D01*
X63025775Y24748607D01*
X62992635Y24582000D01*
X62992635Y24156623D01*
X62987737Y24132000D01*
X62992635Y24107377D01*
X62992635Y23689786D01*
X62863365Y23819056D01*
X62863365Y24582000D01*
X62830225Y24748607D01*
X62735850Y24889850D01*
X62594607Y24984225D01*
X62428000Y25017365D01*
X61928000Y25017365D01*
X61761393Y24984225D01*
X61620150Y24889850D01*
X61525775Y24748607D01*
X61492635Y24582000D01*
X61492635Y23682000D01*
X61501000Y23639946D01*
X61501000Y23613676D01*
X61487737Y23547000D01*
X61501000Y23480324D01*
X61501000Y23480322D01*
X61540280Y23282848D01*
X61689911Y23058910D01*
X61746441Y23021138D01*
X62063400Y22704178D01*
X62063400Y22670099D01*
X62189303Y22366142D01*
X62421942Y22133503D01*
X62725899Y22007600D01*
X63054901Y22007600D01*
X63358858Y22133503D01*
X63591497Y22366142D01*
X63717400Y22670099D01*
X63717400Y22999101D01*
X63614868Y23246635D01*
X63928000Y23246635D01*
X64094607Y23279775D01*
X64235850Y23374150D01*
X64330225Y23515393D01*
X64331340Y23521000D01*
X64612226Y23521000D01*
X64687393Y23470775D01*
X64707000Y23466875D01*
X64707001Y23053464D01*
X64676150Y23032850D01*
X64581775Y22891607D01*
X64548635Y22725000D01*
X64548635Y21475000D01*
X64581775Y21308393D01*
X64676150Y21167150D01*
X64817393Y21072775D01*
X64984000Y21039635D01*
X65984000Y21039635D01*
X66150607Y21072775D01*
X66291850Y21167150D01*
X66386225Y21308393D01*
X66419365Y21475000D01*
X66419365Y22725000D01*
X66386225Y22891607D01*
X66291850Y23032850D01*
X66150607Y23127225D01*
X66061000Y23145049D01*
X66061000Y23466875D01*
X66080607Y23470775D01*
X66221850Y23565150D01*
X66316225Y23706393D01*
X66349365Y23873000D01*
X66349365Y24360340D01*
X66452327Y24463301D01*
X66457937Y24476845D01*
X66487322Y24471000D01*
X66487323Y24471000D01*
X66553999Y24457737D01*
X66618635Y24470594D01*
X66618635Y23873000D01*
X66651775Y23706393D01*
X66746150Y23565150D01*
X66887393Y23470775D01*
X66907000Y23466875D01*
X66907001Y23145049D01*
X66817393Y23127225D01*
X66676150Y23032850D01*
X66581775Y22891607D01*
X66548635Y22725000D01*
X66548635Y21475000D01*
X66581775Y21308393D01*
X66676150Y21167150D01*
X66817393Y21072775D01*
X66984000Y21039635D01*
X67984000Y21039635D01*
X68150607Y21072775D01*
X68291850Y21167150D01*
X68386225Y21308393D01*
X68419365Y21475000D01*
X68419365Y22725000D01*
X68386225Y22891607D01*
X68291850Y23032850D01*
X68261000Y23053463D01*
X68261000Y23162579D01*
X68708635Y22714943D01*
X68708635Y22487000D01*
X68741775Y22320393D01*
X68836150Y22179150D01*
X68977393Y22084775D01*
X69144000Y22051635D01*
X69944000Y22051635D01*
X70110607Y22084775D01*
X70133142Y22099832D01*
X70284302Y21948673D01*
X70517691Y21852000D01*
X70758250Y21852000D01*
X70917000Y22010750D01*
X70917000Y22735000D01*
X71171000Y22735000D01*
X71171000Y22010750D01*
X71329750Y21852000D01*
X71570309Y21852000D01*
X71803698Y21948673D01*
X71982327Y22127301D01*
X72079000Y22360690D01*
X72079000Y22576250D01*
X71920250Y22735000D01*
X71171000Y22735000D01*
X70917000Y22735000D01*
X70897000Y22735000D01*
X70897000Y22989000D01*
X70917000Y22989000D01*
X70917000Y23009000D01*
X71171000Y23009000D01*
X71171000Y22989000D01*
X71920250Y22989000D01*
X72079000Y23147750D01*
X72079000Y23363310D01*
X71982327Y23596699D01*
X71803698Y23775327D01*
X71580402Y23867819D01*
X71601850Y23882150D01*
X71696225Y24023393D01*
X71729365Y24190000D01*
X71729365Y24486576D01*
X71734263Y24511199D01*
X71729365Y24535823D01*
X71729365Y25090000D01*
X71696225Y25256607D01*
X71601850Y25397850D01*
X71592291Y25404237D01*
X71653698Y25429673D01*
X71832327Y25608301D01*
X71929000Y25841690D01*
X71929000Y26132250D01*
X71770250Y26291000D01*
X71169000Y26291000D01*
X71169000Y26271000D01*
X70919000Y26271000D01*
X70919000Y26291000D01*
X70897000Y26291000D01*
X70897000Y26545000D01*
X70919000Y26545000D01*
X70919000Y27344250D01*
X71169000Y27344250D01*
X71169000Y26545000D01*
X71770250Y26545000D01*
X71929000Y26703750D01*
X71929000Y26994310D01*
X71832327Y27227699D01*
X71653698Y27406327D01*
X71420309Y27503000D01*
X71327750Y27503000D01*
X71169000Y27344250D01*
X70919000Y27344250D01*
X70760250Y27503000D01*
X70667691Y27503000D01*
X70434302Y27406327D01*
X70255673Y27227699D01*
X70183549Y27053577D01*
X70101850Y27175850D01*
X69960607Y27270225D01*
X69794000Y27303365D01*
X69294000Y27303365D01*
X69127393Y27270225D01*
X68986150Y27175850D01*
X68891775Y27034607D01*
X68858635Y26868000D01*
X68858635Y26775000D01*
X68355774Y26775000D01*
X68280607Y26825225D01*
X68114000Y26858365D01*
X67144943Y26858365D01*
X67134920Y26908753D01*
X67023060Y27076162D01*
X66985289Y27132690D01*
X66928761Y27170460D01*
X66693665Y27405557D01*
X66673052Y27436405D01*
X66998259Y27501093D01*
X67420665Y27783335D01*
X67477905Y27869000D01*
X67564250Y27869000D01*
X67723000Y28027750D01*
X67723000Y28306754D01*
X67777000Y28578231D01*
X67777000Y29377000D01*
X67977000Y29377000D01*
X67977000Y28027750D01*
X68135750Y27869000D01*
X68476310Y27869000D01*
X68709699Y27965673D01*
X68888327Y28144302D01*
X68985000Y28377691D01*
X68985000Y29218250D01*
X68826250Y29377000D01*
X67977000Y29377000D01*
X67777000Y29377000D01*
X67777000Y29651000D01*
X67977000Y29651000D01*
X67977000Y29631000D01*
X68826250Y29631000D01*
X68985000Y29789750D01*
X68985000Y30630309D01*
X68888327Y30863698D01*
X68709699Y31042327D01*
X68476310Y31139000D01*
X68373601Y31139000D01*
X68513394Y31232406D01*
X68545588Y31280588D01*
X71919815Y34654814D01*
X71967994Y34687006D01*
X72095522Y34877866D01*
X72129000Y35046171D01*
X72140304Y35102999D01*
X72129000Y35159827D01*
X72129000Y37118810D01*
X72204225Y37231393D01*
X72237365Y37398000D01*
X72237365Y38298000D01*
X72204225Y38464607D01*
X72109850Y38605850D01*
X72100291Y38612237D01*
X72161698Y38637673D01*
X72340327Y38816301D01*
X72437000Y39049690D01*
X72437000Y39340250D01*
X72278250Y39499000D01*
X71677000Y39499000D01*
X71677000Y39479000D01*
X71427000Y39479000D01*
X71427000Y39499000D01*
X71405000Y39499000D01*
X71405000Y39753000D01*
X71427000Y39753000D01*
X71427000Y39773000D01*
X71677000Y39773000D01*
X71677000Y39753000D01*
X72278250Y39753000D01*
X72437000Y39911750D01*
X72437000Y40202310D01*
X72366847Y40371673D01*
X72511699Y40431673D01*
X72690327Y40610302D01*
X72787000Y40843691D01*
X72787000Y41134250D01*
X72628250Y41293000D01*
X71879000Y41293000D01*
X71879000Y41273000D01*
X71625000Y41273000D01*
X71625000Y41293000D01*
X70875750Y41293000D01*
X70717000Y41134250D01*
X70717000Y40843691D01*
X70813673Y40610302D01*
X70875975Y40548000D01*
X70763673Y40435699D01*
X70691549Y40261577D01*
X70609850Y40383850D01*
X70529000Y40437872D01*
X70529000Y40641537D01*
X70559850Y40662150D01*
X70654225Y40803393D01*
X70687365Y40970000D01*
X70687365Y41870000D01*
X70662241Y41996309D01*
X70717000Y41996309D01*
X70717000Y41705750D01*
X70875750Y41547000D01*
X71625000Y41547000D01*
X71625000Y42346250D01*
X71879000Y42346250D01*
X71879000Y41547000D01*
X72628250Y41547000D01*
X72787000Y41705750D01*
X72787000Y41996309D01*
X72690327Y42229698D01*
X72511699Y42408327D01*
X72278310Y42505000D01*
X72037750Y42505000D01*
X71879000Y42346250D01*
X71625000Y42346250D01*
X71466250Y42505000D01*
X71225690Y42505000D01*
X70992301Y42408327D01*
X70813673Y42229698D01*
X70717000Y41996309D01*
X70662241Y41996309D01*
X70654225Y42036607D01*
X70559850Y42177850D01*
X70418607Y42272225D01*
X70252000Y42305365D01*
X69452000Y42305365D01*
X69285393Y42272225D01*
X69144150Y42177850D01*
X69049775Y42036607D01*
X69016635Y41870000D01*
X69016635Y40970000D01*
X69049775Y40803393D01*
X69144150Y40662150D01*
X69175000Y40641536D01*
X69175001Y39892681D01*
X69161737Y39826000D01*
X69201520Y39626000D01*
X69214281Y39561848D01*
X69363911Y39337910D01*
X69366635Y39336090D01*
X69366635Y39176000D01*
X69375000Y39133945D01*
X69375001Y38340057D01*
X69366635Y38298000D01*
X69366635Y37398000D01*
X69399775Y37231393D01*
X69494150Y37090150D01*
X69635393Y36995775D01*
X69802000Y36962635D01*
X70302000Y36962635D01*
X70468607Y36995775D01*
X70609850Y37090150D01*
X70704225Y37231393D01*
X70737365Y37398000D01*
X70737365Y38298000D01*
X70729000Y38340054D01*
X70729000Y38900009D01*
X70763673Y38816301D01*
X70942302Y38637673D01*
X71003709Y38612237D01*
X70994150Y38605850D01*
X70899775Y38464607D01*
X70866635Y38298000D01*
X70866635Y37398000D01*
X70899775Y37231393D01*
X70975000Y37118810D01*
X70975001Y35342002D01*
X67858400Y32225400D01*
X67004952Y32225400D01*
X67011834Y32260000D01*
X67002000Y32309439D01*
X67002000Y43916000D01*
X69615737Y43916000D01*
X69654979Y43718721D01*
X69668281Y43651848D01*
X69817911Y43427910D01*
X69874440Y43390138D01*
X69966635Y43297944D01*
X69966635Y42970000D01*
X69999775Y42803393D01*
X70094150Y42662150D01*
X70235393Y42567775D01*
X70402000Y42534635D01*
X71202000Y42534635D01*
X71368607Y42567775D01*
X71509850Y42662150D01*
X71604225Y42803393D01*
X71637365Y42970000D01*
X71637365Y43870000D01*
X71604225Y44036607D01*
X71509850Y44177850D01*
X71368607Y44272225D01*
X71202000Y44305365D01*
X70983000Y44305365D01*
X70983000Y44721946D01*
X70991365Y44764000D01*
X70991365Y45664000D01*
X70958225Y45830607D01*
X70863850Y45971850D01*
X70722607Y46066225D01*
X70556000Y46099365D01*
X70056000Y46099365D01*
X69889393Y46066225D01*
X69748150Y45971850D01*
X69653775Y45830607D01*
X69620635Y45664000D01*
X69620635Y44764000D01*
X69629000Y44721944D01*
X69629001Y43982681D01*
X69615737Y43916000D01*
X67002000Y43916000D01*
X67002000Y58210561D01*
X67011834Y58260000D01*
X66972873Y58455870D01*
X66861921Y58621921D01*
X66695870Y58732873D01*
X66549439Y58762000D01*
X66500000Y58771834D01*
X66450561Y58762000D01*
X7049439Y58762000D01*
X7000000Y58771834D01*
X6950561Y58762000D01*
X6804130Y58732873D01*
X6638079Y58621921D01*
X6527127Y58455870D01*
X6488166Y58260000D01*
X6498000Y58210561D01*
X6498001Y32309444D01*
X6488166Y32260000D01*
X6527127Y32064130D01*
X6638079Y31898079D01*
X6804130Y31787127D01*
X6950561Y31758000D01*
X7000000Y31748166D01*
X7049439Y31758000D01*
X33951454Y31758000D01*
X32474388Y30280933D01*
X32426206Y30248739D01*
X32298678Y30057878D01*
X32269350Y29910438D01*
X32253896Y29832745D01*
X32265200Y29775917D01*
X32265200Y28063668D01*
X32253157Y28071715D01*
X32086550Y28104855D01*
X27589000Y28104855D01*
X27589000Y30030537D01*
X27619850Y30051150D01*
X27714225Y30192393D01*
X27747365Y30359000D01*
X27747365Y31109000D01*
X27714225Y31275607D01*
X27619850Y31416850D01*
X27478607Y31511225D01*
X27312000Y31544365D01*
X26512000Y31544365D01*
X26345393Y31511225D01*
X26322858Y31496168D01*
X26171698Y31647327D01*
X25938309Y31744000D01*
X25697750Y31744000D01*
X25539000Y31585250D01*
X25539000Y30861000D01*
X25559000Y30861000D01*
X25559000Y30607000D01*
X25539000Y30607000D01*
X25539000Y29882750D01*
X25697750Y29724000D01*
X25938309Y29724000D01*
X26171698Y29820673D01*
X26235001Y29883975D01*
X26235000Y27910591D01*
X26185225Y27836097D01*
X26152085Y27669490D01*
X26152085Y27347000D01*
X24924272Y27347000D01*
X24857595Y27360263D01*
X24790919Y27347000D01*
X24790918Y27347000D01*
X24593444Y27307720D01*
X24369506Y27158090D01*
X24331734Y27101560D01*
X23123915Y25893740D01*
X23123915Y27669490D01*
X23090775Y27836097D01*
X22996400Y27977340D01*
X22855157Y28071715D01*
X22787000Y28085272D01*
X22787000Y29883975D01*
X22850302Y29820673D01*
X23083691Y29724000D01*
X23324250Y29724000D01*
X23483000Y29882750D01*
X23483000Y30607000D01*
X23737000Y30607000D01*
X23737000Y29882750D01*
X23895750Y29724000D01*
X24136309Y29724000D01*
X24369698Y29820673D01*
X24511000Y29961974D01*
X24652302Y29820673D01*
X24885691Y29724000D01*
X25126250Y29724000D01*
X25285000Y29882750D01*
X25285000Y30607000D01*
X24535750Y30607000D01*
X24511000Y30582250D01*
X24486250Y30607000D01*
X23737000Y30607000D01*
X23483000Y30607000D01*
X23463000Y30607000D01*
X23463000Y30861000D01*
X23483000Y30861000D01*
X23483000Y31585250D01*
X23737000Y31585250D01*
X23737000Y30861000D01*
X24486250Y30861000D01*
X24511000Y30885750D01*
X24535750Y30861000D01*
X25285000Y30861000D01*
X25285000Y31585250D01*
X25126250Y31744000D01*
X24885691Y31744000D01*
X24652302Y31647327D01*
X24511000Y31506026D01*
X24369698Y31647327D01*
X24136309Y31744000D01*
X23895750Y31744000D01*
X23737000Y31585250D01*
X23483000Y31585250D01*
X23324250Y31744000D01*
X23083691Y31744000D01*
X22850302Y31647327D01*
X22699142Y31496168D01*
X22676607Y31511225D01*
X22510000Y31544365D01*
X21710000Y31544365D01*
X21543393Y31511225D01*
X21402150Y31416850D01*
X21307775Y31275607D01*
X21274635Y31109000D01*
X21274635Y30359000D01*
X21307775Y30192393D01*
X21402150Y30051150D01*
X21433000Y30030537D01*
X21433001Y28104855D01*
X17189450Y28104855D01*
X17022843Y28071715D01*
X16881600Y27977340D01*
X16787225Y27836097D01*
X16754085Y27669490D01*
X16754085Y25670510D01*
X16787225Y25503903D01*
X16881600Y25362660D01*
X17022843Y25268285D01*
X17189450Y25235145D01*
X20416434Y25235145D01*
X21412138Y24239440D01*
X21412138Y24234154D01*
X21322701Y24271200D01*
X20993699Y24271200D01*
X20689742Y24145297D01*
X20665645Y24121200D01*
X16932276Y24121200D01*
X16865600Y24134463D01*
X16798923Y24121200D01*
X16798922Y24121200D01*
X16601448Y24081920D01*
X16377510Y23932290D01*
X16339738Y23875760D01*
X15450981Y22987002D01*
X15342252Y22987002D01*
X15501000Y23145750D01*
X15501000Y23361310D01*
X15404327Y23594699D01*
X15225698Y23773327D01*
X14992309Y23870000D01*
X14754659Y23870000D01*
X14769850Y23880150D01*
X14864225Y24021393D01*
X14897365Y24188000D01*
X14897365Y24372776D01*
X14902263Y24397399D01*
X14897365Y24422023D01*
X14897365Y25088000D01*
X14864225Y25254607D01*
X14769850Y25395850D01*
X14760291Y25402237D01*
X14821698Y25427673D01*
X15000327Y25606301D01*
X15097000Y25839690D01*
X15097000Y26130250D01*
X14938250Y26289000D01*
X14337000Y26289000D01*
X14337000Y26269000D01*
X14087000Y26269000D01*
X14087000Y26289000D01*
X14065000Y26289000D01*
X14065000Y26543000D01*
X14087000Y26543000D01*
X14087000Y27342250D01*
X14337000Y27342250D01*
X14337000Y26543000D01*
X14938250Y26543000D01*
X15097000Y26701750D01*
X15097000Y26992310D01*
X15000327Y27225699D01*
X14821698Y27404327D01*
X14588309Y27501000D01*
X14495750Y27501000D01*
X14337000Y27342250D01*
X14087000Y27342250D01*
X13928250Y27501000D01*
X13835691Y27501000D01*
X13602302Y27404327D01*
X13423673Y27225699D01*
X13351549Y27051577D01*
X13269850Y27173850D01*
X13128607Y27268225D01*
X12962000Y27301365D01*
X12462000Y27301365D01*
X12295393Y27268225D01*
X12154150Y27173850D01*
X12059775Y27032607D01*
X12026635Y26866000D01*
X12026635Y26688056D01*
X12002578Y26663999D01*
X11382775Y26663999D01*
X11307608Y26714224D01*
X11141001Y26747364D01*
X10132923Y26747364D01*
X10111920Y26852955D01*
X10051179Y26943859D01*
X9962290Y27076892D01*
X9905760Y27114664D01*
X9602126Y27418297D01*
X9998259Y27497093D01*
X10420665Y27779335D01*
X10477905Y27865000D01*
X10564250Y27865000D01*
X10723000Y28023750D01*
X10723000Y28302754D01*
X10777000Y28574231D01*
X10777000Y29373000D01*
X10977000Y29373000D01*
X10977000Y28023750D01*
X11135750Y27865000D01*
X11476310Y27865000D01*
X11709699Y27961673D01*
X11888327Y28140302D01*
X11985000Y28373691D01*
X11985000Y29214250D01*
X11826250Y29373000D01*
X10977000Y29373000D01*
X10777000Y29373000D01*
X10777000Y30425769D01*
X10723000Y30697246D01*
X10723000Y30976250D01*
X10977000Y30976250D01*
X10977000Y29627000D01*
X11826250Y29627000D01*
X11985000Y29785750D01*
X11985000Y30626309D01*
X11888327Y30859698D01*
X11709699Y31038327D01*
X11476310Y31135000D01*
X11135750Y31135000D01*
X10977000Y30976250D01*
X10723000Y30976250D01*
X10564250Y31135000D01*
X10477905Y31135000D01*
X10420665Y31220665D01*
X9998260Y31502907D01*
X9500000Y31602017D01*
X9001741Y31502907D01*
X8579336Y31220665D01*
X8388705Y30935365D01*
X7650000Y30935365D01*
X7483393Y30902225D01*
X7342150Y30807850D01*
X7247775Y30666607D01*
X7214635Y30500000D01*
X7214635Y30177406D01*
X7150000Y30190263D01*
X7083323Y30177000D01*
X7083322Y30177000D01*
X6885848Y30137720D01*
X6661910Y29988090D01*
X6624138Y29931560D01*
X5918441Y29225862D01*
X5861911Y29188090D01*
X5744192Y29011910D01*
X5712281Y28964152D01*
X5659737Y28700000D01*
X5673001Y28633319D01*
X5673001Y28285872D01*
X5592150Y28231850D01*
X5497775Y28090607D01*
X5464635Y27924000D01*
X5464635Y27601000D01*
X5131822Y27601000D01*
X3547200Y29185621D01*
X3547200Y35405943D01*
X5409962Y37268704D01*
X5466489Y37306474D01*
X5616120Y37530412D01*
X5655400Y37727886D01*
X5655400Y37727887D01*
X5668663Y37794563D01*
X5655400Y37861240D01*
X5655400Y39304922D01*
X5668663Y39371600D01*
X5616120Y39635753D01*
X5570922Y39703396D01*
X5466490Y39859690D01*
X5409960Y39897462D01*
X4657796Y40649626D01*
X4677000Y40695989D01*
X4677000Y41204011D01*
X4482588Y41673362D01*
X4123362Y42032588D01*
X3957985Y42101089D01*
X4184080Y42194741D01*
X4264353Y42446042D01*
X3400000Y43310395D01*
X3385858Y43296253D01*
X3206253Y43475858D01*
X3220395Y43490000D01*
X3579605Y43490000D01*
X4443958Y42625647D01*
X4695259Y42705920D01*
X4896718Y43261279D01*
X4870315Y43851458D01*
X4695259Y44274080D01*
X4443958Y44354353D01*
X3579605Y43490000D01*
X3220395Y43490000D01*
X3206253Y43504143D01*
X3385858Y43683748D01*
X3400000Y43669605D01*
X4264353Y44533958D01*
X4184080Y44785259D01*
X3943011Y44872708D01*
X4123362Y44947412D01*
X4482588Y45306638D01*
X4677000Y45775989D01*
X4677000Y46284011D01*
X4482588Y46753362D01*
X4123362Y47112588D01*
X3670910Y47300000D01*
X4123362Y47487412D01*
X4482588Y47846638D01*
X4677000Y48315989D01*
X4677000Y48824011D01*
X4482588Y49293362D01*
X4123362Y49652588D01*
X3670910Y49840000D01*
X4123362Y50027412D01*
X4482588Y50386638D01*
X4677000Y50855989D01*
X4677000Y51364011D01*
X4482588Y51833362D01*
X4123362Y52192588D01*
X3654011Y52387000D01*
X3145989Y52387000D01*
X2676638Y52192588D01*
X2317412Y51833362D01*
X2123000Y51364011D01*
X2123000Y50855989D01*
X2183626Y50709626D01*
X2182187Y50708187D01*
X2182184Y50708185D01*
X832154Y49358154D01*
X783975Y49325962D01*
X751784Y49277784D01*
X656447Y49135102D01*
X611664Y48909968D01*
X502000Y48909968D01*
X502000Y58533512D01*
X767181Y58552986D01*
X778881Y58554902D01*
X790724Y58555274D01*
X847605Y58565508D01*
X1711987Y58773028D01*
X1726958Y58778067D01*
X1742406Y58781350D01*
X1796565Y58801492D01*
X1796576Y58801496D01*
X1796580Y58801498D01*
X2610546Y59158804D01*
X2624389Y59166414D01*
X2639010Y59172381D01*
X2688756Y59201801D01*
X3426590Y59697604D01*
X3438862Y59707542D01*
X3452201Y59716007D01*
X3495950Y59753771D01*
X4134323Y60372398D01*
X4144642Y60384352D01*
X4156270Y60395045D01*
X4192641Y60439959D01*
X4711376Y61161855D01*
X4719418Y61175454D01*
X4728965Y61188031D01*
X4756808Y61238676D01*
X5139508Y62041023D01*
X5145015Y62055831D01*
X5152184Y62069901D01*
X5170618Y62124676D01*
X5405186Y62982111D01*
X5407983Y62997658D01*
X5412548Y63012777D01*
X5420991Y63069951D01*
X5459193Y63498000D01*
X70533512Y63498000D01*
X70552986Y63232819D01*
X70552986Y63232819D01*
G37*
X70552986Y63232819D02*
X70554902Y63221119D01*
X70555274Y63209276D01*
X70565508Y63152395D01*
X70773028Y62288013D01*
X70778067Y62273042D01*
X70781350Y62257594D01*
X70801496Y62203425D01*
X71158804Y61389454D01*
X71166414Y61375611D01*
X71172381Y61360990D01*
X71201801Y61311244D01*
X71697604Y60573410D01*
X71707542Y60561138D01*
X71716007Y60547799D01*
X71753771Y60504050D01*
X72372398Y59865677D01*
X72384352Y59855358D01*
X72395045Y59843730D01*
X72439959Y59807359D01*
X73161855Y59288624D01*
X73175454Y59280582D01*
X73188031Y59271035D01*
X73238676Y59243192D01*
X74041023Y58860492D01*
X74055831Y58854985D01*
X74069901Y58847816D01*
X74124676Y58829382D01*
X74982111Y58594814D01*
X74997658Y58592017D01*
X75012777Y58587452D01*
X75069951Y58579009D01*
X75498000Y58540807D01*
X75498000Y46937950D01*
X75323362Y47112588D01*
X74854011Y47307000D01*
X74345989Y47307000D01*
X73876638Y47112588D01*
X73517412Y46753362D01*
X73498208Y46707000D01*
X72688676Y46707000D01*
X72621999Y46720263D01*
X72555323Y46707000D01*
X72555322Y46707000D01*
X72357848Y46667720D01*
X72133910Y46518090D01*
X72096140Y46461562D01*
X71733943Y46099365D01*
X71556000Y46099365D01*
X71389393Y46066225D01*
X71248150Y45971850D01*
X71153775Y45830607D01*
X71120635Y45664000D01*
X71120635Y45238623D01*
X71115737Y45214000D01*
X71120635Y45189377D01*
X71120635Y44764000D01*
X71153775Y44597393D01*
X71248150Y44456150D01*
X71389393Y44361775D01*
X71556000Y44328635D01*
X72056000Y44328635D01*
X72222607Y44361775D01*
X72363850Y44456150D01*
X72458225Y44597393D01*
X72491365Y44764000D01*
X72491365Y44941943D01*
X72902422Y45353000D01*
X73498208Y45353000D01*
X73517412Y45306638D01*
X73876638Y44947412D01*
X74329090Y44760000D01*
X73876638Y44572588D01*
X73517412Y44213362D01*
X73323000Y43744011D01*
X73323000Y43235989D01*
X73517412Y42766638D01*
X73876638Y42407412D01*
X74345989Y42213000D01*
X74854011Y42213000D01*
X75323362Y42407412D01*
X75498000Y42582050D01*
X75498001Y5466488D01*
X75232820Y5447014D01*
X75221120Y5445098D01*
X75209276Y5444726D01*
X75152396Y5434492D01*
X74288013Y5226972D01*
X74273042Y5221934D01*
X74257594Y5218650D01*
X74203425Y5198504D01*
X73389454Y4841195D01*
X73375616Y4833588D01*
X73360990Y4827619D01*
X73311257Y4798207D01*
X73311243Y4798199D01*
X73311238Y4798195D01*
X72573410Y4302396D01*
X72561138Y4292458D01*
X72547799Y4283993D01*
X72504050Y4246229D01*
X71865677Y3627602D01*
X71855358Y3615648D01*
X71843730Y3604955D01*
X71807359Y3560041D01*
X71288624Y2838145D01*
X71280582Y2824546D01*
X71271035Y2811969D01*
X71243192Y2761323D01*
X70860492Y1958977D01*
X70854985Y1944169D01*
X70847816Y1930099D01*
X70829382Y1875324D01*
X70594814Y1017888D01*
X70592017Y1002342D01*
X70587452Y987223D01*
X70579009Y930049D01*
X70540807Y502000D01*
X5466487Y502000D01*
X5447014Y767180D01*
X5445098Y778880D01*
X5444726Y790724D01*
X5434492Y847604D01*
X5226972Y1711987D01*
X5221932Y1726963D01*
X5218650Y1742406D01*
X5198504Y1796575D01*
X4841195Y2610546D01*
X4833588Y2624384D01*
X4827619Y2639010D01*
X4798207Y2688743D01*
X4798199Y2688757D01*
X4798195Y2688762D01*
X4302396Y3426590D01*
X4292458Y3438862D01*
X4283993Y3452201D01*
X4246229Y3495950D01*
X3627602Y4134323D01*
X3615648Y4144642D01*
X3604955Y4156270D01*
X3560041Y4192641D01*
X2838145Y4711376D01*
X2824546Y4719418D01*
X2811969Y4728965D01*
X2761323Y4756808D01*
X1958977Y5139508D01*
X1944169Y5145015D01*
X1930099Y5152184D01*
X1875324Y5170618D01*
X1017888Y5405186D01*
X1002342Y5407983D01*
X987223Y5412548D01*
X930049Y5420991D01*
X502000Y5459193D01*
X502000Y48909968D01*
X611664Y48909968D01*
X622969Y48853135D01*
X622968Y23240862D01*
X611664Y23184034D01*
X622968Y23127206D01*
X656446Y22958901D01*
X783974Y22768040D01*
X832156Y22735846D01*
X6257416Y17310585D01*
X6289608Y17262406D01*
X6480468Y17134878D01*
X6648773Y17101400D01*
X6705601Y17090096D01*
X6762429Y17101400D01*
X15331200Y17101400D01*
X19524414Y12908185D01*
X19556606Y12860006D01*
X19649278Y12798085D01*
X19720586Y12750438D01*
X19980897Y12490127D01*
X20321608Y12349000D01*
X20690392Y12349000D01*
X21031103Y12490127D01*
X21239976Y12699000D01*
X21381635Y12699000D01*
X21381635Y12476000D01*
X21414775Y12309393D01*
X21509150Y12168150D01*
X21650393Y12073775D01*
X21817000Y12040635D01*
X22215001Y12040635D01*
X22215001Y11837000D01*
X21322300Y11837000D01*
X21231000Y11855161D01*
X21139700Y11837000D01*
X21139698Y11837000D01*
X20869303Y11783215D01*
X20562670Y11578330D01*
X20510949Y11500924D01*
X20369076Y11359051D01*
X20291670Y11307330D01*
X20086785Y11000696D01*
X20033000Y10730302D01*
X20014839Y10639000D01*
X20033000Y10547699D01*
X20033001Y9050105D01*
X20014839Y8958800D01*
X20086786Y8597103D01*
X20156202Y8493215D01*
X20291671Y8290470D01*
X20369073Y8238752D01*
X21524635Y7083189D01*
X21524635Y6408800D01*
X21557775Y6242193D01*
X21652150Y6100950D01*
X21793393Y6006575D01*
X21960000Y5973435D01*
X24740000Y5973435D01*
X24906607Y6006575D01*
X25047850Y6100950D01*
X25116838Y6204198D01*
X27231898Y6204198D01*
X27323198Y6186037D01*
X27414498Y6204198D01*
X27507590Y6204198D01*
X27593594Y6239822D01*
X27684895Y6257983D01*
X27762296Y6309701D01*
X27848301Y6345325D01*
X27914126Y6411150D01*
X27991528Y6462868D01*
X28043247Y6540271D01*
X28109071Y6606095D01*
X28109072Y6606097D01*
X28195975Y6693000D01*
X28401897Y6693000D01*
X28409775Y6653393D01*
X28504150Y6512150D01*
X28645393Y6417775D01*
X28812000Y6384635D01*
X31585001Y6384635D01*
X31585001Y6302176D01*
X31289825Y6007000D01*
X28087501Y6007000D01*
X27996200Y6025161D01*
X27904899Y6007000D01*
X27904898Y6007000D01*
X27634503Y5953215D01*
X27327870Y5748330D01*
X27276151Y5670927D01*
X25356025Y3750800D01*
X25145130Y3750800D01*
X25142225Y3765407D01*
X25047850Y3906650D01*
X24906607Y4001025D01*
X24740000Y4034165D01*
X21960000Y4034165D01*
X21793393Y4001025D01*
X21652150Y3906650D01*
X21557775Y3765407D01*
X21524635Y3598800D01*
X21524635Y2048800D01*
X21557775Y1882193D01*
X21652150Y1740950D01*
X21793393Y1646575D01*
X21960000Y1613435D01*
X24740000Y1613435D01*
X24906607Y1646575D01*
X25047850Y1740950D01*
X25142225Y1882193D01*
X25145130Y1896800D01*
X25648700Y1896800D01*
X25740000Y1878639D01*
X25831300Y1896800D01*
X25831302Y1896800D01*
X26101697Y1950585D01*
X26408330Y2155470D01*
X26460051Y2232875D01*
X27851200Y3624024D01*
X27851200Y3498608D01*
X27992327Y3157897D01*
X28253097Y2897127D01*
X28593808Y2756000D01*
X28747778Y2756000D01*
X29383339Y2120438D01*
X29421110Y2063910D01*
X29477637Y2026140D01*
X29645047Y1914280D01*
X29909200Y1861737D01*
X29975878Y1875000D01*
X35872537Y1875000D01*
X35893150Y1844150D01*
X36034393Y1749775D01*
X36201000Y1716635D01*
X36951000Y1716635D01*
X37117607Y1749775D01*
X37258850Y1844150D01*
X37271445Y1863000D01*
X38579035Y1863000D01*
X38579035Y1524000D01*
X38612175Y1357393D01*
X38706550Y1216150D01*
X38847793Y1121775D01*
X39014400Y1088635D01*
X40360964Y1088635D01*
X40643424Y806175D01*
X40675616Y757996D01*
X40760142Y701518D01*
X40866475Y630468D01*
X41091610Y585686D01*
X41148439Y596990D01*
X47943865Y596990D01*
X48000693Y585686D01*
X48057521Y596990D01*
X48057522Y596990D01*
X48225827Y630468D01*
X48416687Y757996D01*
X48448881Y806178D01*
X49948615Y2305911D01*
X49996794Y2338103D01*
X50090437Y2478250D01*
X50124322Y2528962D01*
X50169104Y2754097D01*
X50157800Y2810926D01*
X50157800Y3790250D01*
X54616000Y3790250D01*
X54616000Y3549691D01*
X54712673Y3316302D01*
X54891301Y3137673D01*
X55124690Y3041000D01*
X55340250Y3041000D01*
X55499000Y3199750D01*
X55499000Y3949000D01*
X55753000Y3949000D01*
X55753000Y3199750D01*
X55911750Y3041000D01*
X56127310Y3041000D01*
X56360699Y3137673D01*
X56513975Y3290950D01*
X56513975Y1893570D01*
X56547115Y1726963D01*
X56641490Y1585720D01*
X56782733Y1491345D01*
X56949340Y1458205D01*
X59448700Y1458205D01*
X59615307Y1491345D01*
X59756550Y1585720D01*
X59850925Y1726963D01*
X59884065Y1893570D01*
X59884065Y3168070D01*
X60537140Y3821144D01*
X60511935Y3694430D01*
X60511935Y1893570D01*
X60545075Y1726963D01*
X60639450Y1585720D01*
X60780693Y1491345D01*
X60947300Y1458205D01*
X63446660Y1458205D01*
X63613267Y1491345D01*
X63754510Y1585720D01*
X63848885Y1726963D01*
X63876740Y1867000D01*
X64588635Y1867000D01*
X64588635Y1524000D01*
X64621775Y1357393D01*
X64716150Y1216150D01*
X64857393Y1121775D01*
X65024000Y1088635D01*
X67056000Y1088635D01*
X67222607Y1121775D01*
X67363850Y1216150D01*
X67458225Y1357393D01*
X67491365Y1524000D01*
X67491365Y3556000D01*
X67458225Y3722607D01*
X67363850Y3863850D01*
X67222607Y3958225D01*
X67210377Y3960658D01*
X67446385Y4215182D01*
X67645975Y4697056D01*
X67526836Y4953000D01*
X66167000Y4953000D01*
X66167000Y4933000D01*
X65913000Y4933000D01*
X65913000Y4953000D01*
X64553164Y4953000D01*
X64434025Y4697056D01*
X64633615Y4215182D01*
X64869623Y3960658D01*
X64857393Y3958225D01*
X64716150Y3863850D01*
X64621775Y3722607D01*
X64621455Y3721000D01*
X63876740Y3721000D01*
X63848885Y3861037D01*
X63754510Y4002280D01*
X63613267Y4096655D01*
X63446660Y4129795D01*
X60947300Y4129795D01*
X60820586Y4104590D01*
X61018927Y4302931D01*
X61096330Y4354650D01*
X61301215Y4661283D01*
X61355000Y4931678D01*
X61355000Y4931679D01*
X61373161Y5022980D01*
X61355000Y5114281D01*
X61355000Y5253946D01*
X61363365Y5296000D01*
X61363365Y5462944D01*
X64434025Y5462944D01*
X64553164Y5207000D01*
X65913000Y5207000D01*
X65913000Y6567367D01*
X66167000Y6567367D01*
X66167000Y5207000D01*
X67526836Y5207000D01*
X67645975Y5462944D01*
X67446385Y5944818D01*
X67008379Y6417188D01*
X66422946Y6685983D01*
X66167000Y6567367D01*
X65913000Y6567367D01*
X65657054Y6685983D01*
X65071621Y6417188D01*
X64633615Y5944818D01*
X64434025Y5462944D01*
X61363365Y5462944D01*
X61363365Y6896000D01*
X61330225Y7062607D01*
X61235850Y7203850D01*
X61094607Y7298225D01*
X60928000Y7331365D01*
X60193135Y7331365D01*
X60267000Y7509691D01*
X60267000Y7602250D01*
X60108250Y7761000D01*
X59309000Y7761000D01*
X59309000Y7159750D01*
X59467750Y7001000D01*
X59513521Y7001000D01*
X59492635Y6896000D01*
X59492635Y5398591D01*
X58223840Y4129795D01*
X56949340Y4129795D01*
X56782733Y4096655D01*
X56641490Y4002280D01*
X56554364Y3871886D01*
X56477250Y3949000D01*
X55753000Y3949000D01*
X55499000Y3949000D01*
X54774750Y3949000D01*
X54616000Y3790250D01*
X50157800Y3790250D01*
X50157800Y7954371D01*
X50161425Y7972597D01*
X53148949Y4985073D01*
X53200668Y4907670D01*
X53507301Y4702785D01*
X53777696Y4649000D01*
X53777697Y4649000D01*
X53868998Y4630839D01*
X53960299Y4649000D01*
X54635340Y4649000D01*
X54616000Y4602309D01*
X54616000Y4361750D01*
X54774750Y4203000D01*
X55499000Y4203000D01*
X55499000Y4223000D01*
X55753000Y4223000D01*
X55753000Y4203000D01*
X56477250Y4203000D01*
X56636000Y4361750D01*
X56636000Y4602309D01*
X56539327Y4835698D01*
X56388168Y4986858D01*
X56403225Y5009393D01*
X56411383Y5050408D01*
X56519901Y5158926D01*
X56525775Y5129393D01*
X56620150Y4988150D01*
X56761393Y4893775D01*
X56928000Y4860635D01*
X57928000Y4860635D01*
X58094607Y4893775D01*
X58235850Y4988150D01*
X58330225Y5129393D01*
X58363365Y5296000D01*
X58363365Y6046752D01*
X58373161Y6096000D01*
X58363365Y6145248D01*
X58363365Y6896000D01*
X58330225Y7062607D01*
X58235850Y7203850D01*
X58114815Y7284722D01*
X58161850Y7316150D01*
X58171306Y7330301D01*
X58193673Y7276302D01*
X58372301Y7097673D01*
X58605690Y7001000D01*
X58896250Y7001000D01*
X59055000Y7159750D01*
X59055000Y7761000D01*
X59035000Y7761000D01*
X59035000Y8011000D01*
X59055000Y8011000D01*
X59055000Y8033000D01*
X59309000Y8033000D01*
X59309000Y8011000D01*
X60108250Y8011000D01*
X60267000Y8169750D01*
X60267000Y8262309D01*
X60170327Y8495698D01*
X59991699Y8674327D01*
X59817577Y8746451D01*
X59939850Y8828150D01*
X60034225Y8969393D01*
X60067365Y9136000D01*
X60067365Y9636000D01*
X60034225Y9802607D01*
X59939850Y9943850D01*
X59798607Y10038225D01*
X59632000Y10071365D01*
X59206624Y10071365D01*
X59182000Y10076263D01*
X59157376Y10071365D01*
X58732000Y10071365D01*
X58629618Y10051000D01*
X57896054Y10051000D01*
X57854000Y10059365D01*
X57729741Y10059365D01*
X57865994Y10150406D01*
X57898188Y10198588D01*
X58025812Y10326212D01*
X58073994Y10358406D01*
X58201522Y10549266D01*
X58219378Y10639035D01*
X58521600Y10639035D01*
X58688207Y10672175D01*
X58829450Y10766550D01*
X58923825Y10907793D01*
X58956965Y11074400D01*
X58956965Y12801600D01*
X58923825Y12968207D01*
X58829450Y13109450D01*
X58688207Y13203825D01*
X58521600Y13236965D01*
X58034290Y13236965D01*
X58161567Y13262282D01*
X58588470Y13547530D01*
X58873718Y13974433D01*
X58973884Y14478000D01*
X58873718Y14981567D01*
X58588470Y15408470D01*
X58161567Y15693718D01*
X57888674Y15748000D01*
X58161567Y15802282D01*
X58588470Y16087530D01*
X58873718Y16514433D01*
X58973884Y17018000D01*
X58873718Y17521567D01*
X58588470Y17948470D01*
X58161567Y18233718D01*
X57785111Y18308600D01*
X57530889Y18308600D01*
X57241053Y18250948D01*
X56892587Y18599413D01*
X56860393Y18647595D01*
X56669533Y18775123D01*
X56501228Y18808601D01*
X56501227Y18808601D01*
X56444399Y18819905D01*
X56387571Y18808601D01*
X38773000Y18808601D01*
X38773000Y18980392D01*
X38734980Y19072180D01*
X39228001Y19565200D01*
X48304772Y19565200D01*
X48361600Y19553896D01*
X48418428Y19565200D01*
X48418429Y19565200D01*
X48586734Y19598678D01*
X48777594Y19726206D01*
X48809788Y19774388D01*
X50353202Y21317800D01*
X51301972Y21317800D01*
X51358800Y21306496D01*
X51415628Y21317800D01*
X51415629Y21317800D01*
X51583934Y21351278D01*
X51774794Y21478806D01*
X51806988Y21526988D01*
X55091200Y24811199D01*
X56003374Y24811199D01*
X56060202Y24799895D01*
X56117030Y24811199D01*
X56117031Y24811199D01*
X56285336Y24844677D01*
X56476196Y24972205D01*
X56508390Y25020387D01*
X57085004Y25597000D01*
X62516810Y25597000D01*
X62629393Y25521775D01*
X62796000Y25488635D01*
X63015412Y25488635D01*
X63057848Y25460280D01*
X63255322Y25421000D01*
X63255323Y25421000D01*
X63321999Y25407737D01*
X63388676Y25421000D01*
X64231750Y25421000D01*
X64377750Y25275000D01*
X65257000Y25275000D01*
X65257000Y25295000D01*
X65511000Y25295000D01*
X65511000Y25275000D01*
X65531000Y25275000D01*
X65531000Y25021000D01*
X65511000Y25021000D01*
X65511000Y25001000D01*
X65257000Y25001000D01*
X65257000Y25021000D01*
X64377750Y25021000D01*
X64240156Y24883406D01*
X64235850Y24889850D01*
X64094607Y24984225D01*
X63928000Y25017365D01*
X63428000Y25017365D01*
X63261393Y24984225D01*
X63120150Y24889850D01*
X63025775Y24748607D01*
X62992635Y24582000D01*
X62992635Y24156623D01*
X62987737Y24132000D01*
X62992635Y24107377D01*
X62992635Y23689786D01*
X62863365Y23819056D01*
X62863365Y24582000D01*
X62830225Y24748607D01*
X62735850Y24889850D01*
X62594607Y24984225D01*
X62428000Y25017365D01*
X61928000Y25017365D01*
X61761393Y24984225D01*
X61620150Y24889850D01*
X61525775Y24748607D01*
X61492635Y24582000D01*
X61492635Y23682000D01*
X61501000Y23639946D01*
X61501000Y23613676D01*
X61487737Y23547000D01*
X61501000Y23480324D01*
X61501000Y23480322D01*
X61540280Y23282848D01*
X61689911Y23058910D01*
X61746441Y23021138D01*
X62063400Y22704178D01*
X62063400Y22670099D01*
X62189303Y22366142D01*
X62421942Y22133503D01*
X62725899Y22007600D01*
X63054901Y22007600D01*
X63358858Y22133503D01*
X63591497Y22366142D01*
X63717400Y22670099D01*
X63717400Y22999101D01*
X63614868Y23246635D01*
X63928000Y23246635D01*
X64094607Y23279775D01*
X64235850Y23374150D01*
X64330225Y23515393D01*
X64331340Y23521000D01*
X64612226Y23521000D01*
X64687393Y23470775D01*
X64707000Y23466875D01*
X64707001Y23053464D01*
X64676150Y23032850D01*
X64581775Y22891607D01*
X64548635Y22725000D01*
X64548635Y21475000D01*
X64581775Y21308393D01*
X64676150Y21167150D01*
X64817393Y21072775D01*
X64984000Y21039635D01*
X65984000Y21039635D01*
X66150607Y21072775D01*
X66291850Y21167150D01*
X66386225Y21308393D01*
X66419365Y21475000D01*
X66419365Y22725000D01*
X66386225Y22891607D01*
X66291850Y23032850D01*
X66150607Y23127225D01*
X66061000Y23145049D01*
X66061000Y23466875D01*
X66080607Y23470775D01*
X66221850Y23565150D01*
X66316225Y23706393D01*
X66349365Y23873000D01*
X66349365Y24360340D01*
X66452327Y24463301D01*
X66457937Y24476845D01*
X66487322Y24471000D01*
X66487323Y24471000D01*
X66553999Y24457737D01*
X66618635Y24470594D01*
X66618635Y23873000D01*
X66651775Y23706393D01*
X66746150Y23565150D01*
X66887393Y23470775D01*
X66907000Y23466875D01*
X66907001Y23145049D01*
X66817393Y23127225D01*
X66676150Y23032850D01*
X66581775Y22891607D01*
X66548635Y22725000D01*
X66548635Y21475000D01*
X66581775Y21308393D01*
X66676150Y21167150D01*
X66817393Y21072775D01*
X66984000Y21039635D01*
X67984000Y21039635D01*
X68150607Y21072775D01*
X68291850Y21167150D01*
X68386225Y21308393D01*
X68419365Y21475000D01*
X68419365Y22725000D01*
X68386225Y22891607D01*
X68291850Y23032850D01*
X68261000Y23053463D01*
X68261000Y23162579D01*
X68708635Y22714943D01*
X68708635Y22487000D01*
X68741775Y22320393D01*
X68836150Y22179150D01*
X68977393Y22084775D01*
X69144000Y22051635D01*
X69944000Y22051635D01*
X70110607Y22084775D01*
X70133142Y22099832D01*
X70284302Y21948673D01*
X70517691Y21852000D01*
X70758250Y21852000D01*
X70917000Y22010750D01*
X70917000Y22735000D01*
X71171000Y22735000D01*
X71171000Y22010750D01*
X71329750Y21852000D01*
X71570309Y21852000D01*
X71803698Y21948673D01*
X71982327Y22127301D01*
X72079000Y22360690D01*
X72079000Y22576250D01*
X71920250Y22735000D01*
X71171000Y22735000D01*
X70917000Y22735000D01*
X70897000Y22735000D01*
X70897000Y22989000D01*
X70917000Y22989000D01*
X70917000Y23009000D01*
X71171000Y23009000D01*
X71171000Y22989000D01*
X71920250Y22989000D01*
X72079000Y23147750D01*
X72079000Y23363310D01*
X71982327Y23596699D01*
X71803698Y23775327D01*
X71580402Y23867819D01*
X71601850Y23882150D01*
X71696225Y24023393D01*
X71729365Y24190000D01*
X71729365Y24486576D01*
X71734263Y24511199D01*
X71729365Y24535823D01*
X71729365Y25090000D01*
X71696225Y25256607D01*
X71601850Y25397850D01*
X71592291Y25404237D01*
X71653698Y25429673D01*
X71832327Y25608301D01*
X71929000Y25841690D01*
X71929000Y26132250D01*
X71770250Y26291000D01*
X71169000Y26291000D01*
X71169000Y26271000D01*
X70919000Y26271000D01*
X70919000Y26291000D01*
X70897000Y26291000D01*
X70897000Y26545000D01*
X70919000Y26545000D01*
X70919000Y27344250D01*
X71169000Y27344250D01*
X71169000Y26545000D01*
X71770250Y26545000D01*
X71929000Y26703750D01*
X71929000Y26994310D01*
X71832327Y27227699D01*
X71653698Y27406327D01*
X71420309Y27503000D01*
X71327750Y27503000D01*
X71169000Y27344250D01*
X70919000Y27344250D01*
X70760250Y27503000D01*
X70667691Y27503000D01*
X70434302Y27406327D01*
X70255673Y27227699D01*
X70183549Y27053577D01*
X70101850Y27175850D01*
X69960607Y27270225D01*
X69794000Y27303365D01*
X69294000Y27303365D01*
X69127393Y27270225D01*
X68986150Y27175850D01*
X68891775Y27034607D01*
X68858635Y26868000D01*
X68858635Y26775000D01*
X68355774Y26775000D01*
X68280607Y26825225D01*
X68114000Y26858365D01*
X67144943Y26858365D01*
X67134920Y26908753D01*
X67023060Y27076162D01*
X66985289Y27132690D01*
X66928761Y27170460D01*
X66693665Y27405557D01*
X66673052Y27436405D01*
X66998259Y27501093D01*
X67420665Y27783335D01*
X67477905Y27869000D01*
X67564250Y27869000D01*
X67723000Y28027750D01*
X67723000Y28306754D01*
X67777000Y28578231D01*
X67777000Y29377000D01*
X67977000Y29377000D01*
X67977000Y28027750D01*
X68135750Y27869000D01*
X68476310Y27869000D01*
X68709699Y27965673D01*
X68888327Y28144302D01*
X68985000Y28377691D01*
X68985000Y29218250D01*
X68826250Y29377000D01*
X67977000Y29377000D01*
X67777000Y29377000D01*
X67777000Y29651000D01*
X67977000Y29651000D01*
X67977000Y29631000D01*
X68826250Y29631000D01*
X68985000Y29789750D01*
X68985000Y30630309D01*
X68888327Y30863698D01*
X68709699Y31042327D01*
X68476310Y31139000D01*
X68373601Y31139000D01*
X68513394Y31232406D01*
X68545588Y31280588D01*
X71919815Y34654814D01*
X71967994Y34687006D01*
X72095522Y34877866D01*
X72129000Y35046171D01*
X72140304Y35102999D01*
X72129000Y35159827D01*
X72129000Y37118810D01*
X72204225Y37231393D01*
X72237365Y37398000D01*
X72237365Y38298000D01*
X72204225Y38464607D01*
X72109850Y38605850D01*
X72100291Y38612237D01*
X72161698Y38637673D01*
X72340327Y38816301D01*
X72437000Y39049690D01*
X72437000Y39340250D01*
X72278250Y39499000D01*
X71677000Y39499000D01*
X71677000Y39479000D01*
X71427000Y39479000D01*
X71427000Y39499000D01*
X71405000Y39499000D01*
X71405000Y39753000D01*
X71427000Y39753000D01*
X71427000Y39773000D01*
X71677000Y39773000D01*
X71677000Y39753000D01*
X72278250Y39753000D01*
X72437000Y39911750D01*
X72437000Y40202310D01*
X72366847Y40371673D01*
X72511699Y40431673D01*
X72690327Y40610302D01*
X72787000Y40843691D01*
X72787000Y41134250D01*
X72628250Y41293000D01*
X71879000Y41293000D01*
X71879000Y41273000D01*
X71625000Y41273000D01*
X71625000Y41293000D01*
X70875750Y41293000D01*
X70717000Y41134250D01*
X70717000Y40843691D01*
X70813673Y40610302D01*
X70875975Y40548000D01*
X70763673Y40435699D01*
X70691549Y40261577D01*
X70609850Y40383850D01*
X70529000Y40437872D01*
X70529000Y40641537D01*
X70559850Y40662150D01*
X70654225Y40803393D01*
X70687365Y40970000D01*
X70687365Y41870000D01*
X70662241Y41996309D01*
X70717000Y41996309D01*
X70717000Y41705750D01*
X70875750Y41547000D01*
X71625000Y41547000D01*
X71625000Y42346250D01*
X71879000Y42346250D01*
X71879000Y41547000D01*
X72628250Y41547000D01*
X72787000Y41705750D01*
X72787000Y41996309D01*
X72690327Y42229698D01*
X72511699Y42408327D01*
X72278310Y42505000D01*
X72037750Y42505000D01*
X71879000Y42346250D01*
X71625000Y42346250D01*
X71466250Y42505000D01*
X71225690Y42505000D01*
X70992301Y42408327D01*
X70813673Y42229698D01*
X70717000Y41996309D01*
X70662241Y41996309D01*
X70654225Y42036607D01*
X70559850Y42177850D01*
X70418607Y42272225D01*
X70252000Y42305365D01*
X69452000Y42305365D01*
X69285393Y42272225D01*
X69144150Y42177850D01*
X69049775Y42036607D01*
X69016635Y41870000D01*
X69016635Y40970000D01*
X69049775Y40803393D01*
X69144150Y40662150D01*
X69175000Y40641536D01*
X69175001Y39892681D01*
X69161737Y39826000D01*
X69201520Y39626000D01*
X69214281Y39561848D01*
X69363911Y39337910D01*
X69366635Y39336090D01*
X69366635Y39176000D01*
X69375000Y39133945D01*
X69375001Y38340057D01*
X69366635Y38298000D01*
X69366635Y37398000D01*
X69399775Y37231393D01*
X69494150Y37090150D01*
X69635393Y36995775D01*
X69802000Y36962635D01*
X70302000Y36962635D01*
X70468607Y36995775D01*
X70609850Y37090150D01*
X70704225Y37231393D01*
X70737365Y37398000D01*
X70737365Y38298000D01*
X70729000Y38340054D01*
X70729000Y38900009D01*
X70763673Y38816301D01*
X70942302Y38637673D01*
X71003709Y38612237D01*
X70994150Y38605850D01*
X70899775Y38464607D01*
X70866635Y38298000D01*
X70866635Y37398000D01*
X70899775Y37231393D01*
X70975000Y37118810D01*
X70975001Y35342002D01*
X67858400Y32225400D01*
X67004952Y32225400D01*
X67011834Y32260000D01*
X67002000Y32309439D01*
X67002000Y43916000D01*
X69615737Y43916000D01*
X69654979Y43718721D01*
X69668281Y43651848D01*
X69817911Y43427910D01*
X69874440Y43390138D01*
X69966635Y43297944D01*
X69966635Y42970000D01*
X69999775Y42803393D01*
X70094150Y42662150D01*
X70235393Y42567775D01*
X70402000Y42534635D01*
X71202000Y42534635D01*
X71368607Y42567775D01*
X71509850Y42662150D01*
X71604225Y42803393D01*
X71637365Y42970000D01*
X71637365Y43870000D01*
X71604225Y44036607D01*
X71509850Y44177850D01*
X71368607Y44272225D01*
X71202000Y44305365D01*
X70983000Y44305365D01*
X70983000Y44721946D01*
X70991365Y44764000D01*
X70991365Y45664000D01*
X70958225Y45830607D01*
X70863850Y45971850D01*
X70722607Y46066225D01*
X70556000Y46099365D01*
X70056000Y46099365D01*
X69889393Y46066225D01*
X69748150Y45971850D01*
X69653775Y45830607D01*
X69620635Y45664000D01*
X69620635Y44764000D01*
X69629000Y44721944D01*
X69629001Y43982681D01*
X69615737Y43916000D01*
X67002000Y43916000D01*
X67002000Y58210561D01*
X67011834Y58260000D01*
X66972873Y58455870D01*
X66861921Y58621921D01*
X66695870Y58732873D01*
X66549439Y58762000D01*
X66500000Y58771834D01*
X66450561Y58762000D01*
X7049439Y58762000D01*
X7000000Y58771834D01*
X6950561Y58762000D01*
X6804130Y58732873D01*
X6638079Y58621921D01*
X6527127Y58455870D01*
X6488166Y58260000D01*
X6498000Y58210561D01*
X6498001Y32309444D01*
X6488166Y32260000D01*
X6527127Y32064130D01*
X6638079Y31898079D01*
X6804130Y31787127D01*
X6950561Y31758000D01*
X7000000Y31748166D01*
X7049439Y31758000D01*
X33951454Y31758000D01*
X32474388Y30280933D01*
X32426206Y30248739D01*
X32298678Y30057878D01*
X32269350Y29910438D01*
X32253896Y29832745D01*
X32265200Y29775917D01*
X32265200Y28063668D01*
X32253157Y28071715D01*
X32086550Y28104855D01*
X27589000Y28104855D01*
X27589000Y30030537D01*
X27619850Y30051150D01*
X27714225Y30192393D01*
X27747365Y30359000D01*
X27747365Y31109000D01*
X27714225Y31275607D01*
X27619850Y31416850D01*
X27478607Y31511225D01*
X27312000Y31544365D01*
X26512000Y31544365D01*
X26345393Y31511225D01*
X26322858Y31496168D01*
X26171698Y31647327D01*
X25938309Y31744000D01*
X25697750Y31744000D01*
X25539000Y31585250D01*
X25539000Y30861000D01*
X25559000Y30861000D01*
X25559000Y30607000D01*
X25539000Y30607000D01*
X25539000Y29882750D01*
X25697750Y29724000D01*
X25938309Y29724000D01*
X26171698Y29820673D01*
X26235001Y29883975D01*
X26235000Y27910591D01*
X26185225Y27836097D01*
X26152085Y27669490D01*
X26152085Y27347000D01*
X24924272Y27347000D01*
X24857595Y27360263D01*
X24790919Y27347000D01*
X24790918Y27347000D01*
X24593444Y27307720D01*
X24369506Y27158090D01*
X24331734Y27101560D01*
X23123915Y25893740D01*
X23123915Y27669490D01*
X23090775Y27836097D01*
X22996400Y27977340D01*
X22855157Y28071715D01*
X22787000Y28085272D01*
X22787000Y29883975D01*
X22850302Y29820673D01*
X23083691Y29724000D01*
X23324250Y29724000D01*
X23483000Y29882750D01*
X23483000Y30607000D01*
X23737000Y30607000D01*
X23737000Y29882750D01*
X23895750Y29724000D01*
X24136309Y29724000D01*
X24369698Y29820673D01*
X24511000Y29961974D01*
X24652302Y29820673D01*
X24885691Y29724000D01*
X25126250Y29724000D01*
X25285000Y29882750D01*
X25285000Y30607000D01*
X24535750Y30607000D01*
X24511000Y30582250D01*
X24486250Y30607000D01*
X23737000Y30607000D01*
X23483000Y30607000D01*
X23463000Y30607000D01*
X23463000Y30861000D01*
X23483000Y30861000D01*
X23483000Y31585250D01*
X23737000Y31585250D01*
X23737000Y30861000D01*
X24486250Y30861000D01*
X24511000Y30885750D01*
X24535750Y30861000D01*
X25285000Y30861000D01*
X25285000Y31585250D01*
X25126250Y31744000D01*
X24885691Y31744000D01*
X24652302Y31647327D01*
X24511000Y31506026D01*
X24369698Y31647327D01*
X24136309Y31744000D01*
X23895750Y31744000D01*
X23737000Y31585250D01*
X23483000Y31585250D01*
X23324250Y31744000D01*
X23083691Y31744000D01*
X22850302Y31647327D01*
X22699142Y31496168D01*
X22676607Y31511225D01*
X22510000Y31544365D01*
X21710000Y31544365D01*
X21543393Y31511225D01*
X21402150Y31416850D01*
X21307775Y31275607D01*
X21274635Y31109000D01*
X21274635Y30359000D01*
X21307775Y30192393D01*
X21402150Y30051150D01*
X21433000Y30030537D01*
X21433001Y28104855D01*
X17189450Y28104855D01*
X17022843Y28071715D01*
X16881600Y27977340D01*
X16787225Y27836097D01*
X16754085Y27669490D01*
X16754085Y25670510D01*
X16787225Y25503903D01*
X16881600Y25362660D01*
X17022843Y25268285D01*
X17189450Y25235145D01*
X20416434Y25235145D01*
X21412138Y24239440D01*
X21412138Y24234154D01*
X21322701Y24271200D01*
X20993699Y24271200D01*
X20689742Y24145297D01*
X20665645Y24121200D01*
X16932276Y24121200D01*
X16865600Y24134463D01*
X16798923Y24121200D01*
X16798922Y24121200D01*
X16601448Y24081920D01*
X16377510Y23932290D01*
X16339738Y23875760D01*
X15450981Y22987002D01*
X15342252Y22987002D01*
X15501000Y23145750D01*
X15501000Y23361310D01*
X15404327Y23594699D01*
X15225698Y23773327D01*
X14992309Y23870000D01*
X14754659Y23870000D01*
X14769850Y23880150D01*
X14864225Y24021393D01*
X14897365Y24188000D01*
X14897365Y24372776D01*
X14902263Y24397399D01*
X14897365Y24422023D01*
X14897365Y25088000D01*
X14864225Y25254607D01*
X14769850Y25395850D01*
X14760291Y25402237D01*
X14821698Y25427673D01*
X15000327Y25606301D01*
X15097000Y25839690D01*
X15097000Y26130250D01*
X14938250Y26289000D01*
X14337000Y26289000D01*
X14337000Y26269000D01*
X14087000Y26269000D01*
X14087000Y26289000D01*
X14065000Y26289000D01*
X14065000Y26543000D01*
X14087000Y26543000D01*
X14087000Y27342250D01*
X14337000Y27342250D01*
X14337000Y26543000D01*
X14938250Y26543000D01*
X15097000Y26701750D01*
X15097000Y26992310D01*
X15000327Y27225699D01*
X14821698Y27404327D01*
X14588309Y27501000D01*
X14495750Y27501000D01*
X14337000Y27342250D01*
X14087000Y27342250D01*
X13928250Y27501000D01*
X13835691Y27501000D01*
X13602302Y27404327D01*
X13423673Y27225699D01*
X13351549Y27051577D01*
X13269850Y27173850D01*
X13128607Y27268225D01*
X12962000Y27301365D01*
X12462000Y27301365D01*
X12295393Y27268225D01*
X12154150Y27173850D01*
X12059775Y27032607D01*
X12026635Y26866000D01*
X12026635Y26688056D01*
X12002578Y26663999D01*
X11382775Y26663999D01*
X11307608Y26714224D01*
X11141001Y26747364D01*
X10132923Y26747364D01*
X10111920Y26852955D01*
X10051179Y26943859D01*
X9962290Y27076892D01*
X9905760Y27114664D01*
X9602126Y27418297D01*
X9998259Y27497093D01*
X10420665Y27779335D01*
X10477905Y27865000D01*
X10564250Y27865000D01*
X10723000Y28023750D01*
X10723000Y28302754D01*
X10777000Y28574231D01*
X10777000Y29373000D01*
X10977000Y29373000D01*
X10977000Y28023750D01*
X11135750Y27865000D01*
X11476310Y27865000D01*
X11709699Y27961673D01*
X11888327Y28140302D01*
X11985000Y28373691D01*
X11985000Y29214250D01*
X11826250Y29373000D01*
X10977000Y29373000D01*
X10777000Y29373000D01*
X10777000Y30425769D01*
X10723000Y30697246D01*
X10723000Y30976250D01*
X10977000Y30976250D01*
X10977000Y29627000D01*
X11826250Y29627000D01*
X11985000Y29785750D01*
X11985000Y30626309D01*
X11888327Y30859698D01*
X11709699Y31038327D01*
X11476310Y31135000D01*
X11135750Y31135000D01*
X10977000Y30976250D01*
X10723000Y30976250D01*
X10564250Y31135000D01*
X10477905Y31135000D01*
X10420665Y31220665D01*
X9998260Y31502907D01*
X9500000Y31602017D01*
X9001741Y31502907D01*
X8579336Y31220665D01*
X8388705Y30935365D01*
X7650000Y30935365D01*
X7483393Y30902225D01*
X7342150Y30807850D01*
X7247775Y30666607D01*
X7214635Y30500000D01*
X7214635Y30177406D01*
X7150000Y30190263D01*
X7083323Y30177000D01*
X7083322Y30177000D01*
X6885848Y30137720D01*
X6661910Y29988090D01*
X6624138Y29931560D01*
X5918441Y29225862D01*
X5861911Y29188090D01*
X5744192Y29011910D01*
X5712281Y28964152D01*
X5659737Y28700000D01*
X5673001Y28633319D01*
X5673001Y28285872D01*
X5592150Y28231850D01*
X5497775Y28090607D01*
X5464635Y27924000D01*
X5464635Y27601000D01*
X5131822Y27601000D01*
X3547200Y29185621D01*
X3547200Y35405943D01*
X5409962Y37268704D01*
X5466489Y37306474D01*
X5616120Y37530412D01*
X5655400Y37727886D01*
X5655400Y37727887D01*
X5668663Y37794563D01*
X5655400Y37861240D01*
X5655400Y39304922D01*
X5668663Y39371600D01*
X5616120Y39635753D01*
X5570922Y39703396D01*
X5466490Y39859690D01*
X5409960Y39897462D01*
X4657796Y40649626D01*
X4677000Y40695989D01*
X4677000Y41204011D01*
X4482588Y41673362D01*
X4123362Y42032588D01*
X3957985Y42101089D01*
X4184080Y42194741D01*
X4264353Y42446042D01*
X3400000Y43310395D01*
X3385858Y43296253D01*
X3206253Y43475858D01*
X3220395Y43490000D01*
X3579605Y43490000D01*
X4443958Y42625647D01*
X4695259Y42705920D01*
X4896718Y43261279D01*
X4870315Y43851458D01*
X4695259Y44274080D01*
X4443958Y44354353D01*
X3579605Y43490000D01*
X3220395Y43490000D01*
X3206253Y43504143D01*
X3385858Y43683748D01*
X3400000Y43669605D01*
X4264353Y44533958D01*
X4184080Y44785259D01*
X3943011Y44872708D01*
X4123362Y44947412D01*
X4482588Y45306638D01*
X4677000Y45775989D01*
X4677000Y46284011D01*
X4482588Y46753362D01*
X4123362Y47112588D01*
X3670910Y47300000D01*
X4123362Y47487412D01*
X4482588Y47846638D01*
X4677000Y48315989D01*
X4677000Y48824011D01*
X4482588Y49293362D01*
X4123362Y49652588D01*
X3670910Y49840000D01*
X4123362Y50027412D01*
X4482588Y50386638D01*
X4677000Y50855989D01*
X4677000Y51364011D01*
X4482588Y51833362D01*
X4123362Y52192588D01*
X3654011Y52387000D01*
X3145989Y52387000D01*
X2676638Y52192588D01*
X2317412Y51833362D01*
X2123000Y51364011D01*
X2123000Y50855989D01*
X2183626Y50709626D01*
X2182187Y50708187D01*
X2182184Y50708185D01*
X832154Y49358154D01*
X783975Y49325962D01*
X751784Y49277784D01*
X656447Y49135102D01*
X611664Y48909968D01*
X502000Y48909968D01*
X502000Y58533512D01*
X767181Y58552986D01*
X778881Y58554902D01*
X790724Y58555274D01*
X847605Y58565508D01*
X1711987Y58773028D01*
X1726958Y58778067D01*
X1742406Y58781350D01*
X1796565Y58801492D01*
X1796576Y58801496D01*
X1796580Y58801498D01*
X2610546Y59158804D01*
X2624389Y59166414D01*
X2639010Y59172381D01*
X2688756Y59201801D01*
X3426590Y59697604D01*
X3438862Y59707542D01*
X3452201Y59716007D01*
X3495950Y59753771D01*
X4134323Y60372398D01*
X4144642Y60384352D01*
X4156270Y60395045D01*
X4192641Y60439959D01*
X4711376Y61161855D01*
X4719418Y61175454D01*
X4728965Y61188031D01*
X4756808Y61238676D01*
X5139508Y62041023D01*
X5145015Y62055831D01*
X5152184Y62069901D01*
X5170618Y62124676D01*
X5405186Y62982111D01*
X5407983Y62997658D01*
X5412548Y63012777D01*
X5420991Y63069951D01*
X5459193Y63498000D01*
X70533512Y63498000D01*
X70552986Y63232819D01*
G36*
X48121000Y6223000D02*
X48141000Y6223000D01*
X48141000Y5969000D01*
X48121000Y5969000D01*
X48121000Y5244750D01*
X48279750Y5086000D01*
X48520309Y5086000D01*
X48753698Y5182673D01*
X48932327Y5361301D01*
X49003800Y5533853D01*
X49003801Y2993099D01*
X48964896Y2954194D01*
X48789954Y3454320D01*
X48400036Y3890732D01*
X47872791Y4144709D01*
X47857026Y4147358D01*
X47625000Y4026217D01*
X47625000Y2667000D01*
X47645000Y2667000D01*
X47645000Y2413000D01*
X47625000Y2413000D01*
X47625000Y2393000D01*
X47371000Y2393000D01*
X47371000Y2413000D01*
X47351000Y2413000D01*
X47351000Y2667000D01*
X47371000Y2667000D01*
X47371000Y4026217D01*
X47138974Y4147358D01*
X47127514Y4145432D01*
X47134400Y4180050D01*
X47134400Y4180054D01*
X47146682Y4241799D01*
X47134400Y4303544D01*
X47134400Y5245856D01*
X47140492Y5276482D01*
X47234302Y5182673D01*
X47467691Y5086000D01*
X47708250Y5086000D01*
X47867000Y5244750D01*
X47867000Y5969000D01*
X47847000Y5969000D01*
X47847000Y6223000D01*
X47867000Y6223000D01*
X47867000Y6243000D01*
X48121000Y6243000D01*
X48121000Y6223000D01*
X48121000Y6223000D01*
G37*
X48121000Y6223000D02*
X48141000Y6223000D01*
X48141000Y5969000D01*
X48121000Y5969000D01*
X48121000Y5244750D01*
X48279750Y5086000D01*
X48520309Y5086000D01*
X48753698Y5182673D01*
X48932327Y5361301D01*
X49003800Y5533853D01*
X49003801Y2993099D01*
X48964896Y2954194D01*
X48789954Y3454320D01*
X48400036Y3890732D01*
X47872791Y4144709D01*
X47857026Y4147358D01*
X47625000Y4026217D01*
X47625000Y2667000D01*
X47645000Y2667000D01*
X47645000Y2413000D01*
X47625000Y2413000D01*
X47625000Y2393000D01*
X47371000Y2393000D01*
X47371000Y2413000D01*
X47351000Y2413000D01*
X47351000Y2667000D01*
X47371000Y2667000D01*
X47371000Y4026217D01*
X47138974Y4147358D01*
X47127514Y4145432D01*
X47134400Y4180050D01*
X47134400Y4180054D01*
X47146682Y4241799D01*
X47134400Y4303544D01*
X47134400Y5245856D01*
X47140492Y5276482D01*
X47234302Y5182673D01*
X47467691Y5086000D01*
X47708250Y5086000D01*
X47867000Y5244750D01*
X47867000Y5969000D01*
X47847000Y5969000D01*
X47847000Y6223000D01*
X47867000Y6223000D01*
X47867000Y6243000D01*
X48121000Y6243000D01*
X48121000Y6223000D01*
G36*
X42995364Y9817365D02*
X42476000Y9817365D01*
X42309393Y9784225D01*
X42168150Y9689850D01*
X42073775Y9548607D01*
X42040635Y9382000D01*
X42040635Y8983600D01*
X38301376Y8983600D01*
X38142503Y9142473D01*
X37801792Y9283600D01*
X37433008Y9283600D01*
X37092297Y9142473D01*
X36831527Y8881703D01*
X36690400Y8540992D01*
X36690400Y8172208D01*
X36831527Y7831497D01*
X37092297Y7570727D01*
X37433008Y7429600D01*
X37801792Y7429600D01*
X38142503Y7570727D01*
X38301376Y7729600D01*
X42040635Y7729600D01*
X42040635Y7382000D01*
X42073775Y7215393D01*
X42168150Y7074150D01*
X42309393Y6979775D01*
X42387261Y6964286D01*
X42253673Y6830699D01*
X42157000Y6597310D01*
X42157000Y6381750D01*
X42315750Y6223000D01*
X43065000Y6223000D01*
X43065000Y6243000D01*
X43319000Y6243000D01*
X43319000Y6223000D01*
X43339000Y6223000D01*
X43339000Y5969000D01*
X43319000Y5969000D01*
X43319000Y5244750D01*
X43477750Y5086000D01*
X43718309Y5086000D01*
X43924601Y5171449D01*
X43924601Y5085713D01*
X42775968Y3937079D01*
X42418000Y4008284D01*
X41914433Y3908118D01*
X41487530Y3622870D01*
X41202282Y3195966D01*
X41176965Y3068689D01*
X41176965Y3556000D01*
X41143825Y3722607D01*
X41049450Y3863850D01*
X40908207Y3958225D01*
X40741600Y3991365D01*
X39014400Y3991365D01*
X38847793Y3958225D01*
X38706550Y3863850D01*
X38612175Y3722607D01*
X38579035Y3556000D01*
X38579035Y3217000D01*
X37414025Y3217000D01*
X37489327Y3292302D01*
X37586000Y3525691D01*
X37586000Y3766250D01*
X37427250Y3925000D01*
X36703000Y3925000D01*
X36703000Y3905000D01*
X36449000Y3905000D01*
X36449000Y3925000D01*
X35724750Y3925000D01*
X35566000Y3766250D01*
X35566000Y3525691D01*
X35662673Y3292302D01*
X35725975Y3229000D01*
X30189623Y3229000D01*
X29705200Y3713422D01*
X29705200Y3867392D01*
X29586897Y4153000D01*
X31582500Y4153000D01*
X31673800Y4134839D01*
X31765100Y4153000D01*
X31765102Y4153000D01*
X32035497Y4206785D01*
X32342130Y4411670D01*
X32393850Y4489075D01*
X32483084Y4578309D01*
X35566000Y4578309D01*
X35566000Y4337750D01*
X35724750Y4179000D01*
X36449000Y4179000D01*
X36449000Y4928250D01*
X36703000Y4928250D01*
X36703000Y4179000D01*
X37427250Y4179000D01*
X37586000Y4337750D01*
X37586000Y4578309D01*
X37489327Y4811698D01*
X37310699Y4990327D01*
X37077310Y5087000D01*
X36861750Y5087000D01*
X36703000Y4928250D01*
X36449000Y4928250D01*
X36290250Y5087000D01*
X36074690Y5087000D01*
X35841301Y4990327D01*
X35662673Y4811698D01*
X35566000Y4578309D01*
X32483084Y4578309D01*
X33102927Y5198151D01*
X33180330Y5249870D01*
X33385215Y5556503D01*
X33435688Y5810250D01*
X42157000Y5810250D01*
X42157000Y5594690D01*
X42253673Y5361301D01*
X42432302Y5182673D01*
X42665691Y5086000D01*
X42906250Y5086000D01*
X43065000Y5244750D01*
X43065000Y5969000D01*
X42315750Y5969000D01*
X42157000Y5810250D01*
X33435688Y5810250D01*
X33439000Y5826898D01*
X33439000Y5826899D01*
X33457161Y5918200D01*
X33439000Y6009500D01*
X33439000Y8404425D01*
X34978776Y9944200D01*
X43122199Y9944200D01*
X42995364Y9817365D01*
X42995364Y9817365D01*
G37*
X42995364Y9817365D02*
X42476000Y9817365D01*
X42309393Y9784225D01*
X42168150Y9689850D01*
X42073775Y9548607D01*
X42040635Y9382000D01*
X42040635Y8983600D01*
X38301376Y8983600D01*
X38142503Y9142473D01*
X37801792Y9283600D01*
X37433008Y9283600D01*
X37092297Y9142473D01*
X36831527Y8881703D01*
X36690400Y8540992D01*
X36690400Y8172208D01*
X36831527Y7831497D01*
X37092297Y7570727D01*
X37433008Y7429600D01*
X37801792Y7429600D01*
X38142503Y7570727D01*
X38301376Y7729600D01*
X42040635Y7729600D01*
X42040635Y7382000D01*
X42073775Y7215393D01*
X42168150Y7074150D01*
X42309393Y6979775D01*
X42387261Y6964286D01*
X42253673Y6830699D01*
X42157000Y6597310D01*
X42157000Y6381750D01*
X42315750Y6223000D01*
X43065000Y6223000D01*
X43065000Y6243000D01*
X43319000Y6243000D01*
X43319000Y6223000D01*
X43339000Y6223000D01*
X43339000Y5969000D01*
X43319000Y5969000D01*
X43319000Y5244750D01*
X43477750Y5086000D01*
X43718309Y5086000D01*
X43924601Y5171449D01*
X43924601Y5085713D01*
X42775968Y3937079D01*
X42418000Y4008284D01*
X41914433Y3908118D01*
X41487530Y3622870D01*
X41202282Y3195966D01*
X41176965Y3068689D01*
X41176965Y3556000D01*
X41143825Y3722607D01*
X41049450Y3863850D01*
X40908207Y3958225D01*
X40741600Y3991365D01*
X39014400Y3991365D01*
X38847793Y3958225D01*
X38706550Y3863850D01*
X38612175Y3722607D01*
X38579035Y3556000D01*
X38579035Y3217000D01*
X37414025Y3217000D01*
X37489327Y3292302D01*
X37586000Y3525691D01*
X37586000Y3766250D01*
X37427250Y3925000D01*
X36703000Y3925000D01*
X36703000Y3905000D01*
X36449000Y3905000D01*
X36449000Y3925000D01*
X35724750Y3925000D01*
X35566000Y3766250D01*
X35566000Y3525691D01*
X35662673Y3292302D01*
X35725975Y3229000D01*
X30189623Y3229000D01*
X29705200Y3713422D01*
X29705200Y3867392D01*
X29586897Y4153000D01*
X31582500Y4153000D01*
X31673800Y4134839D01*
X31765100Y4153000D01*
X31765102Y4153000D01*
X32035497Y4206785D01*
X32342130Y4411670D01*
X32393850Y4489075D01*
X32483084Y4578309D01*
X35566000Y4578309D01*
X35566000Y4337750D01*
X35724750Y4179000D01*
X36449000Y4179000D01*
X36449000Y4928250D01*
X36703000Y4928250D01*
X36703000Y4179000D01*
X37427250Y4179000D01*
X37586000Y4337750D01*
X37586000Y4578309D01*
X37489327Y4811698D01*
X37310699Y4990327D01*
X37077310Y5087000D01*
X36861750Y5087000D01*
X36703000Y4928250D01*
X36449000Y4928250D01*
X36290250Y5087000D01*
X36074690Y5087000D01*
X35841301Y4990327D01*
X35662673Y4811698D01*
X35566000Y4578309D01*
X32483084Y4578309D01*
X33102927Y5198151D01*
X33180330Y5249870D01*
X33385215Y5556503D01*
X33435688Y5810250D01*
X42157000Y5810250D01*
X42157000Y5594690D01*
X42253673Y5361301D01*
X42432302Y5182673D01*
X42665691Y5086000D01*
X42906250Y5086000D01*
X43065000Y5244750D01*
X43065000Y5969000D01*
X42315750Y5969000D01*
X42157000Y5810250D01*
X33435688Y5810250D01*
X33439000Y5826898D01*
X33439000Y5826899D01*
X33457161Y5918200D01*
X33439000Y6009500D01*
X33439000Y8404425D01*
X34978776Y9944200D01*
X43122199Y9944200D01*
X42995364Y9817365D01*
G36*
X56954000Y8688635D02*
X57379376Y8688635D01*
X57404000Y8683737D01*
X57428624Y8688635D01*
X57854000Y8688635D01*
X57896054Y8697000D01*
X58427038Y8697000D01*
X58372301Y8674327D01*
X58193673Y8495698D01*
X58165169Y8426883D01*
X58161850Y8431850D01*
X58020607Y8526225D01*
X57854000Y8559365D01*
X57428624Y8559365D01*
X57404000Y8564263D01*
X57379376Y8559365D01*
X56954000Y8559365D01*
X56787393Y8526225D01*
X56646150Y8431850D01*
X56551775Y8290607D01*
X56518635Y8124000D01*
X56518635Y7624000D01*
X56551775Y7457393D01*
X56646150Y7316150D01*
X56717185Y7268686D01*
X56620150Y7203850D01*
X56525775Y7062607D01*
X56517897Y7023000D01*
X56237300Y7023000D01*
X56145999Y7041161D01*
X56054699Y7023000D01*
X56054698Y7023000D01*
X55784303Y6969215D01*
X55477670Y6764330D01*
X55425949Y6686924D01*
X55242025Y6503000D01*
X54252974Y6503000D01*
X54158974Y6597000D01*
X54349310Y6597000D01*
X54582699Y6693673D01*
X54761327Y6872302D01*
X54858000Y7105691D01*
X54858000Y7343341D01*
X54868150Y7328150D01*
X55009393Y7233775D01*
X55176000Y7200635D01*
X55360776Y7200635D01*
X55385399Y7195737D01*
X55410023Y7200635D01*
X56076000Y7200635D01*
X56242607Y7233775D01*
X56383850Y7328150D01*
X56478225Y7469393D01*
X56511365Y7636000D01*
X56511365Y8136000D01*
X56478225Y8302607D01*
X56383850Y8443850D01*
X56242607Y8538225D01*
X56076000Y8571365D01*
X55657457Y8571365D01*
X55528187Y8700635D01*
X56076000Y8700635D01*
X56118054Y8709000D01*
X56851618Y8709000D01*
X56954000Y8688635D01*
X56954000Y8688635D01*
G37*
X56954000Y8688635D02*
X57379376Y8688635D01*
X57404000Y8683737D01*
X57428624Y8688635D01*
X57854000Y8688635D01*
X57896054Y8697000D01*
X58427038Y8697000D01*
X58372301Y8674327D01*
X58193673Y8495698D01*
X58165169Y8426883D01*
X58161850Y8431850D01*
X58020607Y8526225D01*
X57854000Y8559365D01*
X57428624Y8559365D01*
X57404000Y8564263D01*
X57379376Y8559365D01*
X56954000Y8559365D01*
X56787393Y8526225D01*
X56646150Y8431850D01*
X56551775Y8290607D01*
X56518635Y8124000D01*
X56518635Y7624000D01*
X56551775Y7457393D01*
X56646150Y7316150D01*
X56717185Y7268686D01*
X56620150Y7203850D01*
X56525775Y7062607D01*
X56517897Y7023000D01*
X56237300Y7023000D01*
X56145999Y7041161D01*
X56054699Y7023000D01*
X56054698Y7023000D01*
X55784303Y6969215D01*
X55477670Y6764330D01*
X55425949Y6686924D01*
X55242025Y6503000D01*
X54252974Y6503000D01*
X54158974Y6597000D01*
X54349310Y6597000D01*
X54582699Y6693673D01*
X54761327Y6872302D01*
X54858000Y7105691D01*
X54858000Y7343341D01*
X54868150Y7328150D01*
X55009393Y7233775D01*
X55176000Y7200635D01*
X55360776Y7200635D01*
X55385399Y7195737D01*
X55410023Y7200635D01*
X56076000Y7200635D01*
X56242607Y7233775D01*
X56383850Y7328150D01*
X56478225Y7469393D01*
X56511365Y7636000D01*
X56511365Y8136000D01*
X56478225Y8302607D01*
X56383850Y8443850D01*
X56242607Y8538225D01*
X56076000Y8571365D01*
X55657457Y8571365D01*
X55528187Y8700635D01*
X56076000Y8700635D01*
X56118054Y8709000D01*
X56851618Y8709000D01*
X56954000Y8688635D01*
G36*
X53975000Y7759000D02*
X53995000Y7759000D01*
X53995000Y7505000D01*
X53975000Y7505000D01*
X53975000Y7485000D01*
X53721000Y7485000D01*
X53721000Y7505000D01*
X53701000Y7505000D01*
X53701000Y7759000D01*
X53721000Y7759000D01*
X53721000Y7779000D01*
X53975000Y7779000D01*
X53975000Y7759000D01*
X53975000Y7759000D01*
G37*
X53975000Y7759000D02*
X53995000Y7759000D01*
X53995000Y7505000D01*
X53975000Y7505000D01*
X53975000Y7485000D01*
X53721000Y7485000D01*
X53721000Y7505000D01*
X53701000Y7505000D01*
X53701000Y7759000D01*
X53721000Y7759000D01*
X53721000Y7779000D01*
X53975000Y7779000D01*
X53975000Y7759000D01*
G36*
X25404150Y8852150D02*
X25545393Y8757775D01*
X25712000Y8724635D01*
X26612000Y8724635D01*
X26654054Y8733000D01*
X28511858Y8733000D01*
X28504150Y8727850D01*
X28409775Y8586607D01*
X28401897Y8547000D01*
X27903300Y8547000D01*
X27811999Y8565161D01*
X27720698Y8547000D01*
X27450303Y8493215D01*
X27450302Y8493214D01*
X27450301Y8493214D01*
X27418063Y8471673D01*
X27143670Y8288330D01*
X27091949Y8210924D01*
X26939223Y8058198D01*
X25155594Y8058198D01*
X25142225Y8125407D01*
X25047850Y8266650D01*
X24906607Y8361025D01*
X24836350Y8375000D01*
X24885310Y8375000D01*
X25118699Y8471673D01*
X25297327Y8650302D01*
X25389819Y8873598D01*
X25404150Y8852150D01*
X25404150Y8852150D01*
G37*
X25404150Y8852150D02*
X25545393Y8757775D01*
X25712000Y8724635D01*
X26612000Y8724635D01*
X26654054Y8733000D01*
X28511858Y8733000D01*
X28504150Y8727850D01*
X28409775Y8586607D01*
X28401897Y8547000D01*
X27903300Y8547000D01*
X27811999Y8565161D01*
X27720698Y8547000D01*
X27450303Y8493215D01*
X27450302Y8493214D01*
X27450301Y8493214D01*
X27418063Y8471673D01*
X27143670Y8288330D01*
X27091949Y8210924D01*
X26939223Y8058198D01*
X25155594Y8058198D01*
X25142225Y8125407D01*
X25047850Y8266650D01*
X24906607Y8361025D01*
X24836350Y8375000D01*
X24885310Y8375000D01*
X25118699Y8471673D01*
X25297327Y8650302D01*
X25389819Y8873598D01*
X25404150Y8852150D01*
G36*
X37060127Y15476897D02*
X37170024Y15367000D01*
X37060127Y15257103D01*
X36919000Y14916392D01*
X36919000Y14547608D01*
X37060127Y14206897D01*
X37137817Y14129207D01*
X37117697Y14120873D01*
X36856927Y13860103D01*
X36715800Y13519392D01*
X36715800Y13150608D01*
X36856927Y12809897D01*
X36916024Y12750800D01*
X36806127Y12640903D01*
X36665000Y12300192D01*
X36665000Y11931408D01*
X36720177Y11798200D01*
X34686100Y11798200D01*
X34594799Y11816361D01*
X34503499Y11798200D01*
X34503498Y11798200D01*
X34233103Y11744415D01*
X33926470Y11539530D01*
X33874751Y11462127D01*
X31921075Y9508451D01*
X31843670Y9456730D01*
X31638785Y9150096D01*
X31590088Y8905278D01*
X31580159Y8855365D01*
X31016502Y8855365D01*
X31116094Y8921910D01*
X31153868Y8978443D01*
X33959560Y11784134D01*
X34016090Y11821906D01*
X34134921Y11999750D01*
X34165720Y12045843D01*
X34218263Y12309996D01*
X34205000Y12376674D01*
X34205000Y12640128D01*
X34285850Y12694150D01*
X34380225Y12835393D01*
X34406651Y12968250D01*
X34475000Y12968250D01*
X34475000Y12875691D01*
X34571673Y12642302D01*
X34750301Y12463673D01*
X34983690Y12367000D01*
X35274250Y12367000D01*
X35433000Y12525750D01*
X35433000Y13127000D01*
X35687000Y13127000D01*
X35687000Y12525750D01*
X35845750Y12367000D01*
X36136310Y12367000D01*
X36369699Y12463673D01*
X36548327Y12642302D01*
X36645000Y12875691D01*
X36645000Y12968250D01*
X36486250Y13127000D01*
X35687000Y13127000D01*
X35433000Y13127000D01*
X34633750Y13127000D01*
X34475000Y12968250D01*
X34406651Y12968250D01*
X34413365Y13002000D01*
X34413365Y13318400D01*
X34536724Y13318400D01*
X34603400Y13305137D01*
X34670076Y13318400D01*
X34670078Y13318400D01*
X34867552Y13357680D01*
X34896467Y13377000D01*
X35433000Y13377000D01*
X35433000Y13399000D01*
X35687000Y13399000D01*
X35687000Y13377000D01*
X36486250Y13377000D01*
X36645000Y13535750D01*
X36645000Y13628309D01*
X36548327Y13861698D01*
X36369699Y14040327D01*
X36195577Y14112451D01*
X36317850Y14194150D01*
X36412225Y14335393D01*
X36445365Y14502000D01*
X36445365Y15002000D01*
X36412225Y15168607D01*
X36317850Y15309850D01*
X36237000Y15363872D01*
X36237000Y15456635D01*
X36560000Y15456635D01*
X36726607Y15489775D01*
X36867850Y15584150D01*
X36959121Y15720747D01*
X37060127Y15476897D01*
X37060127Y15476897D01*
G37*
X37060127Y15476897D02*
X37170024Y15367000D01*
X37060127Y15257103D01*
X36919000Y14916392D01*
X36919000Y14547608D01*
X37060127Y14206897D01*
X37137817Y14129207D01*
X37117697Y14120873D01*
X36856927Y13860103D01*
X36715800Y13519392D01*
X36715800Y13150608D01*
X36856927Y12809897D01*
X36916024Y12750800D01*
X36806127Y12640903D01*
X36665000Y12300192D01*
X36665000Y11931408D01*
X36720177Y11798200D01*
X34686100Y11798200D01*
X34594799Y11816361D01*
X34503499Y11798200D01*
X34503498Y11798200D01*
X34233103Y11744415D01*
X33926470Y11539530D01*
X33874751Y11462127D01*
X31921075Y9508451D01*
X31843670Y9456730D01*
X31638785Y9150096D01*
X31590088Y8905278D01*
X31580159Y8855365D01*
X31016502Y8855365D01*
X31116094Y8921910D01*
X31153868Y8978443D01*
X33959560Y11784134D01*
X34016090Y11821906D01*
X34134921Y11999750D01*
X34165720Y12045843D01*
X34218263Y12309996D01*
X34205000Y12376674D01*
X34205000Y12640128D01*
X34285850Y12694150D01*
X34380225Y12835393D01*
X34406651Y12968250D01*
X34475000Y12968250D01*
X34475000Y12875691D01*
X34571673Y12642302D01*
X34750301Y12463673D01*
X34983690Y12367000D01*
X35274250Y12367000D01*
X35433000Y12525750D01*
X35433000Y13127000D01*
X35687000Y13127000D01*
X35687000Y12525750D01*
X35845750Y12367000D01*
X36136310Y12367000D01*
X36369699Y12463673D01*
X36548327Y12642302D01*
X36645000Y12875691D01*
X36645000Y12968250D01*
X36486250Y13127000D01*
X35687000Y13127000D01*
X35433000Y13127000D01*
X34633750Y13127000D01*
X34475000Y12968250D01*
X34406651Y12968250D01*
X34413365Y13002000D01*
X34413365Y13318400D01*
X34536724Y13318400D01*
X34603400Y13305137D01*
X34670076Y13318400D01*
X34670078Y13318400D01*
X34867552Y13357680D01*
X34896467Y13377000D01*
X35433000Y13377000D01*
X35433000Y13399000D01*
X35687000Y13399000D01*
X35687000Y13377000D01*
X36486250Y13377000D01*
X36645000Y13535750D01*
X36645000Y13628309D01*
X36548327Y13861698D01*
X36369699Y14040327D01*
X36195577Y14112451D01*
X36317850Y14194150D01*
X36412225Y14335393D01*
X36445365Y14502000D01*
X36445365Y15002000D01*
X36412225Y15168607D01*
X36317850Y15309850D01*
X36237000Y15363872D01*
X36237000Y15456635D01*
X36560000Y15456635D01*
X36726607Y15489775D01*
X36867850Y15584150D01*
X36959121Y15720747D01*
X37060127Y15476897D01*
G36*
X23532750Y9537000D02*
X24257000Y9537000D01*
X24257000Y9557000D01*
X24511000Y9557000D01*
X24511000Y9537000D01*
X24531000Y9537000D01*
X24531000Y9283000D01*
X24511000Y9283000D01*
X24511000Y9263000D01*
X24257000Y9263000D01*
X24257000Y9283000D01*
X23532750Y9283000D01*
X23495000Y9245250D01*
X23457250Y9283000D01*
X22733000Y9283000D01*
X22733000Y9263000D01*
X22479000Y9263000D01*
X22479000Y9283000D01*
X22459000Y9283000D01*
X22459000Y9537000D01*
X22479000Y9537000D01*
X22479000Y9557000D01*
X22733000Y9557000D01*
X22733000Y9537000D01*
X23457250Y9537000D01*
X23495000Y9574750D01*
X23532750Y9537000D01*
X23532750Y9537000D01*
G37*
X23532750Y9537000D02*
X24257000Y9537000D01*
X24257000Y9557000D01*
X24511000Y9557000D01*
X24511000Y9537000D01*
X24531000Y9537000D01*
X24531000Y9283000D01*
X24511000Y9283000D01*
X24511000Y9263000D01*
X24257000Y9263000D01*
X24257000Y9283000D01*
X23532750Y9283000D01*
X23495000Y9245250D01*
X23457250Y9283000D01*
X22733000Y9283000D01*
X22733000Y9263000D01*
X22479000Y9263000D01*
X22479000Y9283000D01*
X22459000Y9283000D01*
X22459000Y9537000D01*
X22479000Y9537000D01*
X22479000Y9557000D01*
X22733000Y9557000D01*
X22733000Y9537000D01*
X23457250Y9537000D01*
X23495000Y9574750D01*
X23532750Y9537000D01*
G36*
X25381635Y12476000D02*
X25402376Y12371728D01*
X25401737Y12368516D01*
X25415000Y12301840D01*
X25415000Y12301839D01*
X25419000Y12281730D01*
X25419000Y11999750D01*
X25577750Y11841000D01*
X25580832Y11841000D01*
X25574865Y11811000D01*
X25621344Y11577333D01*
X25545393Y11562225D01*
X25404150Y11467850D01*
X25401326Y11463623D01*
X25163808Y11463623D01*
X25161225Y11476607D01*
X25066850Y11617850D01*
X25025575Y11645429D01*
X25025575Y11860325D01*
X25165000Y11999750D01*
X25165000Y12268577D01*
X25169000Y12288686D01*
X25182263Y12355364D01*
X25180316Y12365152D01*
X25202365Y12476000D01*
X25202365Y13423000D01*
X25381635Y13423000D01*
X25381635Y12476000D01*
X25381635Y12476000D01*
G37*
X25381635Y12476000D02*
X25402376Y12371728D01*
X25401737Y12368516D01*
X25415000Y12301840D01*
X25415000Y12301839D01*
X25419000Y12281730D01*
X25419000Y11999750D01*
X25577750Y11841000D01*
X25580832Y11841000D01*
X25574865Y11811000D01*
X25621344Y11577333D01*
X25545393Y11562225D01*
X25404150Y11467850D01*
X25401326Y11463623D01*
X25163808Y11463623D01*
X25161225Y11476607D01*
X25066850Y11617850D01*
X25025575Y11645429D01*
X25025575Y11860325D01*
X25165000Y11999750D01*
X25165000Y12268577D01*
X25169000Y12288686D01*
X25182263Y12355364D01*
X25180316Y12365152D01*
X25202365Y12476000D01*
X25202365Y13423000D01*
X25381635Y13423000D01*
X25381635Y12476000D01*
G36*
X56727530Y16087530D02*
X57154433Y15802282D01*
X57427326Y15748000D01*
X57154433Y15693718D01*
X56727530Y15408470D01*
X56442282Y14981567D01*
X56388000Y14708674D01*
X56333718Y14981567D01*
X56048470Y15408470D01*
X55676933Y15656723D01*
X56006490Y15811179D01*
X56400688Y16243053D01*
X56485994Y16449013D01*
X56727530Y16087530D01*
X56727530Y16087530D01*
G37*
X56727530Y16087530D02*
X57154433Y15802282D01*
X57427326Y15748000D01*
X57154433Y15693718D01*
X56727530Y15408470D01*
X56442282Y14981567D01*
X56388000Y14708674D01*
X56333718Y14981567D01*
X56048470Y15408470D01*
X55676933Y15656723D01*
X56006490Y15811179D01*
X56400688Y16243053D01*
X56485994Y16449013D01*
X56727530Y16087530D01*
G36*
X53663042Y17377026D02*
X53784183Y17145000D01*
X54991000Y17145000D01*
X54991000Y17165000D01*
X55245000Y17165000D01*
X55245000Y17145000D01*
X55265000Y17145000D01*
X55265000Y16891000D01*
X55245000Y16891000D01*
X55245000Y16871000D01*
X54991000Y16871000D01*
X54991000Y16891000D01*
X53784183Y16891000D01*
X53663042Y16658974D01*
X53835312Y16243053D01*
X54229510Y15811179D01*
X54559067Y15656723D01*
X54187530Y15408470D01*
X53951348Y15055000D01*
X39609001Y15055000D01*
X38773000Y15891000D01*
X38773000Y16186392D01*
X38631873Y16527103D01*
X38394976Y16764000D01*
X38631873Y17000897D01*
X38773000Y17341608D01*
X38773000Y17636999D01*
X38790602Y17654601D01*
X53778011Y17654601D01*
X53663042Y17377026D01*
X53663042Y17377026D01*
G37*
X53663042Y17377026D02*
X53784183Y17145000D01*
X54991000Y17145000D01*
X54991000Y17165000D01*
X55245000Y17165000D01*
X55245000Y17145000D01*
X55265000Y17145000D01*
X55265000Y16891000D01*
X55245000Y16891000D01*
X55245000Y16871000D01*
X54991000Y16871000D01*
X54991000Y16891000D01*
X53784183Y16891000D01*
X53663042Y16658974D01*
X53835312Y16243053D01*
X54229510Y15811179D01*
X54559067Y15656723D01*
X54187530Y15408470D01*
X53951348Y15055000D01*
X39609001Y15055000D01*
X38773000Y15891000D01*
X38773000Y16186392D01*
X38631873Y16527103D01*
X38394976Y16764000D01*
X38631873Y17000897D01*
X38773000Y17341608D01*
X38773000Y17636999D01*
X38790602Y17654601D01*
X53778011Y17654601D01*
X53663042Y17377026D01*
G36*
X32533000Y23494108D02*
X32533000Y22289892D01*
X32993834Y21177342D01*
X33845342Y20325834D01*
X34229897Y20166546D01*
X34157775Y20058607D01*
X34124635Y19892000D01*
X34124635Y16835640D01*
X34016090Y16998090D01*
X33959563Y17035860D01*
X33457784Y17537639D01*
X33551873Y17631728D01*
X33693000Y17972439D01*
X33693000Y18341223D01*
X33551873Y18681934D01*
X33291103Y18942704D01*
X32950392Y19083831D01*
X32581608Y19083831D01*
X32240897Y18942704D01*
X32096236Y18798043D01*
X32078679Y18794551D01*
X31854741Y18644921D01*
X31826730Y18603000D01*
X30377365Y18603000D01*
X30377365Y19001000D01*
X30352501Y19126000D01*
X30377365Y19251000D01*
X30377365Y19801000D01*
X30352501Y19926000D01*
X30377365Y20051000D01*
X30377365Y20601000D01*
X30344225Y20767607D01*
X30249850Y20908850D01*
X30108607Y21003225D01*
X29942000Y21036365D01*
X28402365Y21036365D01*
X28402365Y22576000D01*
X28369225Y22742607D01*
X28274850Y22883850D01*
X28133607Y22978225D01*
X27967000Y23011365D01*
X27417000Y23011365D01*
X27292000Y22986501D01*
X27167000Y23011365D01*
X26829660Y23011365D01*
X26726699Y23114327D01*
X26493310Y23211000D01*
X26384422Y23211000D01*
X26539034Y23365611D01*
X31951535Y23365611D01*
X32018211Y23352348D01*
X32084887Y23365611D01*
X32084889Y23365611D01*
X32282363Y23404891D01*
X32506301Y23554521D01*
X32544075Y23611054D01*
X32607862Y23674841D01*
X32533000Y23494108D01*
X32533000Y23494108D01*
G37*
X32533000Y23494108D02*
X32533000Y22289892D01*
X32993834Y21177342D01*
X33845342Y20325834D01*
X34229897Y20166546D01*
X34157775Y20058607D01*
X34124635Y19892000D01*
X34124635Y16835640D01*
X34016090Y16998090D01*
X33959563Y17035860D01*
X33457784Y17537639D01*
X33551873Y17631728D01*
X33693000Y17972439D01*
X33693000Y18341223D01*
X33551873Y18681934D01*
X33291103Y18942704D01*
X32950392Y19083831D01*
X32581608Y19083831D01*
X32240897Y18942704D01*
X32096236Y18798043D01*
X32078679Y18794551D01*
X31854741Y18644921D01*
X31826730Y18603000D01*
X30377365Y18603000D01*
X30377365Y19001000D01*
X30352501Y19126000D01*
X30377365Y19251000D01*
X30377365Y19801000D01*
X30352501Y19926000D01*
X30377365Y20051000D01*
X30377365Y20601000D01*
X30344225Y20767607D01*
X30249850Y20908850D01*
X30108607Y21003225D01*
X29942000Y21036365D01*
X28402365Y21036365D01*
X28402365Y22576000D01*
X28369225Y22742607D01*
X28274850Y22883850D01*
X28133607Y22978225D01*
X27967000Y23011365D01*
X27417000Y23011365D01*
X27292000Y22986501D01*
X27167000Y23011365D01*
X26829660Y23011365D01*
X26726699Y23114327D01*
X26493310Y23211000D01*
X26384422Y23211000D01*
X26539034Y23365611D01*
X31951535Y23365611D01*
X32018211Y23352348D01*
X32084887Y23365611D01*
X32084889Y23365611D01*
X32282363Y23404891D01*
X32506301Y23554521D01*
X32544075Y23611054D01*
X32607862Y23674841D01*
X32533000Y23494108D01*
G36*
X5900000Y25488635D02*
X6800000Y25488635D01*
X6842054Y25497000D01*
X7249601Y25497000D01*
X7246001Y25488309D01*
X7246001Y25322749D01*
X7404751Y25163999D01*
X8284001Y25163999D01*
X8284001Y25183999D01*
X8538001Y25183999D01*
X8538001Y25163999D01*
X8558001Y25163999D01*
X8558001Y24909999D01*
X8538001Y24909999D01*
X8538001Y24889999D01*
X8284001Y24889999D01*
X8284001Y24909999D01*
X7404751Y24909999D01*
X7258751Y24763999D01*
X7232604Y24763999D01*
X7149850Y24887850D01*
X7008607Y24982225D01*
X6842000Y25015365D01*
X6342000Y25015365D01*
X6175393Y24982225D01*
X6034150Y24887850D01*
X5939775Y24746607D01*
X5906635Y24580000D01*
X5906635Y24154623D01*
X5901737Y24130000D01*
X5906635Y24105377D01*
X5906635Y23680000D01*
X5939775Y23513393D01*
X6034150Y23372150D01*
X6175393Y23277775D01*
X6342000Y23244635D01*
X6842000Y23244635D01*
X7008607Y23277775D01*
X7149850Y23372150D01*
X7175140Y23409999D01*
X7639227Y23409999D01*
X7714394Y23359774D01*
X7734001Y23355874D01*
X7734002Y22757280D01*
X7603151Y22669849D01*
X7508776Y22528606D01*
X7475636Y22361999D01*
X7475636Y21111999D01*
X7508776Y20945392D01*
X7603151Y20804149D01*
X7744394Y20709774D01*
X7911001Y20676634D01*
X8911001Y20676634D01*
X9077608Y20709774D01*
X9218851Y20804149D01*
X9313226Y20945392D01*
X9346366Y21111999D01*
X9346366Y22361999D01*
X9313226Y22528606D01*
X9218851Y22669849D01*
X9088001Y22757280D01*
X9088001Y23355874D01*
X9107608Y23359774D01*
X9248851Y23454149D01*
X9343226Y23595392D01*
X9376366Y23761999D01*
X9376366Y24249339D01*
X9479328Y24352300D01*
X9527631Y24468914D01*
X9631847Y24399279D01*
X9645636Y24396536D01*
X9645636Y23761999D01*
X9678776Y23595392D01*
X9773151Y23454149D01*
X9914394Y23359774D01*
X9934001Y23355874D01*
X9934002Y22797364D01*
X9911001Y22797364D01*
X9744394Y22764224D01*
X9603151Y22669849D01*
X9508776Y22528606D01*
X9475636Y22361999D01*
X9475636Y21111999D01*
X9508776Y20945392D01*
X9603151Y20804149D01*
X9744394Y20709774D01*
X9911001Y20676634D01*
X10911001Y20676634D01*
X11077608Y20709774D01*
X11218851Y20804149D01*
X11313226Y20945392D01*
X11346366Y21111999D01*
X11346366Y22361999D01*
X11313226Y22528606D01*
X11288001Y22566358D01*
X11288001Y22666542D01*
X11297510Y22652311D01*
X11354040Y22614539D01*
X11540138Y22428441D01*
X11577910Y22371910D01*
X11801848Y22222280D01*
X11999322Y22183000D01*
X11999323Y22183000D01*
X12065999Y22169737D01*
X12132676Y22183000D01*
X12254241Y22183000D01*
X12258150Y22177150D01*
X12289000Y22156537D01*
X12289000Y22051676D01*
X12275737Y21985000D01*
X12289000Y21918324D01*
X12289000Y21918323D01*
X12328280Y21720849D01*
X12477910Y21496911D01*
X12534440Y21459139D01*
X12911339Y21082238D01*
X12949110Y21025710D01*
X13173048Y20876080D01*
X13370522Y20836800D01*
X13370523Y20836800D01*
X13437199Y20823537D01*
X13503876Y20836800D01*
X14868524Y20836800D01*
X14935200Y20823537D01*
X15001876Y20836800D01*
X15001878Y20836800D01*
X15199352Y20876080D01*
X15423290Y21025710D01*
X15461064Y21082243D01*
X17146022Y22767200D01*
X20665645Y22767200D01*
X20689742Y22743103D01*
X20986456Y22620200D01*
X20739699Y22620200D01*
X20435742Y22494297D01*
X20203103Y22261658D01*
X20077200Y21957701D01*
X20077200Y21904283D01*
X20040929Y21850000D01*
X20004281Y21795152D01*
X19951737Y21531000D01*
X19965001Y21464319D01*
X19965001Y21036365D01*
X19842000Y21036365D01*
X19675393Y21003225D01*
X19534150Y20908850D01*
X19439775Y20767607D01*
X19406635Y20601000D01*
X19406635Y20051000D01*
X19431499Y19926000D01*
X19406635Y19801000D01*
X19406635Y19357022D01*
X18418377Y19357022D01*
X18608097Y19546742D01*
X18734000Y19850699D01*
X18734000Y20179701D01*
X18608097Y20483658D01*
X18375458Y20716297D01*
X18071501Y20842200D01*
X17742499Y20842200D01*
X17438542Y20716297D01*
X17205903Y20483658D01*
X17126599Y20292201D01*
X7312008Y20292201D01*
X5591007Y22013201D01*
X5611335Y22021621D01*
X5843974Y22254260D01*
X5969877Y22558217D01*
X5969877Y22887219D01*
X5843974Y23191176D01*
X5769000Y23266150D01*
X5769000Y23637946D01*
X5777365Y23680000D01*
X5777365Y24580000D01*
X5744225Y24746607D01*
X5649850Y24887850D01*
X5508607Y24982225D01*
X5342000Y25015365D01*
X5198787Y25015365D01*
X5680422Y25497000D01*
X5857946Y25497000D01*
X5900000Y25488635D01*
X5900000Y25488635D01*
G37*
X5900000Y25488635D02*
X6800000Y25488635D01*
X6842054Y25497000D01*
X7249601Y25497000D01*
X7246001Y25488309D01*
X7246001Y25322749D01*
X7404751Y25163999D01*
X8284001Y25163999D01*
X8284001Y25183999D01*
X8538001Y25183999D01*
X8538001Y25163999D01*
X8558001Y25163999D01*
X8558001Y24909999D01*
X8538001Y24909999D01*
X8538001Y24889999D01*
X8284001Y24889999D01*
X8284001Y24909999D01*
X7404751Y24909999D01*
X7258751Y24763999D01*
X7232604Y24763999D01*
X7149850Y24887850D01*
X7008607Y24982225D01*
X6842000Y25015365D01*
X6342000Y25015365D01*
X6175393Y24982225D01*
X6034150Y24887850D01*
X5939775Y24746607D01*
X5906635Y24580000D01*
X5906635Y24154623D01*
X5901737Y24130000D01*
X5906635Y24105377D01*
X5906635Y23680000D01*
X5939775Y23513393D01*
X6034150Y23372150D01*
X6175393Y23277775D01*
X6342000Y23244635D01*
X6842000Y23244635D01*
X7008607Y23277775D01*
X7149850Y23372150D01*
X7175140Y23409999D01*
X7639227Y23409999D01*
X7714394Y23359774D01*
X7734001Y23355874D01*
X7734002Y22757280D01*
X7603151Y22669849D01*
X7508776Y22528606D01*
X7475636Y22361999D01*
X7475636Y21111999D01*
X7508776Y20945392D01*
X7603151Y20804149D01*
X7744394Y20709774D01*
X7911001Y20676634D01*
X8911001Y20676634D01*
X9077608Y20709774D01*
X9218851Y20804149D01*
X9313226Y20945392D01*
X9346366Y21111999D01*
X9346366Y22361999D01*
X9313226Y22528606D01*
X9218851Y22669849D01*
X9088001Y22757280D01*
X9088001Y23355874D01*
X9107608Y23359774D01*
X9248851Y23454149D01*
X9343226Y23595392D01*
X9376366Y23761999D01*
X9376366Y24249339D01*
X9479328Y24352300D01*
X9527631Y24468914D01*
X9631847Y24399279D01*
X9645636Y24396536D01*
X9645636Y23761999D01*
X9678776Y23595392D01*
X9773151Y23454149D01*
X9914394Y23359774D01*
X9934001Y23355874D01*
X9934002Y22797364D01*
X9911001Y22797364D01*
X9744394Y22764224D01*
X9603151Y22669849D01*
X9508776Y22528606D01*
X9475636Y22361999D01*
X9475636Y21111999D01*
X9508776Y20945392D01*
X9603151Y20804149D01*
X9744394Y20709774D01*
X9911001Y20676634D01*
X10911001Y20676634D01*
X11077608Y20709774D01*
X11218851Y20804149D01*
X11313226Y20945392D01*
X11346366Y21111999D01*
X11346366Y22361999D01*
X11313226Y22528606D01*
X11288001Y22566358D01*
X11288001Y22666542D01*
X11297510Y22652311D01*
X11354040Y22614539D01*
X11540138Y22428441D01*
X11577910Y22371910D01*
X11801848Y22222280D01*
X11999322Y22183000D01*
X11999323Y22183000D01*
X12065999Y22169737D01*
X12132676Y22183000D01*
X12254241Y22183000D01*
X12258150Y22177150D01*
X12289000Y22156537D01*
X12289000Y22051676D01*
X12275737Y21985000D01*
X12289000Y21918324D01*
X12289000Y21918323D01*
X12328280Y21720849D01*
X12477910Y21496911D01*
X12534440Y21459139D01*
X12911339Y21082238D01*
X12949110Y21025710D01*
X13173048Y20876080D01*
X13370522Y20836800D01*
X13370523Y20836800D01*
X13437199Y20823537D01*
X13503876Y20836800D01*
X14868524Y20836800D01*
X14935200Y20823537D01*
X15001876Y20836800D01*
X15001878Y20836800D01*
X15199352Y20876080D01*
X15423290Y21025710D01*
X15461064Y21082243D01*
X17146022Y22767200D01*
X20665645Y22767200D01*
X20689742Y22743103D01*
X20986456Y22620200D01*
X20739699Y22620200D01*
X20435742Y22494297D01*
X20203103Y22261658D01*
X20077200Y21957701D01*
X20077200Y21904283D01*
X20040929Y21850000D01*
X20004281Y21795152D01*
X19951737Y21531000D01*
X19965001Y21464319D01*
X19965001Y21036365D01*
X19842000Y21036365D01*
X19675393Y21003225D01*
X19534150Y20908850D01*
X19439775Y20767607D01*
X19406635Y20601000D01*
X19406635Y20051000D01*
X19431499Y19926000D01*
X19406635Y19801000D01*
X19406635Y19357022D01*
X18418377Y19357022D01*
X18608097Y19546742D01*
X18734000Y19850699D01*
X18734000Y20179701D01*
X18608097Y20483658D01*
X18375458Y20716297D01*
X18071501Y20842200D01*
X17742499Y20842200D01*
X17438542Y20716297D01*
X17205903Y20483658D01*
X17126599Y20292201D01*
X7312008Y20292201D01*
X5591007Y22013201D01*
X5611335Y22021621D01*
X5843974Y22254260D01*
X5969877Y22558217D01*
X5969877Y22887219D01*
X5843974Y23191176D01*
X5769000Y23266150D01*
X5769000Y23637946D01*
X5777365Y23680000D01*
X5777365Y24580000D01*
X5744225Y24746607D01*
X5649850Y24887850D01*
X5508607Y24982225D01*
X5342000Y25015365D01*
X5198787Y25015365D01*
X5680422Y25497000D01*
X5857946Y25497000D01*
X5900000Y25488635D01*
G36*
X26152085Y25670510D02*
X26179105Y25534672D01*
X25735274Y25534672D01*
X25678446Y25545976D01*
X25621618Y25534672D01*
X25453313Y25501194D01*
X25278926Y25384673D01*
X25113947Y25384673D01*
X24809990Y25258770D01*
X24577351Y25026131D01*
X24451448Y24722174D01*
X24451448Y24393172D01*
X24577351Y24089215D01*
X24809990Y23856576D01*
X25025774Y23767195D01*
X24860440Y23601862D01*
X24803911Y23564090D01*
X24676311Y23373122D01*
X24654281Y23340152D01*
X24601737Y23076000D01*
X24615001Y23009319D01*
X24615001Y22742945D01*
X24614775Y22742607D01*
X24581635Y22576000D01*
X24581635Y20976000D01*
X24614775Y20809393D01*
X24615001Y20809055D01*
X24615001Y20619201D01*
X24599373Y20540635D01*
X24582737Y20457000D01*
X24596000Y20390324D01*
X24596000Y20270222D01*
X24586179Y20260400D01*
X24369000Y20260400D01*
X24369000Y20809056D01*
X24369225Y20809393D01*
X24402365Y20976000D01*
X24402365Y22576000D01*
X24369225Y22742607D01*
X24369000Y22742944D01*
X24369000Y23064475D01*
X24466149Y23299014D01*
X24466149Y23628016D01*
X24340246Y23931973D01*
X24107607Y24164612D01*
X23803650Y24290515D01*
X23474648Y24290515D01*
X23466148Y24286994D01*
X23466148Y24321131D01*
X25138018Y25993000D01*
X26152085Y25993000D01*
X26152085Y25670510D01*
X26152085Y25670510D01*
G37*
X26152085Y25670510D02*
X26179105Y25534672D01*
X25735274Y25534672D01*
X25678446Y25545976D01*
X25621618Y25534672D01*
X25453313Y25501194D01*
X25278926Y25384673D01*
X25113947Y25384673D01*
X24809990Y25258770D01*
X24577351Y25026131D01*
X24451448Y24722174D01*
X24451448Y24393172D01*
X24577351Y24089215D01*
X24809990Y23856576D01*
X25025774Y23767195D01*
X24860440Y23601862D01*
X24803911Y23564090D01*
X24676311Y23373122D01*
X24654281Y23340152D01*
X24601737Y23076000D01*
X24615001Y23009319D01*
X24615001Y22742945D01*
X24614775Y22742607D01*
X24581635Y22576000D01*
X24581635Y20976000D01*
X24614775Y20809393D01*
X24615001Y20809055D01*
X24615001Y20619201D01*
X24599373Y20540635D01*
X24582737Y20457000D01*
X24596000Y20390324D01*
X24596000Y20270222D01*
X24586179Y20260400D01*
X24369000Y20260400D01*
X24369000Y20809056D01*
X24369225Y20809393D01*
X24402365Y20976000D01*
X24402365Y22576000D01*
X24369225Y22742607D01*
X24369000Y22742944D01*
X24369000Y23064475D01*
X24466149Y23299014D01*
X24466149Y23628016D01*
X24340246Y23931973D01*
X24107607Y24164612D01*
X23803650Y24290515D01*
X23474648Y24290515D01*
X23466148Y24286994D01*
X23466148Y24321131D01*
X25138018Y25993000D01*
X26152085Y25993000D01*
X26152085Y25670510D01*
G36*
X45388705Y30935365D02*
X44650000Y30935365D01*
X44483393Y30902225D01*
X44342150Y30807850D01*
X44247775Y30666607D01*
X44214635Y30500000D01*
X44214635Y30177000D01*
X43765276Y30177000D01*
X43698599Y30190263D01*
X43631923Y30177000D01*
X43631922Y30177000D01*
X43434448Y30137720D01*
X43210510Y29988090D01*
X43172738Y29931560D01*
X42748441Y29507262D01*
X42691911Y29469490D01*
X42572156Y29290263D01*
X42542281Y29245552D01*
X42489737Y28981400D01*
X42503001Y28914719D01*
X42503000Y28285872D01*
X42422150Y28231850D01*
X42327775Y28090607D01*
X42294635Y27924000D01*
X42294635Y27424000D01*
X42327775Y27257393D01*
X42422150Y27116150D01*
X42563393Y27021775D01*
X42730000Y26988635D01*
X43155376Y26988635D01*
X43180000Y26983737D01*
X43204624Y26988635D01*
X43630000Y26988635D01*
X43796607Y27021775D01*
X43937850Y27116150D01*
X44032225Y27257393D01*
X44065365Y27424000D01*
X44065365Y27924000D01*
X44032225Y28090607D01*
X43937850Y28231850D01*
X43857000Y28285872D01*
X43857000Y28700979D01*
X43979022Y28823000D01*
X44214635Y28823000D01*
X44214635Y28500000D01*
X44247775Y28333393D01*
X44342150Y28192150D01*
X44483393Y28097775D01*
X44650000Y28064635D01*
X45388704Y28064635D01*
X45579335Y27779335D01*
X46001740Y27497093D01*
X46500000Y27397983D01*
X46998259Y27497093D01*
X47420665Y27779335D01*
X47477905Y27865000D01*
X47564250Y27865000D01*
X47723000Y28023750D01*
X47723000Y28302754D01*
X47777000Y28574231D01*
X47777000Y29373000D01*
X47977000Y29373000D01*
X47977000Y28023750D01*
X48135750Y27865000D01*
X48476310Y27865000D01*
X48709699Y27961673D01*
X48888327Y28140302D01*
X48985000Y28373691D01*
X48985000Y29214250D01*
X48826250Y29373000D01*
X47977000Y29373000D01*
X47777000Y29373000D01*
X47777000Y29647000D01*
X47977000Y29647000D01*
X47977000Y29627000D01*
X48826250Y29627000D01*
X48985000Y29785750D01*
X48985000Y30626309D01*
X48888327Y30859698D01*
X48709699Y31038327D01*
X48629854Y31071400D01*
X65476928Y31071400D01*
X65388705Y30939365D01*
X64650000Y30939365D01*
X64483393Y30906225D01*
X64342150Y30811850D01*
X64247775Y30670607D01*
X64214635Y30504000D01*
X64214635Y30181406D01*
X64149999Y30194263D01*
X64083323Y30181000D01*
X64083322Y30181000D01*
X63885848Y30141720D01*
X63661910Y29992090D01*
X63624138Y29935560D01*
X62814440Y29125862D01*
X62757910Y29088089D01*
X62608280Y28864151D01*
X62569000Y28666678D01*
X62555737Y28600000D01*
X62569000Y28533323D01*
X62569000Y28285872D01*
X62488150Y28231850D01*
X62393775Y28090607D01*
X62360635Y27924000D01*
X62360635Y27650999D01*
X57021976Y27650999D01*
X56913103Y27759872D01*
X56572392Y27900999D01*
X56203608Y27900999D01*
X56126481Y27869052D01*
X56107122Y27865201D01*
X54408877Y27865201D01*
X54342201Y27878464D01*
X54275524Y27865201D01*
X54275523Y27865201D01*
X54078049Y27825921D01*
X53854111Y27676291D01*
X53816339Y27619761D01*
X51870220Y25673642D01*
X51939000Y25839690D01*
X51939000Y26130250D01*
X51780250Y26289000D01*
X51179000Y26289000D01*
X51179000Y26269000D01*
X50929000Y26269000D01*
X50929000Y26289000D01*
X50907000Y26289000D01*
X50907000Y26543000D01*
X50929000Y26543000D01*
X50929000Y27342250D01*
X51179000Y27342250D01*
X51179000Y26543000D01*
X51780250Y26543000D01*
X51939000Y26701750D01*
X51939000Y26992310D01*
X51842327Y27225699D01*
X51663698Y27404327D01*
X51430309Y27501000D01*
X51337750Y27501000D01*
X51179000Y27342250D01*
X50929000Y27342250D01*
X50770250Y27501000D01*
X50677691Y27501000D01*
X50444302Y27404327D01*
X50265673Y27225699D01*
X50193549Y27051577D01*
X50111850Y27173850D01*
X49970607Y27268225D01*
X49804000Y27301365D01*
X49304000Y27301365D01*
X49137393Y27268225D01*
X48996150Y27173850D01*
X48901775Y27032607D01*
X48868635Y26866000D01*
X48868635Y26773000D01*
X48353774Y26773000D01*
X48278607Y26823225D01*
X48112000Y26856365D01*
X47052000Y26856365D01*
X46885393Y26823225D01*
X46744150Y26728850D01*
X46649775Y26587607D01*
X46616635Y26421000D01*
X46616635Y25771000D01*
X46646472Y25621000D01*
X46616635Y25471000D01*
X46616635Y24821000D01*
X46646472Y24671000D01*
X46616635Y24521000D01*
X46616635Y23871000D01*
X46649775Y23704393D01*
X46744150Y23563150D01*
X46885393Y23468775D01*
X46905000Y23464875D01*
X46905001Y23143049D01*
X46815393Y23125225D01*
X46674150Y23030850D01*
X46579775Y22889607D01*
X46546635Y22723000D01*
X46546635Y21473000D01*
X46557334Y21419211D01*
X46406666Y21419211D01*
X46417365Y21473000D01*
X46417365Y22723000D01*
X46384225Y22889607D01*
X46289850Y23030850D01*
X46148607Y23125225D01*
X46059000Y23143049D01*
X46059000Y23464875D01*
X46078607Y23468775D01*
X46219850Y23563150D01*
X46314225Y23704393D01*
X46347365Y23871000D01*
X46347365Y24358340D01*
X46450327Y24461301D01*
X46547000Y24694690D01*
X46547000Y24860250D01*
X46388250Y25019000D01*
X45509000Y25019000D01*
X45509000Y24999000D01*
X45255000Y24999000D01*
X45255000Y25019000D01*
X44375750Y25019000D01*
X44238156Y24881406D01*
X44233850Y24887850D01*
X44092607Y24982225D01*
X43926000Y25015365D01*
X43426000Y25015365D01*
X43259393Y24982225D01*
X43118150Y24887850D01*
X43023775Y24746607D01*
X42990635Y24580000D01*
X42990635Y24154624D01*
X42985737Y24130000D01*
X42990635Y24105376D01*
X42990635Y23680000D01*
X42997789Y23644032D01*
X42861365Y23780456D01*
X42861365Y24580000D01*
X42828225Y24746607D01*
X42733850Y24887850D01*
X42592607Y24982225D01*
X42426000Y25015365D01*
X41926000Y25015365D01*
X41759393Y24982225D01*
X41618150Y24887850D01*
X41523775Y24746607D01*
X41490635Y24580000D01*
X41490635Y23680000D01*
X41499000Y23637946D01*
X41499000Y23575076D01*
X41485737Y23508400D01*
X41499000Y23441724D01*
X41499000Y23441722D01*
X41524401Y23314021D01*
X36995365Y27843056D01*
X36995365Y29665001D01*
X37719325Y29665001D01*
X37786001Y29651738D01*
X37793374Y29653205D01*
X41704139Y25742438D01*
X41741910Y25685910D01*
X41798437Y25648140D01*
X41965847Y25536280D01*
X42230000Y25483737D01*
X42296678Y25497000D01*
X42687946Y25497000D01*
X42730000Y25488635D01*
X43630000Y25488635D01*
X43672054Y25497000D01*
X44217000Y25497000D01*
X44217000Y25431750D01*
X44375750Y25273000D01*
X45255000Y25273000D01*
X45255000Y25293000D01*
X45509000Y25293000D01*
X45509000Y25273000D01*
X46388250Y25273000D01*
X46547000Y25431750D01*
X46547000Y25597310D01*
X46450327Y25830699D01*
X46347365Y25933660D01*
X46347365Y26421000D01*
X46314225Y26587607D01*
X46219850Y26728850D01*
X46078607Y26823225D01*
X45912000Y26856365D01*
X45343705Y26856365D01*
X45304000Y26864263D01*
X45264295Y26856365D01*
X44852000Y26856365D01*
X44825028Y26851000D01*
X43672054Y26851000D01*
X43630000Y26859365D01*
X42730000Y26859365D01*
X42687946Y26851000D01*
X42510423Y26851000D01*
X38449859Y30911562D01*
X38412089Y30968089D01*
X38257473Y31071400D01*
X45479600Y31071400D01*
X45388705Y30935365D01*
X45388705Y30935365D01*
G37*
X45388705Y30935365D02*
X44650000Y30935365D01*
X44483393Y30902225D01*
X44342150Y30807850D01*
X44247775Y30666607D01*
X44214635Y30500000D01*
X44214635Y30177000D01*
X43765276Y30177000D01*
X43698599Y30190263D01*
X43631923Y30177000D01*
X43631922Y30177000D01*
X43434448Y30137720D01*
X43210510Y29988090D01*
X43172738Y29931560D01*
X42748441Y29507262D01*
X42691911Y29469490D01*
X42572156Y29290263D01*
X42542281Y29245552D01*
X42489737Y28981400D01*
X42503001Y28914719D01*
X42503000Y28285872D01*
X42422150Y28231850D01*
X42327775Y28090607D01*
X42294635Y27924000D01*
X42294635Y27424000D01*
X42327775Y27257393D01*
X42422150Y27116150D01*
X42563393Y27021775D01*
X42730000Y26988635D01*
X43155376Y26988635D01*
X43180000Y26983737D01*
X43204624Y26988635D01*
X43630000Y26988635D01*
X43796607Y27021775D01*
X43937850Y27116150D01*
X44032225Y27257393D01*
X44065365Y27424000D01*
X44065365Y27924000D01*
X44032225Y28090607D01*
X43937850Y28231850D01*
X43857000Y28285872D01*
X43857000Y28700979D01*
X43979022Y28823000D01*
X44214635Y28823000D01*
X44214635Y28500000D01*
X44247775Y28333393D01*
X44342150Y28192150D01*
X44483393Y28097775D01*
X44650000Y28064635D01*
X45388704Y28064635D01*
X45579335Y27779335D01*
X46001740Y27497093D01*
X46500000Y27397983D01*
X46998259Y27497093D01*
X47420665Y27779335D01*
X47477905Y27865000D01*
X47564250Y27865000D01*
X47723000Y28023750D01*
X47723000Y28302754D01*
X47777000Y28574231D01*
X47777000Y29373000D01*
X47977000Y29373000D01*
X47977000Y28023750D01*
X48135750Y27865000D01*
X48476310Y27865000D01*
X48709699Y27961673D01*
X48888327Y28140302D01*
X48985000Y28373691D01*
X48985000Y29214250D01*
X48826250Y29373000D01*
X47977000Y29373000D01*
X47777000Y29373000D01*
X47777000Y29647000D01*
X47977000Y29647000D01*
X47977000Y29627000D01*
X48826250Y29627000D01*
X48985000Y29785750D01*
X48985000Y30626309D01*
X48888327Y30859698D01*
X48709699Y31038327D01*
X48629854Y31071400D01*
X65476928Y31071400D01*
X65388705Y30939365D01*
X64650000Y30939365D01*
X64483393Y30906225D01*
X64342150Y30811850D01*
X64247775Y30670607D01*
X64214635Y30504000D01*
X64214635Y30181406D01*
X64149999Y30194263D01*
X64083323Y30181000D01*
X64083322Y30181000D01*
X63885848Y30141720D01*
X63661910Y29992090D01*
X63624138Y29935560D01*
X62814440Y29125862D01*
X62757910Y29088089D01*
X62608280Y28864151D01*
X62569000Y28666678D01*
X62555737Y28600000D01*
X62569000Y28533323D01*
X62569000Y28285872D01*
X62488150Y28231850D01*
X62393775Y28090607D01*
X62360635Y27924000D01*
X62360635Y27650999D01*
X57021976Y27650999D01*
X56913103Y27759872D01*
X56572392Y27900999D01*
X56203608Y27900999D01*
X56126481Y27869052D01*
X56107122Y27865201D01*
X54408877Y27865201D01*
X54342201Y27878464D01*
X54275524Y27865201D01*
X54275523Y27865201D01*
X54078049Y27825921D01*
X53854111Y27676291D01*
X53816339Y27619761D01*
X51870220Y25673642D01*
X51939000Y25839690D01*
X51939000Y26130250D01*
X51780250Y26289000D01*
X51179000Y26289000D01*
X51179000Y26269000D01*
X50929000Y26269000D01*
X50929000Y26289000D01*
X50907000Y26289000D01*
X50907000Y26543000D01*
X50929000Y26543000D01*
X50929000Y27342250D01*
X51179000Y27342250D01*
X51179000Y26543000D01*
X51780250Y26543000D01*
X51939000Y26701750D01*
X51939000Y26992310D01*
X51842327Y27225699D01*
X51663698Y27404327D01*
X51430309Y27501000D01*
X51337750Y27501000D01*
X51179000Y27342250D01*
X50929000Y27342250D01*
X50770250Y27501000D01*
X50677691Y27501000D01*
X50444302Y27404327D01*
X50265673Y27225699D01*
X50193549Y27051577D01*
X50111850Y27173850D01*
X49970607Y27268225D01*
X49804000Y27301365D01*
X49304000Y27301365D01*
X49137393Y27268225D01*
X48996150Y27173850D01*
X48901775Y27032607D01*
X48868635Y26866000D01*
X48868635Y26773000D01*
X48353774Y26773000D01*
X48278607Y26823225D01*
X48112000Y26856365D01*
X47052000Y26856365D01*
X46885393Y26823225D01*
X46744150Y26728850D01*
X46649775Y26587607D01*
X46616635Y26421000D01*
X46616635Y25771000D01*
X46646472Y25621000D01*
X46616635Y25471000D01*
X46616635Y24821000D01*
X46646472Y24671000D01*
X46616635Y24521000D01*
X46616635Y23871000D01*
X46649775Y23704393D01*
X46744150Y23563150D01*
X46885393Y23468775D01*
X46905000Y23464875D01*
X46905001Y23143049D01*
X46815393Y23125225D01*
X46674150Y23030850D01*
X46579775Y22889607D01*
X46546635Y22723000D01*
X46546635Y21473000D01*
X46557334Y21419211D01*
X46406666Y21419211D01*
X46417365Y21473000D01*
X46417365Y22723000D01*
X46384225Y22889607D01*
X46289850Y23030850D01*
X46148607Y23125225D01*
X46059000Y23143049D01*
X46059000Y23464875D01*
X46078607Y23468775D01*
X46219850Y23563150D01*
X46314225Y23704393D01*
X46347365Y23871000D01*
X46347365Y24358340D01*
X46450327Y24461301D01*
X46547000Y24694690D01*
X46547000Y24860250D01*
X46388250Y25019000D01*
X45509000Y25019000D01*
X45509000Y24999000D01*
X45255000Y24999000D01*
X45255000Y25019000D01*
X44375750Y25019000D01*
X44238156Y24881406D01*
X44233850Y24887850D01*
X44092607Y24982225D01*
X43926000Y25015365D01*
X43426000Y25015365D01*
X43259393Y24982225D01*
X43118150Y24887850D01*
X43023775Y24746607D01*
X42990635Y24580000D01*
X42990635Y24154624D01*
X42985737Y24130000D01*
X42990635Y24105376D01*
X42990635Y23680000D01*
X42997789Y23644032D01*
X42861365Y23780456D01*
X42861365Y24580000D01*
X42828225Y24746607D01*
X42733850Y24887850D01*
X42592607Y24982225D01*
X42426000Y25015365D01*
X41926000Y25015365D01*
X41759393Y24982225D01*
X41618150Y24887850D01*
X41523775Y24746607D01*
X41490635Y24580000D01*
X41490635Y23680000D01*
X41499000Y23637946D01*
X41499000Y23575076D01*
X41485737Y23508400D01*
X41499000Y23441724D01*
X41499000Y23441722D01*
X41524401Y23314021D01*
X36995365Y27843056D01*
X36995365Y29665001D01*
X37719325Y29665001D01*
X37786001Y29651738D01*
X37793374Y29653205D01*
X41704139Y25742438D01*
X41741910Y25685910D01*
X41798437Y25648140D01*
X41965847Y25536280D01*
X42230000Y25483737D01*
X42296678Y25497000D01*
X42687946Y25497000D01*
X42730000Y25488635D01*
X43630000Y25488635D01*
X43672054Y25497000D01*
X44217000Y25497000D01*
X44217000Y25431750D01*
X44375750Y25273000D01*
X45255000Y25273000D01*
X45255000Y25293000D01*
X45509000Y25293000D01*
X45509000Y25273000D01*
X46388250Y25273000D01*
X46547000Y25431750D01*
X46547000Y25597310D01*
X46450327Y25830699D01*
X46347365Y25933660D01*
X46347365Y26421000D01*
X46314225Y26587607D01*
X46219850Y26728850D01*
X46078607Y26823225D01*
X45912000Y26856365D01*
X45343705Y26856365D01*
X45304000Y26864263D01*
X45264295Y26856365D01*
X44852000Y26856365D01*
X44825028Y26851000D01*
X43672054Y26851000D01*
X43630000Y26859365D01*
X42730000Y26859365D01*
X42687946Y26851000D01*
X42510423Y26851000D01*
X38449859Y30911562D01*
X38412089Y30968089D01*
X38257473Y31071400D01*
X45479600Y31071400D01*
X45388705Y30935365D01*
G36*
X26181635Y21629000D02*
X26002365Y21629000D01*
X26002365Y21923000D01*
X26181635Y21923000D01*
X26181635Y21629000D01*
X26181635Y21629000D01*
G37*
X26181635Y21629000D02*
X26002365Y21629000D01*
X26002365Y21923000D01*
X26181635Y21923000D01*
X26181635Y21629000D01*
G36*
X51169000Y22987000D02*
X51189000Y22987000D01*
X51189000Y22733000D01*
X51169000Y22733000D01*
X51169000Y22713000D01*
X50915000Y22713000D01*
X50915000Y22733000D01*
X50895000Y22733000D01*
X50895000Y22987000D01*
X50915000Y22987000D01*
X50915000Y23007000D01*
X51169000Y23007000D01*
X51169000Y22987000D01*
X51169000Y22987000D01*
G37*
X51169000Y22987000D02*
X51189000Y22987000D01*
X51189000Y22733000D01*
X51169000Y22733000D01*
X51169000Y22713000D01*
X50915000Y22713000D01*
X50915000Y22733000D01*
X50895000Y22733000D01*
X50895000Y22987000D01*
X50915000Y22987000D01*
X50915000Y23007000D01*
X51169000Y23007000D01*
X51169000Y22987000D01*
G36*
X14593000Y22987000D02*
X14613000Y22987000D01*
X14613000Y22733000D01*
X14593000Y22733000D01*
X14593000Y22713000D01*
X14339000Y22713000D01*
X14339000Y22733000D01*
X14319000Y22733000D01*
X14319000Y22987000D01*
X14339000Y22987000D01*
X14339000Y23007000D01*
X14593000Y23007000D01*
X14593000Y22987000D01*
X14593000Y22987000D01*
G37*
X14593000Y22987000D02*
X14613000Y22987000D01*
X14613000Y22733000D01*
X14593000Y22733000D01*
X14593000Y22713000D01*
X14339000Y22713000D01*
X14339000Y22733000D01*
X14319000Y22733000D01*
X14319000Y22987000D01*
X14339000Y22987000D01*
X14339000Y23007000D01*
X14593000Y23007000D01*
X14593000Y22987000D01*
G36*
X55602127Y26448896D02*
X55862897Y26188126D01*
X55991047Y26135045D01*
X55821202Y25965199D01*
X54909026Y25965199D01*
X54852198Y25976503D01*
X54795370Y25965199D01*
X54627065Y25931721D01*
X54436205Y25804193D01*
X54404014Y25756015D01*
X52057174Y23409174D01*
X51980327Y23594699D01*
X51801698Y23773327D01*
X51578402Y23865819D01*
X51599850Y23880150D01*
X51653872Y23961000D01*
X51725324Y23961000D01*
X51792000Y23947737D01*
X51858676Y23961000D01*
X51858678Y23961000D01*
X52056152Y24000280D01*
X52280090Y24149910D01*
X52317864Y24206443D01*
X54622623Y26511201D01*
X55576319Y26511201D01*
X55602127Y26448896D01*
X55602127Y26448896D01*
G37*
X55602127Y26448896D02*
X55862897Y26188126D01*
X55991047Y26135045D01*
X55821202Y25965199D01*
X54909026Y25965199D01*
X54852198Y25976503D01*
X54795370Y25965199D01*
X54627065Y25931721D01*
X54436205Y25804193D01*
X54404014Y25756015D01*
X52057174Y23409174D01*
X51980327Y23594699D01*
X51801698Y23773327D01*
X51578402Y23865819D01*
X51599850Y23880150D01*
X51653872Y23961000D01*
X51725324Y23961000D01*
X51792000Y23947737D01*
X51858676Y23961000D01*
X51858678Y23961000D01*
X52056152Y24000280D01*
X52280090Y24149910D01*
X52317864Y24206443D01*
X54622623Y26511201D01*
X55576319Y26511201D01*
X55602127Y26448896D01*
G04 #@! TD*
M02*
