G04 #@! TF.GenerationSoftware,KiCad,Pcbnew,(6.0.0-rc1-dev-199-g6b039bc99)*
G04 #@! TF.CreationDate,2018-12-03T23:01:25+01:00*
G04 #@! TF.ProjectId,Ali-FM,416C692D464D2E6B696361645F706362,rev?*
G04 #@! TF.SameCoordinates,Original*
G04 #@! TF.FileFunction,Soldermask,Bot*
G04 #@! TF.FilePolarity,Negative*
%FSLAX46Y46*%
G04 Gerber Fmt 4.6, Leading zero omitted, Abs format (unit mm)*
G04 Created by KiCad (PCBNEW (6.0.0-rc1-dev-199-g6b039bc99)) date Mon Dec  3 23:01:25 2018*
%MOMM*%
%LPD*%
G01*
G04 APERTURE LIST*
%ADD10C,0.100000*%
G04 APERTURE END LIST*
D10*
G36*
X47706502Y3740611D02*
X47906990Y3679793D01*
X48091759Y3581033D01*
X48091762Y3581031D01*
X48091763Y3581030D01*
X48253718Y3448118D01*
X48253719Y3448116D01*
X48253721Y3448115D01*
X48386631Y3286164D01*
X48485393Y3101391D01*
X48546211Y2900903D01*
X48561600Y2744651D01*
X48561600Y2335350D01*
X48546211Y2179098D01*
X48485393Y1978610D01*
X48386633Y1793841D01*
X48386631Y1793838D01*
X48386630Y1793837D01*
X48253718Y1631882D01*
X48253716Y1631881D01*
X48253715Y1631879D01*
X48091764Y1498969D01*
X47906991Y1400207D01*
X47706503Y1339389D01*
X47498000Y1318854D01*
X47289498Y1339389D01*
X47089010Y1400207D01*
X46904237Y1498969D01*
X46742283Y1631882D01*
X46609372Y1793835D01*
X46609370Y1793837D01*
X46510607Y1978609D01*
X46491289Y2042292D01*
X46449789Y2179097D01*
X46434400Y2335349D01*
X46434400Y2744650D01*
X46449789Y2900902D01*
X46510607Y3101390D01*
X46609367Y3286159D01*
X46742280Y3448115D01*
X46742282Y3448118D01*
X46742284Y3448119D01*
X46742285Y3448121D01*
X46904236Y3581031D01*
X47089009Y3679793D01*
X47289497Y3740611D01*
X47498000Y3761146D01*
X47706502Y3740611D01*
X47706502Y3740611D01*
G37*
G36*
X42626502Y3740611D02*
X42826990Y3679793D01*
X43011759Y3581033D01*
X43011762Y3581031D01*
X43011763Y3581030D01*
X43173718Y3448118D01*
X43173719Y3448116D01*
X43173721Y3448115D01*
X43306631Y3286164D01*
X43405393Y3101391D01*
X43466211Y2900903D01*
X43481600Y2744651D01*
X43481600Y2335350D01*
X43466211Y2179098D01*
X43405393Y1978610D01*
X43306633Y1793841D01*
X43306631Y1793838D01*
X43306630Y1793837D01*
X43173718Y1631882D01*
X43173716Y1631881D01*
X43173715Y1631879D01*
X43011764Y1498969D01*
X42826991Y1400207D01*
X42626503Y1339389D01*
X42418000Y1318854D01*
X42209498Y1339389D01*
X42009010Y1400207D01*
X41824237Y1498969D01*
X41662283Y1631882D01*
X41529372Y1793835D01*
X41529370Y1793837D01*
X41430607Y1978609D01*
X41411289Y2042292D01*
X41369789Y2179097D01*
X41354400Y2335349D01*
X41354400Y2744650D01*
X41369789Y2900902D01*
X41430607Y3101390D01*
X41529367Y3286159D01*
X41662280Y3448115D01*
X41662282Y3448118D01*
X41662284Y3448119D01*
X41662285Y3448121D01*
X41824236Y3581031D01*
X42009009Y3679793D01*
X42209497Y3740611D01*
X42418000Y3761146D01*
X42626502Y3740611D01*
X42626502Y3740611D01*
G37*
G36*
X45166502Y3740611D02*
X45366990Y3679793D01*
X45551759Y3581033D01*
X45551762Y3581031D01*
X45551763Y3581030D01*
X45713718Y3448118D01*
X45713719Y3448116D01*
X45713721Y3448115D01*
X45846631Y3286164D01*
X45945393Y3101391D01*
X46006211Y2900903D01*
X46021600Y2744651D01*
X46021600Y2335350D01*
X46006211Y2179098D01*
X45945393Y1978610D01*
X45846633Y1793841D01*
X45846631Y1793838D01*
X45846630Y1793837D01*
X45713718Y1631882D01*
X45713716Y1631881D01*
X45713715Y1631879D01*
X45551764Y1498969D01*
X45366991Y1400207D01*
X45166503Y1339389D01*
X44958000Y1318854D01*
X44749498Y1339389D01*
X44549010Y1400207D01*
X44364237Y1498969D01*
X44202283Y1631882D01*
X44069372Y1793835D01*
X44069370Y1793837D01*
X43970607Y1978609D01*
X43951289Y2042292D01*
X43909789Y2179097D01*
X43894400Y2335349D01*
X43894400Y2744650D01*
X43909789Y2900902D01*
X43970607Y3101390D01*
X44069367Y3286159D01*
X44202280Y3448115D01*
X44202282Y3448118D01*
X44202284Y3448119D01*
X44202285Y3448121D01*
X44364236Y3581031D01*
X44549009Y3679793D01*
X44749497Y3740611D01*
X44958000Y3761146D01*
X45166502Y3740611D01*
X45166502Y3740611D01*
G37*
G36*
X40941600Y1324000D02*
X38814400Y1324000D01*
X38814400Y3756000D01*
X40941600Y3756000D01*
X40941600Y1324000D01*
X40941600Y1324000D01*
G37*
G36*
X66159281Y6290135D02*
X66278378Y6278405D01*
X66431189Y6232050D01*
X66507595Y6208873D01*
X66564052Y6178696D01*
X66718842Y6095959D01*
X66904002Y5944002D01*
X67055959Y5758842D01*
X67138696Y5604052D01*
X67168873Y5547595D01*
X67168873Y5547594D01*
X67238405Y5318378D01*
X67261883Y5080000D01*
X67238405Y4841622D01*
X67192050Y4688811D01*
X67168873Y4612405D01*
X67138696Y4555948D01*
X67055959Y4401158D01*
X66904002Y4215998D01*
X66718842Y4064041D01*
X66582640Y3991240D01*
X66562266Y3977626D01*
X66544939Y3960299D01*
X66531325Y3939924D01*
X66521947Y3917285D01*
X66517167Y3893252D01*
X66517167Y3868748D01*
X66521948Y3844714D01*
X66531325Y3822075D01*
X66544939Y3801701D01*
X66562266Y3784374D01*
X66582641Y3770760D01*
X66605280Y3761382D01*
X66641565Y3756000D01*
X67256000Y3756000D01*
X67256000Y1324000D01*
X64824000Y1324000D01*
X64824000Y3756000D01*
X65438435Y3756000D01*
X65462821Y3758402D01*
X65486270Y3765515D01*
X65507881Y3777066D01*
X65526823Y3792612D01*
X65542369Y3811554D01*
X65553920Y3833165D01*
X65561033Y3856614D01*
X65563435Y3881000D01*
X65561033Y3905386D01*
X65553920Y3928835D01*
X65542369Y3950446D01*
X65526823Y3969388D01*
X65497360Y3991240D01*
X65361158Y4064041D01*
X65175998Y4215998D01*
X65024041Y4401158D01*
X64941304Y4555948D01*
X64911127Y4612405D01*
X64887950Y4688811D01*
X64841595Y4841622D01*
X64818117Y5080000D01*
X64841595Y5318378D01*
X64911127Y5547594D01*
X64911127Y5547595D01*
X64941304Y5604052D01*
X65024041Y5758842D01*
X65175998Y5944002D01*
X65361158Y6095959D01*
X65515948Y6178696D01*
X65572405Y6208873D01*
X65648811Y6232050D01*
X65801622Y6278405D01*
X65920719Y6290135D01*
X65980267Y6296000D01*
X66099733Y6296000D01*
X66159281Y6290135D01*
X66159281Y6290135D01*
G37*
G36*
X55326503Y12986211D02*
X55526991Y12925393D01*
X55711764Y12826631D01*
X55873718Y12693718D01*
X56006631Y12531764D01*
X56105393Y12346991D01*
X56166211Y12146503D01*
X56186746Y11938000D01*
X56166211Y11729497D01*
X56105393Y11529009D01*
X56006631Y11344236D01*
X55873718Y11182282D01*
X55711764Y11049369D01*
X55526991Y10950607D01*
X55326503Y10889789D01*
X55170251Y10874400D01*
X55065749Y10874400D01*
X54909497Y10889789D01*
X54709009Y10950607D01*
X54524236Y11049369D01*
X54362282Y11182282D01*
X54229369Y11344236D01*
X54130607Y11529009D01*
X54069789Y11729497D01*
X54049254Y11938000D01*
X54069789Y12146503D01*
X54130607Y12346991D01*
X54229369Y12531764D01*
X54362282Y12693718D01*
X54524236Y12826631D01*
X54709009Y12925393D01*
X54909497Y12986211D01*
X55065749Y13001600D01*
X55170251Y13001600D01*
X55326503Y12986211D01*
X55326503Y12986211D01*
G37*
G36*
X58721600Y10874400D02*
X56594400Y10874400D01*
X56594400Y13001600D01*
X58721600Y13001600D01*
X58721600Y10874400D01*
X58721600Y10874400D01*
G37*
G36*
X55326503Y15526211D02*
X55526991Y15465393D01*
X55711764Y15366631D01*
X55873718Y15233718D01*
X56006631Y15071764D01*
X56105393Y14886991D01*
X56166211Y14686503D01*
X56186746Y14478000D01*
X56166211Y14269497D01*
X56105393Y14069009D01*
X56006631Y13884236D01*
X55873718Y13722282D01*
X55711764Y13589369D01*
X55526991Y13490607D01*
X55326503Y13429789D01*
X55170251Y13414400D01*
X55065749Y13414400D01*
X54909497Y13429789D01*
X54709009Y13490607D01*
X54524236Y13589369D01*
X54362282Y13722282D01*
X54229369Y13884236D01*
X54130607Y14069009D01*
X54069789Y14269497D01*
X54049254Y14478000D01*
X54069789Y14686503D01*
X54130607Y14886991D01*
X54229369Y15071764D01*
X54362282Y15233718D01*
X54524236Y15366631D01*
X54709009Y15465393D01*
X54909497Y15526211D01*
X55065749Y15541600D01*
X55170251Y15541600D01*
X55326503Y15526211D01*
X55326503Y15526211D01*
G37*
G36*
X57866503Y15526211D02*
X58066991Y15465393D01*
X58251764Y15366631D01*
X58413718Y15233718D01*
X58546631Y15071764D01*
X58645393Y14886991D01*
X58706211Y14686503D01*
X58726746Y14478000D01*
X58706211Y14269497D01*
X58645393Y14069009D01*
X58546631Y13884236D01*
X58413718Y13722282D01*
X58251764Y13589369D01*
X58066991Y13490607D01*
X57866503Y13429789D01*
X57710251Y13414400D01*
X57605749Y13414400D01*
X57449497Y13429789D01*
X57249009Y13490607D01*
X57064236Y13589369D01*
X56902282Y13722282D01*
X56769369Y13884236D01*
X56670607Y14069009D01*
X56609789Y14269497D01*
X56589254Y14478000D01*
X56609789Y14686503D01*
X56670607Y14886991D01*
X56769369Y15071764D01*
X56902282Y15233718D01*
X57064236Y15366631D01*
X57249009Y15465393D01*
X57449497Y15526211D01*
X57605749Y15541600D01*
X57710251Y15541600D01*
X57866503Y15526211D01*
X57866503Y15526211D01*
G37*
G36*
X57866503Y18066211D02*
X58066991Y18005393D01*
X58251764Y17906631D01*
X58413718Y17773718D01*
X58546631Y17611764D01*
X58645393Y17426991D01*
X58706211Y17226503D01*
X58726746Y17018000D01*
X58706211Y16809497D01*
X58645393Y16609009D01*
X58546631Y16424236D01*
X58413718Y16262282D01*
X58251764Y16129369D01*
X58066991Y16030607D01*
X57866503Y15969789D01*
X57710251Y15954400D01*
X57605749Y15954400D01*
X57449497Y15969789D01*
X57249009Y16030607D01*
X57064236Y16129369D01*
X56902282Y16262282D01*
X56769369Y16424236D01*
X56670607Y16609009D01*
X56609789Y16809497D01*
X56589254Y17018000D01*
X56609789Y17226503D01*
X56670607Y17426991D01*
X56769369Y17611764D01*
X56902282Y17773718D01*
X57064236Y17906631D01*
X57249009Y18005393D01*
X57449497Y18066211D01*
X57605749Y18081600D01*
X57710251Y18081600D01*
X57866503Y18066211D01*
X57866503Y18066211D01*
G37*
G36*
X55326503Y18066211D02*
X55526991Y18005393D01*
X55711764Y17906631D01*
X55873718Y17773718D01*
X56006631Y17611764D01*
X56105393Y17426991D01*
X56166211Y17226503D01*
X56186746Y17018000D01*
X56166211Y16809497D01*
X56105393Y16609009D01*
X56006631Y16424236D01*
X55873718Y16262282D01*
X55711764Y16129369D01*
X55526991Y16030607D01*
X55326503Y15969789D01*
X55170251Y15954400D01*
X55065749Y15954400D01*
X54909497Y15969789D01*
X54709009Y16030607D01*
X54524236Y16129369D01*
X54362282Y16262282D01*
X54229369Y16424236D01*
X54130607Y16609009D01*
X54069789Y16809497D01*
X54049254Y17018000D01*
X54069789Y17226503D01*
X54130607Y17426991D01*
X54229369Y17611764D01*
X54362282Y17773718D01*
X54524236Y17906631D01*
X54709009Y18005393D01*
X54909497Y18066211D01*
X55065749Y18081600D01*
X55170251Y18081600D01*
X55326503Y18066211D01*
X55326503Y18066211D01*
G37*
G36*
X36106253Y25638199D02*
X36376730Y25584398D01*
X36587799Y25496970D01*
X36886296Y25373329D01*
X37344899Y25066900D01*
X37734900Y24676899D01*
X38041329Y24218296D01*
X38252398Y23708729D01*
X38360000Y23167777D01*
X38360000Y22616223D01*
X38252398Y22075271D01*
X38041329Y21565704D01*
X37734900Y21107101D01*
X37344899Y20717100D01*
X36886296Y20410671D01*
X36587799Y20287030D01*
X36376730Y20199602D01*
X36106253Y20145801D01*
X35835777Y20092000D01*
X35284223Y20092000D01*
X35013747Y20145801D01*
X34743270Y20199602D01*
X34532201Y20287030D01*
X34233704Y20410671D01*
X33775101Y20717100D01*
X33385100Y21107101D01*
X33078671Y21565704D01*
X32867602Y22075271D01*
X32760000Y22616223D01*
X32760000Y23167777D01*
X32867602Y23708729D01*
X33078671Y24218296D01*
X33385100Y24676899D01*
X33775101Y25066900D01*
X34233704Y25373329D01*
X34532201Y25496970D01*
X34743270Y25584398D01*
X35013747Y25638199D01*
X35284223Y25692000D01*
X35835777Y25692000D01*
X36106253Y25638199D01*
X36106253Y25638199D01*
G37*
G36*
X9705836Y31334807D02*
X9837787Y31294780D01*
X9903763Y31274767D01*
X10086172Y31177267D01*
X10246054Y31046054D01*
X10377267Y30886172D01*
X10474767Y30703763D01*
X10474767Y30703762D01*
X10534807Y30505836D01*
X10550000Y30351578D01*
X10550000Y28648422D01*
X10534807Y28494164D01*
X10494780Y28362213D01*
X10474767Y28296237D01*
X10377267Y28113828D01*
X10249337Y27957946D01*
X10246054Y27953946D01*
X10086171Y27822733D01*
X9967300Y27759195D01*
X9903762Y27725233D01*
X9837786Y27705220D01*
X9705835Y27665193D01*
X9500000Y27644920D01*
X9294164Y27665193D01*
X9162213Y27705220D01*
X9096237Y27725233D01*
X8913828Y27822733D01*
X8753946Y27953946D01*
X8750663Y27957946D01*
X8622733Y28113829D01*
X8525234Y28296237D01*
X8525233Y28296238D01*
X8505220Y28362214D01*
X8465193Y28494165D01*
X8450000Y28648423D01*
X8450000Y30351578D01*
X8450394Y30355580D01*
X8465193Y30505832D01*
X8466407Y30509834D01*
X8525234Y30703762D01*
X8527373Y30707764D01*
X8622734Y30886172D01*
X8753947Y31046054D01*
X8913829Y31177267D01*
X9096238Y31274767D01*
X9162214Y31294780D01*
X9294165Y31334807D01*
X9500000Y31355080D01*
X9705836Y31334807D01*
X9705836Y31334807D01*
G37*
G36*
X46705836Y31334807D02*
X46837787Y31294780D01*
X46903763Y31274767D01*
X47086172Y31177267D01*
X47246054Y31046054D01*
X47377267Y30886172D01*
X47474767Y30703763D01*
X47474767Y30703762D01*
X47534807Y30505836D01*
X47550000Y30351578D01*
X47550000Y28648422D01*
X47534807Y28494164D01*
X47494780Y28362213D01*
X47474767Y28296237D01*
X47377267Y28113828D01*
X47249337Y27957946D01*
X47246054Y27953946D01*
X47086171Y27822733D01*
X46967300Y27759195D01*
X46903762Y27725233D01*
X46837786Y27705220D01*
X46705835Y27665193D01*
X46500000Y27644920D01*
X46294164Y27665193D01*
X46162213Y27705220D01*
X46096237Y27725233D01*
X45913828Y27822733D01*
X45753946Y27953946D01*
X45750663Y27957946D01*
X45622733Y28113829D01*
X45525234Y28296237D01*
X45525233Y28296238D01*
X45505220Y28362214D01*
X45465193Y28494165D01*
X45450000Y28648423D01*
X45450000Y30351578D01*
X45450394Y30355580D01*
X45465193Y30505832D01*
X45466407Y30509834D01*
X45525234Y30703762D01*
X45527373Y30707764D01*
X45622734Y30886172D01*
X45753947Y31046054D01*
X45913829Y31177267D01*
X46096238Y31274767D01*
X46162214Y31294780D01*
X46294165Y31334807D01*
X46500000Y31355080D01*
X46705836Y31334807D01*
X46705836Y31334807D01*
G37*
G36*
X66705836Y31338807D02*
X66837787Y31298780D01*
X66903763Y31278767D01*
X67086172Y31181267D01*
X67246054Y31050054D01*
X67377267Y30890172D01*
X67474767Y30707763D01*
X67494780Y30641787D01*
X67534807Y30509836D01*
X67550000Y30355578D01*
X67550000Y28652422D01*
X67534807Y28498164D01*
X67494780Y28366213D01*
X67474767Y28300237D01*
X67377267Y28117828D01*
X67246054Y27957946D01*
X67086171Y27826733D01*
X66967300Y27763195D01*
X66903762Y27729233D01*
X66837786Y27709220D01*
X66705835Y27669193D01*
X66500000Y27648920D01*
X66294164Y27669193D01*
X66162213Y27709220D01*
X66096237Y27729233D01*
X65913828Y27826733D01*
X65753946Y27957946D01*
X65622733Y28117829D01*
X65527372Y28296237D01*
X65525233Y28300238D01*
X65466407Y28494164D01*
X65465193Y28498165D01*
X65450000Y28652423D01*
X65450000Y30355580D01*
X65465193Y30509832D01*
X65524021Y30703763D01*
X65525234Y30707762D01*
X65525235Y30707764D01*
X65622734Y30890172D01*
X65753947Y31050054D01*
X65913829Y31181267D01*
X66096238Y31278767D01*
X66162214Y31298780D01*
X66294165Y31338807D01*
X66500000Y31359080D01*
X66705836Y31338807D01*
X66705836Y31338807D01*
G37*
G36*
X3525888Y39455530D02*
X3706274Y39419650D01*
X3897362Y39340498D01*
X4069336Y39225589D01*
X4215589Y39079336D01*
X4330498Y38907362D01*
X4409650Y38716274D01*
X4450000Y38513416D01*
X4450000Y38306584D01*
X4409650Y38103726D01*
X4330498Y37912638D01*
X4215589Y37740664D01*
X4069336Y37594411D01*
X3897362Y37479502D01*
X3706274Y37400350D01*
X3525888Y37364470D01*
X3503417Y37360000D01*
X3296583Y37360000D01*
X3274112Y37364470D01*
X3093726Y37400350D01*
X2902638Y37479502D01*
X2730664Y37594411D01*
X2584411Y37740664D01*
X2469502Y37912638D01*
X2390350Y38103726D01*
X2350000Y38306584D01*
X2350000Y38513416D01*
X2390350Y38716274D01*
X2469502Y38907362D01*
X2584411Y39079336D01*
X2730664Y39225589D01*
X2902638Y39340498D01*
X3093726Y39419650D01*
X3274112Y39455530D01*
X3296583Y39460000D01*
X3503417Y39460000D01*
X3525888Y39455530D01*
X3525888Y39455530D01*
G37*
G36*
X3525888Y41995530D02*
X3706274Y41959650D01*
X3897362Y41880498D01*
X4069336Y41765589D01*
X4215589Y41619336D01*
X4330498Y41447362D01*
X4409650Y41256274D01*
X4450000Y41053416D01*
X4450000Y40846584D01*
X4409650Y40643726D01*
X4330498Y40452638D01*
X4215589Y40280664D01*
X4069336Y40134411D01*
X3897362Y40019502D01*
X3706274Y39940350D01*
X3525888Y39904470D01*
X3503417Y39900000D01*
X3296583Y39900000D01*
X3274112Y39904470D01*
X3093726Y39940350D01*
X2902638Y40019502D01*
X2730664Y40134411D01*
X2584411Y40280664D01*
X2469502Y40452638D01*
X2390350Y40643726D01*
X2350000Y40846584D01*
X2350000Y41053416D01*
X2390350Y41256274D01*
X2469502Y41447362D01*
X2584411Y41619336D01*
X2730664Y41765589D01*
X2902638Y41880498D01*
X3093726Y41959650D01*
X3274112Y41995530D01*
X3296583Y42000000D01*
X3503417Y42000000D01*
X3525888Y41995530D01*
X3525888Y41995530D01*
G37*
G36*
X74725888Y44535530D02*
X74906274Y44499650D01*
X75097362Y44420498D01*
X75269336Y44305589D01*
X75415589Y44159336D01*
X75530498Y43987362D01*
X75609650Y43796274D01*
X75650000Y43593416D01*
X75650000Y43386584D01*
X75609650Y43183726D01*
X75530498Y42992638D01*
X75415589Y42820664D01*
X75269336Y42674411D01*
X75097362Y42559502D01*
X74906274Y42480350D01*
X74725888Y42444470D01*
X74703417Y42440000D01*
X74496583Y42440000D01*
X74474112Y42444470D01*
X74293726Y42480350D01*
X74102638Y42559502D01*
X73930664Y42674411D01*
X73784411Y42820664D01*
X73669502Y42992638D01*
X73590350Y43183726D01*
X73550000Y43386584D01*
X73550000Y43593416D01*
X73590350Y43796274D01*
X73669502Y43987362D01*
X73784411Y44159336D01*
X73930664Y44305589D01*
X74102638Y44420498D01*
X74293726Y44499650D01*
X74474112Y44535530D01*
X74496583Y44540000D01*
X74703417Y44540000D01*
X74725888Y44535530D01*
X74725888Y44535530D01*
G37*
G36*
X3525888Y44535530D02*
X3706274Y44499650D01*
X3897362Y44420498D01*
X4069336Y44305589D01*
X4215589Y44159336D01*
X4330498Y43987362D01*
X4409650Y43796274D01*
X4450000Y43593416D01*
X4450000Y43386584D01*
X4409650Y43183726D01*
X4330498Y42992638D01*
X4215589Y42820664D01*
X4069336Y42674411D01*
X3897362Y42559502D01*
X3706274Y42480350D01*
X3525888Y42444470D01*
X3503417Y42440000D01*
X3296583Y42440000D01*
X3274112Y42444470D01*
X3093726Y42480350D01*
X2902638Y42559502D01*
X2730664Y42674411D01*
X2584411Y42820664D01*
X2469502Y42992638D01*
X2390350Y43183726D01*
X2350000Y43386584D01*
X2350000Y43593416D01*
X2390350Y43796274D01*
X2469502Y43987362D01*
X2584411Y44159336D01*
X2730664Y44305589D01*
X2902638Y44420498D01*
X3093726Y44499650D01*
X3274112Y44535530D01*
X3296583Y44540000D01*
X3503417Y44540000D01*
X3525888Y44535530D01*
X3525888Y44535530D01*
G37*
G36*
X74725888Y47075530D02*
X74906274Y47039650D01*
X75097362Y46960498D01*
X75269336Y46845589D01*
X75415589Y46699336D01*
X75530498Y46527362D01*
X75609650Y46336274D01*
X75650000Y46133416D01*
X75650000Y45926584D01*
X75609650Y45723726D01*
X75530498Y45532638D01*
X75415589Y45360664D01*
X75269336Y45214411D01*
X75097362Y45099502D01*
X74906274Y45020350D01*
X74725888Y44984470D01*
X74703417Y44980000D01*
X74496583Y44980000D01*
X74474112Y44984470D01*
X74293726Y45020350D01*
X74102638Y45099502D01*
X73930664Y45214411D01*
X73784411Y45360664D01*
X73669502Y45532638D01*
X73590350Y45723726D01*
X73550000Y45926584D01*
X73550000Y46133416D01*
X73590350Y46336274D01*
X73669502Y46527362D01*
X73784411Y46699336D01*
X73930664Y46845589D01*
X74102638Y46960498D01*
X74293726Y47039650D01*
X74474112Y47075530D01*
X74496583Y47080000D01*
X74703417Y47080000D01*
X74725888Y47075530D01*
X74725888Y47075530D01*
G37*
G36*
X3525888Y47075530D02*
X3706274Y47039650D01*
X3897362Y46960498D01*
X4069336Y46845589D01*
X4215589Y46699336D01*
X4330498Y46527362D01*
X4409650Y46336274D01*
X4450000Y46133416D01*
X4450000Y45926584D01*
X4409650Y45723726D01*
X4330498Y45532638D01*
X4215589Y45360664D01*
X4069336Y45214411D01*
X3897362Y45099502D01*
X3706274Y45020350D01*
X3525888Y44984470D01*
X3503417Y44980000D01*
X3296583Y44980000D01*
X3274112Y44984470D01*
X3093726Y45020350D01*
X2902638Y45099502D01*
X2730664Y45214411D01*
X2584411Y45360664D01*
X2469502Y45532638D01*
X2390350Y45723726D01*
X2350000Y45926584D01*
X2350000Y46133416D01*
X2390350Y46336274D01*
X2469502Y46527362D01*
X2584411Y46699336D01*
X2730664Y46845589D01*
X2902638Y46960498D01*
X3093726Y47039650D01*
X3274112Y47075530D01*
X3296583Y47080000D01*
X3503417Y47080000D01*
X3525888Y47075530D01*
X3525888Y47075530D01*
G37*
G36*
X3525888Y49615530D02*
X3706274Y49579650D01*
X3897362Y49500498D01*
X4069336Y49385589D01*
X4215589Y49239336D01*
X4330498Y49067362D01*
X4409650Y48876274D01*
X4450000Y48673416D01*
X4450000Y48466584D01*
X4409650Y48263726D01*
X4330498Y48072638D01*
X4215589Y47900664D01*
X4069336Y47754411D01*
X3897362Y47639502D01*
X3706274Y47560350D01*
X3525888Y47524470D01*
X3503417Y47520000D01*
X3296583Y47520000D01*
X3274112Y47524470D01*
X3093726Y47560350D01*
X2902638Y47639502D01*
X2730664Y47754411D01*
X2584411Y47900664D01*
X2469502Y48072638D01*
X2390350Y48263726D01*
X2350000Y48466584D01*
X2350000Y48673416D01*
X2390350Y48876274D01*
X2469502Y49067362D01*
X2584411Y49239336D01*
X2730664Y49385589D01*
X2902638Y49500498D01*
X3093726Y49579650D01*
X3274112Y49615530D01*
X3296583Y49620000D01*
X3503417Y49620000D01*
X3525888Y49615530D01*
X3525888Y49615530D01*
G37*
G36*
X3525888Y52155530D02*
X3706274Y52119650D01*
X3897362Y52040498D01*
X4069336Y51925589D01*
X4215589Y51779336D01*
X4330498Y51607362D01*
X4409650Y51416274D01*
X4450000Y51213416D01*
X4450000Y51006584D01*
X4409650Y50803726D01*
X4330498Y50612638D01*
X4215589Y50440664D01*
X4069336Y50294411D01*
X3897362Y50179502D01*
X3706274Y50100350D01*
X3525888Y50064470D01*
X3503417Y50060000D01*
X3296583Y50060000D01*
X3274112Y50064470D01*
X3093726Y50100350D01*
X2902638Y50179502D01*
X2730664Y50294411D01*
X2584411Y50440664D01*
X2469502Y50612638D01*
X2390350Y50803726D01*
X2350000Y51006584D01*
X2350000Y51213416D01*
X2390350Y51416274D01*
X2469502Y51607362D01*
X2584411Y51779336D01*
X2730664Y51925589D01*
X2902638Y52040498D01*
X3093726Y52119650D01*
X3274112Y52155530D01*
X3296583Y52160000D01*
X3503417Y52160000D01*
X3525888Y52155530D01*
X3525888Y52155530D01*
G37*
M02*
