M48
;DRILL file {KiCad (6.0.0-rc1-dev-199-g6b039bc99)} date Mon Dec  3 23:01:28 2018
;FORMAT={3:3/ absolute / metric / suppress leading zeros}
FMAT,2
METRIC,TZ
T1C0.400
T2C0.500
T3C1.000
T4C1.016
T5C1.700
T6C5.200
%
G90
G05
M71
T1
X5143Y22723
X17907Y20015
X17932Y22327
X20904Y21793
X21158Y23444
X23639Y23464
X25278Y24558
X26331Y20376
X42875Y22809
X62890Y22835
T2
X17932Y24435
X18542Y17780
X18767Y15723
X20506Y13276
X22352Y15582
X22591Y17352
X24181Y24486
X24460Y28016
X25315Y11737
X25654Y15138
X25654Y8331
X25705Y5613
X27305Y15418
X27323Y7131
X28778Y3683
X29286Y22733
X32029Y12217
X32766Y18157
X33731Y27737
X34519Y12217
X35331Y9398
X37592Y12116
X37617Y8357
X37643Y13335
X37846Y18796
X37846Y17526
X37846Y16002
X37846Y14732
X41681Y5486
X45521Y4756
X47701Y4597
X51359Y4674
X54889Y6833
X55321Y28270
X55321Y26238
X55372Y24155
X56388Y26974
T3
X3400Y51110
X3400Y48570
X3400Y46030
X3400Y43490
X3400Y40950
X3400Y38410
X74600Y46030
X74600Y43490
T4
X55118Y17018
X55118Y14478
X55118Y11938
X57658Y17018
X57658Y14478
X57658Y11938
X39878Y2540
X42418Y2540
X44958Y2540
X47498Y2540
X66040Y5080
X66040Y2540
T6
X35560Y22892
T5
X9500Y30300G85X9500Y28700
G05
X46500Y30300G85X46500Y28700
G05
X66500Y30304G85X66500Y28704
G05
T0
M30
